M48
; DRILL file {KiCad (5.1.9)-1} date 08/25/21 16:21:09
; FORMAT={-:-/ absolute / inch / decimal}
; #@! TF.CreationDate,2021-08-25T16:21:09-05:00
; #@! TF.GenerationSoftware,Kicad,Pcbnew,(5.1.9)-1
; #@! TF.FileFunction,Plated,1,2,PTH
FMAT,2
INCH
T1C0.0118
T2C0.0157
T3C0.0236
T4C0.0295
T5C0.0320
T6C0.0394
T7C0.0579
%
G90
G05
T1
X1.4874Y-1.6774
X1.9274Y-2.4174
X2.8374Y-4.7574
X2.8674Y-2.4574
X2.8874Y-5.1124
X2.8874Y-5.2126
X3.6274Y-2.4774
X4.3373Y-2.4974
X5.1274Y-2.5174
X5.8674Y-2.5374
X6.0121Y-5.1974
X6.5874Y-2.5574
X7.3674Y-2.5774
X8.1274Y-2.5974
X8.4624Y-5.1974
X9.0245Y-3.2004
X9.8074Y-3.2174
X10.1474Y-5.1574
X10.3874Y-2.3374
X11.1274Y-2.6774
X11.5274Y-2.3374
X11.5474Y-1.6374
X11.7874Y-2.1
X11.8274Y-2.5674
X12.1474Y-1.5174
X12.1674Y-1.5674
X12.1874Y-1.6174
X12.2074Y-1.6674
X12.2274Y-1.7174
X12.2374Y-1.2124
X12.2474Y-1.7674
X12.2574Y-3.1574
X12.2674Y-1.8174
X12.2774Y-2.5474
X12.2774Y-3.1874
X12.2874Y-1.8674
X12.2874Y-4.9574
X12.3074Y-1.9174
T2
X1.4062Y-1.1324
X1.4062Y-1.8824
X1.4611Y-1.1324
X1.4611Y-1.8824
X1.4999Y-4.8821
X1.555Y-4.8821
X1.5936Y-2.6323
X1.6249Y-1.1874
X1.6249Y-1.9374
X1.6486Y-2.6323
X1.6561Y-1.1874
X1.6561Y-1.9374
X1.6874Y-3.3823
X1.7186Y-4.9372
X1.7424Y-3.3823
X1.7499Y-4.9372
X1.7736Y-1.1324
X1.7736Y-1.8824
X1.8049Y-1.1324
X1.8049Y-1.8824
X1.8124Y-2.6873
X1.8436Y-2.6873
X1.8674Y-1.1324
X1.8674Y-1.8824
X1.8749Y-4.1322
X1.8986Y-1.1324
X1.8986Y-1.8824
X1.9061Y-3.4373
X1.9299Y-4.1322
X1.9374Y-3.4373
X1.9611Y-2.6323
X1.9924Y-2.6323
X2.0549Y-2.6323
X2.0549Y-3.3823
X2.0861Y-2.6323
X2.0861Y-3.3823
X2.0936Y-4.1872
X2.1249Y-4.1872
X2.1486Y-3.3823
X2.1561Y-1.1324
X2.1561Y-1.8824
X2.1798Y-3.3823
X2.2111Y-1.1324
X2.2111Y-1.8824
X2.2423Y-4.1322
X2.2736Y-4.1322
X2.2737Y-4.8821
X2.3361Y-4.1322
X2.351Y-4.8821
X2.3673Y-4.1322
X2.3748Y-1.1874
X2.3748Y-1.9374
X2.4061Y-1.1874
X2.4061Y-1.9374
X2.4299Y-4.8821
X2.4924Y-4.8821
X2.5311Y-2.6323
X2.5861Y-2.6323
X2.6561Y-4.9372
X2.6873Y-4.9372
X2.7124Y-4.5624
X2.7186Y-3.3823
X2.7498Y-2.6873
X2.7736Y-3.3823
X2.7811Y-2.6873
X2.9061Y-1.1324
X2.9061Y-1.8824
X2.9373Y-3.4373
X2.9374Y-4.5374
X2.961Y-1.1324
X2.961Y-1.8824
X2.9686Y-3.4373
X2.9874Y-4.6624
X3.0124Y-4.5374
X3.0124Y-4.6124
X3.0124Y-4.7124
X3.0936Y-4.1322
X3.1248Y-1.1874
X3.1248Y-1.9374
X3.1485Y-4.1322
X3.156Y-1.1874
X3.156Y-1.9374
X3.281Y-2.6323
X3.3123Y-4.1872
X3.336Y-2.6323
X3.3435Y-4.1872
X3.3748Y-4.8821
X3.4373Y-4.8821
X3.4685Y-3.3823
X3.4998Y-2.6873
X3.5235Y-3.3823
X3.531Y-2.6873
X3.5935Y-4.9372
X3.6248Y-4.9372
X3.656Y-1.1324
X3.656Y-1.8824
X3.6873Y-3.4373
X3.711Y-1.1324
X3.711Y-1.8824
X3.7185Y-3.4373
X3.8435Y-4.1322
X3.8748Y-1.1874
X3.8748Y-1.9374
X3.8985Y-4.1322
X3.906Y-1.1874
X3.906Y-1.9374
X4.0235Y-1.1324
X4.031Y-2.6323
X4.0385Y-1.8824
X4.0547Y-1.1324
X4.0622Y-4.1872
X4.0698Y-1.8824
X4.086Y-2.6323
X4.0935Y-4.1872
X4.1172Y-1.1324
X4.1172Y-1.8824
X4.1485Y-1.1324
X4.1485Y-1.8824
X4.2185Y-3.3823
X4.2497Y-2.6873
X4.2735Y-3.3823
X4.281Y-2.6873
X4.3427Y-4.8822
X4.3747Y-5.0309
X4.3747Y-5.0622
X4.406Y-1.1324
X4.406Y-1.8824
X4.4135Y-2.6323
X4.4372Y-3.4373
X4.4447Y-2.6323
X4.461Y-1.1324
X4.461Y-1.8824
X4.4685Y-3.4373
X4.476Y-2.6323
X4.5935Y-4.1322
X4.601Y-3.3823
X4.6247Y-1.1874
X4.6247Y-1.9374
X4.6322Y-3.3823
X4.6484Y-4.1322
X4.656Y-1.1874
X4.656Y-1.9374
X4.6635Y-3.3823
X4.7809Y-2.6323
X4.8122Y-4.1872
X4.8359Y-2.6323
X4.8434Y-4.1872
X4.8747Y-4.8822
X4.9297Y-4.8822
X4.9684Y-3.3823
X4.9759Y-4.1322
X4.9997Y-2.6873
X5.0072Y-4.1322
X5.0234Y-3.3823
X5.0309Y-2.6873
X5.0384Y-4.1322
X5.0934Y-4.9372
X5.1247Y-4.9372
X5.1559Y-1.1324
X5.1559Y-1.8824
X5.1872Y-3.4373
X5.2109Y-1.1324
X5.2109Y-1.8824
X5.2184Y-3.4373
X5.2572Y-4.8822
X5.2884Y-4.8822
X5.3197Y-4.8822
X5.3434Y-4.1322
X5.3509Y-4.8822
X5.3747Y-1.1874
X5.3747Y-1.9374
X5.3984Y-4.1322
X5.4059Y-1.1874
X5.4059Y-1.9374
X5.5309Y-2.6323
X5.5621Y-4.1872
X5.5859Y-2.6323
X5.5934Y-4.1872
X5.6871Y-5.0309
X5.6871Y-5.0622
X5.7184Y-3.3823
X5.7496Y-2.6873
X5.7734Y-3.3823
X5.7809Y-2.6873
X5.7927Y-4.8822
X5.8374Y-5.0374
X5.8374Y-5.1374
X5.8374Y-5.2124
X5.8624Y-5.0874
X5.9059Y-1.1324
X5.9059Y-1.8824
X5.9124Y-5.2124
X5.9371Y-3.4373
X5.9609Y-1.1324
X5.9609Y-1.8824
X5.9684Y-3.4373
X6.0934Y-4.1322
X6.1246Y-1.1874
X6.1246Y-1.9374
X6.1374Y-5.1874
X6.1483Y-4.1322
X6.1559Y-1.1874
X6.1559Y-1.9374
X6.2733Y-1.1324
X6.2808Y-2.6323
X6.2808Y-4.8822
X6.2884Y-1.8824
X6.3046Y-1.1324
X6.3121Y-4.1872
X6.3196Y-1.8824
X6.3358Y-2.6323
X6.3358Y-4.8822
X6.3433Y-4.1872
X6.3671Y-1.1324
X6.3671Y-1.8824
X6.3983Y-1.1324
X6.3983Y-1.8824
X6.4683Y-3.3823
X6.4996Y-2.6873
X6.4996Y-4.9372
X6.5233Y-3.3823
X6.5308Y-2.6873
X6.5308Y-4.9372
X6.6558Y-1.1324
X6.6558Y-1.8824
X6.6633Y-2.6323
X6.6871Y-3.4373
X6.6946Y-2.6323
X6.7108Y-1.1324
X6.7108Y-1.8824
X6.7183Y-3.4373
X6.7258Y-2.6323
X6.8433Y-4.1322
X6.8508Y-3.3823
X6.8746Y-1.1874
X6.8746Y-1.9374
X6.8821Y-3.3823
X6.8983Y-4.1322
X6.9058Y-1.1874
X6.9058Y-1.9374
X6.9133Y-3.3823
X6.9608Y-4.8822
X6.9683Y-5.0309
X6.9683Y-5.0622
X7.0308Y-2.6323
X7.062Y-4.1872
X7.0858Y-2.6323
X7.0933Y-4.1872
X7.2183Y-3.3823
X7.2258Y-4.1322
X7.2495Y-2.6873
X7.257Y-4.1322
X7.2733Y-3.3823
X7.2808Y-2.6873
X7.2883Y-4.1322
X7.3358Y-4.8822
X7.367Y-4.8822
X7.4058Y-1.1324
X7.4058Y-1.8824
X7.4058Y-4.8822
X7.437Y-3.4373
X7.4608Y-1.1324
X7.4608Y-1.8824
X7.4608Y-4.8822
X7.4683Y-3.4373
X7.5933Y-4.1322
X7.6245Y-1.1874
X7.6245Y-1.9374
X7.6245Y-4.9372
X7.6482Y-4.1322
X7.6558Y-1.1874
X7.6558Y-1.9374
X7.6558Y-4.9372
X7.7808Y-2.6323
X7.812Y-4.1872
X7.8357Y-2.6323
X7.8432Y-4.1872
X7.9682Y-3.3823
X7.9995Y-2.6873
X8.0232Y-3.3823
X8.0307Y-2.6873
X8.1557Y-1.1324
X8.1557Y-1.8824
X8.1557Y-5.0309
X8.1557Y-5.0622
X8.1632Y-4.8822
X8.187Y-3.4373
X8.2107Y-1.1324
X8.2107Y-1.8824
X8.2182Y-3.4373
X8.2874Y-5.0374
X8.2874Y-5.1374
X8.2874Y-5.2124
X8.3124Y-5.0874
X8.3432Y-4.1322
X8.3624Y-5.2124
X8.3745Y-1.1874
X8.3745Y-1.9374
X8.3982Y-4.1322
X8.4057Y-1.1874
X8.4057Y-1.9374
X8.5232Y-1.1324
X8.5307Y-2.6323
X8.5382Y-1.8824
X8.5544Y-1.1324
X8.5619Y-4.1872
X8.5695Y-1.8824
X8.5857Y-2.6323
X8.5874Y-5.1874
X8.5932Y-4.1872
X8.6169Y-1.1324
X8.6169Y-1.8824
X8.6482Y-1.1324
X8.6482Y-1.8824
X8.7182Y-3.3823
X8.7182Y-4.8822
X8.7494Y-2.6873
X8.7732Y-3.3823
X8.7732Y-4.8822
X8.7807Y-2.6873
X8.9057Y-1.1324
X8.9057Y-1.8824
X8.9132Y-2.6323
X8.9369Y-3.4373
X8.9369Y-4.9372
X8.9444Y-2.6323
X8.9607Y-1.1324
X8.9607Y-1.8824
X8.9682Y-3.4373
X8.9682Y-4.9372
X8.9757Y-2.6323
X9.0932Y-4.1322
X9.1007Y-3.3823
X9.1244Y-1.1874
X9.1244Y-1.9374
X9.1319Y-3.3823
X9.1481Y-4.1322
X9.1557Y-1.1874
X9.1557Y-1.9374
X9.1632Y-3.3823
X9.2807Y-2.6323
X9.3119Y-4.1872
X9.3356Y-2.6323
X9.3431Y-4.1872
X9.4681Y-3.3823
X9.4681Y-4.8822
X9.4757Y-4.1322
X9.4994Y-2.6873
X9.5069Y-4.1322
X9.5231Y-3.3823
X9.5231Y-4.8822
X9.5306Y-2.6873
X9.5381Y-4.1322
X9.6556Y-1.1324
X9.6556Y-1.8824
X9.6869Y-3.4373
X9.6869Y-4.9372
X9.7106Y-1.1324
X9.7106Y-1.8824
X9.7181Y-3.4373
X9.7181Y-4.9372
X9.8431Y-4.1322
X9.8506Y-4.8822
X9.8744Y-1.1874
X9.8744Y-1.9374
X9.8819Y-4.8822
X9.8981Y-4.1322
X9.9056Y-1.1874
X9.9056Y-1.9374
X9.9131Y-4.8822
X9.9444Y-4.8822
X9.9624Y-5.0374
X9.9624Y-5.1374
X9.9624Y-5.2124
X9.9874Y-5.0874
X10.0306Y-2.6323
X10.0374Y-5.2124
X10.0619Y-4.1872
X10.0856Y-2.6323
X10.0931Y-4.1872
X10.2181Y-3.3823
X10.2493Y-2.6873
X10.2624Y-5.1874
X10.2731Y-3.3823
X10.2806Y-2.6873
X10.4056Y-1.1324
X10.4056Y-1.8824
X10.4056Y-4.8822
X10.4368Y-3.4373
X10.4606Y-1.1324
X10.4606Y-1.8824
X10.4606Y-4.8822
X10.4681Y-3.4373
X10.6243Y-1.1874
X10.6243Y-1.9374
X10.6243Y-4.9372
X10.6556Y-1.1874
X10.6556Y-1.9374
X10.6556Y-4.9372
X10.773Y-1.1324
X10.7806Y-2.6323
X10.7881Y-1.8824
X10.8043Y-1.1324
X10.8193Y-1.8824
X10.8355Y-2.6323
X10.8668Y-1.1324
X10.8668Y-1.8824
X10.898Y-1.1324
X10.898Y-1.8824
X10.9993Y-2.6873
X11.0305Y-2.6873
X11.1555Y-1.1324
X11.1555Y-1.8824
X11.1555Y-4.1322
X11.1555Y-4.8822
X11.163Y-2.6323
X11.1943Y-2.6323
X11.2105Y-1.1324
X11.2105Y-1.8824
X11.2105Y-4.1322
X11.2105Y-4.8822
X11.2255Y-2.6323
X11.2624Y-4.9374
X11.3124Y-4.9374
X11.3743Y-1.1874
X11.3743Y-1.9374
X11.3743Y-4.1872
X11.4055Y-1.1874
X11.4055Y-1.9374
X11.4055Y-4.1872
X11.4618Y-4.9374
X11.5124Y-4.9624
X11.5177Y-4.8822
X11.5374Y-4.9874
X11.5572Y-4.8822
X11.5624Y-4.9624
X11.5624Y-5.2124
X11.593Y-4.156
X11.593Y-4.1872
X11.6124Y-5.2124
X11.6555Y-3.4373
X11.6867Y-3.4373
X11.6874Y-5.2304
X11.718Y-2.6323
X11.773Y-2.6323
X11.8072Y-4.8822
X11.8427Y-4.8822
X11.9055Y-4.8822
X11.9367Y-2.6873
X11.9605Y-4.8822
X11.9624Y-1.0853
X11.9624Y-1.1374
X11.9624Y-1.5124
X11.9624Y-1.5874
X11.9624Y-1.6624
X11.9624Y-1.7374
X11.9624Y-1.8124
X11.9624Y-1.8874
X11.9624Y-1.9624
X11.968Y-2.6873
X11.9959Y-1.1374
X11.9961Y-1.0853
X12.0294Y-1.1374
X12.0295Y-1.0853
X12.0374Y-1.5124
X12.0374Y-1.5874
X12.0374Y-1.6624
X12.0374Y-1.7374
X12.0374Y-1.8124
X12.0374Y-1.8874
X12.0628Y-1.1374
X12.063Y-1.0853
X12.0963Y-1.1374
X12.0965Y-1.0853
X12.1297Y-1.1374
X12.1299Y-1.0853
X12.1472Y-4.8294
X12.1472Y-4.8606
X12.1632Y-1.1374
X12.1634Y-1.0853
X12.1967Y-1.1374
X12.1969Y-1.0853
X12.2124Y-1.2624
X12.2624Y-1.2624
X12.3874Y-1.3124
X12.3874Y-1.3624
X12.3874Y-1.4124
T4
X11.6074Y-1.6374
X11.6862Y-1.6374
T5
X1.3874Y-2.4374
X1.3874Y-2.5374
X1.3874Y-2.6374
T6
X11.7805Y-1.0562
X11.7805Y-1.1562
T7
X1.4624Y-1.5124
X1.4624Y-2.2624
X1.5562Y-5.2622
X1.6499Y-3.0123
X1.7124Y-1.4124
X1.7124Y-2.1624
X1.7437Y-3.7623
X1.8062Y-5.1622
X1.8999Y-2.9123
X1.9312Y-4.5122
X1.9937Y-3.6623
X2.1812Y-4.4122
X2.2124Y-1.5124
X2.2124Y-2.2624
X2.4624Y-1.4124
X2.4624Y-2.1624
X2.4936Y-5.2622
X2.5874Y-3.0123
X2.7436Y-5.1622
X2.7748Y-3.7623
X2.8374Y-2.9123
X2.9623Y-1.5124
X2.9623Y-2.2624
X3.0248Y-3.6623
X3.1498Y-4.5122
X3.2123Y-1.4124
X3.2123Y-2.1624
X3.3373Y-3.0123
X3.3998Y-4.4122
X3.4311Y-5.2622
X3.5248Y-3.7623
X3.5873Y-2.9123
X3.6811Y-5.1622
X3.7123Y-1.5124
X3.7123Y-2.2624
X3.7748Y-3.6623
X3.8998Y-4.5122
X3.9623Y-1.4124
X3.9623Y-2.1624
X4.0873Y-3.0123
X4.1498Y-4.4122
X4.2747Y-3.7623
X4.3373Y-2.9123
X4.4622Y-1.5124
X4.4622Y-2.2624
X4.5247Y-3.6623
X4.6497Y-4.5122
X4.7122Y-1.4124
X4.7122Y-2.1624
X4.8372Y-3.0123
X4.8997Y-4.4122
X4.931Y-5.2622
X5.0247Y-3.7623
X5.0872Y-2.9123
X5.181Y-5.1622
X5.2122Y-1.5124
X5.2122Y-2.2624
X5.2747Y-3.6623
X5.3997Y-4.5122
X5.4622Y-1.4124
X5.4622Y-2.1624
X5.5872Y-3.0123
X5.6497Y-4.4122
X5.7746Y-3.7623
X5.8372Y-2.9123
X5.9621Y-1.5124
X5.9621Y-2.2624
X6.0246Y-3.6623
X6.1496Y-4.5122
X6.2121Y-1.4124
X6.2121Y-2.1624
X6.3371Y-3.0123
X6.3371Y-5.2622
X6.3996Y-4.4122
X6.5246Y-3.7623
X6.5871Y-2.9123
X6.5871Y-5.1622
X6.7121Y-1.5124
X6.7121Y-2.2624
X6.7746Y-3.6623
X6.8996Y-4.5122
X6.9621Y-1.4124
X6.9621Y-2.1624
X7.0871Y-3.0123
X7.1496Y-4.4122
X7.2746Y-3.7623
X7.3371Y-2.9123
X7.462Y-1.5124
X7.462Y-2.2624
X7.4621Y-5.2622
X7.5246Y-3.6623
X7.6495Y-4.5122
X7.712Y-1.4124
X7.712Y-2.1624
X7.7121Y-5.1622
X7.837Y-3.0123
X7.8995Y-4.4122
X8.0245Y-3.7623
X8.087Y-2.9123
X8.212Y-1.5124
X8.212Y-2.2624
X8.2745Y-3.6623
X8.3995Y-4.5122
X8.462Y-1.4124
X8.462Y-2.1624
X8.587Y-3.0123
X8.6495Y-4.4122
X8.7745Y-3.7623
X8.7745Y-5.2622
X8.837Y-2.9123
X8.9619Y-1.5124
X8.9619Y-2.2624
X9.0245Y-3.6623
X9.0245Y-5.1622
X9.1494Y-4.5122
X9.2119Y-1.4124
X9.2119Y-2.1624
X9.3369Y-3.0123
X9.3994Y-4.4122
X9.5244Y-3.7623
X9.5244Y-5.2622
X9.5869Y-2.9123
X9.7119Y-1.5124
X9.7119Y-2.2624
X9.7744Y-3.6623
X9.7744Y-5.1622
X9.8994Y-4.5122
X9.9619Y-1.4124
X9.9619Y-2.1624
X10.0869Y-3.0123
X10.1494Y-4.4122
X10.2744Y-3.7623
X10.3369Y-2.9123
X10.4618Y-1.5124
X10.4618Y-2.2624
X10.4618Y-5.2622
X10.5244Y-3.6623
X10.7118Y-1.4124
X10.7118Y-2.1624
X10.7118Y-5.1622
X10.8368Y-3.0123
X11.0868Y-2.9123
X11.2118Y-1.5124
X11.2118Y-2.2624
X11.2118Y-4.5122
X11.2118Y-5.2622
X11.4618Y-1.4124
X11.4618Y-2.1624
X11.4618Y-4.4122
X11.4618Y-5.1622
X11.4931Y-3.7623
X11.7431Y-3.6623
X11.7743Y-3.0123
X11.9617Y-5.2622
X12.0243Y-2.9123
X12.2117Y-5.1622
T3
G00X11.9093Y-0.95
M15
G01X11.9093Y-0.9815
M16
G05
G00X11.9093Y-1.0693
M15
G01X11.9093Y-1.1284
M16
G05
G00X12.2498Y-0.95
M15
G01X12.2498Y-0.9815
M16
G05
G00X12.2498Y-1.0693
M15
G01X12.2498Y-1.1284
M16
G05
T0
M30
