M48
; DRILL file {KiCad (5.1.9)-1} date 08/25/21 16:21:09
; FORMAT={-:-/ absolute / inch / decimal}
; #@! TF.CreationDate,2021-08-25T16:21:09-05:00
; #@! TF.GenerationSoftware,Kicad,Pcbnew,(5.1.9)-1
; #@! TF.FileFunction,NonPlated,1,2,NPTH
FMAT,2
INCH
T1C0.0570
T2C0.0689
T3C0.0866
T4C0.1200
T5C0.1570
%
G90
G05
T1
X1.2394Y-2.4374
X1.2394Y-2.6374
T2
X1.3624Y-1.3124
X1.3624Y-2.0624
X1.4562Y-5.0622
X1.5499Y-2.8123
X1.6437Y-3.5623
X1.7624Y-1.3124
X1.7624Y-2.0624
X1.8312Y-4.3122
X1.8562Y-5.0622
X1.9499Y-2.8123
X2.0437Y-3.5623
X2.1124Y-1.3124
X2.1124Y-2.0624
X2.2312Y-4.3122
X2.3936Y-5.0622
X2.4874Y-2.8123
X2.5124Y-1.3124
X2.5124Y-2.0624
X2.6748Y-3.5623
X2.7936Y-5.0622
X2.8623Y-1.3124
X2.8623Y-2.0624
X2.8874Y-2.8123
X3.0498Y-4.3122
X3.0748Y-3.5623
X3.2373Y-2.8123
X3.2623Y-1.3124
X3.2623Y-2.0624
X3.3311Y-5.0622
X3.4248Y-3.5623
X3.4498Y-4.3122
X3.6123Y-1.3124
X3.6123Y-2.0624
X3.6373Y-2.8123
X3.7311Y-5.0622
X3.7998Y-4.3122
X3.8248Y-3.5623
X3.9873Y-2.8123
X4.0123Y-1.3124
X4.0123Y-2.0624
X4.1747Y-3.5623
X4.1998Y-4.3122
X4.3622Y-1.3124
X4.3622Y-2.0624
X4.3873Y-2.8123
X4.5497Y-4.3122
X4.5747Y-3.5623
X4.7372Y-2.8123
X4.7622Y-1.3124
X4.7622Y-2.0624
X4.831Y-5.0622
X4.9247Y-3.5623
X4.9497Y-4.3122
X5.1122Y-1.3124
X5.1122Y-2.0624
X5.1372Y-2.8123
X5.231Y-5.0622
X5.2997Y-4.3122
X5.3247Y-3.5623
X5.4872Y-2.8123
X5.5122Y-1.3124
X5.5122Y-2.0624
X5.6746Y-3.5623
X5.6997Y-4.3122
X5.8621Y-1.3124
X5.8621Y-2.0624
X5.8872Y-2.8123
X6.0496Y-4.3122
X6.0746Y-3.5623
X6.2371Y-2.8123
X6.2371Y-5.0622
X6.2621Y-1.3124
X6.2621Y-2.0624
X6.4246Y-3.5623
X6.4496Y-4.3122
X6.6121Y-1.3124
X6.6121Y-2.0624
X6.6371Y-2.8123
X6.6371Y-5.0622
X6.7996Y-4.3122
X6.8246Y-3.5623
X6.9871Y-2.8123
X7.0121Y-1.3124
X7.0121Y-2.0624
X7.1746Y-3.5623
X7.1996Y-4.3122
X7.362Y-1.3124
X7.362Y-2.0624
X7.3621Y-5.0622
X7.3871Y-2.8123
X7.5495Y-4.3122
X7.5746Y-3.5623
X7.737Y-2.8123
X7.762Y-1.3124
X7.762Y-2.0624
X7.7621Y-5.0622
X7.9245Y-3.5623
X7.9495Y-4.3122
X8.112Y-1.3124
X8.112Y-2.0624
X8.137Y-2.8123
X8.2995Y-4.3122
X8.3245Y-3.5623
X8.487Y-2.8123
X8.512Y-1.3124
X8.512Y-2.0624
X8.6745Y-3.5623
X8.6745Y-5.0622
X8.6995Y-4.3122
X8.8619Y-1.3124
X8.8619Y-2.0624
X8.887Y-2.8123
X9.0494Y-4.3122
X9.0745Y-3.5623
X9.0745Y-5.0622
X9.2369Y-2.8123
X9.2619Y-1.3124
X9.2619Y-2.0624
X9.4244Y-3.5623
X9.4244Y-5.0622
X9.4494Y-4.3122
X9.6119Y-1.3124
X9.6119Y-2.0624
X9.6369Y-2.8123
X9.7994Y-4.3122
X9.8244Y-3.5623
X9.8244Y-5.0622
X9.9869Y-2.8123
X10.0119Y-1.3124
X10.0119Y-2.0624
X10.1744Y-3.5623
X10.1994Y-4.3122
X10.3618Y-1.3124
X10.3618Y-2.0624
X10.3618Y-5.0622
X10.3869Y-2.8123
X10.5744Y-3.5623
X10.7368Y-2.8123
X10.7618Y-1.3124
X10.7618Y-2.0624
X10.7618Y-5.0622
X11.1118Y-1.3124
X11.1118Y-2.0624
X11.1118Y-4.3122
X11.1118Y-5.0622
X11.1368Y-2.8123
X11.3931Y-3.5623
X11.5118Y-1.3124
X11.5118Y-2.0624
X11.5118Y-4.3122
X11.5118Y-5.0622
X11.6743Y-2.8123
X11.7931Y-3.5623
X11.8617Y-5.0622
X12.0743Y-2.8123
X12.2617Y-5.0622
T3
X2.3124Y-3.0311
X2.6873Y-1.5312
X3.0623Y-5.2809
X3.9997Y-3.781
X5.8746Y-4.531
X6.4371Y-1.5312
X7.562Y-3.0311
X8.8744Y-4.531
X10.1868Y-1.5312
X10.7493Y-3.781
X10.9368Y-5.2497
T4
X1.5612Y-4.0372
X2.5012Y-4.0372
X4.561Y-4.7872
X5.501Y-4.7872
X7.0921Y-4.7872
X8.0321Y-4.7872
X11.1231Y-3.2873
X12.0631Y-3.2873
T5
X1.5612Y-4.6372
X1.5624Y-1.3124
X1.5624Y-2.0624
X1.6562Y-5.0622
X1.7499Y-2.8123
X1.8437Y-3.5623
X2.0312Y-4.3122
X2.3124Y-1.3124
X2.3124Y-2.0624
X2.5012Y-4.6372
X2.5936Y-5.0622
X2.6874Y-2.8123
X2.8748Y-3.5623
X3.0623Y-1.3124
X3.0623Y-2.0624
X3.2498Y-4.3122
X3.4373Y-2.8123
X3.5311Y-5.0622
X3.6248Y-3.5623
X3.8123Y-1.3124
X3.8123Y-2.0624
X3.9998Y-4.3122
X4.1873Y-2.8123
X4.3747Y-3.5623
X4.561Y-5.3872
X4.5622Y-1.3124
X4.5622Y-2.0624
X4.7497Y-4.3122
X4.9372Y-2.8123
X5.031Y-5.0622
X5.1247Y-3.5623
X5.3122Y-1.3124
X5.3122Y-2.0624
X5.4997Y-4.3122
X5.501Y-5.3872
X5.6872Y-2.8123
X5.8746Y-3.5623
X6.0621Y-1.3124
X6.0621Y-2.0624
X6.2496Y-4.3122
X6.4371Y-2.8123
X6.4371Y-5.0622
X6.6246Y-3.5623
X6.8121Y-1.3124
X6.8121Y-2.0624
X6.9996Y-4.3122
X7.0921Y-5.3872
X7.1871Y-2.8123
X7.3746Y-3.5623
X7.562Y-1.3124
X7.562Y-2.0624
X7.5621Y-5.0622
X7.7495Y-4.3122
X7.937Y-2.8123
X8.0321Y-5.3872
X8.1245Y-3.5623
X8.312Y-1.3124
X8.312Y-2.0624
X8.4995Y-4.3122
X8.687Y-2.8123
X8.8745Y-3.5623
X8.8745Y-5.0622
X9.0619Y-1.3124
X9.0619Y-2.0624
X9.2494Y-4.3122
X9.4369Y-2.8123
X9.6244Y-3.5623
X9.6244Y-5.0622
X9.8119Y-1.3124
X9.8119Y-2.0624
X9.9994Y-4.3122
X10.1869Y-2.8123
X10.3744Y-3.5623
X10.5618Y-1.3124
X10.5618Y-2.0624
X10.5618Y-5.0622
X10.9368Y-2.8123
X11.1231Y-3.8873
X11.3118Y-1.3124
X11.3118Y-2.0624
X11.3118Y-4.3122
X11.3118Y-5.0622
X11.5931Y-3.5623
X11.8743Y-2.8123
X12.0617Y-5.0622
X12.0631Y-3.8873
T0
M30
