%TF.GenerationSoftware,KiCad,Pcbnew,(5.1.9)-1*%
%TF.CreationDate,2021-08-25T16:21:07-05:00*%
%TF.ProjectId,Full_75,46756c6c-5f37-4352-9e6b-696361645f70,rev?*%
%TF.SameCoordinates,Original*%
%TF.FileFunction,Legend,Bot*%
%TF.FilePolarity,Positive*%
%FSLAX46Y46*%
G04 Gerber Fmt 4.6, Leading zero omitted, Abs format (unit mm)*
G04 Created by KiCad (PCBNEW (5.1.9)-1) date 2021-08-25 16:21:07*
%MOMM*%
%LPD*%
G01*
G04 APERTURE LIST*
%ADD10C,0.150000*%
%ADD11C,0.120000*%
%ADD12C,0.153000*%
G04 APERTURE END LIST*
D10*
X292274047Y-23582380D02*
X292274047Y-24296666D01*
X292321666Y-24439523D01*
X292416904Y-24534761D01*
X292559761Y-24582380D01*
X292655000Y-24582380D01*
X291321666Y-24582380D02*
X291797857Y-24582380D01*
X291797857Y-23582380D01*
X290416904Y-24487142D02*
X290464523Y-24534761D01*
X290607380Y-24582380D01*
X290702619Y-24582380D01*
X290845476Y-24534761D01*
X290940714Y-24439523D01*
X290988333Y-24344285D01*
X291035952Y-24153809D01*
X291035952Y-24010952D01*
X290988333Y-23820476D01*
X290940714Y-23725238D01*
X290845476Y-23630000D01*
X290702619Y-23582380D01*
X290607380Y-23582380D01*
X290464523Y-23630000D01*
X290416904Y-23677619D01*
X289702619Y-23582380D02*
X289702619Y-24296666D01*
X289750238Y-24439523D01*
X289845476Y-24534761D01*
X289988333Y-24582380D01*
X290083571Y-24582380D01*
X288750238Y-24582380D02*
X289226428Y-24582380D01*
X289226428Y-23582380D01*
X287845476Y-24487142D02*
X287893095Y-24534761D01*
X288035952Y-24582380D01*
X288131190Y-24582380D01*
X288274047Y-24534761D01*
X288369285Y-24439523D01*
X288416904Y-24344285D01*
X288464523Y-24153809D01*
X288464523Y-24010952D01*
X288416904Y-23820476D01*
X288369285Y-23725238D01*
X288274047Y-23630000D01*
X288131190Y-23582380D01*
X288035952Y-23582380D01*
X287893095Y-23630000D01*
X287845476Y-23677619D01*
X287131190Y-23582380D02*
X287131190Y-24296666D01*
X287178809Y-24439523D01*
X287274047Y-24534761D01*
X287416904Y-24582380D01*
X287512142Y-24582380D01*
X286178809Y-24582380D02*
X286655000Y-24582380D01*
X286655000Y-23582380D01*
X285274047Y-24487142D02*
X285321666Y-24534761D01*
X285464523Y-24582380D01*
X285559761Y-24582380D01*
X285702619Y-24534761D01*
X285797857Y-24439523D01*
X285845476Y-24344285D01*
X285893095Y-24153809D01*
X285893095Y-24010952D01*
X285845476Y-23820476D01*
X285797857Y-23725238D01*
X285702619Y-23630000D01*
X285559761Y-23582380D01*
X285464523Y-23582380D01*
X285321666Y-23630000D01*
X285274047Y-23677619D01*
X284559761Y-23582380D02*
X284559761Y-24296666D01*
X284607380Y-24439523D01*
X284702619Y-24534761D01*
X284845476Y-24582380D01*
X284940714Y-24582380D01*
X283607380Y-24582380D02*
X284083571Y-24582380D01*
X284083571Y-23582380D01*
X282702619Y-24487142D02*
X282750238Y-24534761D01*
X282893095Y-24582380D01*
X282988333Y-24582380D01*
X283131190Y-24534761D01*
X283226428Y-24439523D01*
X283274047Y-24344285D01*
X283321666Y-24153809D01*
X283321666Y-24010952D01*
X283274047Y-23820476D01*
X283226428Y-23725238D01*
X283131190Y-23630000D01*
X282988333Y-23582380D01*
X282893095Y-23582380D01*
X282750238Y-23630000D01*
X282702619Y-23677619D01*
D11*
%TO.C,J2*%
X26096562Y-65720970D02*
X32383062Y-65720970D01*
X31938562Y-68260970D02*
X32395762Y-68260970D01*
X32395762Y-68260970D02*
X32395762Y-63180970D01*
X32395762Y-63180970D02*
X28204762Y-63180970D01*
X28204762Y-63180970D02*
X28204762Y-68260970D01*
X28204762Y-68260970D02*
X31938562Y-68260970D01*
X31938562Y-68260970D02*
X31963962Y-68260970D01*
X26096562Y-68260970D02*
X28204762Y-68260970D01*
X26096562Y-68260970D02*
X26096562Y-63180970D01*
X26096562Y-63180970D02*
X28204762Y-63180970D01*
X26096562Y-60640970D02*
X28204762Y-60640970D01*
X32395762Y-60640970D02*
X28204762Y-60640970D01*
X32395762Y-63180970D02*
X32395762Y-60640970D01*
X28204762Y-63180970D02*
X28204762Y-60640970D01*
X26096562Y-63180970D02*
X26096562Y-60640970D01*
%TO.C,J1*%
X297688562Y-41730970D02*
X297688562Y-40515970D01*
X297628562Y-45690970D02*
X297628562Y-47950970D01*
X297128562Y-45690970D02*
X297128562Y-47950970D01*
X294528562Y-44090970D02*
X293528562Y-44090970D01*
X294528562Y-45690970D02*
X294528562Y-44090970D01*
X293528562Y-45690970D02*
X294528562Y-45690970D01*
X293528562Y-44090970D02*
X293528562Y-45690970D01*
X297128562Y-44090970D02*
X298128562Y-44090970D01*
X297128562Y-45690970D02*
X297128562Y-44090970D01*
X298128562Y-45690970D02*
X297128562Y-45690970D01*
X298128562Y-44090970D02*
X298128562Y-45690970D01*
X292768562Y-41730970D02*
X293688562Y-41730970D01*
X298888562Y-41730970D02*
X297968562Y-41730970D01*
X295328562Y-43590970D02*
X295328562Y-47950970D01*
X296328562Y-43590970D02*
X295328562Y-43590970D01*
X296328562Y-47950970D02*
X296328562Y-43590970D01*
X293688562Y-41730970D02*
X293968562Y-41730970D01*
X293688562Y-40130970D02*
X293688562Y-41730970D01*
X292768562Y-40130970D02*
X293688562Y-40130970D01*
X292768562Y-47950970D02*
X292768562Y-40130970D01*
X298888562Y-47950970D02*
X292768562Y-47950970D01*
X298888562Y-40130970D02*
X298888562Y-47950970D01*
X297968562Y-40130970D02*
X298888562Y-40130970D01*
X297968562Y-41730970D02*
X297968562Y-40130970D01*
X297688562Y-41730970D02*
X297968562Y-41730970D01*
D10*
%TO.C,USB1*%
X306820562Y-22790970D02*
X306820562Y-24060970D01*
X302345562Y-20280970D02*
X302340562Y-21040970D01*
X302345562Y-20280970D02*
X311295562Y-20280970D01*
X311300562Y-21040970D02*
X311295562Y-20280970D01*
X302345562Y-29450970D02*
X311295562Y-29450970D01*
X302195562Y-22790970D02*
X311445562Y-22790970D01*
D11*
%TO.C,U6*%
X299420562Y-126110970D02*
X299420562Y-129560970D01*
X299420562Y-126110970D02*
X299420562Y-124160970D01*
X294300562Y-126110970D02*
X294300562Y-128060970D01*
X294300562Y-126110970D02*
X294300562Y-124160970D01*
%TO.C,U5*%
X259415562Y-126110970D02*
X259415562Y-129560970D01*
X259415562Y-126110970D02*
X259415562Y-124160970D01*
X254295562Y-126110970D02*
X254295562Y-128060970D01*
X254295562Y-126110970D02*
X254295562Y-124160970D01*
%TO.C,U4*%
X216870562Y-126110970D02*
X216870562Y-129560970D01*
X216870562Y-126110970D02*
X216870562Y-124160970D01*
X211750562Y-126110970D02*
X211750562Y-128060970D01*
X211750562Y-126110970D02*
X211750562Y-124160970D01*
%TO.C,U3*%
X154632606Y-126104238D02*
X154632606Y-129554238D01*
X154632606Y-126104238D02*
X154632606Y-124154238D01*
X149512606Y-126104238D02*
X149512606Y-128054238D01*
X149512606Y-126104238D02*
X149512606Y-124154238D01*
%TO.C,U2*%
X70145562Y-121529850D02*
X70145562Y-118079850D01*
X70145562Y-121529850D02*
X70145562Y-123479850D01*
X75265562Y-121529850D02*
X75265562Y-119579850D01*
X75265562Y-121529850D02*
X75265562Y-123479850D01*
%TO.C,SW1*%
X300554523Y-25496863D02*
X299224523Y-25496863D01*
X300554523Y-26826863D02*
X300554523Y-25496863D01*
X300554523Y-28096863D02*
X297894523Y-28096863D01*
X297894523Y-28096863D02*
X297894523Y-30696863D01*
X300554523Y-28096863D02*
X300554523Y-30696863D01*
X300554523Y-30696863D02*
X297894523Y-30696863D01*
%TO.C,R8*%
X295058338Y-130603470D02*
X295567786Y-130603470D01*
X295058338Y-131648470D02*
X295567786Y-131648470D01*
%TO.C,R7*%
X255053338Y-130603470D02*
X255562786Y-130603470D01*
X255053338Y-131648470D02*
X255562786Y-131648470D01*
%TO.C,R6*%
X212508338Y-130603470D02*
X213017786Y-130603470D01*
X212508338Y-131648470D02*
X213017786Y-131648470D01*
%TO.C,R5*%
X150278338Y-130603470D02*
X150787786Y-130603470D01*
X150278338Y-131648470D02*
X150787786Y-131648470D01*
%TO.C,R4*%
X74507786Y-117043470D02*
X73998338Y-117043470D01*
X74507786Y-115998470D02*
X73998338Y-115998470D01*
%TO.C,R3*%
X313473338Y-29384470D02*
X313982786Y-29384470D01*
X313473338Y-30429470D02*
X313982786Y-30429470D01*
%TO.C,F1*%
X308701829Y-31305970D02*
X308359295Y-31305970D01*
X308701829Y-30285970D02*
X308359295Y-30285970D01*
%TO.C,D100*%
X288169038Y-61090027D02*
X288169038Y-57940027D01*
X286469038Y-61090027D02*
X286469038Y-57940027D01*
X288169038Y-61090027D02*
X286469038Y-61090027D01*
%TO.C,D99*%
X288169038Y-42041251D02*
X288169038Y-38891251D01*
X286469038Y-42041251D02*
X286469038Y-38891251D01*
X288169038Y-42041251D02*
X286469038Y-42041251D01*
%TO.C,D98*%
X307217814Y-136491432D02*
X307217814Y-133341432D01*
X305517814Y-136491432D02*
X305517814Y-133341432D01*
X307217814Y-136491432D02*
X305517814Y-136491432D01*
%TO.C,D97*%
X302455620Y-80138803D02*
X302455620Y-76988803D01*
X300755620Y-80138803D02*
X300755620Y-76988803D01*
X302455620Y-80138803D02*
X300755620Y-80138803D01*
%TO.C,D96*%
X288169038Y-136491432D02*
X288169038Y-133341432D01*
X286469038Y-136491432D02*
X286469038Y-133341432D01*
X288169038Y-136491432D02*
X286469038Y-136491432D01*
%TO.C,D95*%
X288169038Y-118236355D02*
X288169038Y-115086355D01*
X286469038Y-118236355D02*
X286469038Y-115086355D01*
X288169038Y-118236355D02*
X286469038Y-118236355D01*
%TO.C,D94*%
X295312329Y-99187579D02*
X295312329Y-96037579D01*
X293612329Y-99187579D02*
X293612329Y-96037579D01*
X295312329Y-99187579D02*
X293612329Y-99187579D01*
%TO.C,D93*%
X278644650Y-80138803D02*
X278644650Y-76988803D01*
X276944650Y-80138803D02*
X276944650Y-76988803D01*
X278644650Y-80138803D02*
X276944650Y-80138803D01*
%TO.C,D92*%
X269120262Y-61090027D02*
X269120262Y-57940027D01*
X267420262Y-61090027D02*
X267420262Y-57940027D01*
X269120262Y-61090027D02*
X267420262Y-61090027D01*
%TO.C,D91*%
X269120262Y-42041251D02*
X269120262Y-38891251D01*
X267420262Y-42041251D02*
X267420262Y-38891251D01*
X269120262Y-42041251D02*
X267420262Y-42041251D01*
%TO.C,D90*%
X264358068Y-99187579D02*
X264358068Y-96037579D01*
X262658068Y-99187579D02*
X262658068Y-96037579D01*
X264358068Y-99187579D02*
X262658068Y-99187579D01*
%TO.C,D89*%
X259595874Y-80138803D02*
X259595874Y-76988803D01*
X257895874Y-80138803D02*
X257895874Y-76988803D01*
X259595874Y-80138803D02*
X257895874Y-80138803D01*
%TO.C,D88*%
X250071486Y-61090027D02*
X250071486Y-57940027D01*
X248371486Y-61090027D02*
X248371486Y-57940027D01*
X250071486Y-61090027D02*
X248371486Y-61090027D01*
%TO.C,D87*%
X250071486Y-42041251D02*
X250071486Y-38891251D01*
X248371486Y-42041251D02*
X248371486Y-38891251D01*
X250071486Y-42041251D02*
X248371486Y-42041251D01*
%TO.C,D86*%
X269120262Y-136491432D02*
X269120262Y-133341432D01*
X267420262Y-136491432D02*
X267420262Y-133341432D01*
X269120262Y-136491432D02*
X267420262Y-136491432D01*
%TO.C,D85*%
X254833680Y-118236355D02*
X254833680Y-115086355D01*
X253133680Y-118236355D02*
X253133680Y-115086355D01*
X254833680Y-118236355D02*
X253133680Y-118236355D01*
%TO.C,D84*%
X245309292Y-99187579D02*
X245309292Y-96037579D01*
X243609292Y-99187579D02*
X243609292Y-96037579D01*
X245309292Y-99187579D02*
X243609292Y-99187579D01*
%TO.C,D83*%
X240547098Y-80138803D02*
X240547098Y-76988803D01*
X238847098Y-80138803D02*
X238847098Y-76988803D01*
X240547098Y-80138803D02*
X238847098Y-80138803D01*
%TO.C,D82*%
X231022710Y-61090027D02*
X231022710Y-57940027D01*
X229322710Y-61090027D02*
X229322710Y-57940027D01*
X231022710Y-61090027D02*
X229322710Y-61090027D01*
%TO.C,D81*%
X231022710Y-42041251D02*
X231022710Y-38891251D01*
X229322710Y-42041251D02*
X229322710Y-38891251D01*
X231022710Y-42041251D02*
X229322710Y-42041251D01*
%TO.C,D80*%
X245309292Y-136491432D02*
X245309292Y-133341432D01*
X243609292Y-136491432D02*
X243609292Y-133341432D01*
X245309292Y-136491432D02*
X243609292Y-136491432D01*
%TO.C,D79*%
X235784904Y-118236355D02*
X235784904Y-115086355D01*
X234084904Y-118236355D02*
X234084904Y-115086355D01*
X235784904Y-118236355D02*
X234084904Y-118236355D01*
%TO.C,D78*%
X226260516Y-99187579D02*
X226260516Y-96037579D01*
X224560516Y-99187579D02*
X224560516Y-96037579D01*
X226260516Y-99187579D02*
X224560516Y-99187579D01*
%TO.C,D77*%
X221498322Y-80138803D02*
X221498322Y-76988803D01*
X219798322Y-80138803D02*
X219798322Y-76988803D01*
X221498322Y-80138803D02*
X219798322Y-80138803D01*
%TO.C,D76*%
X211973934Y-61090027D02*
X211973934Y-57940027D01*
X210273934Y-61090027D02*
X210273934Y-57940027D01*
X211973934Y-61090027D02*
X210273934Y-61090027D01*
%TO.C,D75*%
X211973934Y-42041251D02*
X211973934Y-38891251D01*
X210273934Y-42041251D02*
X210273934Y-38891251D01*
X211973934Y-42041251D02*
X210273934Y-42041251D01*
%TO.C,D74*%
X226260516Y-136491432D02*
X226260516Y-133341432D01*
X224560516Y-136491432D02*
X224560516Y-133341432D01*
X226260516Y-136491432D02*
X224560516Y-136491432D01*
%TO.C,D73*%
X216736128Y-118236355D02*
X216736128Y-115086355D01*
X215036128Y-118236355D02*
X215036128Y-115086355D01*
X216736128Y-118236355D02*
X215036128Y-118236355D01*
%TO.C,D72*%
X207211740Y-99187579D02*
X207211740Y-96037579D01*
X205511740Y-99187579D02*
X205511740Y-96037579D01*
X207211740Y-99187579D02*
X205511740Y-99187579D01*
%TO.C,D71*%
X202449546Y-80138803D02*
X202449546Y-76988803D01*
X200749546Y-80138803D02*
X200749546Y-76988803D01*
X202449546Y-80138803D02*
X200749546Y-80138803D01*
%TO.C,D70*%
X192925158Y-61090027D02*
X192925158Y-57940027D01*
X191225158Y-61090027D02*
X191225158Y-57940027D01*
X192925158Y-61090027D02*
X191225158Y-61090027D01*
%TO.C,D69*%
X192925158Y-42041251D02*
X192925158Y-38891251D01*
X191225158Y-42041251D02*
X191225158Y-38891251D01*
X192925158Y-42041251D02*
X191225158Y-42041251D01*
%TO.C,D68*%
X197687352Y-118236355D02*
X197687352Y-115086355D01*
X195987352Y-118236355D02*
X195987352Y-115086355D01*
X197687352Y-118236355D02*
X195987352Y-118236355D01*
%TO.C,D67*%
X188162964Y-99187579D02*
X188162964Y-96037579D01*
X186462964Y-99187579D02*
X186462964Y-96037579D01*
X188162964Y-99187579D02*
X186462964Y-99187579D01*
%TO.C,D66*%
X183400770Y-80138803D02*
X183400770Y-76988803D01*
X181700770Y-80138803D02*
X181700770Y-76988803D01*
X183400770Y-80138803D02*
X181700770Y-80138803D01*
%TO.C,D65*%
X173876382Y-61090027D02*
X173876382Y-57940027D01*
X172176382Y-61090027D02*
X172176382Y-57940027D01*
X173876382Y-61090027D02*
X172176382Y-61090027D01*
%TO.C,D64*%
X173876382Y-42041251D02*
X173876382Y-38891251D01*
X172176382Y-42041251D02*
X172176382Y-38891251D01*
X173876382Y-42041251D02*
X172176382Y-42041251D01*
%TO.C,D63*%
X192925158Y-136491432D02*
X192925158Y-133341432D01*
X191225158Y-136491432D02*
X191225158Y-133341432D01*
X192925158Y-136491432D02*
X191225158Y-136491432D01*
%TO.C,D62*%
X178638576Y-118236355D02*
X178638576Y-115086355D01*
X176938576Y-118236355D02*
X176938576Y-115086355D01*
X178638576Y-118236355D02*
X176938576Y-118236355D01*
%TO.C,D61*%
X169114188Y-99187579D02*
X169114188Y-96037579D01*
X167414188Y-99187579D02*
X167414188Y-96037579D01*
X169114188Y-99187579D02*
X167414188Y-99187579D01*
%TO.C,D60*%
X164351994Y-80138803D02*
X164351994Y-76988803D01*
X162651994Y-80138803D02*
X162651994Y-76988803D01*
X164351994Y-80138803D02*
X162651994Y-80138803D01*
%TO.C,D59*%
X154827606Y-61090027D02*
X154827606Y-57940027D01*
X153127606Y-61090027D02*
X153127606Y-57940027D01*
X154827606Y-61090027D02*
X153127606Y-61090027D01*
%TO.C,D58*%
X154827606Y-42041251D02*
X154827606Y-38891251D01*
X153127606Y-42041251D02*
X153127606Y-38891251D01*
X154827606Y-42041251D02*
X153127606Y-42041251D01*
%TO.C,D57*%
X164351994Y-136491432D02*
X164351994Y-133341432D01*
X162651994Y-136491432D02*
X162651994Y-133341432D01*
X164351994Y-136491432D02*
X162651994Y-136491432D01*
%TO.C,D56*%
X159589800Y-118236355D02*
X159589800Y-115086355D01*
X157889800Y-118236355D02*
X157889800Y-115086355D01*
X159589800Y-118236355D02*
X157889800Y-118236355D01*
%TO.C,D55*%
X150065412Y-99187579D02*
X150065412Y-96037579D01*
X148365412Y-99187579D02*
X148365412Y-96037579D01*
X150065412Y-99187579D02*
X148365412Y-99187579D01*
%TO.C,D54*%
X145303218Y-80138803D02*
X145303218Y-76988803D01*
X143603218Y-80138803D02*
X143603218Y-76988803D01*
X145303218Y-80138803D02*
X143603218Y-80138803D01*
%TO.C,D53*%
X135778830Y-61090027D02*
X135778830Y-57940027D01*
X134078830Y-61090027D02*
X134078830Y-57940027D01*
X135778830Y-61090027D02*
X134078830Y-61090027D01*
%TO.C,D52*%
X135778830Y-42041251D02*
X135778830Y-38891251D01*
X134078830Y-42041251D02*
X134078830Y-38891251D01*
X135778830Y-42041251D02*
X134078830Y-42041251D01*
%TO.C,D51*%
X140541024Y-118236355D02*
X140541024Y-115086355D01*
X138841024Y-118236355D02*
X138841024Y-115086355D01*
X140541024Y-118236355D02*
X138841024Y-118236355D01*
%TO.C,D50*%
X131016636Y-99187579D02*
X131016636Y-96037579D01*
X129316636Y-99187579D02*
X129316636Y-96037579D01*
X131016636Y-99187579D02*
X129316636Y-99187579D01*
%TO.C,D49*%
X126254442Y-80138803D02*
X126254442Y-76988803D01*
X124554442Y-80138803D02*
X124554442Y-76988803D01*
X126254442Y-80138803D02*
X124554442Y-80138803D01*
%TO.C,D48*%
X116730054Y-61090027D02*
X116730054Y-57940027D01*
X115030054Y-61090027D02*
X115030054Y-57940027D01*
X116730054Y-61090027D02*
X115030054Y-61090027D01*
%TO.C,D47*%
X116730054Y-42041251D02*
X116730054Y-38891251D01*
X115030054Y-42041251D02*
X115030054Y-38891251D01*
X116730054Y-42041251D02*
X115030054Y-42041251D01*
%TO.C,D46*%
X312105562Y-30949970D02*
X314565562Y-30949970D01*
X312105562Y-32419970D02*
X312105562Y-30949970D01*
X314565562Y-32419970D02*
X312105562Y-32419970D01*
%TO.C,D45*%
X128635539Y-136491432D02*
X128635539Y-133341432D01*
X126935539Y-136491432D02*
X126935539Y-133341432D01*
X128635539Y-136491432D02*
X126935539Y-136491432D01*
%TO.C,D44*%
X121492248Y-118236355D02*
X121492248Y-115086355D01*
X119792248Y-118236355D02*
X119792248Y-115086355D01*
X121492248Y-118236355D02*
X119792248Y-118236355D01*
%TO.C,D43*%
X111967860Y-99187579D02*
X111967860Y-96037579D01*
X110267860Y-99187579D02*
X110267860Y-96037579D01*
X111967860Y-99187579D02*
X110267860Y-99187579D01*
%TO.C,D42*%
X107205666Y-80138803D02*
X107205666Y-76988803D01*
X105505666Y-80138803D02*
X105505666Y-76988803D01*
X107205666Y-80138803D02*
X105505666Y-80138803D01*
%TO.C,D41*%
X97681278Y-61090027D02*
X97681278Y-57940027D01*
X95981278Y-61090027D02*
X95981278Y-57940027D01*
X97681278Y-61090027D02*
X95981278Y-61090027D01*
%TO.C,D40*%
X97681278Y-42041251D02*
X97681278Y-38891251D01*
X95981278Y-42041251D02*
X95981278Y-38891251D01*
X97681278Y-42041251D02*
X95981278Y-42041251D01*
%TO.C,D39*%
X90537987Y-136491432D02*
X90537987Y-133341432D01*
X88837987Y-136491432D02*
X88837987Y-133341432D01*
X90537987Y-136491432D02*
X88837987Y-136491432D01*
%TO.C,D38*%
X102443472Y-118236355D02*
X102443472Y-115086355D01*
X100743472Y-118236355D02*
X100743472Y-115086355D01*
X102443472Y-118236355D02*
X100743472Y-118236355D01*
%TO.C,D37*%
X92919084Y-99187579D02*
X92919084Y-96037579D01*
X91219084Y-99187579D02*
X91219084Y-96037579D01*
X92919084Y-99187579D02*
X91219084Y-99187579D01*
%TO.C,D36*%
X88156890Y-80138803D02*
X88156890Y-76988803D01*
X86456890Y-80138803D02*
X86456890Y-76988803D01*
X88156890Y-80138803D02*
X86456890Y-80138803D01*
%TO.C,D35*%
X78632502Y-61090027D02*
X78632502Y-57940027D01*
X76932502Y-61090027D02*
X76932502Y-57940027D01*
X78632502Y-61090027D02*
X76932502Y-61090027D01*
%TO.C,D34*%
X78632502Y-42041251D02*
X78632502Y-38891251D01*
X76932502Y-42041251D02*
X76932502Y-38891251D01*
X78632502Y-42041251D02*
X76932502Y-42041251D01*
%TO.C,D33*%
X66727017Y-136491432D02*
X66727017Y-133341432D01*
X65027017Y-136491432D02*
X65027017Y-133341432D01*
X66727017Y-136491432D02*
X65027017Y-136491432D01*
%TO.C,D32*%
X83394696Y-118236355D02*
X83394696Y-115086355D01*
X81694696Y-118236355D02*
X81694696Y-115086355D01*
X83394696Y-118236355D02*
X81694696Y-118236355D01*
%TO.C,D31*%
X73870308Y-99187579D02*
X73870308Y-96037579D01*
X72170308Y-99187579D02*
X72170308Y-96037579D01*
X73870308Y-99187579D02*
X72170308Y-99187579D01*
%TO.C,D30*%
X69108114Y-80138803D02*
X69108114Y-76988803D01*
X67408114Y-80138803D02*
X67408114Y-76988803D01*
X69108114Y-80138803D02*
X67408114Y-80138803D01*
%TO.C,D29*%
X59583726Y-61090027D02*
X59583726Y-57940027D01*
X57883726Y-61090027D02*
X57883726Y-57940027D01*
X59583726Y-61090027D02*
X57883726Y-61090027D01*
%TO.C,D28*%
X59583726Y-42041251D02*
X59583726Y-38891251D01*
X57883726Y-42041251D02*
X57883726Y-38891251D01*
X59583726Y-42041251D02*
X57883726Y-42041251D01*
%TO.C,D27*%
X42916047Y-136491432D02*
X42916047Y-133341432D01*
X41216047Y-136491432D02*
X41216047Y-133341432D01*
X42916047Y-136491432D02*
X41216047Y-136491432D01*
%TO.C,D26*%
X52440435Y-118236355D02*
X52440435Y-115086355D01*
X50740435Y-118236355D02*
X50740435Y-115086355D01*
X52440435Y-118236355D02*
X50740435Y-118236355D01*
%TO.C,D25*%
X47678241Y-99187579D02*
X47678241Y-96037579D01*
X45978241Y-99187579D02*
X45978241Y-96037579D01*
X47678241Y-99187579D02*
X45978241Y-99187579D01*
%TO.C,D24*%
X45297144Y-80138803D02*
X45297144Y-76988803D01*
X43597144Y-80138803D02*
X43597144Y-76988803D01*
X45297144Y-80138803D02*
X43597144Y-80138803D01*
%TO.C,D23*%
X40534950Y-61090027D02*
X40534950Y-57940027D01*
X38834950Y-61090027D02*
X38834950Y-57940027D01*
X40534950Y-61090027D02*
X38834950Y-61090027D01*
%TO.C,D22*%
X40534950Y-42041251D02*
X40534950Y-38891251D01*
X38834950Y-42041251D02*
X38834950Y-38891251D01*
X40534950Y-42041251D02*
X38834950Y-42041251D01*
%TO.C,C5*%
X298255562Y-132134737D02*
X298255562Y-131842203D01*
X299275562Y-132134737D02*
X299275562Y-131842203D01*
%TO.C,C4*%
X260155562Y-129594737D02*
X260155562Y-129302203D01*
X261175562Y-129594737D02*
X261175562Y-129302203D01*
%TO.C,C3*%
X217610562Y-129594737D02*
X217610562Y-129302203D01*
X218630562Y-129594737D02*
X218630562Y-129302203D01*
%TO.C,C2*%
X155380562Y-129594737D02*
X155380562Y-129302203D01*
X156400562Y-129594737D02*
X156400562Y-129302203D01*
%TO.C,C1*%
X69405562Y-118052203D02*
X69405562Y-118344737D01*
X68385562Y-118052203D02*
X68385562Y-118344737D01*
%TO.C,J2*%
D10*
X34010181Y-64784303D02*
X33295895Y-64784303D01*
X33153038Y-64831922D01*
X33057800Y-64927160D01*
X33010181Y-65070017D01*
X33010181Y-65165255D01*
X33914942Y-64355731D02*
X33962562Y-64308112D01*
X34010181Y-64212874D01*
X34010181Y-63974779D01*
X33962562Y-63879541D01*
X33914942Y-63831922D01*
X33819704Y-63784303D01*
X33724466Y-63784303D01*
X33581609Y-63831922D01*
X33010181Y-64403350D01*
X33010181Y-63784303D01*
%TO.C,J1*%
X291201962Y-41557898D02*
X291916248Y-41557898D01*
X292059105Y-41510279D01*
X292154343Y-41415041D01*
X292201962Y-41272184D01*
X292201962Y-41176946D01*
X292201962Y-42557898D02*
X292201962Y-41986470D01*
X292201962Y-42272184D02*
X291201962Y-42272184D01*
X291344820Y-42176946D01*
X291440058Y-42081708D01*
X291487677Y-41986470D01*
%TO.C,USB1*%
X308558657Y-20393350D02*
X308558657Y-21202874D01*
X308511038Y-21298112D01*
X308463419Y-21345731D01*
X308368181Y-21393350D01*
X308177704Y-21393350D01*
X308082466Y-21345731D01*
X308034847Y-21298112D01*
X307987228Y-21202874D01*
X307987228Y-20393350D01*
X307558657Y-21345731D02*
X307415800Y-21393350D01*
X307177704Y-21393350D01*
X307082466Y-21345731D01*
X307034847Y-21298112D01*
X306987228Y-21202874D01*
X306987228Y-21107636D01*
X307034847Y-21012398D01*
X307082466Y-20964779D01*
X307177704Y-20917160D01*
X307368181Y-20869541D01*
X307463419Y-20821922D01*
X307511038Y-20774303D01*
X307558657Y-20679065D01*
X307558657Y-20583827D01*
X307511038Y-20488589D01*
X307463419Y-20440970D01*
X307368181Y-20393350D01*
X307130085Y-20393350D01*
X306987228Y-20440970D01*
X306225323Y-20869541D02*
X306082466Y-20917160D01*
X306034847Y-20964779D01*
X305987228Y-21060017D01*
X305987228Y-21202874D01*
X306034847Y-21298112D01*
X306082466Y-21345731D01*
X306177704Y-21393350D01*
X306558657Y-21393350D01*
X306558657Y-20393350D01*
X306225323Y-20393350D01*
X306130085Y-20440970D01*
X306082466Y-20488589D01*
X306034847Y-20583827D01*
X306034847Y-20679065D01*
X306082466Y-20774303D01*
X306130085Y-20821922D01*
X306225323Y-20869541D01*
X306558657Y-20869541D01*
X305034847Y-21393350D02*
X305606276Y-21393350D01*
X305320562Y-21393350D02*
X305320562Y-20393350D01*
X305415800Y-20536208D01*
X305511038Y-20631446D01*
X305606276Y-20679065D01*
%TO.C,U6*%
X299712942Y-125349065D02*
X300522466Y-125349065D01*
X300617704Y-125396684D01*
X300665323Y-125444303D01*
X300712942Y-125539541D01*
X300712942Y-125730017D01*
X300665323Y-125825255D01*
X300617704Y-125872874D01*
X300522466Y-125920493D01*
X299712942Y-125920493D01*
X299712942Y-126825255D02*
X299712942Y-126634779D01*
X299760562Y-126539541D01*
X299808181Y-126491922D01*
X299951038Y-126396684D01*
X300141514Y-126349065D01*
X300522466Y-126349065D01*
X300617704Y-126396684D01*
X300665323Y-126444303D01*
X300712942Y-126539541D01*
X300712942Y-126730017D01*
X300665323Y-126825255D01*
X300617704Y-126872874D01*
X300522466Y-126920493D01*
X300284371Y-126920493D01*
X300189133Y-126872874D01*
X300141514Y-126825255D01*
X300093895Y-126730017D01*
X300093895Y-126539541D01*
X300141514Y-126444303D01*
X300189133Y-126396684D01*
X300284371Y-126349065D01*
%TO.C,U5*%
X259707942Y-125349065D02*
X260517466Y-125349065D01*
X260612704Y-125396684D01*
X260660323Y-125444303D01*
X260707942Y-125539541D01*
X260707942Y-125730017D01*
X260660323Y-125825255D01*
X260612704Y-125872874D01*
X260517466Y-125920493D01*
X259707942Y-125920493D01*
X259707942Y-126872874D02*
X259707942Y-126396684D01*
X260184133Y-126349065D01*
X260136514Y-126396684D01*
X260088895Y-126491922D01*
X260088895Y-126730017D01*
X260136514Y-126825255D01*
X260184133Y-126872874D01*
X260279371Y-126920493D01*
X260517466Y-126920493D01*
X260612704Y-126872874D01*
X260660323Y-126825255D01*
X260707942Y-126730017D01*
X260707942Y-126491922D01*
X260660323Y-126396684D01*
X260612704Y-126349065D01*
%TO.C,U4*%
X217162942Y-125349065D02*
X217972466Y-125349065D01*
X218067704Y-125396684D01*
X218115323Y-125444303D01*
X218162942Y-125539541D01*
X218162942Y-125730017D01*
X218115323Y-125825255D01*
X218067704Y-125872874D01*
X217972466Y-125920493D01*
X217162942Y-125920493D01*
X217496276Y-126825255D02*
X218162942Y-126825255D01*
X217115323Y-126587160D02*
X217829609Y-126349065D01*
X217829609Y-126968112D01*
%TO.C,U3*%
X154924986Y-125342333D02*
X155734510Y-125342333D01*
X155829748Y-125389952D01*
X155877367Y-125437571D01*
X155924986Y-125532809D01*
X155924986Y-125723285D01*
X155877367Y-125818523D01*
X155829748Y-125866142D01*
X155734510Y-125913761D01*
X154924986Y-125913761D01*
X154924986Y-126294714D02*
X154924986Y-126913761D01*
X155305939Y-126580428D01*
X155305939Y-126723285D01*
X155353558Y-126818523D01*
X155401177Y-126866142D01*
X155496415Y-126913761D01*
X155734510Y-126913761D01*
X155829748Y-126866142D01*
X155877367Y-126818523D01*
X155924986Y-126723285D01*
X155924986Y-126437571D01*
X155877367Y-126342333D01*
X155829748Y-126294714D01*
%TO.C,U2*%
X68757942Y-120767945D02*
X69567466Y-120767945D01*
X69662704Y-120815564D01*
X69710323Y-120863183D01*
X69757942Y-120958421D01*
X69757942Y-121148897D01*
X69710323Y-121244135D01*
X69662704Y-121291754D01*
X69567466Y-121339373D01*
X68757942Y-121339373D01*
X68853181Y-121767945D02*
X68805562Y-121815564D01*
X68757942Y-121910802D01*
X68757942Y-122148897D01*
X68805562Y-122244135D01*
X68853181Y-122291754D01*
X68948419Y-122339373D01*
X69043657Y-122339373D01*
X69186514Y-122291754D01*
X69757942Y-121720326D01*
X69757942Y-122339373D01*
%TO.C,U1*%
D12*
X308265085Y-60837874D02*
X308265085Y-61485493D01*
X308226990Y-61561684D01*
X308188895Y-61599779D01*
X308112704Y-61637874D01*
X307960323Y-61637874D01*
X307884133Y-61599779D01*
X307846038Y-61561684D01*
X307807942Y-61485493D01*
X307807942Y-60837874D01*
X307007942Y-61637874D02*
X307465085Y-61637874D01*
X307236514Y-61637874D02*
X307236514Y-60837874D01*
X307312704Y-60952160D01*
X307388895Y-61028350D01*
X307465085Y-61066446D01*
%TO.C,SW1*%
D10*
X300557856Y-24901624D02*
X300414999Y-24949243D01*
X300176903Y-24949243D01*
X300081665Y-24901624D01*
X300034046Y-24854005D01*
X299986427Y-24758767D01*
X299986427Y-24663529D01*
X300034046Y-24568291D01*
X300081665Y-24520672D01*
X300176903Y-24473053D01*
X300367380Y-24425434D01*
X300462618Y-24377815D01*
X300510237Y-24330196D01*
X300557856Y-24234958D01*
X300557856Y-24139720D01*
X300510237Y-24044482D01*
X300462618Y-23996863D01*
X300367380Y-23949243D01*
X300129284Y-23949243D01*
X299986427Y-23996863D01*
X299653094Y-23949243D02*
X299414999Y-24949243D01*
X299224523Y-24234958D01*
X299034046Y-24949243D01*
X298795951Y-23949243D01*
X297891189Y-24949243D02*
X298462618Y-24949243D01*
X298176903Y-24949243D02*
X298176903Y-23949243D01*
X298272142Y-24092101D01*
X298367380Y-24187339D01*
X298462618Y-24234958D01*
%TO.C,R8*%
X295479728Y-133008350D02*
X295813062Y-132532160D01*
X296051157Y-133008350D02*
X296051157Y-132008350D01*
X295670204Y-132008350D01*
X295574966Y-132055970D01*
X295527347Y-132103589D01*
X295479728Y-132198827D01*
X295479728Y-132341684D01*
X295527347Y-132436922D01*
X295574966Y-132484541D01*
X295670204Y-132532160D01*
X296051157Y-132532160D01*
X294908300Y-132436922D02*
X295003538Y-132389303D01*
X295051157Y-132341684D01*
X295098776Y-132246446D01*
X295098776Y-132198827D01*
X295051157Y-132103589D01*
X295003538Y-132055970D01*
X294908300Y-132008350D01*
X294717823Y-132008350D01*
X294622585Y-132055970D01*
X294574966Y-132103589D01*
X294527347Y-132198827D01*
X294527347Y-132246446D01*
X294574966Y-132341684D01*
X294622585Y-132389303D01*
X294717823Y-132436922D01*
X294908300Y-132436922D01*
X295003538Y-132484541D01*
X295051157Y-132532160D01*
X295098776Y-132627398D01*
X295098776Y-132817874D01*
X295051157Y-132913112D01*
X295003538Y-132960731D01*
X294908300Y-133008350D01*
X294717823Y-133008350D01*
X294622585Y-132960731D01*
X294574966Y-132913112D01*
X294527347Y-132817874D01*
X294527347Y-132627398D01*
X294574966Y-132532160D01*
X294622585Y-132484541D01*
X294717823Y-132436922D01*
%TO.C,R7*%
X255474728Y-133008350D02*
X255808062Y-132532160D01*
X256046157Y-133008350D02*
X256046157Y-132008350D01*
X255665204Y-132008350D01*
X255569966Y-132055970D01*
X255522347Y-132103589D01*
X255474728Y-132198827D01*
X255474728Y-132341684D01*
X255522347Y-132436922D01*
X255569966Y-132484541D01*
X255665204Y-132532160D01*
X256046157Y-132532160D01*
X255141395Y-132008350D02*
X254474728Y-132008350D01*
X254903300Y-133008350D01*
%TO.C,R6*%
X212929728Y-133008350D02*
X213263062Y-132532160D01*
X213501157Y-133008350D02*
X213501157Y-132008350D01*
X213120204Y-132008350D01*
X213024966Y-132055970D01*
X212977347Y-132103589D01*
X212929728Y-132198827D01*
X212929728Y-132341684D01*
X212977347Y-132436922D01*
X213024966Y-132484541D01*
X213120204Y-132532160D01*
X213501157Y-132532160D01*
X212072585Y-132008350D02*
X212263062Y-132008350D01*
X212358300Y-132055970D01*
X212405919Y-132103589D01*
X212501157Y-132246446D01*
X212548776Y-132436922D01*
X212548776Y-132817874D01*
X212501157Y-132913112D01*
X212453538Y-132960731D01*
X212358300Y-133008350D01*
X212167823Y-133008350D01*
X212072585Y-132960731D01*
X212024966Y-132913112D01*
X211977347Y-132817874D01*
X211977347Y-132579779D01*
X212024966Y-132484541D01*
X212072585Y-132436922D01*
X212167823Y-132389303D01*
X212358300Y-132389303D01*
X212453538Y-132436922D01*
X212501157Y-132484541D01*
X212548776Y-132579779D01*
%TO.C,R5*%
X150699728Y-133008350D02*
X151033062Y-132532160D01*
X151271157Y-133008350D02*
X151271157Y-132008350D01*
X150890204Y-132008350D01*
X150794966Y-132055970D01*
X150747347Y-132103589D01*
X150699728Y-132198827D01*
X150699728Y-132341684D01*
X150747347Y-132436922D01*
X150794966Y-132484541D01*
X150890204Y-132532160D01*
X151271157Y-132532160D01*
X149794966Y-132008350D02*
X150271157Y-132008350D01*
X150318776Y-132484541D01*
X150271157Y-132436922D01*
X150175919Y-132389303D01*
X149937823Y-132389303D01*
X149842585Y-132436922D01*
X149794966Y-132484541D01*
X149747347Y-132579779D01*
X149747347Y-132817874D01*
X149794966Y-132913112D01*
X149842585Y-132960731D01*
X149937823Y-133008350D01*
X150175919Y-133008350D01*
X150271157Y-132960731D01*
X150318776Y-132913112D01*
%TO.C,R4*%
X74419728Y-115543350D02*
X74753062Y-115067160D01*
X74991157Y-115543350D02*
X74991157Y-114543350D01*
X74610204Y-114543350D01*
X74514966Y-114590970D01*
X74467347Y-114638589D01*
X74419728Y-114733827D01*
X74419728Y-114876684D01*
X74467347Y-114971922D01*
X74514966Y-115019541D01*
X74610204Y-115067160D01*
X74991157Y-115067160D01*
X73562585Y-114876684D02*
X73562585Y-115543350D01*
X73800681Y-114495731D02*
X74038776Y-115210017D01*
X73419728Y-115210017D01*
%TO.C,R3*%
X313871228Y-29089350D02*
X314204562Y-28613160D01*
X314442657Y-29089350D02*
X314442657Y-28089350D01*
X314061704Y-28089350D01*
X313966466Y-28136970D01*
X313918847Y-28184589D01*
X313871228Y-28279827D01*
X313871228Y-28422684D01*
X313918847Y-28517922D01*
X313966466Y-28565541D01*
X314061704Y-28613160D01*
X314442657Y-28613160D01*
X313537895Y-28089350D02*
X312918847Y-28089350D01*
X313252181Y-28470303D01*
X313109323Y-28470303D01*
X313014085Y-28517922D01*
X312966466Y-28565541D01*
X312918847Y-28660779D01*
X312918847Y-28898874D01*
X312966466Y-28994112D01*
X313014085Y-29041731D01*
X313109323Y-29089350D01*
X313395038Y-29089350D01*
X313490276Y-29041731D01*
X313537895Y-28994112D01*
%TO.C,F1*%
X308863895Y-29294541D02*
X309197228Y-29294541D01*
X309197228Y-29818350D02*
X309197228Y-28818350D01*
X308721038Y-28818350D01*
X307816276Y-29818350D02*
X308387704Y-29818350D01*
X308101990Y-29818350D02*
X308101990Y-28818350D01*
X308197228Y-28961208D01*
X308292466Y-29056446D01*
X308387704Y-29104065D01*
%TO.C,D100*%
X289621418Y-57499550D02*
X288621418Y-57499550D01*
X288621418Y-57737646D01*
X288669038Y-57880503D01*
X288764276Y-57975741D01*
X288859514Y-58023360D01*
X289049990Y-58070979D01*
X289192847Y-58070979D01*
X289383323Y-58023360D01*
X289478561Y-57975741D01*
X289573799Y-57880503D01*
X289621418Y-57737646D01*
X289621418Y-57499550D01*
X289621418Y-59023360D02*
X289621418Y-58451931D01*
X289621418Y-58737646D02*
X288621418Y-58737646D01*
X288764276Y-58642407D01*
X288859514Y-58547169D01*
X288907133Y-58451931D01*
X288621418Y-59642407D02*
X288621418Y-59737646D01*
X288669038Y-59832884D01*
X288716657Y-59880503D01*
X288811895Y-59928122D01*
X289002371Y-59975741D01*
X289240466Y-59975741D01*
X289430942Y-59928122D01*
X289526180Y-59880503D01*
X289573799Y-59832884D01*
X289621418Y-59737646D01*
X289621418Y-59642407D01*
X289573799Y-59547169D01*
X289526180Y-59499550D01*
X289430942Y-59451931D01*
X289240466Y-59404312D01*
X289002371Y-59404312D01*
X288811895Y-59451931D01*
X288716657Y-59499550D01*
X288669038Y-59547169D01*
X288621418Y-59642407D01*
X288621418Y-60594788D02*
X288621418Y-60690027D01*
X288669038Y-60785265D01*
X288716657Y-60832884D01*
X288811895Y-60880503D01*
X289002371Y-60928122D01*
X289240466Y-60928122D01*
X289430942Y-60880503D01*
X289526180Y-60832884D01*
X289573799Y-60785265D01*
X289621418Y-60690027D01*
X289621418Y-60594788D01*
X289573799Y-60499550D01*
X289526180Y-60451931D01*
X289430942Y-60404312D01*
X289240466Y-60356693D01*
X289002371Y-60356693D01*
X288811895Y-60404312D01*
X288716657Y-60451931D01*
X288669038Y-60499550D01*
X288621418Y-60594788D01*
%TO.C,D99*%
X289621418Y-38926965D02*
X288621418Y-38926965D01*
X288621418Y-39165060D01*
X288669038Y-39307917D01*
X288764276Y-39403155D01*
X288859514Y-39450774D01*
X289049990Y-39498393D01*
X289192847Y-39498393D01*
X289383323Y-39450774D01*
X289478561Y-39403155D01*
X289573799Y-39307917D01*
X289621418Y-39165060D01*
X289621418Y-38926965D01*
X289621418Y-39974584D02*
X289621418Y-40165060D01*
X289573799Y-40260298D01*
X289526180Y-40307917D01*
X289383323Y-40403155D01*
X289192847Y-40450774D01*
X288811895Y-40450774D01*
X288716657Y-40403155D01*
X288669038Y-40355536D01*
X288621418Y-40260298D01*
X288621418Y-40069822D01*
X288669038Y-39974584D01*
X288716657Y-39926965D01*
X288811895Y-39879346D01*
X289049990Y-39879346D01*
X289145228Y-39926965D01*
X289192847Y-39974584D01*
X289240466Y-40069822D01*
X289240466Y-40260298D01*
X289192847Y-40355536D01*
X289145228Y-40403155D01*
X289049990Y-40450774D01*
X289621418Y-40926965D02*
X289621418Y-41117441D01*
X289573799Y-41212679D01*
X289526180Y-41260298D01*
X289383323Y-41355536D01*
X289192847Y-41403155D01*
X288811895Y-41403155D01*
X288716657Y-41355536D01*
X288669038Y-41307917D01*
X288621418Y-41212679D01*
X288621418Y-41022203D01*
X288669038Y-40926965D01*
X288716657Y-40879346D01*
X288811895Y-40831727D01*
X289049990Y-40831727D01*
X289145228Y-40879346D01*
X289192847Y-40926965D01*
X289240466Y-41022203D01*
X289240466Y-41212679D01*
X289192847Y-41307917D01*
X289145228Y-41355536D01*
X289049990Y-41403155D01*
%TO.C,D98*%
X308670194Y-133377146D02*
X307670194Y-133377146D01*
X307670194Y-133615241D01*
X307717814Y-133758098D01*
X307813052Y-133853336D01*
X307908290Y-133900955D01*
X308098766Y-133948574D01*
X308241623Y-133948574D01*
X308432099Y-133900955D01*
X308527337Y-133853336D01*
X308622575Y-133758098D01*
X308670194Y-133615241D01*
X308670194Y-133377146D01*
X308670194Y-134424765D02*
X308670194Y-134615241D01*
X308622575Y-134710479D01*
X308574956Y-134758098D01*
X308432099Y-134853336D01*
X308241623Y-134900955D01*
X307860671Y-134900955D01*
X307765433Y-134853336D01*
X307717814Y-134805717D01*
X307670194Y-134710479D01*
X307670194Y-134520003D01*
X307717814Y-134424765D01*
X307765433Y-134377146D01*
X307860671Y-134329527D01*
X308098766Y-134329527D01*
X308194004Y-134377146D01*
X308241623Y-134424765D01*
X308289242Y-134520003D01*
X308289242Y-134710479D01*
X308241623Y-134805717D01*
X308194004Y-134853336D01*
X308098766Y-134900955D01*
X308098766Y-135472384D02*
X308051147Y-135377146D01*
X308003528Y-135329527D01*
X307908290Y-135281908D01*
X307860671Y-135281908D01*
X307765433Y-135329527D01*
X307717814Y-135377146D01*
X307670194Y-135472384D01*
X307670194Y-135662860D01*
X307717814Y-135758098D01*
X307765433Y-135805717D01*
X307860671Y-135853336D01*
X307908290Y-135853336D01*
X308003528Y-135805717D01*
X308051147Y-135758098D01*
X308098766Y-135662860D01*
X308098766Y-135472384D01*
X308146385Y-135377146D01*
X308194004Y-135329527D01*
X308289242Y-135281908D01*
X308479718Y-135281908D01*
X308574956Y-135329527D01*
X308622575Y-135377146D01*
X308670194Y-135472384D01*
X308670194Y-135662860D01*
X308622575Y-135758098D01*
X308574956Y-135805717D01*
X308479718Y-135853336D01*
X308289242Y-135853336D01*
X308194004Y-135805717D01*
X308146385Y-135758098D01*
X308098766Y-135662860D01*
%TO.C,D97*%
X303908000Y-77024517D02*
X302908000Y-77024517D01*
X302908000Y-77262612D01*
X302955620Y-77405469D01*
X303050858Y-77500707D01*
X303146096Y-77548326D01*
X303336572Y-77595945D01*
X303479429Y-77595945D01*
X303669905Y-77548326D01*
X303765143Y-77500707D01*
X303860381Y-77405469D01*
X303908000Y-77262612D01*
X303908000Y-77024517D01*
X303908000Y-78072136D02*
X303908000Y-78262612D01*
X303860381Y-78357850D01*
X303812762Y-78405469D01*
X303669905Y-78500707D01*
X303479429Y-78548326D01*
X303098477Y-78548326D01*
X303003239Y-78500707D01*
X302955620Y-78453088D01*
X302908000Y-78357850D01*
X302908000Y-78167374D01*
X302955620Y-78072136D01*
X303003239Y-78024517D01*
X303098477Y-77976898D01*
X303336572Y-77976898D01*
X303431810Y-78024517D01*
X303479429Y-78072136D01*
X303527048Y-78167374D01*
X303527048Y-78357850D01*
X303479429Y-78453088D01*
X303431810Y-78500707D01*
X303336572Y-78548326D01*
X302908000Y-78881660D02*
X302908000Y-79548326D01*
X303908000Y-79119755D01*
%TO.C,D96*%
X289621418Y-133377146D02*
X288621418Y-133377146D01*
X288621418Y-133615241D01*
X288669038Y-133758098D01*
X288764276Y-133853336D01*
X288859514Y-133900955D01*
X289049990Y-133948574D01*
X289192847Y-133948574D01*
X289383323Y-133900955D01*
X289478561Y-133853336D01*
X289573799Y-133758098D01*
X289621418Y-133615241D01*
X289621418Y-133377146D01*
X289621418Y-134424765D02*
X289621418Y-134615241D01*
X289573799Y-134710479D01*
X289526180Y-134758098D01*
X289383323Y-134853336D01*
X289192847Y-134900955D01*
X288811895Y-134900955D01*
X288716657Y-134853336D01*
X288669038Y-134805717D01*
X288621418Y-134710479D01*
X288621418Y-134520003D01*
X288669038Y-134424765D01*
X288716657Y-134377146D01*
X288811895Y-134329527D01*
X289049990Y-134329527D01*
X289145228Y-134377146D01*
X289192847Y-134424765D01*
X289240466Y-134520003D01*
X289240466Y-134710479D01*
X289192847Y-134805717D01*
X289145228Y-134853336D01*
X289049990Y-134900955D01*
X288621418Y-135758098D02*
X288621418Y-135567622D01*
X288669038Y-135472384D01*
X288716657Y-135424765D01*
X288859514Y-135329527D01*
X289049990Y-135281908D01*
X289430942Y-135281908D01*
X289526180Y-135329527D01*
X289573799Y-135377146D01*
X289621418Y-135472384D01*
X289621418Y-135662860D01*
X289573799Y-135758098D01*
X289526180Y-135805717D01*
X289430942Y-135853336D01*
X289192847Y-135853336D01*
X289097609Y-135805717D01*
X289049990Y-135758098D01*
X289002371Y-135662860D01*
X289002371Y-135472384D01*
X289049990Y-135377146D01*
X289097609Y-135329527D01*
X289192847Y-135281908D01*
%TO.C,D95*%
X289621418Y-115122069D02*
X288621418Y-115122069D01*
X288621418Y-115360164D01*
X288669038Y-115503021D01*
X288764276Y-115598259D01*
X288859514Y-115645878D01*
X289049990Y-115693497D01*
X289192847Y-115693497D01*
X289383323Y-115645878D01*
X289478561Y-115598259D01*
X289573799Y-115503021D01*
X289621418Y-115360164D01*
X289621418Y-115122069D01*
X289621418Y-116169688D02*
X289621418Y-116360164D01*
X289573799Y-116455402D01*
X289526180Y-116503021D01*
X289383323Y-116598259D01*
X289192847Y-116645878D01*
X288811895Y-116645878D01*
X288716657Y-116598259D01*
X288669038Y-116550640D01*
X288621418Y-116455402D01*
X288621418Y-116264926D01*
X288669038Y-116169688D01*
X288716657Y-116122069D01*
X288811895Y-116074450D01*
X289049990Y-116074450D01*
X289145228Y-116122069D01*
X289192847Y-116169688D01*
X289240466Y-116264926D01*
X289240466Y-116455402D01*
X289192847Y-116550640D01*
X289145228Y-116598259D01*
X289049990Y-116645878D01*
X288621418Y-117550640D02*
X288621418Y-117074450D01*
X289097609Y-117026831D01*
X289049990Y-117074450D01*
X289002371Y-117169688D01*
X289002371Y-117407783D01*
X289049990Y-117503021D01*
X289097609Y-117550640D01*
X289192847Y-117598259D01*
X289430942Y-117598259D01*
X289526180Y-117550640D01*
X289573799Y-117503021D01*
X289621418Y-117407783D01*
X289621418Y-117169688D01*
X289573799Y-117074450D01*
X289526180Y-117026831D01*
%TO.C,D94*%
X296764709Y-96073293D02*
X295764709Y-96073293D01*
X295764709Y-96311388D01*
X295812329Y-96454245D01*
X295907567Y-96549483D01*
X296002805Y-96597102D01*
X296193281Y-96644721D01*
X296336138Y-96644721D01*
X296526614Y-96597102D01*
X296621852Y-96549483D01*
X296717090Y-96454245D01*
X296764709Y-96311388D01*
X296764709Y-96073293D01*
X296764709Y-97120912D02*
X296764709Y-97311388D01*
X296717090Y-97406626D01*
X296669471Y-97454245D01*
X296526614Y-97549483D01*
X296336138Y-97597102D01*
X295955186Y-97597102D01*
X295859948Y-97549483D01*
X295812329Y-97501864D01*
X295764709Y-97406626D01*
X295764709Y-97216150D01*
X295812329Y-97120912D01*
X295859948Y-97073293D01*
X295955186Y-97025674D01*
X296193281Y-97025674D01*
X296288519Y-97073293D01*
X296336138Y-97120912D01*
X296383757Y-97216150D01*
X296383757Y-97406626D01*
X296336138Y-97501864D01*
X296288519Y-97549483D01*
X296193281Y-97597102D01*
X296098043Y-98454245D02*
X296764709Y-98454245D01*
X295717090Y-98216150D02*
X296431376Y-97978055D01*
X296431376Y-98597102D01*
%TO.C,D93*%
X280097030Y-77024517D02*
X279097030Y-77024517D01*
X279097030Y-77262612D01*
X279144650Y-77405469D01*
X279239888Y-77500707D01*
X279335126Y-77548326D01*
X279525602Y-77595945D01*
X279668459Y-77595945D01*
X279858935Y-77548326D01*
X279954173Y-77500707D01*
X280049411Y-77405469D01*
X280097030Y-77262612D01*
X280097030Y-77024517D01*
X280097030Y-78072136D02*
X280097030Y-78262612D01*
X280049411Y-78357850D01*
X280001792Y-78405469D01*
X279858935Y-78500707D01*
X279668459Y-78548326D01*
X279287507Y-78548326D01*
X279192269Y-78500707D01*
X279144650Y-78453088D01*
X279097030Y-78357850D01*
X279097030Y-78167374D01*
X279144650Y-78072136D01*
X279192269Y-78024517D01*
X279287507Y-77976898D01*
X279525602Y-77976898D01*
X279620840Y-78024517D01*
X279668459Y-78072136D01*
X279716078Y-78167374D01*
X279716078Y-78357850D01*
X279668459Y-78453088D01*
X279620840Y-78500707D01*
X279525602Y-78548326D01*
X279097030Y-78881660D02*
X279097030Y-79500707D01*
X279477983Y-79167374D01*
X279477983Y-79310231D01*
X279525602Y-79405469D01*
X279573221Y-79453088D01*
X279668459Y-79500707D01*
X279906554Y-79500707D01*
X280001792Y-79453088D01*
X280049411Y-79405469D01*
X280097030Y-79310231D01*
X280097030Y-79024517D01*
X280049411Y-78929279D01*
X280001792Y-78881660D01*
%TO.C,D92*%
X270572642Y-57975741D02*
X269572642Y-57975741D01*
X269572642Y-58213836D01*
X269620262Y-58356693D01*
X269715500Y-58451931D01*
X269810738Y-58499550D01*
X270001214Y-58547169D01*
X270144071Y-58547169D01*
X270334547Y-58499550D01*
X270429785Y-58451931D01*
X270525023Y-58356693D01*
X270572642Y-58213836D01*
X270572642Y-57975741D01*
X270572642Y-59023360D02*
X270572642Y-59213836D01*
X270525023Y-59309074D01*
X270477404Y-59356693D01*
X270334547Y-59451931D01*
X270144071Y-59499550D01*
X269763119Y-59499550D01*
X269667881Y-59451931D01*
X269620262Y-59404312D01*
X269572642Y-59309074D01*
X269572642Y-59118598D01*
X269620262Y-59023360D01*
X269667881Y-58975741D01*
X269763119Y-58928122D01*
X270001214Y-58928122D01*
X270096452Y-58975741D01*
X270144071Y-59023360D01*
X270191690Y-59118598D01*
X270191690Y-59309074D01*
X270144071Y-59404312D01*
X270096452Y-59451931D01*
X270001214Y-59499550D01*
X269667881Y-59880503D02*
X269620262Y-59928122D01*
X269572642Y-60023360D01*
X269572642Y-60261455D01*
X269620262Y-60356693D01*
X269667881Y-60404312D01*
X269763119Y-60451931D01*
X269858357Y-60451931D01*
X270001214Y-60404312D01*
X270572642Y-59832884D01*
X270572642Y-60451931D01*
%TO.C,D91*%
X270572642Y-38926965D02*
X269572642Y-38926965D01*
X269572642Y-39165060D01*
X269620262Y-39307917D01*
X269715500Y-39403155D01*
X269810738Y-39450774D01*
X270001214Y-39498393D01*
X270144071Y-39498393D01*
X270334547Y-39450774D01*
X270429785Y-39403155D01*
X270525023Y-39307917D01*
X270572642Y-39165060D01*
X270572642Y-38926965D01*
X270572642Y-39974584D02*
X270572642Y-40165060D01*
X270525023Y-40260298D01*
X270477404Y-40307917D01*
X270334547Y-40403155D01*
X270144071Y-40450774D01*
X269763119Y-40450774D01*
X269667881Y-40403155D01*
X269620262Y-40355536D01*
X269572642Y-40260298D01*
X269572642Y-40069822D01*
X269620262Y-39974584D01*
X269667881Y-39926965D01*
X269763119Y-39879346D01*
X270001214Y-39879346D01*
X270096452Y-39926965D01*
X270144071Y-39974584D01*
X270191690Y-40069822D01*
X270191690Y-40260298D01*
X270144071Y-40355536D01*
X270096452Y-40403155D01*
X270001214Y-40450774D01*
X270572642Y-41403155D02*
X270572642Y-40831727D01*
X270572642Y-41117441D02*
X269572642Y-41117441D01*
X269715500Y-41022203D01*
X269810738Y-40926965D01*
X269858357Y-40831727D01*
%TO.C,D90*%
X265810448Y-96073293D02*
X264810448Y-96073293D01*
X264810448Y-96311388D01*
X264858068Y-96454245D01*
X264953306Y-96549483D01*
X265048544Y-96597102D01*
X265239020Y-96644721D01*
X265381877Y-96644721D01*
X265572353Y-96597102D01*
X265667591Y-96549483D01*
X265762829Y-96454245D01*
X265810448Y-96311388D01*
X265810448Y-96073293D01*
X265810448Y-97120912D02*
X265810448Y-97311388D01*
X265762829Y-97406626D01*
X265715210Y-97454245D01*
X265572353Y-97549483D01*
X265381877Y-97597102D01*
X265000925Y-97597102D01*
X264905687Y-97549483D01*
X264858068Y-97501864D01*
X264810448Y-97406626D01*
X264810448Y-97216150D01*
X264858068Y-97120912D01*
X264905687Y-97073293D01*
X265000925Y-97025674D01*
X265239020Y-97025674D01*
X265334258Y-97073293D01*
X265381877Y-97120912D01*
X265429496Y-97216150D01*
X265429496Y-97406626D01*
X265381877Y-97501864D01*
X265334258Y-97549483D01*
X265239020Y-97597102D01*
X264810448Y-98216150D02*
X264810448Y-98311388D01*
X264858068Y-98406626D01*
X264905687Y-98454245D01*
X265000925Y-98501864D01*
X265191401Y-98549483D01*
X265429496Y-98549483D01*
X265619972Y-98501864D01*
X265715210Y-98454245D01*
X265762829Y-98406626D01*
X265810448Y-98311388D01*
X265810448Y-98216150D01*
X265762829Y-98120912D01*
X265715210Y-98073293D01*
X265619972Y-98025674D01*
X265429496Y-97978055D01*
X265191401Y-97978055D01*
X265000925Y-98025674D01*
X264905687Y-98073293D01*
X264858068Y-98120912D01*
X264810448Y-98216150D01*
%TO.C,D89*%
X261048254Y-77024517D02*
X260048254Y-77024517D01*
X260048254Y-77262612D01*
X260095874Y-77405469D01*
X260191112Y-77500707D01*
X260286350Y-77548326D01*
X260476826Y-77595945D01*
X260619683Y-77595945D01*
X260810159Y-77548326D01*
X260905397Y-77500707D01*
X261000635Y-77405469D01*
X261048254Y-77262612D01*
X261048254Y-77024517D01*
X260476826Y-78167374D02*
X260429207Y-78072136D01*
X260381588Y-78024517D01*
X260286350Y-77976898D01*
X260238731Y-77976898D01*
X260143493Y-78024517D01*
X260095874Y-78072136D01*
X260048254Y-78167374D01*
X260048254Y-78357850D01*
X260095874Y-78453088D01*
X260143493Y-78500707D01*
X260238731Y-78548326D01*
X260286350Y-78548326D01*
X260381588Y-78500707D01*
X260429207Y-78453088D01*
X260476826Y-78357850D01*
X260476826Y-78167374D01*
X260524445Y-78072136D01*
X260572064Y-78024517D01*
X260667302Y-77976898D01*
X260857778Y-77976898D01*
X260953016Y-78024517D01*
X261000635Y-78072136D01*
X261048254Y-78167374D01*
X261048254Y-78357850D01*
X261000635Y-78453088D01*
X260953016Y-78500707D01*
X260857778Y-78548326D01*
X260667302Y-78548326D01*
X260572064Y-78500707D01*
X260524445Y-78453088D01*
X260476826Y-78357850D01*
X261048254Y-79024517D02*
X261048254Y-79214993D01*
X261000635Y-79310231D01*
X260953016Y-79357850D01*
X260810159Y-79453088D01*
X260619683Y-79500707D01*
X260238731Y-79500707D01*
X260143493Y-79453088D01*
X260095874Y-79405469D01*
X260048254Y-79310231D01*
X260048254Y-79119755D01*
X260095874Y-79024517D01*
X260143493Y-78976898D01*
X260238731Y-78929279D01*
X260476826Y-78929279D01*
X260572064Y-78976898D01*
X260619683Y-79024517D01*
X260667302Y-79119755D01*
X260667302Y-79310231D01*
X260619683Y-79405469D01*
X260572064Y-79453088D01*
X260476826Y-79500707D01*
%TO.C,D88*%
X251523866Y-57975741D02*
X250523866Y-57975741D01*
X250523866Y-58213836D01*
X250571486Y-58356693D01*
X250666724Y-58451931D01*
X250761962Y-58499550D01*
X250952438Y-58547169D01*
X251095295Y-58547169D01*
X251285771Y-58499550D01*
X251381009Y-58451931D01*
X251476247Y-58356693D01*
X251523866Y-58213836D01*
X251523866Y-57975741D01*
X250952438Y-59118598D02*
X250904819Y-59023360D01*
X250857200Y-58975741D01*
X250761962Y-58928122D01*
X250714343Y-58928122D01*
X250619105Y-58975741D01*
X250571486Y-59023360D01*
X250523866Y-59118598D01*
X250523866Y-59309074D01*
X250571486Y-59404312D01*
X250619105Y-59451931D01*
X250714343Y-59499550D01*
X250761962Y-59499550D01*
X250857200Y-59451931D01*
X250904819Y-59404312D01*
X250952438Y-59309074D01*
X250952438Y-59118598D01*
X251000057Y-59023360D01*
X251047676Y-58975741D01*
X251142914Y-58928122D01*
X251333390Y-58928122D01*
X251428628Y-58975741D01*
X251476247Y-59023360D01*
X251523866Y-59118598D01*
X251523866Y-59309074D01*
X251476247Y-59404312D01*
X251428628Y-59451931D01*
X251333390Y-59499550D01*
X251142914Y-59499550D01*
X251047676Y-59451931D01*
X251000057Y-59404312D01*
X250952438Y-59309074D01*
X250952438Y-60070979D02*
X250904819Y-59975741D01*
X250857200Y-59928122D01*
X250761962Y-59880503D01*
X250714343Y-59880503D01*
X250619105Y-59928122D01*
X250571486Y-59975741D01*
X250523866Y-60070979D01*
X250523866Y-60261455D01*
X250571486Y-60356693D01*
X250619105Y-60404312D01*
X250714343Y-60451931D01*
X250761962Y-60451931D01*
X250857200Y-60404312D01*
X250904819Y-60356693D01*
X250952438Y-60261455D01*
X250952438Y-60070979D01*
X251000057Y-59975741D01*
X251047676Y-59928122D01*
X251142914Y-59880503D01*
X251333390Y-59880503D01*
X251428628Y-59928122D01*
X251476247Y-59975741D01*
X251523866Y-60070979D01*
X251523866Y-60261455D01*
X251476247Y-60356693D01*
X251428628Y-60404312D01*
X251333390Y-60451931D01*
X251142914Y-60451931D01*
X251047676Y-60404312D01*
X251000057Y-60356693D01*
X250952438Y-60261455D01*
%TO.C,D87*%
X251523866Y-38926965D02*
X250523866Y-38926965D01*
X250523866Y-39165060D01*
X250571486Y-39307917D01*
X250666724Y-39403155D01*
X250761962Y-39450774D01*
X250952438Y-39498393D01*
X251095295Y-39498393D01*
X251285771Y-39450774D01*
X251381009Y-39403155D01*
X251476247Y-39307917D01*
X251523866Y-39165060D01*
X251523866Y-38926965D01*
X250952438Y-40069822D02*
X250904819Y-39974584D01*
X250857200Y-39926965D01*
X250761962Y-39879346D01*
X250714343Y-39879346D01*
X250619105Y-39926965D01*
X250571486Y-39974584D01*
X250523866Y-40069822D01*
X250523866Y-40260298D01*
X250571486Y-40355536D01*
X250619105Y-40403155D01*
X250714343Y-40450774D01*
X250761962Y-40450774D01*
X250857200Y-40403155D01*
X250904819Y-40355536D01*
X250952438Y-40260298D01*
X250952438Y-40069822D01*
X251000057Y-39974584D01*
X251047676Y-39926965D01*
X251142914Y-39879346D01*
X251333390Y-39879346D01*
X251428628Y-39926965D01*
X251476247Y-39974584D01*
X251523866Y-40069822D01*
X251523866Y-40260298D01*
X251476247Y-40355536D01*
X251428628Y-40403155D01*
X251333390Y-40450774D01*
X251142914Y-40450774D01*
X251047676Y-40403155D01*
X251000057Y-40355536D01*
X250952438Y-40260298D01*
X250523866Y-40784108D02*
X250523866Y-41450774D01*
X251523866Y-41022203D01*
%TO.C,D86*%
X270572642Y-133377146D02*
X269572642Y-133377146D01*
X269572642Y-133615241D01*
X269620262Y-133758098D01*
X269715500Y-133853336D01*
X269810738Y-133900955D01*
X270001214Y-133948574D01*
X270144071Y-133948574D01*
X270334547Y-133900955D01*
X270429785Y-133853336D01*
X270525023Y-133758098D01*
X270572642Y-133615241D01*
X270572642Y-133377146D01*
X270001214Y-134520003D02*
X269953595Y-134424765D01*
X269905976Y-134377146D01*
X269810738Y-134329527D01*
X269763119Y-134329527D01*
X269667881Y-134377146D01*
X269620262Y-134424765D01*
X269572642Y-134520003D01*
X269572642Y-134710479D01*
X269620262Y-134805717D01*
X269667881Y-134853336D01*
X269763119Y-134900955D01*
X269810738Y-134900955D01*
X269905976Y-134853336D01*
X269953595Y-134805717D01*
X270001214Y-134710479D01*
X270001214Y-134520003D01*
X270048833Y-134424765D01*
X270096452Y-134377146D01*
X270191690Y-134329527D01*
X270382166Y-134329527D01*
X270477404Y-134377146D01*
X270525023Y-134424765D01*
X270572642Y-134520003D01*
X270572642Y-134710479D01*
X270525023Y-134805717D01*
X270477404Y-134853336D01*
X270382166Y-134900955D01*
X270191690Y-134900955D01*
X270096452Y-134853336D01*
X270048833Y-134805717D01*
X270001214Y-134710479D01*
X269572642Y-135758098D02*
X269572642Y-135567622D01*
X269620262Y-135472384D01*
X269667881Y-135424765D01*
X269810738Y-135329527D01*
X270001214Y-135281908D01*
X270382166Y-135281908D01*
X270477404Y-135329527D01*
X270525023Y-135377146D01*
X270572642Y-135472384D01*
X270572642Y-135662860D01*
X270525023Y-135758098D01*
X270477404Y-135805717D01*
X270382166Y-135853336D01*
X270144071Y-135853336D01*
X270048833Y-135805717D01*
X270001214Y-135758098D01*
X269953595Y-135662860D01*
X269953595Y-135472384D01*
X270001214Y-135377146D01*
X270048833Y-135329527D01*
X270144071Y-135281908D01*
%TO.C,D85*%
X256286060Y-115122069D02*
X255286060Y-115122069D01*
X255286060Y-115360164D01*
X255333680Y-115503021D01*
X255428918Y-115598259D01*
X255524156Y-115645878D01*
X255714632Y-115693497D01*
X255857489Y-115693497D01*
X256047965Y-115645878D01*
X256143203Y-115598259D01*
X256238441Y-115503021D01*
X256286060Y-115360164D01*
X256286060Y-115122069D01*
X255714632Y-116264926D02*
X255667013Y-116169688D01*
X255619394Y-116122069D01*
X255524156Y-116074450D01*
X255476537Y-116074450D01*
X255381299Y-116122069D01*
X255333680Y-116169688D01*
X255286060Y-116264926D01*
X255286060Y-116455402D01*
X255333680Y-116550640D01*
X255381299Y-116598259D01*
X255476537Y-116645878D01*
X255524156Y-116645878D01*
X255619394Y-116598259D01*
X255667013Y-116550640D01*
X255714632Y-116455402D01*
X255714632Y-116264926D01*
X255762251Y-116169688D01*
X255809870Y-116122069D01*
X255905108Y-116074450D01*
X256095584Y-116074450D01*
X256190822Y-116122069D01*
X256238441Y-116169688D01*
X256286060Y-116264926D01*
X256286060Y-116455402D01*
X256238441Y-116550640D01*
X256190822Y-116598259D01*
X256095584Y-116645878D01*
X255905108Y-116645878D01*
X255809870Y-116598259D01*
X255762251Y-116550640D01*
X255714632Y-116455402D01*
X255286060Y-117550640D02*
X255286060Y-117074450D01*
X255762251Y-117026831D01*
X255714632Y-117074450D01*
X255667013Y-117169688D01*
X255667013Y-117407783D01*
X255714632Y-117503021D01*
X255762251Y-117550640D01*
X255857489Y-117598259D01*
X256095584Y-117598259D01*
X256190822Y-117550640D01*
X256238441Y-117503021D01*
X256286060Y-117407783D01*
X256286060Y-117169688D01*
X256238441Y-117074450D01*
X256190822Y-117026831D01*
%TO.C,D84*%
X246761672Y-96073293D02*
X245761672Y-96073293D01*
X245761672Y-96311388D01*
X245809292Y-96454245D01*
X245904530Y-96549483D01*
X245999768Y-96597102D01*
X246190244Y-96644721D01*
X246333101Y-96644721D01*
X246523577Y-96597102D01*
X246618815Y-96549483D01*
X246714053Y-96454245D01*
X246761672Y-96311388D01*
X246761672Y-96073293D01*
X246190244Y-97216150D02*
X246142625Y-97120912D01*
X246095006Y-97073293D01*
X245999768Y-97025674D01*
X245952149Y-97025674D01*
X245856911Y-97073293D01*
X245809292Y-97120912D01*
X245761672Y-97216150D01*
X245761672Y-97406626D01*
X245809292Y-97501864D01*
X245856911Y-97549483D01*
X245952149Y-97597102D01*
X245999768Y-97597102D01*
X246095006Y-97549483D01*
X246142625Y-97501864D01*
X246190244Y-97406626D01*
X246190244Y-97216150D01*
X246237863Y-97120912D01*
X246285482Y-97073293D01*
X246380720Y-97025674D01*
X246571196Y-97025674D01*
X246666434Y-97073293D01*
X246714053Y-97120912D01*
X246761672Y-97216150D01*
X246761672Y-97406626D01*
X246714053Y-97501864D01*
X246666434Y-97549483D01*
X246571196Y-97597102D01*
X246380720Y-97597102D01*
X246285482Y-97549483D01*
X246237863Y-97501864D01*
X246190244Y-97406626D01*
X246095006Y-98454245D02*
X246761672Y-98454245D01*
X245714053Y-98216150D02*
X246428339Y-97978055D01*
X246428339Y-98597102D01*
%TO.C,D83*%
X241999478Y-77024517D02*
X240999478Y-77024517D01*
X240999478Y-77262612D01*
X241047098Y-77405469D01*
X241142336Y-77500707D01*
X241237574Y-77548326D01*
X241428050Y-77595945D01*
X241570907Y-77595945D01*
X241761383Y-77548326D01*
X241856621Y-77500707D01*
X241951859Y-77405469D01*
X241999478Y-77262612D01*
X241999478Y-77024517D01*
X241428050Y-78167374D02*
X241380431Y-78072136D01*
X241332812Y-78024517D01*
X241237574Y-77976898D01*
X241189955Y-77976898D01*
X241094717Y-78024517D01*
X241047098Y-78072136D01*
X240999478Y-78167374D01*
X240999478Y-78357850D01*
X241047098Y-78453088D01*
X241094717Y-78500707D01*
X241189955Y-78548326D01*
X241237574Y-78548326D01*
X241332812Y-78500707D01*
X241380431Y-78453088D01*
X241428050Y-78357850D01*
X241428050Y-78167374D01*
X241475669Y-78072136D01*
X241523288Y-78024517D01*
X241618526Y-77976898D01*
X241809002Y-77976898D01*
X241904240Y-78024517D01*
X241951859Y-78072136D01*
X241999478Y-78167374D01*
X241999478Y-78357850D01*
X241951859Y-78453088D01*
X241904240Y-78500707D01*
X241809002Y-78548326D01*
X241618526Y-78548326D01*
X241523288Y-78500707D01*
X241475669Y-78453088D01*
X241428050Y-78357850D01*
X240999478Y-78881660D02*
X240999478Y-79500707D01*
X241380431Y-79167374D01*
X241380431Y-79310231D01*
X241428050Y-79405469D01*
X241475669Y-79453088D01*
X241570907Y-79500707D01*
X241809002Y-79500707D01*
X241904240Y-79453088D01*
X241951859Y-79405469D01*
X241999478Y-79310231D01*
X241999478Y-79024517D01*
X241951859Y-78929279D01*
X241904240Y-78881660D01*
%TO.C,D82*%
X232475090Y-57975741D02*
X231475090Y-57975741D01*
X231475090Y-58213836D01*
X231522710Y-58356693D01*
X231617948Y-58451931D01*
X231713186Y-58499550D01*
X231903662Y-58547169D01*
X232046519Y-58547169D01*
X232236995Y-58499550D01*
X232332233Y-58451931D01*
X232427471Y-58356693D01*
X232475090Y-58213836D01*
X232475090Y-57975741D01*
X231903662Y-59118598D02*
X231856043Y-59023360D01*
X231808424Y-58975741D01*
X231713186Y-58928122D01*
X231665567Y-58928122D01*
X231570329Y-58975741D01*
X231522710Y-59023360D01*
X231475090Y-59118598D01*
X231475090Y-59309074D01*
X231522710Y-59404312D01*
X231570329Y-59451931D01*
X231665567Y-59499550D01*
X231713186Y-59499550D01*
X231808424Y-59451931D01*
X231856043Y-59404312D01*
X231903662Y-59309074D01*
X231903662Y-59118598D01*
X231951281Y-59023360D01*
X231998900Y-58975741D01*
X232094138Y-58928122D01*
X232284614Y-58928122D01*
X232379852Y-58975741D01*
X232427471Y-59023360D01*
X232475090Y-59118598D01*
X232475090Y-59309074D01*
X232427471Y-59404312D01*
X232379852Y-59451931D01*
X232284614Y-59499550D01*
X232094138Y-59499550D01*
X231998900Y-59451931D01*
X231951281Y-59404312D01*
X231903662Y-59309074D01*
X231570329Y-59880503D02*
X231522710Y-59928122D01*
X231475090Y-60023360D01*
X231475090Y-60261455D01*
X231522710Y-60356693D01*
X231570329Y-60404312D01*
X231665567Y-60451931D01*
X231760805Y-60451931D01*
X231903662Y-60404312D01*
X232475090Y-59832884D01*
X232475090Y-60451931D01*
%TO.C,D81*%
X232475090Y-38926965D02*
X231475090Y-38926965D01*
X231475090Y-39165060D01*
X231522710Y-39307917D01*
X231617948Y-39403155D01*
X231713186Y-39450774D01*
X231903662Y-39498393D01*
X232046519Y-39498393D01*
X232236995Y-39450774D01*
X232332233Y-39403155D01*
X232427471Y-39307917D01*
X232475090Y-39165060D01*
X232475090Y-38926965D01*
X231903662Y-40069822D02*
X231856043Y-39974584D01*
X231808424Y-39926965D01*
X231713186Y-39879346D01*
X231665567Y-39879346D01*
X231570329Y-39926965D01*
X231522710Y-39974584D01*
X231475090Y-40069822D01*
X231475090Y-40260298D01*
X231522710Y-40355536D01*
X231570329Y-40403155D01*
X231665567Y-40450774D01*
X231713186Y-40450774D01*
X231808424Y-40403155D01*
X231856043Y-40355536D01*
X231903662Y-40260298D01*
X231903662Y-40069822D01*
X231951281Y-39974584D01*
X231998900Y-39926965D01*
X232094138Y-39879346D01*
X232284614Y-39879346D01*
X232379852Y-39926965D01*
X232427471Y-39974584D01*
X232475090Y-40069822D01*
X232475090Y-40260298D01*
X232427471Y-40355536D01*
X232379852Y-40403155D01*
X232284614Y-40450774D01*
X232094138Y-40450774D01*
X231998900Y-40403155D01*
X231951281Y-40355536D01*
X231903662Y-40260298D01*
X232475090Y-41403155D02*
X232475090Y-40831727D01*
X232475090Y-41117441D02*
X231475090Y-41117441D01*
X231617948Y-41022203D01*
X231713186Y-40926965D01*
X231760805Y-40831727D01*
%TO.C,D80*%
X246761672Y-133377146D02*
X245761672Y-133377146D01*
X245761672Y-133615241D01*
X245809292Y-133758098D01*
X245904530Y-133853336D01*
X245999768Y-133900955D01*
X246190244Y-133948574D01*
X246333101Y-133948574D01*
X246523577Y-133900955D01*
X246618815Y-133853336D01*
X246714053Y-133758098D01*
X246761672Y-133615241D01*
X246761672Y-133377146D01*
X246190244Y-134520003D02*
X246142625Y-134424765D01*
X246095006Y-134377146D01*
X245999768Y-134329527D01*
X245952149Y-134329527D01*
X245856911Y-134377146D01*
X245809292Y-134424765D01*
X245761672Y-134520003D01*
X245761672Y-134710479D01*
X245809292Y-134805717D01*
X245856911Y-134853336D01*
X245952149Y-134900955D01*
X245999768Y-134900955D01*
X246095006Y-134853336D01*
X246142625Y-134805717D01*
X246190244Y-134710479D01*
X246190244Y-134520003D01*
X246237863Y-134424765D01*
X246285482Y-134377146D01*
X246380720Y-134329527D01*
X246571196Y-134329527D01*
X246666434Y-134377146D01*
X246714053Y-134424765D01*
X246761672Y-134520003D01*
X246761672Y-134710479D01*
X246714053Y-134805717D01*
X246666434Y-134853336D01*
X246571196Y-134900955D01*
X246380720Y-134900955D01*
X246285482Y-134853336D01*
X246237863Y-134805717D01*
X246190244Y-134710479D01*
X245761672Y-135520003D02*
X245761672Y-135615241D01*
X245809292Y-135710479D01*
X245856911Y-135758098D01*
X245952149Y-135805717D01*
X246142625Y-135853336D01*
X246380720Y-135853336D01*
X246571196Y-135805717D01*
X246666434Y-135758098D01*
X246714053Y-135710479D01*
X246761672Y-135615241D01*
X246761672Y-135520003D01*
X246714053Y-135424765D01*
X246666434Y-135377146D01*
X246571196Y-135329527D01*
X246380720Y-135281908D01*
X246142625Y-135281908D01*
X245952149Y-135329527D01*
X245856911Y-135377146D01*
X245809292Y-135424765D01*
X245761672Y-135520003D01*
%TO.C,D79*%
X237237284Y-115122069D02*
X236237284Y-115122069D01*
X236237284Y-115360164D01*
X236284904Y-115503021D01*
X236380142Y-115598259D01*
X236475380Y-115645878D01*
X236665856Y-115693497D01*
X236808713Y-115693497D01*
X236999189Y-115645878D01*
X237094427Y-115598259D01*
X237189665Y-115503021D01*
X237237284Y-115360164D01*
X237237284Y-115122069D01*
X236237284Y-116026831D02*
X236237284Y-116693497D01*
X237237284Y-116264926D01*
X237237284Y-117122069D02*
X237237284Y-117312545D01*
X237189665Y-117407783D01*
X237142046Y-117455402D01*
X236999189Y-117550640D01*
X236808713Y-117598259D01*
X236427761Y-117598259D01*
X236332523Y-117550640D01*
X236284904Y-117503021D01*
X236237284Y-117407783D01*
X236237284Y-117217307D01*
X236284904Y-117122069D01*
X236332523Y-117074450D01*
X236427761Y-117026831D01*
X236665856Y-117026831D01*
X236761094Y-117074450D01*
X236808713Y-117122069D01*
X236856332Y-117217307D01*
X236856332Y-117407783D01*
X236808713Y-117503021D01*
X236761094Y-117550640D01*
X236665856Y-117598259D01*
%TO.C,D78*%
X227712896Y-96073293D02*
X226712896Y-96073293D01*
X226712896Y-96311388D01*
X226760516Y-96454245D01*
X226855754Y-96549483D01*
X226950992Y-96597102D01*
X227141468Y-96644721D01*
X227284325Y-96644721D01*
X227474801Y-96597102D01*
X227570039Y-96549483D01*
X227665277Y-96454245D01*
X227712896Y-96311388D01*
X227712896Y-96073293D01*
X226712896Y-96978055D02*
X226712896Y-97644721D01*
X227712896Y-97216150D01*
X227141468Y-98168531D02*
X227093849Y-98073293D01*
X227046230Y-98025674D01*
X226950992Y-97978055D01*
X226903373Y-97978055D01*
X226808135Y-98025674D01*
X226760516Y-98073293D01*
X226712896Y-98168531D01*
X226712896Y-98359007D01*
X226760516Y-98454245D01*
X226808135Y-98501864D01*
X226903373Y-98549483D01*
X226950992Y-98549483D01*
X227046230Y-98501864D01*
X227093849Y-98454245D01*
X227141468Y-98359007D01*
X227141468Y-98168531D01*
X227189087Y-98073293D01*
X227236706Y-98025674D01*
X227331944Y-97978055D01*
X227522420Y-97978055D01*
X227617658Y-98025674D01*
X227665277Y-98073293D01*
X227712896Y-98168531D01*
X227712896Y-98359007D01*
X227665277Y-98454245D01*
X227617658Y-98501864D01*
X227522420Y-98549483D01*
X227331944Y-98549483D01*
X227236706Y-98501864D01*
X227189087Y-98454245D01*
X227141468Y-98359007D01*
%TO.C,D77*%
X222950702Y-77024517D02*
X221950702Y-77024517D01*
X221950702Y-77262612D01*
X221998322Y-77405469D01*
X222093560Y-77500707D01*
X222188798Y-77548326D01*
X222379274Y-77595945D01*
X222522131Y-77595945D01*
X222712607Y-77548326D01*
X222807845Y-77500707D01*
X222903083Y-77405469D01*
X222950702Y-77262612D01*
X222950702Y-77024517D01*
X221950702Y-77929279D02*
X221950702Y-78595945D01*
X222950702Y-78167374D01*
X221950702Y-78881660D02*
X221950702Y-79548326D01*
X222950702Y-79119755D01*
%TO.C,D76*%
X213426314Y-57975741D02*
X212426314Y-57975741D01*
X212426314Y-58213836D01*
X212473934Y-58356693D01*
X212569172Y-58451931D01*
X212664410Y-58499550D01*
X212854886Y-58547169D01*
X212997743Y-58547169D01*
X213188219Y-58499550D01*
X213283457Y-58451931D01*
X213378695Y-58356693D01*
X213426314Y-58213836D01*
X213426314Y-57975741D01*
X212426314Y-58880503D02*
X212426314Y-59547169D01*
X213426314Y-59118598D01*
X212426314Y-60356693D02*
X212426314Y-60166217D01*
X212473934Y-60070979D01*
X212521553Y-60023360D01*
X212664410Y-59928122D01*
X212854886Y-59880503D01*
X213235838Y-59880503D01*
X213331076Y-59928122D01*
X213378695Y-59975741D01*
X213426314Y-60070979D01*
X213426314Y-60261455D01*
X213378695Y-60356693D01*
X213331076Y-60404312D01*
X213235838Y-60451931D01*
X212997743Y-60451931D01*
X212902505Y-60404312D01*
X212854886Y-60356693D01*
X212807267Y-60261455D01*
X212807267Y-60070979D01*
X212854886Y-59975741D01*
X212902505Y-59928122D01*
X212997743Y-59880503D01*
%TO.C,D75*%
X213426314Y-38926965D02*
X212426314Y-38926965D01*
X212426314Y-39165060D01*
X212473934Y-39307917D01*
X212569172Y-39403155D01*
X212664410Y-39450774D01*
X212854886Y-39498393D01*
X212997743Y-39498393D01*
X213188219Y-39450774D01*
X213283457Y-39403155D01*
X213378695Y-39307917D01*
X213426314Y-39165060D01*
X213426314Y-38926965D01*
X212426314Y-39831727D02*
X212426314Y-40498393D01*
X213426314Y-40069822D01*
X212426314Y-41355536D02*
X212426314Y-40879346D01*
X212902505Y-40831727D01*
X212854886Y-40879346D01*
X212807267Y-40974584D01*
X212807267Y-41212679D01*
X212854886Y-41307917D01*
X212902505Y-41355536D01*
X212997743Y-41403155D01*
X213235838Y-41403155D01*
X213331076Y-41355536D01*
X213378695Y-41307917D01*
X213426314Y-41212679D01*
X213426314Y-40974584D01*
X213378695Y-40879346D01*
X213331076Y-40831727D01*
%TO.C,D74*%
X227712896Y-133377146D02*
X226712896Y-133377146D01*
X226712896Y-133615241D01*
X226760516Y-133758098D01*
X226855754Y-133853336D01*
X226950992Y-133900955D01*
X227141468Y-133948574D01*
X227284325Y-133948574D01*
X227474801Y-133900955D01*
X227570039Y-133853336D01*
X227665277Y-133758098D01*
X227712896Y-133615241D01*
X227712896Y-133377146D01*
X226712896Y-134281908D02*
X226712896Y-134948574D01*
X227712896Y-134520003D01*
X227046230Y-135758098D02*
X227712896Y-135758098D01*
X226665277Y-135520003D02*
X227379563Y-135281908D01*
X227379563Y-135900955D01*
%TO.C,D73*%
X218188508Y-115122069D02*
X217188508Y-115122069D01*
X217188508Y-115360164D01*
X217236128Y-115503021D01*
X217331366Y-115598259D01*
X217426604Y-115645878D01*
X217617080Y-115693497D01*
X217759937Y-115693497D01*
X217950413Y-115645878D01*
X218045651Y-115598259D01*
X218140889Y-115503021D01*
X218188508Y-115360164D01*
X218188508Y-115122069D01*
X217188508Y-116026831D02*
X217188508Y-116693497D01*
X218188508Y-116264926D01*
X217188508Y-116979212D02*
X217188508Y-117598259D01*
X217569461Y-117264926D01*
X217569461Y-117407783D01*
X217617080Y-117503021D01*
X217664699Y-117550640D01*
X217759937Y-117598259D01*
X217998032Y-117598259D01*
X218093270Y-117550640D01*
X218140889Y-117503021D01*
X218188508Y-117407783D01*
X218188508Y-117122069D01*
X218140889Y-117026831D01*
X218093270Y-116979212D01*
%TO.C,D72*%
X208664120Y-96073293D02*
X207664120Y-96073293D01*
X207664120Y-96311388D01*
X207711740Y-96454245D01*
X207806978Y-96549483D01*
X207902216Y-96597102D01*
X208092692Y-96644721D01*
X208235549Y-96644721D01*
X208426025Y-96597102D01*
X208521263Y-96549483D01*
X208616501Y-96454245D01*
X208664120Y-96311388D01*
X208664120Y-96073293D01*
X207664120Y-96978055D02*
X207664120Y-97644721D01*
X208664120Y-97216150D01*
X207759359Y-97978055D02*
X207711740Y-98025674D01*
X207664120Y-98120912D01*
X207664120Y-98359007D01*
X207711740Y-98454245D01*
X207759359Y-98501864D01*
X207854597Y-98549483D01*
X207949835Y-98549483D01*
X208092692Y-98501864D01*
X208664120Y-97930436D01*
X208664120Y-98549483D01*
%TO.C,D71*%
X203901926Y-77024517D02*
X202901926Y-77024517D01*
X202901926Y-77262612D01*
X202949546Y-77405469D01*
X203044784Y-77500707D01*
X203140022Y-77548326D01*
X203330498Y-77595945D01*
X203473355Y-77595945D01*
X203663831Y-77548326D01*
X203759069Y-77500707D01*
X203854307Y-77405469D01*
X203901926Y-77262612D01*
X203901926Y-77024517D01*
X202901926Y-77929279D02*
X202901926Y-78595945D01*
X203901926Y-78167374D01*
X203901926Y-79500707D02*
X203901926Y-78929279D01*
X203901926Y-79214993D02*
X202901926Y-79214993D01*
X203044784Y-79119755D01*
X203140022Y-79024517D01*
X203187641Y-78929279D01*
%TO.C,D70*%
X194377538Y-57975741D02*
X193377538Y-57975741D01*
X193377538Y-58213836D01*
X193425158Y-58356693D01*
X193520396Y-58451931D01*
X193615634Y-58499550D01*
X193806110Y-58547169D01*
X193948967Y-58547169D01*
X194139443Y-58499550D01*
X194234681Y-58451931D01*
X194329919Y-58356693D01*
X194377538Y-58213836D01*
X194377538Y-57975741D01*
X193377538Y-58880503D02*
X193377538Y-59547169D01*
X194377538Y-59118598D01*
X193377538Y-60118598D02*
X193377538Y-60213836D01*
X193425158Y-60309074D01*
X193472777Y-60356693D01*
X193568015Y-60404312D01*
X193758491Y-60451931D01*
X193996586Y-60451931D01*
X194187062Y-60404312D01*
X194282300Y-60356693D01*
X194329919Y-60309074D01*
X194377538Y-60213836D01*
X194377538Y-60118598D01*
X194329919Y-60023360D01*
X194282300Y-59975741D01*
X194187062Y-59928122D01*
X193996586Y-59880503D01*
X193758491Y-59880503D01*
X193568015Y-59928122D01*
X193472777Y-59975741D01*
X193425158Y-60023360D01*
X193377538Y-60118598D01*
%TO.C,D69*%
X194377538Y-38926965D02*
X193377538Y-38926965D01*
X193377538Y-39165060D01*
X193425158Y-39307917D01*
X193520396Y-39403155D01*
X193615634Y-39450774D01*
X193806110Y-39498393D01*
X193948967Y-39498393D01*
X194139443Y-39450774D01*
X194234681Y-39403155D01*
X194329919Y-39307917D01*
X194377538Y-39165060D01*
X194377538Y-38926965D01*
X193377538Y-40355536D02*
X193377538Y-40165060D01*
X193425158Y-40069822D01*
X193472777Y-40022203D01*
X193615634Y-39926965D01*
X193806110Y-39879346D01*
X194187062Y-39879346D01*
X194282300Y-39926965D01*
X194329919Y-39974584D01*
X194377538Y-40069822D01*
X194377538Y-40260298D01*
X194329919Y-40355536D01*
X194282300Y-40403155D01*
X194187062Y-40450774D01*
X193948967Y-40450774D01*
X193853729Y-40403155D01*
X193806110Y-40355536D01*
X193758491Y-40260298D01*
X193758491Y-40069822D01*
X193806110Y-39974584D01*
X193853729Y-39926965D01*
X193948967Y-39879346D01*
X194377538Y-40926965D02*
X194377538Y-41117441D01*
X194329919Y-41212679D01*
X194282300Y-41260298D01*
X194139443Y-41355536D01*
X193948967Y-41403155D01*
X193568015Y-41403155D01*
X193472777Y-41355536D01*
X193425158Y-41307917D01*
X193377538Y-41212679D01*
X193377538Y-41022203D01*
X193425158Y-40926965D01*
X193472777Y-40879346D01*
X193568015Y-40831727D01*
X193806110Y-40831727D01*
X193901348Y-40879346D01*
X193948967Y-40926965D01*
X193996586Y-41022203D01*
X193996586Y-41212679D01*
X193948967Y-41307917D01*
X193901348Y-41355536D01*
X193806110Y-41403155D01*
%TO.C,D68*%
X199139732Y-115122069D02*
X198139732Y-115122069D01*
X198139732Y-115360164D01*
X198187352Y-115503021D01*
X198282590Y-115598259D01*
X198377828Y-115645878D01*
X198568304Y-115693497D01*
X198711161Y-115693497D01*
X198901637Y-115645878D01*
X198996875Y-115598259D01*
X199092113Y-115503021D01*
X199139732Y-115360164D01*
X199139732Y-115122069D01*
X198139732Y-116550640D02*
X198139732Y-116360164D01*
X198187352Y-116264926D01*
X198234971Y-116217307D01*
X198377828Y-116122069D01*
X198568304Y-116074450D01*
X198949256Y-116074450D01*
X199044494Y-116122069D01*
X199092113Y-116169688D01*
X199139732Y-116264926D01*
X199139732Y-116455402D01*
X199092113Y-116550640D01*
X199044494Y-116598259D01*
X198949256Y-116645878D01*
X198711161Y-116645878D01*
X198615923Y-116598259D01*
X198568304Y-116550640D01*
X198520685Y-116455402D01*
X198520685Y-116264926D01*
X198568304Y-116169688D01*
X198615923Y-116122069D01*
X198711161Y-116074450D01*
X198568304Y-117217307D02*
X198520685Y-117122069D01*
X198473066Y-117074450D01*
X198377828Y-117026831D01*
X198330209Y-117026831D01*
X198234971Y-117074450D01*
X198187352Y-117122069D01*
X198139732Y-117217307D01*
X198139732Y-117407783D01*
X198187352Y-117503021D01*
X198234971Y-117550640D01*
X198330209Y-117598259D01*
X198377828Y-117598259D01*
X198473066Y-117550640D01*
X198520685Y-117503021D01*
X198568304Y-117407783D01*
X198568304Y-117217307D01*
X198615923Y-117122069D01*
X198663542Y-117074450D01*
X198758780Y-117026831D01*
X198949256Y-117026831D01*
X199044494Y-117074450D01*
X199092113Y-117122069D01*
X199139732Y-117217307D01*
X199139732Y-117407783D01*
X199092113Y-117503021D01*
X199044494Y-117550640D01*
X198949256Y-117598259D01*
X198758780Y-117598259D01*
X198663542Y-117550640D01*
X198615923Y-117503021D01*
X198568304Y-117407783D01*
%TO.C,D67*%
X189615344Y-96073293D02*
X188615344Y-96073293D01*
X188615344Y-96311388D01*
X188662964Y-96454245D01*
X188758202Y-96549483D01*
X188853440Y-96597102D01*
X189043916Y-96644721D01*
X189186773Y-96644721D01*
X189377249Y-96597102D01*
X189472487Y-96549483D01*
X189567725Y-96454245D01*
X189615344Y-96311388D01*
X189615344Y-96073293D01*
X188615344Y-97501864D02*
X188615344Y-97311388D01*
X188662964Y-97216150D01*
X188710583Y-97168531D01*
X188853440Y-97073293D01*
X189043916Y-97025674D01*
X189424868Y-97025674D01*
X189520106Y-97073293D01*
X189567725Y-97120912D01*
X189615344Y-97216150D01*
X189615344Y-97406626D01*
X189567725Y-97501864D01*
X189520106Y-97549483D01*
X189424868Y-97597102D01*
X189186773Y-97597102D01*
X189091535Y-97549483D01*
X189043916Y-97501864D01*
X188996297Y-97406626D01*
X188996297Y-97216150D01*
X189043916Y-97120912D01*
X189091535Y-97073293D01*
X189186773Y-97025674D01*
X188615344Y-97930436D02*
X188615344Y-98597102D01*
X189615344Y-98168531D01*
%TO.C,D66*%
X184853150Y-77024517D02*
X183853150Y-77024517D01*
X183853150Y-77262612D01*
X183900770Y-77405469D01*
X183996008Y-77500707D01*
X184091246Y-77548326D01*
X184281722Y-77595945D01*
X184424579Y-77595945D01*
X184615055Y-77548326D01*
X184710293Y-77500707D01*
X184805531Y-77405469D01*
X184853150Y-77262612D01*
X184853150Y-77024517D01*
X183853150Y-78453088D02*
X183853150Y-78262612D01*
X183900770Y-78167374D01*
X183948389Y-78119755D01*
X184091246Y-78024517D01*
X184281722Y-77976898D01*
X184662674Y-77976898D01*
X184757912Y-78024517D01*
X184805531Y-78072136D01*
X184853150Y-78167374D01*
X184853150Y-78357850D01*
X184805531Y-78453088D01*
X184757912Y-78500707D01*
X184662674Y-78548326D01*
X184424579Y-78548326D01*
X184329341Y-78500707D01*
X184281722Y-78453088D01*
X184234103Y-78357850D01*
X184234103Y-78167374D01*
X184281722Y-78072136D01*
X184329341Y-78024517D01*
X184424579Y-77976898D01*
X183853150Y-79405469D02*
X183853150Y-79214993D01*
X183900770Y-79119755D01*
X183948389Y-79072136D01*
X184091246Y-78976898D01*
X184281722Y-78929279D01*
X184662674Y-78929279D01*
X184757912Y-78976898D01*
X184805531Y-79024517D01*
X184853150Y-79119755D01*
X184853150Y-79310231D01*
X184805531Y-79405469D01*
X184757912Y-79453088D01*
X184662674Y-79500707D01*
X184424579Y-79500707D01*
X184329341Y-79453088D01*
X184281722Y-79405469D01*
X184234103Y-79310231D01*
X184234103Y-79119755D01*
X184281722Y-79024517D01*
X184329341Y-78976898D01*
X184424579Y-78929279D01*
%TO.C,D65*%
X175328762Y-57975741D02*
X174328762Y-57975741D01*
X174328762Y-58213836D01*
X174376382Y-58356693D01*
X174471620Y-58451931D01*
X174566858Y-58499550D01*
X174757334Y-58547169D01*
X174900191Y-58547169D01*
X175090667Y-58499550D01*
X175185905Y-58451931D01*
X175281143Y-58356693D01*
X175328762Y-58213836D01*
X175328762Y-57975741D01*
X174328762Y-59404312D02*
X174328762Y-59213836D01*
X174376382Y-59118598D01*
X174424001Y-59070979D01*
X174566858Y-58975741D01*
X174757334Y-58928122D01*
X175138286Y-58928122D01*
X175233524Y-58975741D01*
X175281143Y-59023360D01*
X175328762Y-59118598D01*
X175328762Y-59309074D01*
X175281143Y-59404312D01*
X175233524Y-59451931D01*
X175138286Y-59499550D01*
X174900191Y-59499550D01*
X174804953Y-59451931D01*
X174757334Y-59404312D01*
X174709715Y-59309074D01*
X174709715Y-59118598D01*
X174757334Y-59023360D01*
X174804953Y-58975741D01*
X174900191Y-58928122D01*
X174328762Y-60404312D02*
X174328762Y-59928122D01*
X174804953Y-59880503D01*
X174757334Y-59928122D01*
X174709715Y-60023360D01*
X174709715Y-60261455D01*
X174757334Y-60356693D01*
X174804953Y-60404312D01*
X174900191Y-60451931D01*
X175138286Y-60451931D01*
X175233524Y-60404312D01*
X175281143Y-60356693D01*
X175328762Y-60261455D01*
X175328762Y-60023360D01*
X175281143Y-59928122D01*
X175233524Y-59880503D01*
%TO.C,D64*%
X175328762Y-38926965D02*
X174328762Y-38926965D01*
X174328762Y-39165060D01*
X174376382Y-39307917D01*
X174471620Y-39403155D01*
X174566858Y-39450774D01*
X174757334Y-39498393D01*
X174900191Y-39498393D01*
X175090667Y-39450774D01*
X175185905Y-39403155D01*
X175281143Y-39307917D01*
X175328762Y-39165060D01*
X175328762Y-38926965D01*
X174328762Y-40355536D02*
X174328762Y-40165060D01*
X174376382Y-40069822D01*
X174424001Y-40022203D01*
X174566858Y-39926965D01*
X174757334Y-39879346D01*
X175138286Y-39879346D01*
X175233524Y-39926965D01*
X175281143Y-39974584D01*
X175328762Y-40069822D01*
X175328762Y-40260298D01*
X175281143Y-40355536D01*
X175233524Y-40403155D01*
X175138286Y-40450774D01*
X174900191Y-40450774D01*
X174804953Y-40403155D01*
X174757334Y-40355536D01*
X174709715Y-40260298D01*
X174709715Y-40069822D01*
X174757334Y-39974584D01*
X174804953Y-39926965D01*
X174900191Y-39879346D01*
X174662096Y-41307917D02*
X175328762Y-41307917D01*
X174281143Y-41069822D02*
X174995429Y-40831727D01*
X174995429Y-41450774D01*
%TO.C,D63*%
X194377538Y-133377146D02*
X193377538Y-133377146D01*
X193377538Y-133615241D01*
X193425158Y-133758098D01*
X193520396Y-133853336D01*
X193615634Y-133900955D01*
X193806110Y-133948574D01*
X193948967Y-133948574D01*
X194139443Y-133900955D01*
X194234681Y-133853336D01*
X194329919Y-133758098D01*
X194377538Y-133615241D01*
X194377538Y-133377146D01*
X193377538Y-134805717D02*
X193377538Y-134615241D01*
X193425158Y-134520003D01*
X193472777Y-134472384D01*
X193615634Y-134377146D01*
X193806110Y-134329527D01*
X194187062Y-134329527D01*
X194282300Y-134377146D01*
X194329919Y-134424765D01*
X194377538Y-134520003D01*
X194377538Y-134710479D01*
X194329919Y-134805717D01*
X194282300Y-134853336D01*
X194187062Y-134900955D01*
X193948967Y-134900955D01*
X193853729Y-134853336D01*
X193806110Y-134805717D01*
X193758491Y-134710479D01*
X193758491Y-134520003D01*
X193806110Y-134424765D01*
X193853729Y-134377146D01*
X193948967Y-134329527D01*
X193377538Y-135234289D02*
X193377538Y-135853336D01*
X193758491Y-135520003D01*
X193758491Y-135662860D01*
X193806110Y-135758098D01*
X193853729Y-135805717D01*
X193948967Y-135853336D01*
X194187062Y-135853336D01*
X194282300Y-135805717D01*
X194329919Y-135758098D01*
X194377538Y-135662860D01*
X194377538Y-135377146D01*
X194329919Y-135281908D01*
X194282300Y-135234289D01*
%TO.C,D62*%
X180090956Y-115122069D02*
X179090956Y-115122069D01*
X179090956Y-115360164D01*
X179138576Y-115503021D01*
X179233814Y-115598259D01*
X179329052Y-115645878D01*
X179519528Y-115693497D01*
X179662385Y-115693497D01*
X179852861Y-115645878D01*
X179948099Y-115598259D01*
X180043337Y-115503021D01*
X180090956Y-115360164D01*
X180090956Y-115122069D01*
X179090956Y-116550640D02*
X179090956Y-116360164D01*
X179138576Y-116264926D01*
X179186195Y-116217307D01*
X179329052Y-116122069D01*
X179519528Y-116074450D01*
X179900480Y-116074450D01*
X179995718Y-116122069D01*
X180043337Y-116169688D01*
X180090956Y-116264926D01*
X180090956Y-116455402D01*
X180043337Y-116550640D01*
X179995718Y-116598259D01*
X179900480Y-116645878D01*
X179662385Y-116645878D01*
X179567147Y-116598259D01*
X179519528Y-116550640D01*
X179471909Y-116455402D01*
X179471909Y-116264926D01*
X179519528Y-116169688D01*
X179567147Y-116122069D01*
X179662385Y-116074450D01*
X179186195Y-117026831D02*
X179138576Y-117074450D01*
X179090956Y-117169688D01*
X179090956Y-117407783D01*
X179138576Y-117503021D01*
X179186195Y-117550640D01*
X179281433Y-117598259D01*
X179376671Y-117598259D01*
X179519528Y-117550640D01*
X180090956Y-116979212D01*
X180090956Y-117598259D01*
%TO.C,D61*%
X170566568Y-96073293D02*
X169566568Y-96073293D01*
X169566568Y-96311388D01*
X169614188Y-96454245D01*
X169709426Y-96549483D01*
X169804664Y-96597102D01*
X169995140Y-96644721D01*
X170137997Y-96644721D01*
X170328473Y-96597102D01*
X170423711Y-96549483D01*
X170518949Y-96454245D01*
X170566568Y-96311388D01*
X170566568Y-96073293D01*
X169566568Y-97501864D02*
X169566568Y-97311388D01*
X169614188Y-97216150D01*
X169661807Y-97168531D01*
X169804664Y-97073293D01*
X169995140Y-97025674D01*
X170376092Y-97025674D01*
X170471330Y-97073293D01*
X170518949Y-97120912D01*
X170566568Y-97216150D01*
X170566568Y-97406626D01*
X170518949Y-97501864D01*
X170471330Y-97549483D01*
X170376092Y-97597102D01*
X170137997Y-97597102D01*
X170042759Y-97549483D01*
X169995140Y-97501864D01*
X169947521Y-97406626D01*
X169947521Y-97216150D01*
X169995140Y-97120912D01*
X170042759Y-97073293D01*
X170137997Y-97025674D01*
X170566568Y-98549483D02*
X170566568Y-97978055D01*
X170566568Y-98263769D02*
X169566568Y-98263769D01*
X169709426Y-98168531D01*
X169804664Y-98073293D01*
X169852283Y-97978055D01*
%TO.C,D60*%
X165804374Y-77024517D02*
X164804374Y-77024517D01*
X164804374Y-77262612D01*
X164851994Y-77405469D01*
X164947232Y-77500707D01*
X165042470Y-77548326D01*
X165232946Y-77595945D01*
X165375803Y-77595945D01*
X165566279Y-77548326D01*
X165661517Y-77500707D01*
X165756755Y-77405469D01*
X165804374Y-77262612D01*
X165804374Y-77024517D01*
X164804374Y-78453088D02*
X164804374Y-78262612D01*
X164851994Y-78167374D01*
X164899613Y-78119755D01*
X165042470Y-78024517D01*
X165232946Y-77976898D01*
X165613898Y-77976898D01*
X165709136Y-78024517D01*
X165756755Y-78072136D01*
X165804374Y-78167374D01*
X165804374Y-78357850D01*
X165756755Y-78453088D01*
X165709136Y-78500707D01*
X165613898Y-78548326D01*
X165375803Y-78548326D01*
X165280565Y-78500707D01*
X165232946Y-78453088D01*
X165185327Y-78357850D01*
X165185327Y-78167374D01*
X165232946Y-78072136D01*
X165280565Y-78024517D01*
X165375803Y-77976898D01*
X164804374Y-79167374D02*
X164804374Y-79262612D01*
X164851994Y-79357850D01*
X164899613Y-79405469D01*
X164994851Y-79453088D01*
X165185327Y-79500707D01*
X165423422Y-79500707D01*
X165613898Y-79453088D01*
X165709136Y-79405469D01*
X165756755Y-79357850D01*
X165804374Y-79262612D01*
X165804374Y-79167374D01*
X165756755Y-79072136D01*
X165709136Y-79024517D01*
X165613898Y-78976898D01*
X165423422Y-78929279D01*
X165185327Y-78929279D01*
X164994851Y-78976898D01*
X164899613Y-79024517D01*
X164851994Y-79072136D01*
X164804374Y-79167374D01*
%TO.C,D59*%
X156279986Y-57975741D02*
X155279986Y-57975741D01*
X155279986Y-58213836D01*
X155327606Y-58356693D01*
X155422844Y-58451931D01*
X155518082Y-58499550D01*
X155708558Y-58547169D01*
X155851415Y-58547169D01*
X156041891Y-58499550D01*
X156137129Y-58451931D01*
X156232367Y-58356693D01*
X156279986Y-58213836D01*
X156279986Y-57975741D01*
X155279986Y-59451931D02*
X155279986Y-58975741D01*
X155756177Y-58928122D01*
X155708558Y-58975741D01*
X155660939Y-59070979D01*
X155660939Y-59309074D01*
X155708558Y-59404312D01*
X155756177Y-59451931D01*
X155851415Y-59499550D01*
X156089510Y-59499550D01*
X156184748Y-59451931D01*
X156232367Y-59404312D01*
X156279986Y-59309074D01*
X156279986Y-59070979D01*
X156232367Y-58975741D01*
X156184748Y-58928122D01*
X156279986Y-59975741D02*
X156279986Y-60166217D01*
X156232367Y-60261455D01*
X156184748Y-60309074D01*
X156041891Y-60404312D01*
X155851415Y-60451931D01*
X155470463Y-60451931D01*
X155375225Y-60404312D01*
X155327606Y-60356693D01*
X155279986Y-60261455D01*
X155279986Y-60070979D01*
X155327606Y-59975741D01*
X155375225Y-59928122D01*
X155470463Y-59880503D01*
X155708558Y-59880503D01*
X155803796Y-59928122D01*
X155851415Y-59975741D01*
X155899034Y-60070979D01*
X155899034Y-60261455D01*
X155851415Y-60356693D01*
X155803796Y-60404312D01*
X155708558Y-60451931D01*
%TO.C,D58*%
X156279986Y-38926965D02*
X155279986Y-38926965D01*
X155279986Y-39165060D01*
X155327606Y-39307917D01*
X155422844Y-39403155D01*
X155518082Y-39450774D01*
X155708558Y-39498393D01*
X155851415Y-39498393D01*
X156041891Y-39450774D01*
X156137129Y-39403155D01*
X156232367Y-39307917D01*
X156279986Y-39165060D01*
X156279986Y-38926965D01*
X155279986Y-40403155D02*
X155279986Y-39926965D01*
X155756177Y-39879346D01*
X155708558Y-39926965D01*
X155660939Y-40022203D01*
X155660939Y-40260298D01*
X155708558Y-40355536D01*
X155756177Y-40403155D01*
X155851415Y-40450774D01*
X156089510Y-40450774D01*
X156184748Y-40403155D01*
X156232367Y-40355536D01*
X156279986Y-40260298D01*
X156279986Y-40022203D01*
X156232367Y-39926965D01*
X156184748Y-39879346D01*
X155708558Y-41022203D02*
X155660939Y-40926965D01*
X155613320Y-40879346D01*
X155518082Y-40831727D01*
X155470463Y-40831727D01*
X155375225Y-40879346D01*
X155327606Y-40926965D01*
X155279986Y-41022203D01*
X155279986Y-41212679D01*
X155327606Y-41307917D01*
X155375225Y-41355536D01*
X155470463Y-41403155D01*
X155518082Y-41403155D01*
X155613320Y-41355536D01*
X155660939Y-41307917D01*
X155708558Y-41212679D01*
X155708558Y-41022203D01*
X155756177Y-40926965D01*
X155803796Y-40879346D01*
X155899034Y-40831727D01*
X156089510Y-40831727D01*
X156184748Y-40879346D01*
X156232367Y-40926965D01*
X156279986Y-41022203D01*
X156279986Y-41212679D01*
X156232367Y-41307917D01*
X156184748Y-41355536D01*
X156089510Y-41403155D01*
X155899034Y-41403155D01*
X155803796Y-41355536D01*
X155756177Y-41307917D01*
X155708558Y-41212679D01*
%TO.C,D57*%
X165804374Y-133377146D02*
X164804374Y-133377146D01*
X164804374Y-133615241D01*
X164851994Y-133758098D01*
X164947232Y-133853336D01*
X165042470Y-133900955D01*
X165232946Y-133948574D01*
X165375803Y-133948574D01*
X165566279Y-133900955D01*
X165661517Y-133853336D01*
X165756755Y-133758098D01*
X165804374Y-133615241D01*
X165804374Y-133377146D01*
X164804374Y-134853336D02*
X164804374Y-134377146D01*
X165280565Y-134329527D01*
X165232946Y-134377146D01*
X165185327Y-134472384D01*
X165185327Y-134710479D01*
X165232946Y-134805717D01*
X165280565Y-134853336D01*
X165375803Y-134900955D01*
X165613898Y-134900955D01*
X165709136Y-134853336D01*
X165756755Y-134805717D01*
X165804374Y-134710479D01*
X165804374Y-134472384D01*
X165756755Y-134377146D01*
X165709136Y-134329527D01*
X164804374Y-135234289D02*
X164804374Y-135900955D01*
X165804374Y-135472384D01*
%TO.C,D56*%
X161042180Y-115122069D02*
X160042180Y-115122069D01*
X160042180Y-115360164D01*
X160089800Y-115503021D01*
X160185038Y-115598259D01*
X160280276Y-115645878D01*
X160470752Y-115693497D01*
X160613609Y-115693497D01*
X160804085Y-115645878D01*
X160899323Y-115598259D01*
X160994561Y-115503021D01*
X161042180Y-115360164D01*
X161042180Y-115122069D01*
X160042180Y-116598259D02*
X160042180Y-116122069D01*
X160518371Y-116074450D01*
X160470752Y-116122069D01*
X160423133Y-116217307D01*
X160423133Y-116455402D01*
X160470752Y-116550640D01*
X160518371Y-116598259D01*
X160613609Y-116645878D01*
X160851704Y-116645878D01*
X160946942Y-116598259D01*
X160994561Y-116550640D01*
X161042180Y-116455402D01*
X161042180Y-116217307D01*
X160994561Y-116122069D01*
X160946942Y-116074450D01*
X160042180Y-117503021D02*
X160042180Y-117312545D01*
X160089800Y-117217307D01*
X160137419Y-117169688D01*
X160280276Y-117074450D01*
X160470752Y-117026831D01*
X160851704Y-117026831D01*
X160946942Y-117074450D01*
X160994561Y-117122069D01*
X161042180Y-117217307D01*
X161042180Y-117407783D01*
X160994561Y-117503021D01*
X160946942Y-117550640D01*
X160851704Y-117598259D01*
X160613609Y-117598259D01*
X160518371Y-117550640D01*
X160470752Y-117503021D01*
X160423133Y-117407783D01*
X160423133Y-117217307D01*
X160470752Y-117122069D01*
X160518371Y-117074450D01*
X160613609Y-117026831D01*
%TO.C,D55*%
X151517792Y-96073293D02*
X150517792Y-96073293D01*
X150517792Y-96311388D01*
X150565412Y-96454245D01*
X150660650Y-96549483D01*
X150755888Y-96597102D01*
X150946364Y-96644721D01*
X151089221Y-96644721D01*
X151279697Y-96597102D01*
X151374935Y-96549483D01*
X151470173Y-96454245D01*
X151517792Y-96311388D01*
X151517792Y-96073293D01*
X150517792Y-97549483D02*
X150517792Y-97073293D01*
X150993983Y-97025674D01*
X150946364Y-97073293D01*
X150898745Y-97168531D01*
X150898745Y-97406626D01*
X150946364Y-97501864D01*
X150993983Y-97549483D01*
X151089221Y-97597102D01*
X151327316Y-97597102D01*
X151422554Y-97549483D01*
X151470173Y-97501864D01*
X151517792Y-97406626D01*
X151517792Y-97168531D01*
X151470173Y-97073293D01*
X151422554Y-97025674D01*
X150517792Y-98501864D02*
X150517792Y-98025674D01*
X150993983Y-97978055D01*
X150946364Y-98025674D01*
X150898745Y-98120912D01*
X150898745Y-98359007D01*
X150946364Y-98454245D01*
X150993983Y-98501864D01*
X151089221Y-98549483D01*
X151327316Y-98549483D01*
X151422554Y-98501864D01*
X151470173Y-98454245D01*
X151517792Y-98359007D01*
X151517792Y-98120912D01*
X151470173Y-98025674D01*
X151422554Y-97978055D01*
%TO.C,D54*%
X146755598Y-77024517D02*
X145755598Y-77024517D01*
X145755598Y-77262612D01*
X145803218Y-77405469D01*
X145898456Y-77500707D01*
X145993694Y-77548326D01*
X146184170Y-77595945D01*
X146327027Y-77595945D01*
X146517503Y-77548326D01*
X146612741Y-77500707D01*
X146707979Y-77405469D01*
X146755598Y-77262612D01*
X146755598Y-77024517D01*
X145755598Y-78500707D02*
X145755598Y-78024517D01*
X146231789Y-77976898D01*
X146184170Y-78024517D01*
X146136551Y-78119755D01*
X146136551Y-78357850D01*
X146184170Y-78453088D01*
X146231789Y-78500707D01*
X146327027Y-78548326D01*
X146565122Y-78548326D01*
X146660360Y-78500707D01*
X146707979Y-78453088D01*
X146755598Y-78357850D01*
X146755598Y-78119755D01*
X146707979Y-78024517D01*
X146660360Y-77976898D01*
X146088932Y-79405469D02*
X146755598Y-79405469D01*
X145707979Y-79167374D02*
X146422265Y-78929279D01*
X146422265Y-79548326D01*
%TO.C,D53*%
X137231210Y-57975741D02*
X136231210Y-57975741D01*
X136231210Y-58213836D01*
X136278830Y-58356693D01*
X136374068Y-58451931D01*
X136469306Y-58499550D01*
X136659782Y-58547169D01*
X136802639Y-58547169D01*
X136993115Y-58499550D01*
X137088353Y-58451931D01*
X137183591Y-58356693D01*
X137231210Y-58213836D01*
X137231210Y-57975741D01*
X136231210Y-59451931D02*
X136231210Y-58975741D01*
X136707401Y-58928122D01*
X136659782Y-58975741D01*
X136612163Y-59070979D01*
X136612163Y-59309074D01*
X136659782Y-59404312D01*
X136707401Y-59451931D01*
X136802639Y-59499550D01*
X137040734Y-59499550D01*
X137135972Y-59451931D01*
X137183591Y-59404312D01*
X137231210Y-59309074D01*
X137231210Y-59070979D01*
X137183591Y-58975741D01*
X137135972Y-58928122D01*
X136231210Y-59832884D02*
X136231210Y-60451931D01*
X136612163Y-60118598D01*
X136612163Y-60261455D01*
X136659782Y-60356693D01*
X136707401Y-60404312D01*
X136802639Y-60451931D01*
X137040734Y-60451931D01*
X137135972Y-60404312D01*
X137183591Y-60356693D01*
X137231210Y-60261455D01*
X137231210Y-59975741D01*
X137183591Y-59880503D01*
X137135972Y-59832884D01*
%TO.C,D52*%
X137231210Y-38926965D02*
X136231210Y-38926965D01*
X136231210Y-39165060D01*
X136278830Y-39307917D01*
X136374068Y-39403155D01*
X136469306Y-39450774D01*
X136659782Y-39498393D01*
X136802639Y-39498393D01*
X136993115Y-39450774D01*
X137088353Y-39403155D01*
X137183591Y-39307917D01*
X137231210Y-39165060D01*
X137231210Y-38926965D01*
X136231210Y-40403155D02*
X136231210Y-39926965D01*
X136707401Y-39879346D01*
X136659782Y-39926965D01*
X136612163Y-40022203D01*
X136612163Y-40260298D01*
X136659782Y-40355536D01*
X136707401Y-40403155D01*
X136802639Y-40450774D01*
X137040734Y-40450774D01*
X137135972Y-40403155D01*
X137183591Y-40355536D01*
X137231210Y-40260298D01*
X137231210Y-40022203D01*
X137183591Y-39926965D01*
X137135972Y-39879346D01*
X136326449Y-40831727D02*
X136278830Y-40879346D01*
X136231210Y-40974584D01*
X136231210Y-41212679D01*
X136278830Y-41307917D01*
X136326449Y-41355536D01*
X136421687Y-41403155D01*
X136516925Y-41403155D01*
X136659782Y-41355536D01*
X137231210Y-40784108D01*
X137231210Y-41403155D01*
%TO.C,D51*%
X141993404Y-115122069D02*
X140993404Y-115122069D01*
X140993404Y-115360164D01*
X141041024Y-115503021D01*
X141136262Y-115598259D01*
X141231500Y-115645878D01*
X141421976Y-115693497D01*
X141564833Y-115693497D01*
X141755309Y-115645878D01*
X141850547Y-115598259D01*
X141945785Y-115503021D01*
X141993404Y-115360164D01*
X141993404Y-115122069D01*
X140993404Y-116598259D02*
X140993404Y-116122069D01*
X141469595Y-116074450D01*
X141421976Y-116122069D01*
X141374357Y-116217307D01*
X141374357Y-116455402D01*
X141421976Y-116550640D01*
X141469595Y-116598259D01*
X141564833Y-116645878D01*
X141802928Y-116645878D01*
X141898166Y-116598259D01*
X141945785Y-116550640D01*
X141993404Y-116455402D01*
X141993404Y-116217307D01*
X141945785Y-116122069D01*
X141898166Y-116074450D01*
X141993404Y-117598259D02*
X141993404Y-117026831D01*
X141993404Y-117312545D02*
X140993404Y-117312545D01*
X141136262Y-117217307D01*
X141231500Y-117122069D01*
X141279119Y-117026831D01*
%TO.C,D50*%
X132469016Y-96073293D02*
X131469016Y-96073293D01*
X131469016Y-96311388D01*
X131516636Y-96454245D01*
X131611874Y-96549483D01*
X131707112Y-96597102D01*
X131897588Y-96644721D01*
X132040445Y-96644721D01*
X132230921Y-96597102D01*
X132326159Y-96549483D01*
X132421397Y-96454245D01*
X132469016Y-96311388D01*
X132469016Y-96073293D01*
X131469016Y-97549483D02*
X131469016Y-97073293D01*
X131945207Y-97025674D01*
X131897588Y-97073293D01*
X131849969Y-97168531D01*
X131849969Y-97406626D01*
X131897588Y-97501864D01*
X131945207Y-97549483D01*
X132040445Y-97597102D01*
X132278540Y-97597102D01*
X132373778Y-97549483D01*
X132421397Y-97501864D01*
X132469016Y-97406626D01*
X132469016Y-97168531D01*
X132421397Y-97073293D01*
X132373778Y-97025674D01*
X131469016Y-98216150D02*
X131469016Y-98311388D01*
X131516636Y-98406626D01*
X131564255Y-98454245D01*
X131659493Y-98501864D01*
X131849969Y-98549483D01*
X132088064Y-98549483D01*
X132278540Y-98501864D01*
X132373778Y-98454245D01*
X132421397Y-98406626D01*
X132469016Y-98311388D01*
X132469016Y-98216150D01*
X132421397Y-98120912D01*
X132373778Y-98073293D01*
X132278540Y-98025674D01*
X132088064Y-97978055D01*
X131849969Y-97978055D01*
X131659493Y-98025674D01*
X131564255Y-98073293D01*
X131516636Y-98120912D01*
X131469016Y-98216150D01*
%TO.C,D49*%
X127706822Y-77024517D02*
X126706822Y-77024517D01*
X126706822Y-77262612D01*
X126754442Y-77405469D01*
X126849680Y-77500707D01*
X126944918Y-77548326D01*
X127135394Y-77595945D01*
X127278251Y-77595945D01*
X127468727Y-77548326D01*
X127563965Y-77500707D01*
X127659203Y-77405469D01*
X127706822Y-77262612D01*
X127706822Y-77024517D01*
X127040156Y-78453088D02*
X127706822Y-78453088D01*
X126659203Y-78214993D02*
X127373489Y-77976898D01*
X127373489Y-78595945D01*
X127706822Y-79024517D02*
X127706822Y-79214993D01*
X127659203Y-79310231D01*
X127611584Y-79357850D01*
X127468727Y-79453088D01*
X127278251Y-79500707D01*
X126897299Y-79500707D01*
X126802061Y-79453088D01*
X126754442Y-79405469D01*
X126706822Y-79310231D01*
X126706822Y-79119755D01*
X126754442Y-79024517D01*
X126802061Y-78976898D01*
X126897299Y-78929279D01*
X127135394Y-78929279D01*
X127230632Y-78976898D01*
X127278251Y-79024517D01*
X127325870Y-79119755D01*
X127325870Y-79310231D01*
X127278251Y-79405469D01*
X127230632Y-79453088D01*
X127135394Y-79500707D01*
%TO.C,D48*%
X118182434Y-57975741D02*
X117182434Y-57975741D01*
X117182434Y-58213836D01*
X117230054Y-58356693D01*
X117325292Y-58451931D01*
X117420530Y-58499550D01*
X117611006Y-58547169D01*
X117753863Y-58547169D01*
X117944339Y-58499550D01*
X118039577Y-58451931D01*
X118134815Y-58356693D01*
X118182434Y-58213836D01*
X118182434Y-57975741D01*
X117515768Y-59404312D02*
X118182434Y-59404312D01*
X117134815Y-59166217D02*
X117849101Y-58928122D01*
X117849101Y-59547169D01*
X117611006Y-60070979D02*
X117563387Y-59975741D01*
X117515768Y-59928122D01*
X117420530Y-59880503D01*
X117372911Y-59880503D01*
X117277673Y-59928122D01*
X117230054Y-59975741D01*
X117182434Y-60070979D01*
X117182434Y-60261455D01*
X117230054Y-60356693D01*
X117277673Y-60404312D01*
X117372911Y-60451931D01*
X117420530Y-60451931D01*
X117515768Y-60404312D01*
X117563387Y-60356693D01*
X117611006Y-60261455D01*
X117611006Y-60070979D01*
X117658625Y-59975741D01*
X117706244Y-59928122D01*
X117801482Y-59880503D01*
X117991958Y-59880503D01*
X118087196Y-59928122D01*
X118134815Y-59975741D01*
X118182434Y-60070979D01*
X118182434Y-60261455D01*
X118134815Y-60356693D01*
X118087196Y-60404312D01*
X117991958Y-60451931D01*
X117801482Y-60451931D01*
X117706244Y-60404312D01*
X117658625Y-60356693D01*
X117611006Y-60261455D01*
%TO.C,D47*%
X118182434Y-38926965D02*
X117182434Y-38926965D01*
X117182434Y-39165060D01*
X117230054Y-39307917D01*
X117325292Y-39403155D01*
X117420530Y-39450774D01*
X117611006Y-39498393D01*
X117753863Y-39498393D01*
X117944339Y-39450774D01*
X118039577Y-39403155D01*
X118134815Y-39307917D01*
X118182434Y-39165060D01*
X118182434Y-38926965D01*
X117515768Y-40355536D02*
X118182434Y-40355536D01*
X117134815Y-40117441D02*
X117849101Y-39879346D01*
X117849101Y-40498393D01*
X117182434Y-40784108D02*
X117182434Y-41450774D01*
X118182434Y-41022203D01*
%TO.C,D46*%
X315247942Y-33010684D02*
X314247942Y-33010684D01*
X314247942Y-33248779D01*
X314295562Y-33391636D01*
X314390800Y-33486874D01*
X314486038Y-33534493D01*
X314676514Y-33582112D01*
X314819371Y-33582112D01*
X315009847Y-33534493D01*
X315105085Y-33486874D01*
X315200323Y-33391636D01*
X315247942Y-33248779D01*
X315247942Y-33010684D01*
X314581276Y-34439255D02*
X315247942Y-34439255D01*
X314200323Y-34201160D02*
X314914609Y-33963065D01*
X314914609Y-34582112D01*
X314247942Y-35391636D02*
X314247942Y-35201160D01*
X314295562Y-35105922D01*
X314343181Y-35058303D01*
X314486038Y-34963065D01*
X314676514Y-34915446D01*
X315057466Y-34915446D01*
X315152704Y-34963065D01*
X315200323Y-35010684D01*
X315247942Y-35105922D01*
X315247942Y-35296398D01*
X315200323Y-35391636D01*
X315152704Y-35439255D01*
X315057466Y-35486874D01*
X314819371Y-35486874D01*
X314724133Y-35439255D01*
X314676514Y-35391636D01*
X314628895Y-35296398D01*
X314628895Y-35105922D01*
X314676514Y-35010684D01*
X314724133Y-34963065D01*
X314819371Y-34915446D01*
%TO.C,D45*%
X130087919Y-133377146D02*
X129087919Y-133377146D01*
X129087919Y-133615241D01*
X129135539Y-133758098D01*
X129230777Y-133853336D01*
X129326015Y-133900955D01*
X129516491Y-133948574D01*
X129659348Y-133948574D01*
X129849824Y-133900955D01*
X129945062Y-133853336D01*
X130040300Y-133758098D01*
X130087919Y-133615241D01*
X130087919Y-133377146D01*
X129421253Y-134805717D02*
X130087919Y-134805717D01*
X129040300Y-134567622D02*
X129754586Y-134329527D01*
X129754586Y-134948574D01*
X129087919Y-135805717D02*
X129087919Y-135329527D01*
X129564110Y-135281908D01*
X129516491Y-135329527D01*
X129468872Y-135424765D01*
X129468872Y-135662860D01*
X129516491Y-135758098D01*
X129564110Y-135805717D01*
X129659348Y-135853336D01*
X129897443Y-135853336D01*
X129992681Y-135805717D01*
X130040300Y-135758098D01*
X130087919Y-135662860D01*
X130087919Y-135424765D01*
X130040300Y-135329527D01*
X129992681Y-135281908D01*
%TO.C,D44*%
X122944628Y-115122069D02*
X121944628Y-115122069D01*
X121944628Y-115360164D01*
X121992248Y-115503021D01*
X122087486Y-115598259D01*
X122182724Y-115645878D01*
X122373200Y-115693497D01*
X122516057Y-115693497D01*
X122706533Y-115645878D01*
X122801771Y-115598259D01*
X122897009Y-115503021D01*
X122944628Y-115360164D01*
X122944628Y-115122069D01*
X122277962Y-116550640D02*
X122944628Y-116550640D01*
X121897009Y-116312545D02*
X122611295Y-116074450D01*
X122611295Y-116693497D01*
X122277962Y-117503021D02*
X122944628Y-117503021D01*
X121897009Y-117264926D02*
X122611295Y-117026831D01*
X122611295Y-117645878D01*
%TO.C,D43*%
X113420240Y-96073293D02*
X112420240Y-96073293D01*
X112420240Y-96311388D01*
X112467860Y-96454245D01*
X112563098Y-96549483D01*
X112658336Y-96597102D01*
X112848812Y-96644721D01*
X112991669Y-96644721D01*
X113182145Y-96597102D01*
X113277383Y-96549483D01*
X113372621Y-96454245D01*
X113420240Y-96311388D01*
X113420240Y-96073293D01*
X112753574Y-97501864D02*
X113420240Y-97501864D01*
X112372621Y-97263769D02*
X113086907Y-97025674D01*
X113086907Y-97644721D01*
X112420240Y-97930436D02*
X112420240Y-98549483D01*
X112801193Y-98216150D01*
X112801193Y-98359007D01*
X112848812Y-98454245D01*
X112896431Y-98501864D01*
X112991669Y-98549483D01*
X113229764Y-98549483D01*
X113325002Y-98501864D01*
X113372621Y-98454245D01*
X113420240Y-98359007D01*
X113420240Y-98073293D01*
X113372621Y-97978055D01*
X113325002Y-97930436D01*
%TO.C,D42*%
X108658046Y-77024517D02*
X107658046Y-77024517D01*
X107658046Y-77262612D01*
X107705666Y-77405469D01*
X107800904Y-77500707D01*
X107896142Y-77548326D01*
X108086618Y-77595945D01*
X108229475Y-77595945D01*
X108419951Y-77548326D01*
X108515189Y-77500707D01*
X108610427Y-77405469D01*
X108658046Y-77262612D01*
X108658046Y-77024517D01*
X107991380Y-78453088D02*
X108658046Y-78453088D01*
X107610427Y-78214993D02*
X108324713Y-77976898D01*
X108324713Y-78595945D01*
X107753285Y-78929279D02*
X107705666Y-78976898D01*
X107658046Y-79072136D01*
X107658046Y-79310231D01*
X107705666Y-79405469D01*
X107753285Y-79453088D01*
X107848523Y-79500707D01*
X107943761Y-79500707D01*
X108086618Y-79453088D01*
X108658046Y-78881660D01*
X108658046Y-79500707D01*
%TO.C,D41*%
X99133658Y-57975741D02*
X98133658Y-57975741D01*
X98133658Y-58213836D01*
X98181278Y-58356693D01*
X98276516Y-58451931D01*
X98371754Y-58499550D01*
X98562230Y-58547169D01*
X98705087Y-58547169D01*
X98895563Y-58499550D01*
X98990801Y-58451931D01*
X99086039Y-58356693D01*
X99133658Y-58213836D01*
X99133658Y-57975741D01*
X98466992Y-59404312D02*
X99133658Y-59404312D01*
X98086039Y-59166217D02*
X98800325Y-58928122D01*
X98800325Y-59547169D01*
X99133658Y-60451931D02*
X99133658Y-59880503D01*
X99133658Y-60166217D02*
X98133658Y-60166217D01*
X98276516Y-60070979D01*
X98371754Y-59975741D01*
X98419373Y-59880503D01*
%TO.C,D40*%
X99133658Y-38926965D02*
X98133658Y-38926965D01*
X98133658Y-39165060D01*
X98181278Y-39307917D01*
X98276516Y-39403155D01*
X98371754Y-39450774D01*
X98562230Y-39498393D01*
X98705087Y-39498393D01*
X98895563Y-39450774D01*
X98990801Y-39403155D01*
X99086039Y-39307917D01*
X99133658Y-39165060D01*
X99133658Y-38926965D01*
X98466992Y-40355536D02*
X99133658Y-40355536D01*
X98086039Y-40117441D02*
X98800325Y-39879346D01*
X98800325Y-40498393D01*
X98133658Y-41069822D02*
X98133658Y-41165060D01*
X98181278Y-41260298D01*
X98228897Y-41307917D01*
X98324135Y-41355536D01*
X98514611Y-41403155D01*
X98752706Y-41403155D01*
X98943182Y-41355536D01*
X99038420Y-41307917D01*
X99086039Y-41260298D01*
X99133658Y-41165060D01*
X99133658Y-41069822D01*
X99086039Y-40974584D01*
X99038420Y-40926965D01*
X98943182Y-40879346D01*
X98752706Y-40831727D01*
X98514611Y-40831727D01*
X98324135Y-40879346D01*
X98228897Y-40926965D01*
X98181278Y-40974584D01*
X98133658Y-41069822D01*
%TO.C,D39*%
X91990367Y-133377146D02*
X90990367Y-133377146D01*
X90990367Y-133615241D01*
X91037987Y-133758098D01*
X91133225Y-133853336D01*
X91228463Y-133900955D01*
X91418939Y-133948574D01*
X91561796Y-133948574D01*
X91752272Y-133900955D01*
X91847510Y-133853336D01*
X91942748Y-133758098D01*
X91990367Y-133615241D01*
X91990367Y-133377146D01*
X90990367Y-134281908D02*
X90990367Y-134900955D01*
X91371320Y-134567622D01*
X91371320Y-134710479D01*
X91418939Y-134805717D01*
X91466558Y-134853336D01*
X91561796Y-134900955D01*
X91799891Y-134900955D01*
X91895129Y-134853336D01*
X91942748Y-134805717D01*
X91990367Y-134710479D01*
X91990367Y-134424765D01*
X91942748Y-134329527D01*
X91895129Y-134281908D01*
X91990367Y-135377146D02*
X91990367Y-135567622D01*
X91942748Y-135662860D01*
X91895129Y-135710479D01*
X91752272Y-135805717D01*
X91561796Y-135853336D01*
X91180844Y-135853336D01*
X91085606Y-135805717D01*
X91037987Y-135758098D01*
X90990367Y-135662860D01*
X90990367Y-135472384D01*
X91037987Y-135377146D01*
X91085606Y-135329527D01*
X91180844Y-135281908D01*
X91418939Y-135281908D01*
X91514177Y-135329527D01*
X91561796Y-135377146D01*
X91609415Y-135472384D01*
X91609415Y-135662860D01*
X91561796Y-135758098D01*
X91514177Y-135805717D01*
X91418939Y-135853336D01*
%TO.C,D38*%
X103895852Y-115122069D02*
X102895852Y-115122069D01*
X102895852Y-115360164D01*
X102943472Y-115503021D01*
X103038710Y-115598259D01*
X103133948Y-115645878D01*
X103324424Y-115693497D01*
X103467281Y-115693497D01*
X103657757Y-115645878D01*
X103752995Y-115598259D01*
X103848233Y-115503021D01*
X103895852Y-115360164D01*
X103895852Y-115122069D01*
X102895852Y-116026831D02*
X102895852Y-116645878D01*
X103276805Y-116312545D01*
X103276805Y-116455402D01*
X103324424Y-116550640D01*
X103372043Y-116598259D01*
X103467281Y-116645878D01*
X103705376Y-116645878D01*
X103800614Y-116598259D01*
X103848233Y-116550640D01*
X103895852Y-116455402D01*
X103895852Y-116169688D01*
X103848233Y-116074450D01*
X103800614Y-116026831D01*
X103324424Y-117217307D02*
X103276805Y-117122069D01*
X103229186Y-117074450D01*
X103133948Y-117026831D01*
X103086329Y-117026831D01*
X102991091Y-117074450D01*
X102943472Y-117122069D01*
X102895852Y-117217307D01*
X102895852Y-117407783D01*
X102943472Y-117503021D01*
X102991091Y-117550640D01*
X103086329Y-117598259D01*
X103133948Y-117598259D01*
X103229186Y-117550640D01*
X103276805Y-117503021D01*
X103324424Y-117407783D01*
X103324424Y-117217307D01*
X103372043Y-117122069D01*
X103419662Y-117074450D01*
X103514900Y-117026831D01*
X103705376Y-117026831D01*
X103800614Y-117074450D01*
X103848233Y-117122069D01*
X103895852Y-117217307D01*
X103895852Y-117407783D01*
X103848233Y-117503021D01*
X103800614Y-117550640D01*
X103705376Y-117598259D01*
X103514900Y-117598259D01*
X103419662Y-117550640D01*
X103372043Y-117503021D01*
X103324424Y-117407783D01*
%TO.C,D37*%
X94371464Y-96073293D02*
X93371464Y-96073293D01*
X93371464Y-96311388D01*
X93419084Y-96454245D01*
X93514322Y-96549483D01*
X93609560Y-96597102D01*
X93800036Y-96644721D01*
X93942893Y-96644721D01*
X94133369Y-96597102D01*
X94228607Y-96549483D01*
X94323845Y-96454245D01*
X94371464Y-96311388D01*
X94371464Y-96073293D01*
X93371464Y-96978055D02*
X93371464Y-97597102D01*
X93752417Y-97263769D01*
X93752417Y-97406626D01*
X93800036Y-97501864D01*
X93847655Y-97549483D01*
X93942893Y-97597102D01*
X94180988Y-97597102D01*
X94276226Y-97549483D01*
X94323845Y-97501864D01*
X94371464Y-97406626D01*
X94371464Y-97120912D01*
X94323845Y-97025674D01*
X94276226Y-96978055D01*
X93371464Y-97930436D02*
X93371464Y-98597102D01*
X94371464Y-98168531D01*
%TO.C,D36*%
X89609270Y-77024517D02*
X88609270Y-77024517D01*
X88609270Y-77262612D01*
X88656890Y-77405469D01*
X88752128Y-77500707D01*
X88847366Y-77548326D01*
X89037842Y-77595945D01*
X89180699Y-77595945D01*
X89371175Y-77548326D01*
X89466413Y-77500707D01*
X89561651Y-77405469D01*
X89609270Y-77262612D01*
X89609270Y-77024517D01*
X88609270Y-77929279D02*
X88609270Y-78548326D01*
X88990223Y-78214993D01*
X88990223Y-78357850D01*
X89037842Y-78453088D01*
X89085461Y-78500707D01*
X89180699Y-78548326D01*
X89418794Y-78548326D01*
X89514032Y-78500707D01*
X89561651Y-78453088D01*
X89609270Y-78357850D01*
X89609270Y-78072136D01*
X89561651Y-77976898D01*
X89514032Y-77929279D01*
X88609270Y-79405469D02*
X88609270Y-79214993D01*
X88656890Y-79119755D01*
X88704509Y-79072136D01*
X88847366Y-78976898D01*
X89037842Y-78929279D01*
X89418794Y-78929279D01*
X89514032Y-78976898D01*
X89561651Y-79024517D01*
X89609270Y-79119755D01*
X89609270Y-79310231D01*
X89561651Y-79405469D01*
X89514032Y-79453088D01*
X89418794Y-79500707D01*
X89180699Y-79500707D01*
X89085461Y-79453088D01*
X89037842Y-79405469D01*
X88990223Y-79310231D01*
X88990223Y-79119755D01*
X89037842Y-79024517D01*
X89085461Y-78976898D01*
X89180699Y-78929279D01*
%TO.C,D35*%
X80084882Y-57975741D02*
X79084882Y-57975741D01*
X79084882Y-58213836D01*
X79132502Y-58356693D01*
X79227740Y-58451931D01*
X79322978Y-58499550D01*
X79513454Y-58547169D01*
X79656311Y-58547169D01*
X79846787Y-58499550D01*
X79942025Y-58451931D01*
X80037263Y-58356693D01*
X80084882Y-58213836D01*
X80084882Y-57975741D01*
X79084882Y-58880503D02*
X79084882Y-59499550D01*
X79465835Y-59166217D01*
X79465835Y-59309074D01*
X79513454Y-59404312D01*
X79561073Y-59451931D01*
X79656311Y-59499550D01*
X79894406Y-59499550D01*
X79989644Y-59451931D01*
X80037263Y-59404312D01*
X80084882Y-59309074D01*
X80084882Y-59023360D01*
X80037263Y-58928122D01*
X79989644Y-58880503D01*
X79084882Y-60404312D02*
X79084882Y-59928122D01*
X79561073Y-59880503D01*
X79513454Y-59928122D01*
X79465835Y-60023360D01*
X79465835Y-60261455D01*
X79513454Y-60356693D01*
X79561073Y-60404312D01*
X79656311Y-60451931D01*
X79894406Y-60451931D01*
X79989644Y-60404312D01*
X80037263Y-60356693D01*
X80084882Y-60261455D01*
X80084882Y-60023360D01*
X80037263Y-59928122D01*
X79989644Y-59880503D01*
%TO.C,D34*%
X80084882Y-38926965D02*
X79084882Y-38926965D01*
X79084882Y-39165060D01*
X79132502Y-39307917D01*
X79227740Y-39403155D01*
X79322978Y-39450774D01*
X79513454Y-39498393D01*
X79656311Y-39498393D01*
X79846787Y-39450774D01*
X79942025Y-39403155D01*
X80037263Y-39307917D01*
X80084882Y-39165060D01*
X80084882Y-38926965D01*
X79084882Y-39831727D02*
X79084882Y-40450774D01*
X79465835Y-40117441D01*
X79465835Y-40260298D01*
X79513454Y-40355536D01*
X79561073Y-40403155D01*
X79656311Y-40450774D01*
X79894406Y-40450774D01*
X79989644Y-40403155D01*
X80037263Y-40355536D01*
X80084882Y-40260298D01*
X80084882Y-39974584D01*
X80037263Y-39879346D01*
X79989644Y-39831727D01*
X79418216Y-41307917D02*
X80084882Y-41307917D01*
X79037263Y-41069822D02*
X79751549Y-40831727D01*
X79751549Y-41450774D01*
%TO.C,D33*%
X68179397Y-133377146D02*
X67179397Y-133377146D01*
X67179397Y-133615241D01*
X67227017Y-133758098D01*
X67322255Y-133853336D01*
X67417493Y-133900955D01*
X67607969Y-133948574D01*
X67750826Y-133948574D01*
X67941302Y-133900955D01*
X68036540Y-133853336D01*
X68131778Y-133758098D01*
X68179397Y-133615241D01*
X68179397Y-133377146D01*
X67179397Y-134281908D02*
X67179397Y-134900955D01*
X67560350Y-134567622D01*
X67560350Y-134710479D01*
X67607969Y-134805717D01*
X67655588Y-134853336D01*
X67750826Y-134900955D01*
X67988921Y-134900955D01*
X68084159Y-134853336D01*
X68131778Y-134805717D01*
X68179397Y-134710479D01*
X68179397Y-134424765D01*
X68131778Y-134329527D01*
X68084159Y-134281908D01*
X67179397Y-135234289D02*
X67179397Y-135853336D01*
X67560350Y-135520003D01*
X67560350Y-135662860D01*
X67607969Y-135758098D01*
X67655588Y-135805717D01*
X67750826Y-135853336D01*
X67988921Y-135853336D01*
X68084159Y-135805717D01*
X68131778Y-135758098D01*
X68179397Y-135662860D01*
X68179397Y-135377146D01*
X68131778Y-135281908D01*
X68084159Y-135234289D01*
%TO.C,D32*%
X84847076Y-115122069D02*
X83847076Y-115122069D01*
X83847076Y-115360164D01*
X83894696Y-115503021D01*
X83989934Y-115598259D01*
X84085172Y-115645878D01*
X84275648Y-115693497D01*
X84418505Y-115693497D01*
X84608981Y-115645878D01*
X84704219Y-115598259D01*
X84799457Y-115503021D01*
X84847076Y-115360164D01*
X84847076Y-115122069D01*
X83847076Y-116026831D02*
X83847076Y-116645878D01*
X84228029Y-116312545D01*
X84228029Y-116455402D01*
X84275648Y-116550640D01*
X84323267Y-116598259D01*
X84418505Y-116645878D01*
X84656600Y-116645878D01*
X84751838Y-116598259D01*
X84799457Y-116550640D01*
X84847076Y-116455402D01*
X84847076Y-116169688D01*
X84799457Y-116074450D01*
X84751838Y-116026831D01*
X83942315Y-117026831D02*
X83894696Y-117074450D01*
X83847076Y-117169688D01*
X83847076Y-117407783D01*
X83894696Y-117503021D01*
X83942315Y-117550640D01*
X84037553Y-117598259D01*
X84132791Y-117598259D01*
X84275648Y-117550640D01*
X84847076Y-116979212D01*
X84847076Y-117598259D01*
%TO.C,D31*%
X75322688Y-96073293D02*
X74322688Y-96073293D01*
X74322688Y-96311388D01*
X74370308Y-96454245D01*
X74465546Y-96549483D01*
X74560784Y-96597102D01*
X74751260Y-96644721D01*
X74894117Y-96644721D01*
X75084593Y-96597102D01*
X75179831Y-96549483D01*
X75275069Y-96454245D01*
X75322688Y-96311388D01*
X75322688Y-96073293D01*
X74322688Y-96978055D02*
X74322688Y-97597102D01*
X74703641Y-97263769D01*
X74703641Y-97406626D01*
X74751260Y-97501864D01*
X74798879Y-97549483D01*
X74894117Y-97597102D01*
X75132212Y-97597102D01*
X75227450Y-97549483D01*
X75275069Y-97501864D01*
X75322688Y-97406626D01*
X75322688Y-97120912D01*
X75275069Y-97025674D01*
X75227450Y-96978055D01*
X75322688Y-98549483D02*
X75322688Y-97978055D01*
X75322688Y-98263769D02*
X74322688Y-98263769D01*
X74465546Y-98168531D01*
X74560784Y-98073293D01*
X74608403Y-97978055D01*
%TO.C,D30*%
X70560494Y-77024517D02*
X69560494Y-77024517D01*
X69560494Y-77262612D01*
X69608114Y-77405469D01*
X69703352Y-77500707D01*
X69798590Y-77548326D01*
X69989066Y-77595945D01*
X70131923Y-77595945D01*
X70322399Y-77548326D01*
X70417637Y-77500707D01*
X70512875Y-77405469D01*
X70560494Y-77262612D01*
X70560494Y-77024517D01*
X69560494Y-77929279D02*
X69560494Y-78548326D01*
X69941447Y-78214993D01*
X69941447Y-78357850D01*
X69989066Y-78453088D01*
X70036685Y-78500707D01*
X70131923Y-78548326D01*
X70370018Y-78548326D01*
X70465256Y-78500707D01*
X70512875Y-78453088D01*
X70560494Y-78357850D01*
X70560494Y-78072136D01*
X70512875Y-77976898D01*
X70465256Y-77929279D01*
X69560494Y-79167374D02*
X69560494Y-79262612D01*
X69608114Y-79357850D01*
X69655733Y-79405469D01*
X69750971Y-79453088D01*
X69941447Y-79500707D01*
X70179542Y-79500707D01*
X70370018Y-79453088D01*
X70465256Y-79405469D01*
X70512875Y-79357850D01*
X70560494Y-79262612D01*
X70560494Y-79167374D01*
X70512875Y-79072136D01*
X70465256Y-79024517D01*
X70370018Y-78976898D01*
X70179542Y-78929279D01*
X69941447Y-78929279D01*
X69750971Y-78976898D01*
X69655733Y-79024517D01*
X69608114Y-79072136D01*
X69560494Y-79167374D01*
%TO.C,D29*%
X61036106Y-57975741D02*
X60036106Y-57975741D01*
X60036106Y-58213836D01*
X60083726Y-58356693D01*
X60178964Y-58451931D01*
X60274202Y-58499550D01*
X60464678Y-58547169D01*
X60607535Y-58547169D01*
X60798011Y-58499550D01*
X60893249Y-58451931D01*
X60988487Y-58356693D01*
X61036106Y-58213836D01*
X61036106Y-57975741D01*
X60131345Y-58928122D02*
X60083726Y-58975741D01*
X60036106Y-59070979D01*
X60036106Y-59309074D01*
X60083726Y-59404312D01*
X60131345Y-59451931D01*
X60226583Y-59499550D01*
X60321821Y-59499550D01*
X60464678Y-59451931D01*
X61036106Y-58880503D01*
X61036106Y-59499550D01*
X61036106Y-59975741D02*
X61036106Y-60166217D01*
X60988487Y-60261455D01*
X60940868Y-60309074D01*
X60798011Y-60404312D01*
X60607535Y-60451931D01*
X60226583Y-60451931D01*
X60131345Y-60404312D01*
X60083726Y-60356693D01*
X60036106Y-60261455D01*
X60036106Y-60070979D01*
X60083726Y-59975741D01*
X60131345Y-59928122D01*
X60226583Y-59880503D01*
X60464678Y-59880503D01*
X60559916Y-59928122D01*
X60607535Y-59975741D01*
X60655154Y-60070979D01*
X60655154Y-60261455D01*
X60607535Y-60356693D01*
X60559916Y-60404312D01*
X60464678Y-60451931D01*
%TO.C,D28*%
X61036106Y-38926965D02*
X60036106Y-38926965D01*
X60036106Y-39165060D01*
X60083726Y-39307917D01*
X60178964Y-39403155D01*
X60274202Y-39450774D01*
X60464678Y-39498393D01*
X60607535Y-39498393D01*
X60798011Y-39450774D01*
X60893249Y-39403155D01*
X60988487Y-39307917D01*
X61036106Y-39165060D01*
X61036106Y-38926965D01*
X60131345Y-39879346D02*
X60083726Y-39926965D01*
X60036106Y-40022203D01*
X60036106Y-40260298D01*
X60083726Y-40355536D01*
X60131345Y-40403155D01*
X60226583Y-40450774D01*
X60321821Y-40450774D01*
X60464678Y-40403155D01*
X61036106Y-39831727D01*
X61036106Y-40450774D01*
X60464678Y-41022203D02*
X60417059Y-40926965D01*
X60369440Y-40879346D01*
X60274202Y-40831727D01*
X60226583Y-40831727D01*
X60131345Y-40879346D01*
X60083726Y-40926965D01*
X60036106Y-41022203D01*
X60036106Y-41212679D01*
X60083726Y-41307917D01*
X60131345Y-41355536D01*
X60226583Y-41403155D01*
X60274202Y-41403155D01*
X60369440Y-41355536D01*
X60417059Y-41307917D01*
X60464678Y-41212679D01*
X60464678Y-41022203D01*
X60512297Y-40926965D01*
X60559916Y-40879346D01*
X60655154Y-40831727D01*
X60845630Y-40831727D01*
X60940868Y-40879346D01*
X60988487Y-40926965D01*
X61036106Y-41022203D01*
X61036106Y-41212679D01*
X60988487Y-41307917D01*
X60940868Y-41355536D01*
X60845630Y-41403155D01*
X60655154Y-41403155D01*
X60559916Y-41355536D01*
X60512297Y-41307917D01*
X60464678Y-41212679D01*
%TO.C,D27*%
X44368427Y-133377146D02*
X43368427Y-133377146D01*
X43368427Y-133615241D01*
X43416047Y-133758098D01*
X43511285Y-133853336D01*
X43606523Y-133900955D01*
X43796999Y-133948574D01*
X43939856Y-133948574D01*
X44130332Y-133900955D01*
X44225570Y-133853336D01*
X44320808Y-133758098D01*
X44368427Y-133615241D01*
X44368427Y-133377146D01*
X43463666Y-134329527D02*
X43416047Y-134377146D01*
X43368427Y-134472384D01*
X43368427Y-134710479D01*
X43416047Y-134805717D01*
X43463666Y-134853336D01*
X43558904Y-134900955D01*
X43654142Y-134900955D01*
X43796999Y-134853336D01*
X44368427Y-134281908D01*
X44368427Y-134900955D01*
X43368427Y-135234289D02*
X43368427Y-135900955D01*
X44368427Y-135472384D01*
%TO.C,D26*%
X53892815Y-115122069D02*
X52892815Y-115122069D01*
X52892815Y-115360164D01*
X52940435Y-115503021D01*
X53035673Y-115598259D01*
X53130911Y-115645878D01*
X53321387Y-115693497D01*
X53464244Y-115693497D01*
X53654720Y-115645878D01*
X53749958Y-115598259D01*
X53845196Y-115503021D01*
X53892815Y-115360164D01*
X53892815Y-115122069D01*
X52988054Y-116074450D02*
X52940435Y-116122069D01*
X52892815Y-116217307D01*
X52892815Y-116455402D01*
X52940435Y-116550640D01*
X52988054Y-116598259D01*
X53083292Y-116645878D01*
X53178530Y-116645878D01*
X53321387Y-116598259D01*
X53892815Y-116026831D01*
X53892815Y-116645878D01*
X52892815Y-117503021D02*
X52892815Y-117312545D01*
X52940435Y-117217307D01*
X52988054Y-117169688D01*
X53130911Y-117074450D01*
X53321387Y-117026831D01*
X53702339Y-117026831D01*
X53797577Y-117074450D01*
X53845196Y-117122069D01*
X53892815Y-117217307D01*
X53892815Y-117407783D01*
X53845196Y-117503021D01*
X53797577Y-117550640D01*
X53702339Y-117598259D01*
X53464244Y-117598259D01*
X53369006Y-117550640D01*
X53321387Y-117503021D01*
X53273768Y-117407783D01*
X53273768Y-117217307D01*
X53321387Y-117122069D01*
X53369006Y-117074450D01*
X53464244Y-117026831D01*
%TO.C,D25*%
X49130621Y-96073293D02*
X48130621Y-96073293D01*
X48130621Y-96311388D01*
X48178241Y-96454245D01*
X48273479Y-96549483D01*
X48368717Y-96597102D01*
X48559193Y-96644721D01*
X48702050Y-96644721D01*
X48892526Y-96597102D01*
X48987764Y-96549483D01*
X49083002Y-96454245D01*
X49130621Y-96311388D01*
X49130621Y-96073293D01*
X48225860Y-97025674D02*
X48178241Y-97073293D01*
X48130621Y-97168531D01*
X48130621Y-97406626D01*
X48178241Y-97501864D01*
X48225860Y-97549483D01*
X48321098Y-97597102D01*
X48416336Y-97597102D01*
X48559193Y-97549483D01*
X49130621Y-96978055D01*
X49130621Y-97597102D01*
X48130621Y-98501864D02*
X48130621Y-98025674D01*
X48606812Y-97978055D01*
X48559193Y-98025674D01*
X48511574Y-98120912D01*
X48511574Y-98359007D01*
X48559193Y-98454245D01*
X48606812Y-98501864D01*
X48702050Y-98549483D01*
X48940145Y-98549483D01*
X49035383Y-98501864D01*
X49083002Y-98454245D01*
X49130621Y-98359007D01*
X49130621Y-98120912D01*
X49083002Y-98025674D01*
X49035383Y-97978055D01*
%TO.C,D24*%
X46749524Y-77024517D02*
X45749524Y-77024517D01*
X45749524Y-77262612D01*
X45797144Y-77405469D01*
X45892382Y-77500707D01*
X45987620Y-77548326D01*
X46178096Y-77595945D01*
X46320953Y-77595945D01*
X46511429Y-77548326D01*
X46606667Y-77500707D01*
X46701905Y-77405469D01*
X46749524Y-77262612D01*
X46749524Y-77024517D01*
X45844763Y-77976898D02*
X45797144Y-78024517D01*
X45749524Y-78119755D01*
X45749524Y-78357850D01*
X45797144Y-78453088D01*
X45844763Y-78500707D01*
X45940001Y-78548326D01*
X46035239Y-78548326D01*
X46178096Y-78500707D01*
X46749524Y-77929279D01*
X46749524Y-78548326D01*
X46082858Y-79405469D02*
X46749524Y-79405469D01*
X45701905Y-79167374D02*
X46416191Y-78929279D01*
X46416191Y-79548326D01*
%TO.C,D23*%
X41987330Y-57975741D02*
X40987330Y-57975741D01*
X40987330Y-58213836D01*
X41034950Y-58356693D01*
X41130188Y-58451931D01*
X41225426Y-58499550D01*
X41415902Y-58547169D01*
X41558759Y-58547169D01*
X41749235Y-58499550D01*
X41844473Y-58451931D01*
X41939711Y-58356693D01*
X41987330Y-58213836D01*
X41987330Y-57975741D01*
X41082569Y-58928122D02*
X41034950Y-58975741D01*
X40987330Y-59070979D01*
X40987330Y-59309074D01*
X41034950Y-59404312D01*
X41082569Y-59451931D01*
X41177807Y-59499550D01*
X41273045Y-59499550D01*
X41415902Y-59451931D01*
X41987330Y-58880503D01*
X41987330Y-59499550D01*
X40987330Y-59832884D02*
X40987330Y-60451931D01*
X41368283Y-60118598D01*
X41368283Y-60261455D01*
X41415902Y-60356693D01*
X41463521Y-60404312D01*
X41558759Y-60451931D01*
X41796854Y-60451931D01*
X41892092Y-60404312D01*
X41939711Y-60356693D01*
X41987330Y-60261455D01*
X41987330Y-59975741D01*
X41939711Y-59880503D01*
X41892092Y-59832884D01*
%TO.C,D22*%
X41987330Y-38926965D02*
X40987330Y-38926965D01*
X40987330Y-39165060D01*
X41034950Y-39307917D01*
X41130188Y-39403155D01*
X41225426Y-39450774D01*
X41415902Y-39498393D01*
X41558759Y-39498393D01*
X41749235Y-39450774D01*
X41844473Y-39403155D01*
X41939711Y-39307917D01*
X41987330Y-39165060D01*
X41987330Y-38926965D01*
X41082569Y-39879346D02*
X41034950Y-39926965D01*
X40987330Y-40022203D01*
X40987330Y-40260298D01*
X41034950Y-40355536D01*
X41082569Y-40403155D01*
X41177807Y-40450774D01*
X41273045Y-40450774D01*
X41415902Y-40403155D01*
X41987330Y-39831727D01*
X41987330Y-40450774D01*
X41082569Y-40831727D02*
X41034950Y-40879346D01*
X40987330Y-40974584D01*
X40987330Y-41212679D01*
X41034950Y-41307917D01*
X41082569Y-41355536D01*
X41177807Y-41403155D01*
X41273045Y-41403155D01*
X41415902Y-41355536D01*
X41987330Y-40784108D01*
X41987330Y-41403155D01*
%TO.C,C5*%
X300552704Y-131821803D02*
X300600323Y-131774184D01*
X300647942Y-131631327D01*
X300647942Y-131536089D01*
X300600323Y-131393231D01*
X300505085Y-131297993D01*
X300409847Y-131250374D01*
X300219371Y-131202755D01*
X300076514Y-131202755D01*
X299886038Y-131250374D01*
X299790800Y-131297993D01*
X299695562Y-131393231D01*
X299647942Y-131536089D01*
X299647942Y-131631327D01*
X299695562Y-131774184D01*
X299743181Y-131821803D01*
X299647942Y-132726565D02*
X299647942Y-132250374D01*
X300124133Y-132202755D01*
X300076514Y-132250374D01*
X300028895Y-132345612D01*
X300028895Y-132583708D01*
X300076514Y-132678946D01*
X300124133Y-132726565D01*
X300219371Y-132774184D01*
X300457466Y-132774184D01*
X300552704Y-132726565D01*
X300600323Y-132678946D01*
X300647942Y-132583708D01*
X300647942Y-132345612D01*
X300600323Y-132250374D01*
X300552704Y-132202755D01*
%TO.C,C4*%
X261022704Y-132229303D02*
X261070323Y-132181684D01*
X261117942Y-132038827D01*
X261117942Y-131943589D01*
X261070323Y-131800731D01*
X260975085Y-131705493D01*
X260879847Y-131657874D01*
X260689371Y-131610255D01*
X260546514Y-131610255D01*
X260356038Y-131657874D01*
X260260800Y-131705493D01*
X260165562Y-131800731D01*
X260117942Y-131943589D01*
X260117942Y-132038827D01*
X260165562Y-132181684D01*
X260213181Y-132229303D01*
X260451276Y-133086446D02*
X261117942Y-133086446D01*
X260070323Y-132848350D02*
X260784609Y-132610255D01*
X260784609Y-133229303D01*
%TO.C,C3*%
X218477704Y-132229303D02*
X218525323Y-132181684D01*
X218572942Y-132038827D01*
X218572942Y-131943589D01*
X218525323Y-131800731D01*
X218430085Y-131705493D01*
X218334847Y-131657874D01*
X218144371Y-131610255D01*
X218001514Y-131610255D01*
X217811038Y-131657874D01*
X217715800Y-131705493D01*
X217620562Y-131800731D01*
X217572942Y-131943589D01*
X217572942Y-132038827D01*
X217620562Y-132181684D01*
X217668181Y-132229303D01*
X217572942Y-132562636D02*
X217572942Y-133181684D01*
X217953895Y-132848350D01*
X217953895Y-132991208D01*
X218001514Y-133086446D01*
X218049133Y-133134065D01*
X218144371Y-133181684D01*
X218382466Y-133181684D01*
X218477704Y-133134065D01*
X218525323Y-133086446D01*
X218572942Y-132991208D01*
X218572942Y-132705493D01*
X218525323Y-132610255D01*
X218477704Y-132562636D01*
%TO.C,C2*%
X156254543Y-131849955D02*
X156302162Y-131802336D01*
X156349781Y-131659479D01*
X156349781Y-131564241D01*
X156302162Y-131421383D01*
X156206924Y-131326145D01*
X156111686Y-131278526D01*
X155921210Y-131230907D01*
X155778353Y-131230907D01*
X155587877Y-131278526D01*
X155492639Y-131326145D01*
X155397401Y-131421383D01*
X155349781Y-131564241D01*
X155349781Y-131659479D01*
X155397401Y-131802336D01*
X155445020Y-131849955D01*
X155445020Y-132230907D02*
X155397401Y-132278526D01*
X155349781Y-132373764D01*
X155349781Y-132611860D01*
X155397401Y-132707098D01*
X155445020Y-132754717D01*
X155540258Y-132802336D01*
X155635496Y-132802336D01*
X155778353Y-132754717D01*
X156349781Y-132183288D01*
X156349781Y-132802336D01*
%TO.C,C1*%
X67822704Y-118031803D02*
X67870323Y-117984184D01*
X67917942Y-117841327D01*
X67917942Y-117746089D01*
X67870323Y-117603231D01*
X67775085Y-117507993D01*
X67679847Y-117460374D01*
X67489371Y-117412755D01*
X67346514Y-117412755D01*
X67156038Y-117460374D01*
X67060800Y-117507993D01*
X66965562Y-117603231D01*
X66917942Y-117746089D01*
X66917942Y-117841327D01*
X66965562Y-117984184D01*
X67013181Y-118031803D01*
X67917942Y-118984184D02*
X67917942Y-118412755D01*
X67917942Y-118698470D02*
X66917942Y-118698470D01*
X67060800Y-118603231D01*
X67156038Y-118507993D01*
X67203657Y-118412755D01*
%TD*%
M02*
