%TF.GenerationSoftware,KiCad,Pcbnew,(5.1.9)-1*%
%TF.CreationDate,2021-08-25T16:21:07-05:00*%
%TF.ProjectId,Full_75,46756c6c-5f37-4352-9e6b-696361645f70,rev?*%
%TF.SameCoordinates,Original*%
%TF.FileFunction,Legend,Top*%
%TF.FilePolarity,Positive*%
%FSLAX46Y46*%
G04 Gerber Fmt 4.6, Leading zero omitted, Abs format (unit mm)*
G04 Created by KiCad (PCBNEW (5.1.9)-1) date 2021-08-25 16:21:07*
%MOMM*%
%LPD*%
G01*
G04 APERTURE LIST*
%ADD10C,0.010000*%
%ADD11C,0.120000*%
%ADD12C,0.150000*%
G04 APERTURE END LIST*
D10*
%TO.C,G\u002A\u002A\u002A*%
G36*
X309736894Y-109867308D02*
G01*
X309795602Y-109872690D01*
X309855767Y-109880686D01*
X309911981Y-109890467D01*
X309958835Y-109901204D01*
X309990920Y-109912069D01*
X309991464Y-109912325D01*
X310031983Y-109942750D01*
X310063727Y-109991421D01*
X310086704Y-110058361D01*
X310100921Y-110143593D01*
X310106386Y-110247141D01*
X310106451Y-110264604D01*
X310106208Y-110308372D01*
X310105180Y-110343530D01*
X310102599Y-110374395D01*
X310097698Y-110405286D01*
X310089712Y-110440521D01*
X310077872Y-110484419D01*
X310061413Y-110541298D01*
X310051092Y-110576360D01*
X310036123Y-110629470D01*
X310018385Y-110696093D01*
X309999505Y-110769902D01*
X309981109Y-110844571D01*
X309968824Y-110896400D01*
X309946127Y-111001952D01*
X309931198Y-111092018D01*
X309924079Y-111169904D01*
X309924813Y-111238918D01*
X309933442Y-111302367D01*
X309950009Y-111363559D01*
X309974557Y-111425801D01*
X309975651Y-111428238D01*
X310025745Y-111519013D01*
X310091836Y-111607476D01*
X310169749Y-111688831D01*
X310255314Y-111758280D01*
X310273445Y-111770626D01*
X310290765Y-111780882D01*
X310324026Y-111799453D01*
X310371859Y-111825618D01*
X310432898Y-111858656D01*
X310505778Y-111897848D01*
X310589131Y-111942471D01*
X310681591Y-111991807D01*
X310781791Y-112045134D01*
X310888365Y-112101731D01*
X310999947Y-112160878D01*
X311115169Y-112221855D01*
X311232666Y-112283940D01*
X311351070Y-112346414D01*
X311469016Y-112408555D01*
X311585136Y-112469643D01*
X311698065Y-112528957D01*
X311806435Y-112585777D01*
X311908881Y-112639382D01*
X312004035Y-112689052D01*
X312090532Y-112734066D01*
X312167004Y-112773703D01*
X312232086Y-112807243D01*
X312284410Y-112833965D01*
X312322610Y-112853149D01*
X312345319Y-112864074D01*
X312351409Y-112866391D01*
X312349058Y-112859359D01*
X312336145Y-112843527D01*
X312312206Y-112818463D01*
X312276773Y-112783738D01*
X312229381Y-112738922D01*
X312169564Y-112683586D01*
X312096855Y-112617300D01*
X312010789Y-112539634D01*
X311910900Y-112450158D01*
X311796720Y-112348442D01*
X311667786Y-112234057D01*
X311615454Y-112187736D01*
X311520655Y-112103839D01*
X311426077Y-112020076D01*
X311333502Y-111938027D01*
X311244712Y-111859277D01*
X311161489Y-111785405D01*
X311085615Y-111717996D01*
X311018872Y-111658630D01*
X310963043Y-111608890D01*
X310919909Y-111570358D01*
X310905993Y-111557884D01*
X310839036Y-111498569D01*
X310784562Y-111452274D01*
X310740682Y-111417658D01*
X310705505Y-111393379D01*
X310677143Y-111378093D01*
X310653705Y-111370458D01*
X310640094Y-111368959D01*
X310624214Y-111371541D01*
X310592290Y-111378968D01*
X310547771Y-111390360D01*
X310494109Y-111404832D01*
X310434815Y-111421485D01*
X310370466Y-111439837D01*
X310322745Y-111453054D01*
X310288746Y-111461601D01*
X310265562Y-111465943D01*
X310250288Y-111466546D01*
X310240019Y-111463873D01*
X310231847Y-111458390D01*
X310227540Y-111454651D01*
X310207824Y-111429889D01*
X310186204Y-111391178D01*
X310165349Y-111344368D01*
X310147925Y-111295310D01*
X310138404Y-111259119D01*
X310130767Y-111203654D01*
X310127587Y-111135767D01*
X310128762Y-111062839D01*
X310134189Y-110992252D01*
X310142918Y-110935382D01*
X310151797Y-110899283D01*
X310166053Y-110849283D01*
X310184110Y-110790572D01*
X310204390Y-110728341D01*
X310217678Y-110689430D01*
X310250973Y-110590334D01*
X310276773Y-110504986D01*
X310296300Y-110428782D01*
X310310777Y-110357118D01*
X310317860Y-110312200D01*
X310325781Y-110256320D01*
X310354576Y-110304943D01*
X310389731Y-110376353D01*
X310411648Y-110451097D01*
X310420416Y-110531717D01*
X310416122Y-110620752D01*
X310398853Y-110720743D01*
X310372397Y-110821841D01*
X310356186Y-110878521D01*
X310341073Y-110934510D01*
X310328603Y-110983880D01*
X310320319Y-111020705D01*
X310319485Y-111025041D01*
X310313775Y-111064585D01*
X310309576Y-111110771D01*
X310307009Y-111158833D01*
X310306191Y-111204009D01*
X310307240Y-111241534D01*
X310310276Y-111266645D01*
X310313289Y-111273975D01*
X310332968Y-111281526D01*
X310367914Y-111282983D01*
X310414175Y-111278840D01*
X310467795Y-111269589D01*
X310524821Y-111255724D01*
X310568989Y-111242069D01*
X310617624Y-111225939D01*
X310650952Y-111216386D01*
X310672639Y-111212714D01*
X310686351Y-111214225D01*
X310693661Y-111218384D01*
X310703530Y-111227068D01*
X310727348Y-111248368D01*
X310763992Y-111281273D01*
X310812340Y-111324772D01*
X310871270Y-111377853D01*
X310939659Y-111439503D01*
X311016385Y-111508712D01*
X311100324Y-111584466D01*
X311190355Y-111665754D01*
X311285354Y-111751565D01*
X311360899Y-111819828D01*
X311472020Y-111920248D01*
X311588561Y-112025562D01*
X311708241Y-112133705D01*
X311828774Y-112242615D01*
X311947877Y-112350227D01*
X312063267Y-112454480D01*
X312172659Y-112553309D01*
X312273771Y-112644651D01*
X312364319Y-112726443D01*
X312440261Y-112795034D01*
X312519050Y-112866261D01*
X312593081Y-112933320D01*
X312661022Y-112994995D01*
X312721542Y-113050071D01*
X312773307Y-113097332D01*
X312814985Y-113135562D01*
X312845244Y-113163545D01*
X312862753Y-113180066D01*
X312866711Y-113184208D01*
X312859854Y-113183060D01*
X312840446Y-113177790D01*
X312807734Y-113168162D01*
X312760962Y-113153943D01*
X312699376Y-113134897D01*
X312622220Y-113110789D01*
X312528739Y-113081385D01*
X312418178Y-113046449D01*
X312289783Y-113005748D01*
X312143774Y-112959356D01*
X312049455Y-112929378D01*
X311939531Y-112894470D01*
X311817772Y-112855827D01*
X311687946Y-112814644D01*
X311553824Y-112772118D01*
X311419174Y-112729443D01*
X311287766Y-112687814D01*
X311163371Y-112648428D01*
X311132854Y-112638769D01*
X311018854Y-112602681D01*
X310903256Y-112566066D01*
X310788826Y-112529802D01*
X310678327Y-112494765D01*
X310574526Y-112461833D01*
X310480186Y-112431883D01*
X310398073Y-112405792D01*
X310330951Y-112384437D01*
X310299734Y-112374488D01*
X310050814Y-112295087D01*
X310035134Y-112200151D01*
X310026289Y-112149529D01*
X310018542Y-112115256D01*
X310010314Y-112093539D01*
X310000025Y-112080584D01*
X309986096Y-112072599D01*
X309981247Y-112070707D01*
X309950724Y-112066085D01*
X309904865Y-112067686D01*
X309847424Y-112074770D01*
X309782153Y-112086597D01*
X309712807Y-112102428D01*
X309643138Y-112121524D01*
X309576902Y-112143144D01*
X309537734Y-112158092D01*
X309409972Y-112221146D01*
X309291864Y-112301545D01*
X309184595Y-112398164D01*
X309089350Y-112509876D01*
X309007312Y-112635556D01*
X308978384Y-112689640D01*
X308954008Y-112749352D01*
X308943938Y-112801953D01*
X308948365Y-112845068D01*
X308963488Y-112872278D01*
X308988263Y-112891909D01*
X309029156Y-112915345D01*
X309082692Y-112941004D01*
X309145394Y-112967304D01*
X309213789Y-112992663D01*
X309265625Y-113009770D01*
X309384677Y-113046918D01*
X309446828Y-113241659D01*
X309465744Y-113300782D01*
X309490291Y-113377273D01*
X309519837Y-113469167D01*
X309553747Y-113574501D01*
X309591387Y-113691312D01*
X309632125Y-113817637D01*
X309675327Y-113951512D01*
X309720360Y-114090975D01*
X309766589Y-114234061D01*
X309813381Y-114378807D01*
X309860103Y-114523251D01*
X309906121Y-114665428D01*
X309944070Y-114782600D01*
X309970927Y-114865549D01*
X310002886Y-114964351D01*
X310038820Y-115075514D01*
X310077602Y-115195548D01*
X310118104Y-115320964D01*
X310159200Y-115448271D01*
X310199762Y-115573980D01*
X310238662Y-115694600D01*
X310249262Y-115727480D01*
X310282738Y-115831231D01*
X310314438Y-115929289D01*
X310343802Y-116019934D01*
X310370269Y-116101445D01*
X310393279Y-116172101D01*
X310412272Y-116230182D01*
X310426687Y-116273966D01*
X310435964Y-116301732D01*
X310439493Y-116311680D01*
X310440416Y-116314291D01*
X310438959Y-116314085D01*
X310434680Y-116310560D01*
X310427137Y-116303220D01*
X310415889Y-116291563D01*
X310400496Y-116275093D01*
X310380515Y-116253309D01*
X310355507Y-116225712D01*
X310325029Y-116191804D01*
X310288641Y-116151086D01*
X310245901Y-116103058D01*
X310196368Y-116047222D01*
X310139601Y-115983078D01*
X310075159Y-115910128D01*
X310002600Y-115827873D01*
X309921484Y-115735814D01*
X309831369Y-115633451D01*
X309731814Y-115520286D01*
X309622378Y-115395820D01*
X309502620Y-115259554D01*
X309372098Y-115110989D01*
X309230371Y-114949625D01*
X309076999Y-114774964D01*
X308911540Y-114586508D01*
X308733552Y-114383756D01*
X308548555Y-114173000D01*
X308482287Y-114097507D01*
X308419663Y-114026176D01*
X308362047Y-113960560D01*
X308310801Y-113902211D01*
X308267291Y-113852680D01*
X308232877Y-113813520D01*
X308208925Y-113786283D01*
X308196797Y-113772520D01*
X308196052Y-113771680D01*
X308189282Y-113762943D01*
X308185473Y-113752770D01*
X308184958Y-113737780D01*
X308188072Y-113714593D01*
X308195150Y-113679830D01*
X308206525Y-113630111D01*
X308212645Y-113604040D01*
X308233087Y-113513022D01*
X308247109Y-113439194D01*
X308254597Y-113380426D01*
X308255436Y-113334591D01*
X308249510Y-113299559D01*
X308236707Y-113273204D01*
X308216910Y-113253395D01*
X308193001Y-113239399D01*
X308127506Y-113214619D01*
X308046372Y-113193875D01*
X307953949Y-113177540D01*
X307854585Y-113165986D01*
X307752630Y-113159588D01*
X307652433Y-113158719D01*
X307558342Y-113163750D01*
X307474707Y-113175056D01*
X307465094Y-113176952D01*
X307358071Y-113204577D01*
X307253347Y-113242168D01*
X307158325Y-113286914D01*
X307124734Y-113306160D01*
X307062805Y-113346527D01*
X307001408Y-113391334D01*
X306943427Y-113438032D01*
X306891745Y-113484073D01*
X306849246Y-113526908D01*
X306818814Y-113563989D01*
X306804558Y-113589155D01*
X306801429Y-113624624D01*
X306814375Y-113668967D01*
X306842197Y-113720359D01*
X306883696Y-113776975D01*
X306937672Y-113836988D01*
X307002927Y-113898574D01*
X307014237Y-113908368D01*
X307051830Y-113940486D01*
X307083410Y-113967350D01*
X307106019Y-113986450D01*
X307116695Y-113995278D01*
X307117121Y-113995582D01*
X307115555Y-114005485D01*
X307110179Y-114033607D01*
X307101332Y-114078277D01*
X307089354Y-114137821D01*
X307074586Y-114210568D01*
X307057365Y-114294846D01*
X307038034Y-114388981D01*
X307016930Y-114491303D01*
X306994395Y-114600139D01*
X306987979Y-114631053D01*
X306933743Y-114892290D01*
X306880676Y-115148028D01*
X306829043Y-115396978D01*
X306779113Y-115637852D01*
X306731151Y-115869361D01*
X306685424Y-116090217D01*
X306642199Y-116299131D01*
X306601742Y-116494816D01*
X306564320Y-116675982D01*
X306530200Y-116841341D01*
X306499649Y-116989604D01*
X306472932Y-117119484D01*
X306468775Y-117139720D01*
X306449637Y-117232612D01*
X306431675Y-117319237D01*
X306415312Y-117397595D01*
X306400972Y-117465687D01*
X306389076Y-117521514D01*
X306380049Y-117563075D01*
X306374313Y-117588372D01*
X306372359Y-117595578D01*
X306367737Y-117590117D01*
X306363154Y-117575258D01*
X306359952Y-117560389D01*
X306353130Y-117527820D01*
X306343145Y-117479755D01*
X306330453Y-117418401D01*
X306315509Y-117345965D01*
X306298770Y-117264653D01*
X306280691Y-117176669D01*
X306271024Y-117129560D01*
X306247806Y-117016524D01*
X306220583Y-116884289D01*
X306189500Y-116733547D01*
X306154698Y-116564989D01*
X306116321Y-116379308D01*
X306074513Y-116177196D01*
X306029417Y-115959346D01*
X305981175Y-115726449D01*
X305929932Y-115479199D01*
X305875831Y-115218286D01*
X305819014Y-114944405D01*
X305759625Y-114658246D01*
X305752714Y-114624952D01*
X305730229Y-114516460D01*
X305709021Y-114413783D01*
X305689445Y-114318663D01*
X305671855Y-114232843D01*
X305656608Y-114158066D01*
X305644058Y-114096074D01*
X305634561Y-114048610D01*
X305628472Y-114017415D01*
X305626146Y-114004233D01*
X305626134Y-114004011D01*
X305633573Y-113992022D01*
X305652715Y-113973043D01*
X305670238Y-113958459D01*
X305694811Y-113936838D01*
X305727930Y-113904332D01*
X305765018Y-113865568D01*
X305797168Y-113830108D01*
X305851214Y-113768083D01*
X305892053Y-113718364D01*
X305920297Y-113678358D01*
X305936557Y-113645470D01*
X305941444Y-113617109D01*
X305935571Y-113590681D01*
X305919548Y-113563592D01*
X305893986Y-113533251D01*
X305872514Y-113510523D01*
X305786626Y-113430205D01*
X305690639Y-113355762D01*
X305591524Y-113292348D01*
X305540671Y-113265248D01*
X305453449Y-113225821D01*
X305370071Y-113196333D01*
X305285790Y-113175875D01*
X305195859Y-113163535D01*
X305095530Y-113158403D01*
X304988331Y-113159313D01*
X304893363Y-113164629D01*
X304802959Y-113174466D01*
X304719566Y-113188220D01*
X304645626Y-113205284D01*
X304583585Y-113225053D01*
X304535887Y-113246923D01*
X304504975Y-113270287D01*
X304497303Y-113280921D01*
X304488292Y-113314175D01*
X304487096Y-113364280D01*
X304493594Y-113429378D01*
X304507667Y-113507610D01*
X304513567Y-113534314D01*
X304525471Y-113586303D01*
X304536928Y-113636689D01*
X304546447Y-113678892D01*
X304551490Y-113701553D01*
X304562879Y-113753346D01*
X304081331Y-114300993D01*
X303986885Y-114408401D01*
X303884677Y-114524631D01*
X303777402Y-114646620D01*
X303667752Y-114771305D01*
X303558424Y-114895621D01*
X303452111Y-115016506D01*
X303351506Y-115130896D01*
X303259305Y-115235727D01*
X303188701Y-115316000D01*
X303106601Y-115409350D01*
X303021384Y-115506266D01*
X302935254Y-115604239D01*
X302850417Y-115700760D01*
X302769080Y-115793317D01*
X302693447Y-115879401D01*
X302625724Y-115956502D01*
X302568117Y-116022112D01*
X302543829Y-116049786D01*
X302489289Y-116111774D01*
X302439103Y-116168495D01*
X302394808Y-116218238D01*
X302357940Y-116259289D01*
X302330037Y-116289937D01*
X302312634Y-116308469D01*
X302307236Y-116313409D01*
X302309709Y-116303487D01*
X302317878Y-116276119D01*
X302331152Y-116233180D01*
X302348938Y-116176545D01*
X302370643Y-116108091D01*
X302395676Y-116029693D01*
X302423443Y-115943227D01*
X302453353Y-115850568D01*
X302455550Y-115843782D01*
X302488279Y-115742628D01*
X302525994Y-115625981D01*
X302567452Y-115497690D01*
X302611410Y-115361606D01*
X302656624Y-115221577D01*
X302701852Y-115081452D01*
X302745850Y-114945081D01*
X302787376Y-114816312D01*
X302801519Y-114772440D01*
X302839989Y-114653110D01*
X302879892Y-114529373D01*
X302920219Y-114404358D01*
X302959961Y-114281192D01*
X302998107Y-114163003D01*
X303033649Y-114052919D01*
X303065577Y-113954067D01*
X303092881Y-113869574D01*
X303106467Y-113827560D01*
X303136317Y-113735206D01*
X303167843Y-113637537D01*
X303199566Y-113539144D01*
X303230007Y-113444616D01*
X303257689Y-113358542D01*
X303281132Y-113285512D01*
X303288429Y-113262735D01*
X303360295Y-113038270D01*
X303484834Y-113004817D01*
X303583738Y-112974900D01*
X303664020Y-112943358D01*
X303725128Y-112910443D01*
X303766512Y-112876407D01*
X303768031Y-112874706D01*
X303789783Y-112841409D01*
X303797818Y-112804487D01*
X303791972Y-112760827D01*
X303772080Y-112707315D01*
X303757627Y-112677476D01*
X303680282Y-112545898D01*
X303590869Y-112430315D01*
X303489068Y-112330509D01*
X303374562Y-112246266D01*
X303247031Y-112177370D01*
X303106158Y-112123603D01*
X302951624Y-112084752D01*
X302861599Y-112069788D01*
X302810141Y-112064404D01*
X302772213Y-112066253D01*
X302745365Y-112077739D01*
X302727149Y-112101262D01*
X302715115Y-112139225D01*
X302706815Y-112194029D01*
X302703659Y-112224686D01*
X302697160Y-112293133D01*
X302508107Y-112353484D01*
X302448125Y-112372599D01*
X302373361Y-112396374D01*
X302288410Y-112423350D01*
X302197865Y-112452070D01*
X302106323Y-112481074D01*
X302018378Y-112508906D01*
X302009174Y-112511817D01*
X301918579Y-112540489D01*
X301820900Y-112571450D01*
X301721434Y-112603018D01*
X301625480Y-112633510D01*
X301538335Y-112661244D01*
X301465614Y-112684436D01*
X301410274Y-112702065D01*
X301338380Y-112724897D01*
X301252762Y-112752035D01*
X301156250Y-112782584D01*
X301051672Y-112815650D01*
X300941859Y-112850338D01*
X300829641Y-112885752D01*
X300717847Y-112920998D01*
X300678214Y-112933484D01*
X300571962Y-112966978D01*
X300468034Y-112999789D01*
X300368683Y-113031203D01*
X300276165Y-113060504D01*
X300192736Y-113086977D01*
X300120650Y-113109906D01*
X300062162Y-113128577D01*
X300019528Y-113142275D01*
X300003283Y-113147550D01*
X299957116Y-113162314D01*
X299918484Y-113174025D01*
X299891160Y-113181585D01*
X299878916Y-113183898D01*
X299878654Y-113183786D01*
X299885654Y-113176703D01*
X299906903Y-113156767D01*
X299941566Y-113124739D01*
X299988806Y-113081380D01*
X300047787Y-113027451D01*
X300117672Y-112963712D01*
X300197626Y-112890924D01*
X300286812Y-112809848D01*
X300384394Y-112721245D01*
X300489536Y-112625875D01*
X300601401Y-112524498D01*
X300719153Y-112417877D01*
X300841957Y-112306771D01*
X300966078Y-112194558D01*
X302056922Y-111208749D01*
X302177828Y-111243234D01*
X302260239Y-111265303D01*
X302325001Y-111279372D01*
X302373083Y-111285577D01*
X302405454Y-111284056D01*
X302420490Y-111277535D01*
X302430378Y-111257585D01*
X302434602Y-111220615D01*
X302433466Y-111169032D01*
X302427271Y-111105243D01*
X302416317Y-111031652D01*
X302400907Y-110950666D01*
X302381342Y-110864691D01*
X302357923Y-110776132D01*
X302357453Y-110774480D01*
X302333217Y-110676514D01*
X302320673Y-110590913D01*
X302320012Y-110513289D01*
X302331427Y-110439253D01*
X302355109Y-110364417D01*
X302377673Y-110312200D01*
X302408766Y-110246160D01*
X302416980Y-110319851D01*
X302430022Y-110404324D01*
X302451041Y-110489011D01*
X302481861Y-110580853D01*
X302493712Y-110611920D01*
X302531813Y-110712334D01*
X302561699Y-110798718D01*
X302584271Y-110875201D01*
X302600434Y-110945910D01*
X302611091Y-111014973D01*
X302617145Y-111086521D01*
X302619500Y-111164680D01*
X302619618Y-111187384D01*
X302617149Y-111292070D01*
X302609029Y-111379691D01*
X302594532Y-111452898D01*
X302572932Y-111514340D01*
X302543503Y-111566668D01*
X302505519Y-111612531D01*
X302502195Y-111615894D01*
X302479308Y-111635012D01*
X302441450Y-111662190D01*
X302391393Y-111695592D01*
X302331912Y-111733380D01*
X302265783Y-111773718D01*
X302246335Y-111785290D01*
X302212747Y-111805255D01*
X302164868Y-111833847D01*
X302104160Y-111870187D01*
X302032083Y-111913396D01*
X301950097Y-111962595D01*
X301859662Y-112016903D01*
X301762240Y-112075443D01*
X301659291Y-112137334D01*
X301552275Y-112201697D01*
X301442653Y-112267653D01*
X301331884Y-112334323D01*
X301221431Y-112400827D01*
X301112752Y-112466286D01*
X301007309Y-112529821D01*
X300906562Y-112590552D01*
X300811971Y-112647600D01*
X300724998Y-112700086D01*
X300647102Y-112747130D01*
X300579743Y-112787854D01*
X300524384Y-112821377D01*
X300482483Y-112846821D01*
X300455501Y-112863307D01*
X300446192Y-112869097D01*
X300430385Y-112881375D01*
X300426701Y-112888554D01*
X300435059Y-112887595D01*
X300457707Y-112881832D01*
X300495171Y-112871104D01*
X300547975Y-112855244D01*
X300616644Y-112834091D01*
X300701703Y-112807480D01*
X300803678Y-112775247D01*
X300923092Y-112737229D01*
X301060472Y-112693262D01*
X301216341Y-112643182D01*
X301308134Y-112613620D01*
X301486804Y-112556024D01*
X301647136Y-112504303D01*
X301790138Y-112458118D01*
X301916818Y-112417128D01*
X302028184Y-112380996D01*
X302125243Y-112349382D01*
X302209005Y-112321946D01*
X302280477Y-112298350D01*
X302340668Y-112278254D01*
X302390586Y-112261320D01*
X302431238Y-112247207D01*
X302463633Y-112235577D01*
X302488779Y-112226091D01*
X302507685Y-112218409D01*
X302521357Y-112212193D01*
X302530806Y-112207102D01*
X302537037Y-112202799D01*
X302541061Y-112198943D01*
X302541223Y-112198755D01*
X302549763Y-112186577D01*
X302554753Y-112171520D01*
X302556620Y-112149092D01*
X302555788Y-112114800D01*
X302553234Y-112072271D01*
X302550216Y-112000622D01*
X302552779Y-111943851D01*
X302562185Y-111896979D01*
X302579693Y-111855029D01*
X302606564Y-111813024D01*
X302624926Y-111789169D01*
X302699408Y-111684267D01*
X302755324Y-111577221D01*
X302793525Y-111465328D01*
X302814859Y-111345881D01*
X302820176Y-111216177D01*
X302818658Y-111172540D01*
X302812405Y-111096470D01*
X302800848Y-111014605D01*
X302783412Y-110924171D01*
X302759522Y-110822399D01*
X302728602Y-110706516D01*
X302704395Y-110622080D01*
X302677940Y-110530003D01*
X302657588Y-110453734D01*
X302642932Y-110389830D01*
X302633566Y-110334850D01*
X302629082Y-110285353D01*
X302629072Y-110237896D01*
X302633130Y-110189038D01*
X302640848Y-110135338D01*
X302644360Y-110114641D01*
X302660393Y-110042099D01*
X302681610Y-109986719D01*
X302710644Y-109945502D01*
X302750130Y-109915449D01*
X302802705Y-109893561D01*
X302849379Y-109881343D01*
X302913807Y-109871324D01*
X302988259Y-109866435D01*
X303064992Y-109866694D01*
X303136265Y-109872118D01*
X303185820Y-109880578D01*
X303248830Y-109900207D01*
X303316783Y-109929127D01*
X303379693Y-109962843D01*
X303404442Y-109978906D01*
X303430299Y-109998950D01*
X303461181Y-110025740D01*
X303493407Y-110055690D01*
X303523295Y-110085213D01*
X303547163Y-110110723D01*
X303561330Y-110128631D01*
X303563654Y-110134010D01*
X303555889Y-110145144D01*
X303535410Y-110163723D01*
X303506439Y-110185965D01*
X303502602Y-110188694D01*
X303427745Y-110253661D01*
X303365510Y-110333106D01*
X303317585Y-110424380D01*
X303285656Y-110524836D01*
X303284194Y-110531529D01*
X303264977Y-110665669D01*
X303261782Y-110807226D01*
X303274026Y-110951906D01*
X303301124Y-111095415D01*
X303342495Y-111233457D01*
X303396675Y-111359994D01*
X303420089Y-111405008D01*
X303444131Y-111447653D01*
X303470722Y-111490762D01*
X303501784Y-111537164D01*
X303539239Y-111589692D01*
X303585007Y-111651176D01*
X303641010Y-111724448D01*
X303665609Y-111756275D01*
X303753556Y-111870743D01*
X303829233Y-111971568D01*
X303893634Y-112060503D01*
X303947754Y-112139298D01*
X303992587Y-112209705D01*
X304029127Y-112273475D01*
X304058370Y-112332358D01*
X304081310Y-112388107D01*
X304098940Y-112442473D01*
X304112255Y-112497206D01*
X304122251Y-112554058D01*
X304123491Y-112562640D01*
X304129007Y-112625032D01*
X304130642Y-112700895D01*
X304128688Y-112783811D01*
X304123434Y-112867362D01*
X304115173Y-112945131D01*
X304104195Y-113010701D01*
X304102912Y-113016548D01*
X304091996Y-113060957D01*
X304079238Y-113103791D01*
X304063460Y-113147622D01*
X304043482Y-113195023D01*
X304018125Y-113248567D01*
X303986209Y-113310827D01*
X303946555Y-113384376D01*
X303897983Y-113471786D01*
X303877679Y-113507866D01*
X303835732Y-113582280D01*
X303788428Y-113666302D01*
X303737097Y-113757565D01*
X303683068Y-113853698D01*
X303627670Y-113952332D01*
X303572233Y-114051099D01*
X303518085Y-114147629D01*
X303466555Y-114239553D01*
X303418973Y-114324502D01*
X303376668Y-114400106D01*
X303340970Y-114463998D01*
X303313206Y-114513807D01*
X303302166Y-114533680D01*
X303287432Y-114560203D01*
X303263939Y-114602429D01*
X303232826Y-114658314D01*
X303195230Y-114725814D01*
X303152291Y-114802886D01*
X303105147Y-114887485D01*
X303054937Y-114977569D01*
X303002799Y-115071093D01*
X302982378Y-115107720D01*
X302910901Y-115235952D01*
X302848746Y-115347573D01*
X302795304Y-115443698D01*
X302749971Y-115525445D01*
X302712138Y-115593931D01*
X302681200Y-115650274D01*
X302656548Y-115695590D01*
X302637578Y-115730996D01*
X302623682Y-115757610D01*
X302614252Y-115776550D01*
X302608683Y-115788931D01*
X302606368Y-115795872D01*
X302606700Y-115798489D01*
X302607167Y-115798600D01*
X302612475Y-115796084D01*
X302622313Y-115788066D01*
X302637322Y-115773834D01*
X302658143Y-115752681D01*
X302685416Y-115723897D01*
X302719781Y-115686771D01*
X302761880Y-115640596D01*
X302812353Y-115584661D01*
X302871841Y-115518257D01*
X302940984Y-115440675D01*
X303020422Y-115351206D01*
X303110798Y-115249140D01*
X303212750Y-115133768D01*
X303326920Y-115004380D01*
X303428385Y-114889280D01*
X303526475Y-114777988D01*
X303623270Y-114668203D01*
X303717607Y-114561244D01*
X303808319Y-114458430D01*
X303894241Y-114361081D01*
X303974209Y-114270516D01*
X304047057Y-114188054D01*
X304111620Y-114115016D01*
X304166734Y-114052720D01*
X304211231Y-114002485D01*
X304243949Y-113965632D01*
X304253810Y-113954560D01*
X304298357Y-113903623D01*
X304339319Y-113854936D01*
X304374304Y-113811486D01*
X304400921Y-113776262D01*
X304416780Y-113752254D01*
X304418800Y-113748318D01*
X304428055Y-113725565D01*
X304432685Y-113704384D01*
X304431993Y-113681156D01*
X304425282Y-113652259D01*
X304411855Y-113614074D01*
X304391015Y-113562979D01*
X304376600Y-113529134D01*
X304339214Y-113438793D01*
X304311193Y-113362816D01*
X304291841Y-113297911D01*
X304280461Y-113240786D01*
X304276358Y-113188150D01*
X304278836Y-113136713D01*
X304284879Y-113095365D01*
X304295114Y-113023483D01*
X304302702Y-112938808D01*
X304307301Y-112848738D01*
X304308567Y-112760668D01*
X304306160Y-112681995D01*
X304304854Y-112663536D01*
X304288200Y-112522525D01*
X304261624Y-112394438D01*
X304223686Y-112273733D01*
X304172948Y-112154872D01*
X304172742Y-112154444D01*
X304152828Y-112114710D01*
X304131687Y-112076435D01*
X304107571Y-112037088D01*
X304078729Y-111994135D01*
X304043415Y-111945046D01*
X303999878Y-111887289D01*
X303946371Y-111818331D01*
X303899315Y-111758587D01*
X303817973Y-111654245D01*
X303748940Y-111561894D01*
X303690635Y-111478700D01*
X303641476Y-111401823D01*
X303599880Y-111328427D01*
X303564267Y-111255674D01*
X303533054Y-111180727D01*
X303504659Y-111100748D01*
X303477501Y-111012901D01*
X303470992Y-110990335D01*
X303446498Y-110882630D01*
X303438020Y-110783659D01*
X303445969Y-110689135D01*
X303470757Y-110594774D01*
X303512798Y-110496290D01*
X303519885Y-110482315D01*
X303550419Y-110427757D01*
X303578593Y-110389677D01*
X303607969Y-110365117D01*
X303642108Y-110351118D01*
X303684575Y-110344720D01*
X303685660Y-110344640D01*
X303771564Y-110348120D01*
X303858511Y-110369673D01*
X303942272Y-110407750D01*
X304018617Y-110460800D01*
X304030343Y-110471006D01*
X304069118Y-110512031D01*
X304091010Y-110552859D01*
X304097834Y-110599104D01*
X304091406Y-110656382D01*
X304090980Y-110658568D01*
X304082506Y-110750562D01*
X304091146Y-110847340D01*
X304116034Y-110944226D01*
X304156300Y-111036544D01*
X304163518Y-111049542D01*
X304187568Y-111093756D01*
X304201538Y-111128391D01*
X304205977Y-111159927D01*
X304201433Y-111194844D01*
X304188453Y-111239619D01*
X304181383Y-111260684D01*
X304158529Y-111345302D01*
X304145676Y-111432748D01*
X304143209Y-111517211D01*
X304151508Y-111592882D01*
X304157811Y-111618983D01*
X304193942Y-111711611D01*
X304245816Y-111798166D01*
X304310619Y-111875561D01*
X304385533Y-111940711D01*
X304467744Y-111990533D01*
X304514928Y-112010240D01*
X304610490Y-112034691D01*
X304714885Y-112045048D01*
X304820866Y-112040768D01*
X304882263Y-112031345D01*
X304934481Y-112016487D01*
X304983193Y-111993582D01*
X305034068Y-111960017D01*
X305086754Y-111918231D01*
X305120712Y-111891306D01*
X305150460Y-111870333D01*
X305171622Y-111858279D01*
X305177795Y-111856520D01*
X305193579Y-111860598D01*
X305222802Y-111871728D01*
X305261940Y-111888253D01*
X305307467Y-111908516D01*
X305355857Y-111930859D01*
X305403586Y-111953624D01*
X305447128Y-111975155D01*
X305482957Y-111993794D01*
X305507549Y-112007885D01*
X305517377Y-112015769D01*
X305517409Y-112016172D01*
X305514623Y-112029802D01*
X305508700Y-112058710D01*
X305500588Y-112098267D01*
X305493689Y-112131894D01*
X305478914Y-112220638D01*
X305474564Y-112292727D01*
X305480683Y-112348976D01*
X305497315Y-112390196D01*
X305508069Y-112403881D01*
X305547594Y-112434499D01*
X305604938Y-112463446D01*
X305677609Y-112489624D01*
X305743333Y-112507416D01*
X305812806Y-112526188D01*
X305864814Y-112546704D01*
X305902190Y-112571662D01*
X305927767Y-112603757D01*
X305944378Y-112645687D01*
X305954856Y-112700147D01*
X305956122Y-112709960D01*
X305972691Y-112804593D01*
X305999435Y-112909032D01*
X306034336Y-113017745D01*
X306075375Y-113125198D01*
X306120535Y-113225857D01*
X306167796Y-113314189D01*
X306188812Y-113347839D01*
X306219316Y-113390418D01*
X306255038Y-113435064D01*
X306286440Y-113470178D01*
X306314883Y-113502143D01*
X306338938Y-113533956D01*
X306353402Y-113558735D01*
X306353409Y-113558752D01*
X306355262Y-113565519D01*
X306356955Y-113577131D01*
X306358495Y-113594449D01*
X306359889Y-113618334D01*
X306361144Y-113649647D01*
X306362268Y-113689249D01*
X306363267Y-113738000D01*
X306364149Y-113796763D01*
X306364920Y-113866399D01*
X306365588Y-113947767D01*
X306366160Y-114041730D01*
X306366642Y-114149148D01*
X306367043Y-114270883D01*
X306367369Y-114407795D01*
X306367627Y-114560745D01*
X306367825Y-114730596D01*
X306367968Y-114918207D01*
X306368066Y-115124440D01*
X306368122Y-115343613D01*
X306368218Y-115573443D01*
X306368418Y-115788769D01*
X306368722Y-115989138D01*
X306369125Y-116174102D01*
X306369626Y-116343210D01*
X306370222Y-116496012D01*
X306370911Y-116632058D01*
X306371689Y-116750896D01*
X306372555Y-116852078D01*
X306373506Y-116935153D01*
X306374539Y-116999670D01*
X306375651Y-117045179D01*
X306376841Y-117071230D01*
X306377993Y-117077638D01*
X306382280Y-117064089D01*
X306390097Y-117033066D01*
X306400894Y-116986999D01*
X306414121Y-116928321D01*
X306429227Y-116859462D01*
X306445662Y-116782855D01*
X306458474Y-116722038D01*
X306472408Y-116655368D01*
X306489968Y-116571312D01*
X306510632Y-116472376D01*
X306533877Y-116361065D01*
X306559179Y-116239886D01*
X306586014Y-116111343D01*
X306613861Y-115977943D01*
X306642196Y-115842192D01*
X306670496Y-115706595D01*
X306692640Y-115600480D01*
X306720714Y-115465950D01*
X306749372Y-115328640D01*
X306778073Y-115191136D01*
X306806278Y-115056029D01*
X306833445Y-114925906D01*
X306859035Y-114803356D01*
X306882506Y-114690968D01*
X306903318Y-114591330D01*
X306920930Y-114507032D01*
X306931826Y-114454900D01*
X306951623Y-114359938D01*
X306967520Y-114282731D01*
X306979842Y-114221154D01*
X306988912Y-114173087D01*
X306995057Y-114136407D01*
X306998600Y-114108992D01*
X306999867Y-114088719D01*
X306999182Y-114073467D01*
X306996871Y-114061113D01*
X306993675Y-114050741D01*
X306983922Y-114030708D01*
X306966099Y-114005990D01*
X306938361Y-113974493D01*
X306898860Y-113934125D01*
X306845748Y-113882791D01*
X306843879Y-113881016D01*
X306753510Y-113794907D01*
X306677299Y-113721534D01*
X306614361Y-113659973D01*
X306563809Y-113609298D01*
X306524761Y-113568585D01*
X306496331Y-113536908D01*
X306477635Y-113513342D01*
X306467786Y-113496963D01*
X306465902Y-113486844D01*
X306466140Y-113486081D01*
X306474913Y-113469489D01*
X306492280Y-113441097D01*
X306515211Y-113405771D01*
X306527648Y-113387276D01*
X306613726Y-113243245D01*
X306684423Y-113086639D01*
X306739900Y-112917041D01*
X306779964Y-112736062D01*
X306792089Y-112673206D01*
X306805536Y-112625785D01*
X306823423Y-112590512D01*
X306848872Y-112564102D01*
X306885002Y-112543269D01*
X306934933Y-112524726D01*
X306998256Y-112506167D01*
X307083007Y-112481289D01*
X307149444Y-112457597D01*
X307199276Y-112432836D01*
X307234216Y-112404750D01*
X307255975Y-112371082D01*
X307266263Y-112329576D01*
X307266792Y-112277976D01*
X307259273Y-112214025D01*
X307252096Y-112171480D01*
X307243229Y-112122620D01*
X307235152Y-112079000D01*
X307228827Y-112045759D01*
X307225489Y-112029240D01*
X307224393Y-112019664D01*
X307227403Y-112010980D01*
X307236980Y-112001626D01*
X307255582Y-111990042D01*
X307285670Y-111974668D01*
X307329703Y-111953944D01*
X307381637Y-111930180D01*
X307435785Y-111906056D01*
X307484731Y-111885248D01*
X307525002Y-111869153D01*
X307553127Y-111859168D01*
X307564558Y-111856520D01*
X307581686Y-111862958D01*
X307608574Y-111880076D01*
X307640231Y-111904579D01*
X307649866Y-111912837D01*
X307692232Y-111946200D01*
X307741699Y-111979584D01*
X307787575Y-112005773D01*
X307787676Y-112005823D01*
X307825436Y-112023600D01*
X307857022Y-112034976D01*
X307889895Y-112041739D01*
X307931522Y-112045676D01*
X307960825Y-112047282D01*
X308076487Y-112043542D01*
X308185514Y-112021219D01*
X308286623Y-111980785D01*
X308378531Y-111922714D01*
X308436390Y-111872134D01*
X308506235Y-111789922D01*
X308557025Y-111700833D01*
X308588675Y-111605273D01*
X308601100Y-111503649D01*
X308594215Y-111396370D01*
X308567934Y-111283842D01*
X308562880Y-111268226D01*
X308547701Y-111220494D01*
X308539277Y-111183488D01*
X308538211Y-111151666D01*
X308545106Y-111119486D01*
X308560563Y-111081405D01*
X308585184Y-111031881D01*
X308589454Y-111023609D01*
X308627261Y-110940315D01*
X308650076Y-110863035D01*
X308659092Y-110785502D01*
X308655504Y-110701446D01*
X308653765Y-110686360D01*
X308647927Y-110626184D01*
X308648530Y-110580671D01*
X308656980Y-110544796D01*
X308674682Y-110513536D01*
X308703043Y-110481867D01*
X308713900Y-110471479D01*
X308788743Y-110414847D01*
X308874220Y-110373370D01*
X308965756Y-110348858D01*
X309039477Y-110342680D01*
X309084868Y-110345263D01*
X309120883Y-110354794D01*
X309150907Y-110373944D01*
X309178328Y-110405382D01*
X309206531Y-110451779D01*
X309226277Y-110490000D01*
X309257393Y-110556798D01*
X309278632Y-110614259D01*
X309291991Y-110669538D01*
X309299467Y-110729791D01*
X309301381Y-110759240D01*
X309302929Y-110810110D01*
X309301015Y-110853479D01*
X309294774Y-110897690D01*
X309283344Y-110951090D01*
X309280107Y-110964648D01*
X309251930Y-111066104D01*
X309217150Y-111167022D01*
X309178363Y-111260447D01*
X309144497Y-111328200D01*
X309124939Y-111362167D01*
X309102547Y-111397994D01*
X309075739Y-111437891D01*
X309042937Y-111484064D01*
X309002561Y-111538722D01*
X308953032Y-111604072D01*
X308892769Y-111682323D01*
X308871930Y-111709200D01*
X308827632Y-111766778D01*
X308783479Y-111825095D01*
X308742503Y-111880080D01*
X308707732Y-111927663D01*
X308682199Y-111963774D01*
X308680225Y-111966665D01*
X308596757Y-112104751D01*
X308529584Y-112248622D01*
X308479420Y-112395901D01*
X308446979Y-112544211D01*
X308432973Y-112691176D01*
X308434168Y-112786160D01*
X308443243Y-112885278D01*
X308458281Y-112979477D01*
X308478320Y-113064096D01*
X308502397Y-113134476D01*
X308509265Y-113150006D01*
X308519991Y-113170043D01*
X308540463Y-113205545D01*
X308569620Y-113254766D01*
X308606405Y-113315959D01*
X308649758Y-113387381D01*
X308698621Y-113467284D01*
X308751934Y-113553924D01*
X308808639Y-113645555D01*
X308858651Y-113725960D01*
X309006651Y-113963282D01*
X309146772Y-114187845D01*
X309278830Y-114399354D01*
X309402642Y-114597516D01*
X309518023Y-114782039D01*
X309624789Y-114952629D01*
X309722756Y-115108993D01*
X309811740Y-115250839D01*
X309891557Y-115377873D01*
X309962023Y-115489802D01*
X310022955Y-115586333D01*
X310074167Y-115667174D01*
X310115476Y-115732031D01*
X310146698Y-115780611D01*
X310167650Y-115812620D01*
X310178146Y-115827767D01*
X310179359Y-115829041D01*
X310180694Y-115820456D01*
X310176430Y-115798700D01*
X310172829Y-115785900D01*
X310164069Y-115758064D01*
X310149689Y-115713520D01*
X310130154Y-115653663D01*
X310105929Y-115579885D01*
X310077480Y-115493583D01*
X310045273Y-115396149D01*
X310009773Y-115288979D01*
X309971446Y-115173466D01*
X309930757Y-115051006D01*
X309888173Y-114922992D01*
X309844158Y-114790818D01*
X309799179Y-114655880D01*
X309753700Y-114519572D01*
X309708188Y-114383287D01*
X309663108Y-114248421D01*
X309618926Y-114116367D01*
X309576107Y-113988520D01*
X309535117Y-113866274D01*
X309496422Y-113751024D01*
X309460486Y-113644164D01*
X309427777Y-113547088D01*
X309398758Y-113461191D01*
X309373897Y-113387867D01*
X309353658Y-113328511D01*
X309338507Y-113284516D01*
X309328910Y-113257277D01*
X309325520Y-113248440D01*
X309293789Y-113207243D01*
X309247074Y-113174831D01*
X309198379Y-113156504D01*
X309137306Y-113140504D01*
X309070191Y-113122179D01*
X309000104Y-113102444D01*
X308930115Y-113082213D01*
X308863295Y-113062401D01*
X308802714Y-113043922D01*
X308751443Y-113027692D01*
X308712552Y-113014624D01*
X308689112Y-113005634D01*
X308685084Y-113003595D01*
X308660049Y-112983693D01*
X308641393Y-112956459D01*
X308627472Y-112918109D01*
X308616643Y-112864860D01*
X308612537Y-112836503D01*
X308605667Y-112734941D01*
X308609916Y-112626415D01*
X308624699Y-112520574D01*
X308634289Y-112477737D01*
X308649384Y-112425244D01*
X308668378Y-112372989D01*
X308692430Y-112319036D01*
X308722701Y-112261445D01*
X308760349Y-112198279D01*
X308806533Y-112127601D01*
X308862414Y-112047471D01*
X308929151Y-111955952D01*
X309007903Y-111851107D01*
X309013900Y-111843213D01*
X309079763Y-111756301D01*
X309134591Y-111683235D01*
X309179873Y-111621859D01*
X309217095Y-111570016D01*
X309247746Y-111525550D01*
X309273313Y-111486305D01*
X309295283Y-111450122D01*
X309315145Y-111414847D01*
X309333817Y-111379430D01*
X309390848Y-111254912D01*
X309432448Y-111131660D01*
X309459772Y-111004731D01*
X309473977Y-110869180D01*
X309476733Y-110767982D01*
X309472165Y-110643963D01*
X309457718Y-110535915D01*
X309432392Y-110441531D01*
X309395190Y-110358505D01*
X309345111Y-110284532D01*
X309281157Y-110217305D01*
X309214971Y-110163619D01*
X309171608Y-110131878D01*
X309256680Y-110051350D01*
X309345771Y-109977048D01*
X309436106Y-109922258D01*
X309529528Y-109886180D01*
X309627877Y-109868015D01*
X309685054Y-109865370D01*
X309736894Y-109867308D01*
G37*
X309736894Y-109867308D02*
X309795602Y-109872690D01*
X309855767Y-109880686D01*
X309911981Y-109890467D01*
X309958835Y-109901204D01*
X309990920Y-109912069D01*
X309991464Y-109912325D01*
X310031983Y-109942750D01*
X310063727Y-109991421D01*
X310086704Y-110058361D01*
X310100921Y-110143593D01*
X310106386Y-110247141D01*
X310106451Y-110264604D01*
X310106208Y-110308372D01*
X310105180Y-110343530D01*
X310102599Y-110374395D01*
X310097698Y-110405286D01*
X310089712Y-110440521D01*
X310077872Y-110484419D01*
X310061413Y-110541298D01*
X310051092Y-110576360D01*
X310036123Y-110629470D01*
X310018385Y-110696093D01*
X309999505Y-110769902D01*
X309981109Y-110844571D01*
X309968824Y-110896400D01*
X309946127Y-111001952D01*
X309931198Y-111092018D01*
X309924079Y-111169904D01*
X309924813Y-111238918D01*
X309933442Y-111302367D01*
X309950009Y-111363559D01*
X309974557Y-111425801D01*
X309975651Y-111428238D01*
X310025745Y-111519013D01*
X310091836Y-111607476D01*
X310169749Y-111688831D01*
X310255314Y-111758280D01*
X310273445Y-111770626D01*
X310290765Y-111780882D01*
X310324026Y-111799453D01*
X310371859Y-111825618D01*
X310432898Y-111858656D01*
X310505778Y-111897848D01*
X310589131Y-111942471D01*
X310681591Y-111991807D01*
X310781791Y-112045134D01*
X310888365Y-112101731D01*
X310999947Y-112160878D01*
X311115169Y-112221855D01*
X311232666Y-112283940D01*
X311351070Y-112346414D01*
X311469016Y-112408555D01*
X311585136Y-112469643D01*
X311698065Y-112528957D01*
X311806435Y-112585777D01*
X311908881Y-112639382D01*
X312004035Y-112689052D01*
X312090532Y-112734066D01*
X312167004Y-112773703D01*
X312232086Y-112807243D01*
X312284410Y-112833965D01*
X312322610Y-112853149D01*
X312345319Y-112864074D01*
X312351409Y-112866391D01*
X312349058Y-112859359D01*
X312336145Y-112843527D01*
X312312206Y-112818463D01*
X312276773Y-112783738D01*
X312229381Y-112738922D01*
X312169564Y-112683586D01*
X312096855Y-112617300D01*
X312010789Y-112539634D01*
X311910900Y-112450158D01*
X311796720Y-112348442D01*
X311667786Y-112234057D01*
X311615454Y-112187736D01*
X311520655Y-112103839D01*
X311426077Y-112020076D01*
X311333502Y-111938027D01*
X311244712Y-111859277D01*
X311161489Y-111785405D01*
X311085615Y-111717996D01*
X311018872Y-111658630D01*
X310963043Y-111608890D01*
X310919909Y-111570358D01*
X310905993Y-111557884D01*
X310839036Y-111498569D01*
X310784562Y-111452274D01*
X310740682Y-111417658D01*
X310705505Y-111393379D01*
X310677143Y-111378093D01*
X310653705Y-111370458D01*
X310640094Y-111368959D01*
X310624214Y-111371541D01*
X310592290Y-111378968D01*
X310547771Y-111390360D01*
X310494109Y-111404832D01*
X310434815Y-111421485D01*
X310370466Y-111439837D01*
X310322745Y-111453054D01*
X310288746Y-111461601D01*
X310265562Y-111465943D01*
X310250288Y-111466546D01*
X310240019Y-111463873D01*
X310231847Y-111458390D01*
X310227540Y-111454651D01*
X310207824Y-111429889D01*
X310186204Y-111391178D01*
X310165349Y-111344368D01*
X310147925Y-111295310D01*
X310138404Y-111259119D01*
X310130767Y-111203654D01*
X310127587Y-111135767D01*
X310128762Y-111062839D01*
X310134189Y-110992252D01*
X310142918Y-110935382D01*
X310151797Y-110899283D01*
X310166053Y-110849283D01*
X310184110Y-110790572D01*
X310204390Y-110728341D01*
X310217678Y-110689430D01*
X310250973Y-110590334D01*
X310276773Y-110504986D01*
X310296300Y-110428782D01*
X310310777Y-110357118D01*
X310317860Y-110312200D01*
X310325781Y-110256320D01*
X310354576Y-110304943D01*
X310389731Y-110376353D01*
X310411648Y-110451097D01*
X310420416Y-110531717D01*
X310416122Y-110620752D01*
X310398853Y-110720743D01*
X310372397Y-110821841D01*
X310356186Y-110878521D01*
X310341073Y-110934510D01*
X310328603Y-110983880D01*
X310320319Y-111020705D01*
X310319485Y-111025041D01*
X310313775Y-111064585D01*
X310309576Y-111110771D01*
X310307009Y-111158833D01*
X310306191Y-111204009D01*
X310307240Y-111241534D01*
X310310276Y-111266645D01*
X310313289Y-111273975D01*
X310332968Y-111281526D01*
X310367914Y-111282983D01*
X310414175Y-111278840D01*
X310467795Y-111269589D01*
X310524821Y-111255724D01*
X310568989Y-111242069D01*
X310617624Y-111225939D01*
X310650952Y-111216386D01*
X310672639Y-111212714D01*
X310686351Y-111214225D01*
X310693661Y-111218384D01*
X310703530Y-111227068D01*
X310727348Y-111248368D01*
X310763992Y-111281273D01*
X310812340Y-111324772D01*
X310871270Y-111377853D01*
X310939659Y-111439503D01*
X311016385Y-111508712D01*
X311100324Y-111584466D01*
X311190355Y-111665754D01*
X311285354Y-111751565D01*
X311360899Y-111819828D01*
X311472020Y-111920248D01*
X311588561Y-112025562D01*
X311708241Y-112133705D01*
X311828774Y-112242615D01*
X311947877Y-112350227D01*
X312063267Y-112454480D01*
X312172659Y-112553309D01*
X312273771Y-112644651D01*
X312364319Y-112726443D01*
X312440261Y-112795034D01*
X312519050Y-112866261D01*
X312593081Y-112933320D01*
X312661022Y-112994995D01*
X312721542Y-113050071D01*
X312773307Y-113097332D01*
X312814985Y-113135562D01*
X312845244Y-113163545D01*
X312862753Y-113180066D01*
X312866711Y-113184208D01*
X312859854Y-113183060D01*
X312840446Y-113177790D01*
X312807734Y-113168162D01*
X312760962Y-113153943D01*
X312699376Y-113134897D01*
X312622220Y-113110789D01*
X312528739Y-113081385D01*
X312418178Y-113046449D01*
X312289783Y-113005748D01*
X312143774Y-112959356D01*
X312049455Y-112929378D01*
X311939531Y-112894470D01*
X311817772Y-112855827D01*
X311687946Y-112814644D01*
X311553824Y-112772118D01*
X311419174Y-112729443D01*
X311287766Y-112687814D01*
X311163371Y-112648428D01*
X311132854Y-112638769D01*
X311018854Y-112602681D01*
X310903256Y-112566066D01*
X310788826Y-112529802D01*
X310678327Y-112494765D01*
X310574526Y-112461833D01*
X310480186Y-112431883D01*
X310398073Y-112405792D01*
X310330951Y-112384437D01*
X310299734Y-112374488D01*
X310050814Y-112295087D01*
X310035134Y-112200151D01*
X310026289Y-112149529D01*
X310018542Y-112115256D01*
X310010314Y-112093539D01*
X310000025Y-112080584D01*
X309986096Y-112072599D01*
X309981247Y-112070707D01*
X309950724Y-112066085D01*
X309904865Y-112067686D01*
X309847424Y-112074770D01*
X309782153Y-112086597D01*
X309712807Y-112102428D01*
X309643138Y-112121524D01*
X309576902Y-112143144D01*
X309537734Y-112158092D01*
X309409972Y-112221146D01*
X309291864Y-112301545D01*
X309184595Y-112398164D01*
X309089350Y-112509876D01*
X309007312Y-112635556D01*
X308978384Y-112689640D01*
X308954008Y-112749352D01*
X308943938Y-112801953D01*
X308948365Y-112845068D01*
X308963488Y-112872278D01*
X308988263Y-112891909D01*
X309029156Y-112915345D01*
X309082692Y-112941004D01*
X309145394Y-112967304D01*
X309213789Y-112992663D01*
X309265625Y-113009770D01*
X309384677Y-113046918D01*
X309446828Y-113241659D01*
X309465744Y-113300782D01*
X309490291Y-113377273D01*
X309519837Y-113469167D01*
X309553747Y-113574501D01*
X309591387Y-113691312D01*
X309632125Y-113817637D01*
X309675327Y-113951512D01*
X309720360Y-114090975D01*
X309766589Y-114234061D01*
X309813381Y-114378807D01*
X309860103Y-114523251D01*
X309906121Y-114665428D01*
X309944070Y-114782600D01*
X309970927Y-114865549D01*
X310002886Y-114964351D01*
X310038820Y-115075514D01*
X310077602Y-115195548D01*
X310118104Y-115320964D01*
X310159200Y-115448271D01*
X310199762Y-115573980D01*
X310238662Y-115694600D01*
X310249262Y-115727480D01*
X310282738Y-115831231D01*
X310314438Y-115929289D01*
X310343802Y-116019934D01*
X310370269Y-116101445D01*
X310393279Y-116172101D01*
X310412272Y-116230182D01*
X310426687Y-116273966D01*
X310435964Y-116301732D01*
X310439493Y-116311680D01*
X310440416Y-116314291D01*
X310438959Y-116314085D01*
X310434680Y-116310560D01*
X310427137Y-116303220D01*
X310415889Y-116291563D01*
X310400496Y-116275093D01*
X310380515Y-116253309D01*
X310355507Y-116225712D01*
X310325029Y-116191804D01*
X310288641Y-116151086D01*
X310245901Y-116103058D01*
X310196368Y-116047222D01*
X310139601Y-115983078D01*
X310075159Y-115910128D01*
X310002600Y-115827873D01*
X309921484Y-115735814D01*
X309831369Y-115633451D01*
X309731814Y-115520286D01*
X309622378Y-115395820D01*
X309502620Y-115259554D01*
X309372098Y-115110989D01*
X309230371Y-114949625D01*
X309076999Y-114774964D01*
X308911540Y-114586508D01*
X308733552Y-114383756D01*
X308548555Y-114173000D01*
X308482287Y-114097507D01*
X308419663Y-114026176D01*
X308362047Y-113960560D01*
X308310801Y-113902211D01*
X308267291Y-113852680D01*
X308232877Y-113813520D01*
X308208925Y-113786283D01*
X308196797Y-113772520D01*
X308196052Y-113771680D01*
X308189282Y-113762943D01*
X308185473Y-113752770D01*
X308184958Y-113737780D01*
X308188072Y-113714593D01*
X308195150Y-113679830D01*
X308206525Y-113630111D01*
X308212645Y-113604040D01*
X308233087Y-113513022D01*
X308247109Y-113439194D01*
X308254597Y-113380426D01*
X308255436Y-113334591D01*
X308249510Y-113299559D01*
X308236707Y-113273204D01*
X308216910Y-113253395D01*
X308193001Y-113239399D01*
X308127506Y-113214619D01*
X308046372Y-113193875D01*
X307953949Y-113177540D01*
X307854585Y-113165986D01*
X307752630Y-113159588D01*
X307652433Y-113158719D01*
X307558342Y-113163750D01*
X307474707Y-113175056D01*
X307465094Y-113176952D01*
X307358071Y-113204577D01*
X307253347Y-113242168D01*
X307158325Y-113286914D01*
X307124734Y-113306160D01*
X307062805Y-113346527D01*
X307001408Y-113391334D01*
X306943427Y-113438032D01*
X306891745Y-113484073D01*
X306849246Y-113526908D01*
X306818814Y-113563989D01*
X306804558Y-113589155D01*
X306801429Y-113624624D01*
X306814375Y-113668967D01*
X306842197Y-113720359D01*
X306883696Y-113776975D01*
X306937672Y-113836988D01*
X307002927Y-113898574D01*
X307014237Y-113908368D01*
X307051830Y-113940486D01*
X307083410Y-113967350D01*
X307106019Y-113986450D01*
X307116695Y-113995278D01*
X307117121Y-113995582D01*
X307115555Y-114005485D01*
X307110179Y-114033607D01*
X307101332Y-114078277D01*
X307089354Y-114137821D01*
X307074586Y-114210568D01*
X307057365Y-114294846D01*
X307038034Y-114388981D01*
X307016930Y-114491303D01*
X306994395Y-114600139D01*
X306987979Y-114631053D01*
X306933743Y-114892290D01*
X306880676Y-115148028D01*
X306829043Y-115396978D01*
X306779113Y-115637852D01*
X306731151Y-115869361D01*
X306685424Y-116090217D01*
X306642199Y-116299131D01*
X306601742Y-116494816D01*
X306564320Y-116675982D01*
X306530200Y-116841341D01*
X306499649Y-116989604D01*
X306472932Y-117119484D01*
X306468775Y-117139720D01*
X306449637Y-117232612D01*
X306431675Y-117319237D01*
X306415312Y-117397595D01*
X306400972Y-117465687D01*
X306389076Y-117521514D01*
X306380049Y-117563075D01*
X306374313Y-117588372D01*
X306372359Y-117595578D01*
X306367737Y-117590117D01*
X306363154Y-117575258D01*
X306359952Y-117560389D01*
X306353130Y-117527820D01*
X306343145Y-117479755D01*
X306330453Y-117418401D01*
X306315509Y-117345965D01*
X306298770Y-117264653D01*
X306280691Y-117176669D01*
X306271024Y-117129560D01*
X306247806Y-117016524D01*
X306220583Y-116884289D01*
X306189500Y-116733547D01*
X306154698Y-116564989D01*
X306116321Y-116379308D01*
X306074513Y-116177196D01*
X306029417Y-115959346D01*
X305981175Y-115726449D01*
X305929932Y-115479199D01*
X305875831Y-115218286D01*
X305819014Y-114944405D01*
X305759625Y-114658246D01*
X305752714Y-114624952D01*
X305730229Y-114516460D01*
X305709021Y-114413783D01*
X305689445Y-114318663D01*
X305671855Y-114232843D01*
X305656608Y-114158066D01*
X305644058Y-114096074D01*
X305634561Y-114048610D01*
X305628472Y-114017415D01*
X305626146Y-114004233D01*
X305626134Y-114004011D01*
X305633573Y-113992022D01*
X305652715Y-113973043D01*
X305670238Y-113958459D01*
X305694811Y-113936838D01*
X305727930Y-113904332D01*
X305765018Y-113865568D01*
X305797168Y-113830108D01*
X305851214Y-113768083D01*
X305892053Y-113718364D01*
X305920297Y-113678358D01*
X305936557Y-113645470D01*
X305941444Y-113617109D01*
X305935571Y-113590681D01*
X305919548Y-113563592D01*
X305893986Y-113533251D01*
X305872514Y-113510523D01*
X305786626Y-113430205D01*
X305690639Y-113355762D01*
X305591524Y-113292348D01*
X305540671Y-113265248D01*
X305453449Y-113225821D01*
X305370071Y-113196333D01*
X305285790Y-113175875D01*
X305195859Y-113163535D01*
X305095530Y-113158403D01*
X304988331Y-113159313D01*
X304893363Y-113164629D01*
X304802959Y-113174466D01*
X304719566Y-113188220D01*
X304645626Y-113205284D01*
X304583585Y-113225053D01*
X304535887Y-113246923D01*
X304504975Y-113270287D01*
X304497303Y-113280921D01*
X304488292Y-113314175D01*
X304487096Y-113364280D01*
X304493594Y-113429378D01*
X304507667Y-113507610D01*
X304513567Y-113534314D01*
X304525471Y-113586303D01*
X304536928Y-113636689D01*
X304546447Y-113678892D01*
X304551490Y-113701553D01*
X304562879Y-113753346D01*
X304081331Y-114300993D01*
X303986885Y-114408401D01*
X303884677Y-114524631D01*
X303777402Y-114646620D01*
X303667752Y-114771305D01*
X303558424Y-114895621D01*
X303452111Y-115016506D01*
X303351506Y-115130896D01*
X303259305Y-115235727D01*
X303188701Y-115316000D01*
X303106601Y-115409350D01*
X303021384Y-115506266D01*
X302935254Y-115604239D01*
X302850417Y-115700760D01*
X302769080Y-115793317D01*
X302693447Y-115879401D01*
X302625724Y-115956502D01*
X302568117Y-116022112D01*
X302543829Y-116049786D01*
X302489289Y-116111774D01*
X302439103Y-116168495D01*
X302394808Y-116218238D01*
X302357940Y-116259289D01*
X302330037Y-116289937D01*
X302312634Y-116308469D01*
X302307236Y-116313409D01*
X302309709Y-116303487D01*
X302317878Y-116276119D01*
X302331152Y-116233180D01*
X302348938Y-116176545D01*
X302370643Y-116108091D01*
X302395676Y-116029693D01*
X302423443Y-115943227D01*
X302453353Y-115850568D01*
X302455550Y-115843782D01*
X302488279Y-115742628D01*
X302525994Y-115625981D01*
X302567452Y-115497690D01*
X302611410Y-115361606D01*
X302656624Y-115221577D01*
X302701852Y-115081452D01*
X302745850Y-114945081D01*
X302787376Y-114816312D01*
X302801519Y-114772440D01*
X302839989Y-114653110D01*
X302879892Y-114529373D01*
X302920219Y-114404358D01*
X302959961Y-114281192D01*
X302998107Y-114163003D01*
X303033649Y-114052919D01*
X303065577Y-113954067D01*
X303092881Y-113869574D01*
X303106467Y-113827560D01*
X303136317Y-113735206D01*
X303167843Y-113637537D01*
X303199566Y-113539144D01*
X303230007Y-113444616D01*
X303257689Y-113358542D01*
X303281132Y-113285512D01*
X303288429Y-113262735D01*
X303360295Y-113038270D01*
X303484834Y-113004817D01*
X303583738Y-112974900D01*
X303664020Y-112943358D01*
X303725128Y-112910443D01*
X303766512Y-112876407D01*
X303768031Y-112874706D01*
X303789783Y-112841409D01*
X303797818Y-112804487D01*
X303791972Y-112760827D01*
X303772080Y-112707315D01*
X303757627Y-112677476D01*
X303680282Y-112545898D01*
X303590869Y-112430315D01*
X303489068Y-112330509D01*
X303374562Y-112246266D01*
X303247031Y-112177370D01*
X303106158Y-112123603D01*
X302951624Y-112084752D01*
X302861599Y-112069788D01*
X302810141Y-112064404D01*
X302772213Y-112066253D01*
X302745365Y-112077739D01*
X302727149Y-112101262D01*
X302715115Y-112139225D01*
X302706815Y-112194029D01*
X302703659Y-112224686D01*
X302697160Y-112293133D01*
X302508107Y-112353484D01*
X302448125Y-112372599D01*
X302373361Y-112396374D01*
X302288410Y-112423350D01*
X302197865Y-112452070D01*
X302106323Y-112481074D01*
X302018378Y-112508906D01*
X302009174Y-112511817D01*
X301918579Y-112540489D01*
X301820900Y-112571450D01*
X301721434Y-112603018D01*
X301625480Y-112633510D01*
X301538335Y-112661244D01*
X301465614Y-112684436D01*
X301410274Y-112702065D01*
X301338380Y-112724897D01*
X301252762Y-112752035D01*
X301156250Y-112782584D01*
X301051672Y-112815650D01*
X300941859Y-112850338D01*
X300829641Y-112885752D01*
X300717847Y-112920998D01*
X300678214Y-112933484D01*
X300571962Y-112966978D01*
X300468034Y-112999789D01*
X300368683Y-113031203D01*
X300276165Y-113060504D01*
X300192736Y-113086977D01*
X300120650Y-113109906D01*
X300062162Y-113128577D01*
X300019528Y-113142275D01*
X300003283Y-113147550D01*
X299957116Y-113162314D01*
X299918484Y-113174025D01*
X299891160Y-113181585D01*
X299878916Y-113183898D01*
X299878654Y-113183786D01*
X299885654Y-113176703D01*
X299906903Y-113156767D01*
X299941566Y-113124739D01*
X299988806Y-113081380D01*
X300047787Y-113027451D01*
X300117672Y-112963712D01*
X300197626Y-112890924D01*
X300286812Y-112809848D01*
X300384394Y-112721245D01*
X300489536Y-112625875D01*
X300601401Y-112524498D01*
X300719153Y-112417877D01*
X300841957Y-112306771D01*
X300966078Y-112194558D01*
X302056922Y-111208749D01*
X302177828Y-111243234D01*
X302260239Y-111265303D01*
X302325001Y-111279372D01*
X302373083Y-111285577D01*
X302405454Y-111284056D01*
X302420490Y-111277535D01*
X302430378Y-111257585D01*
X302434602Y-111220615D01*
X302433466Y-111169032D01*
X302427271Y-111105243D01*
X302416317Y-111031652D01*
X302400907Y-110950666D01*
X302381342Y-110864691D01*
X302357923Y-110776132D01*
X302357453Y-110774480D01*
X302333217Y-110676514D01*
X302320673Y-110590913D01*
X302320012Y-110513289D01*
X302331427Y-110439253D01*
X302355109Y-110364417D01*
X302377673Y-110312200D01*
X302408766Y-110246160D01*
X302416980Y-110319851D01*
X302430022Y-110404324D01*
X302451041Y-110489011D01*
X302481861Y-110580853D01*
X302493712Y-110611920D01*
X302531813Y-110712334D01*
X302561699Y-110798718D01*
X302584271Y-110875201D01*
X302600434Y-110945910D01*
X302611091Y-111014973D01*
X302617145Y-111086521D01*
X302619500Y-111164680D01*
X302619618Y-111187384D01*
X302617149Y-111292070D01*
X302609029Y-111379691D01*
X302594532Y-111452898D01*
X302572932Y-111514340D01*
X302543503Y-111566668D01*
X302505519Y-111612531D01*
X302502195Y-111615894D01*
X302479308Y-111635012D01*
X302441450Y-111662190D01*
X302391393Y-111695592D01*
X302331912Y-111733380D01*
X302265783Y-111773718D01*
X302246335Y-111785290D01*
X302212747Y-111805255D01*
X302164868Y-111833847D01*
X302104160Y-111870187D01*
X302032083Y-111913396D01*
X301950097Y-111962595D01*
X301859662Y-112016903D01*
X301762240Y-112075443D01*
X301659291Y-112137334D01*
X301552275Y-112201697D01*
X301442653Y-112267653D01*
X301331884Y-112334323D01*
X301221431Y-112400827D01*
X301112752Y-112466286D01*
X301007309Y-112529821D01*
X300906562Y-112590552D01*
X300811971Y-112647600D01*
X300724998Y-112700086D01*
X300647102Y-112747130D01*
X300579743Y-112787854D01*
X300524384Y-112821377D01*
X300482483Y-112846821D01*
X300455501Y-112863307D01*
X300446192Y-112869097D01*
X300430385Y-112881375D01*
X300426701Y-112888554D01*
X300435059Y-112887595D01*
X300457707Y-112881832D01*
X300495171Y-112871104D01*
X300547975Y-112855244D01*
X300616644Y-112834091D01*
X300701703Y-112807480D01*
X300803678Y-112775247D01*
X300923092Y-112737229D01*
X301060472Y-112693262D01*
X301216341Y-112643182D01*
X301308134Y-112613620D01*
X301486804Y-112556024D01*
X301647136Y-112504303D01*
X301790138Y-112458118D01*
X301916818Y-112417128D01*
X302028184Y-112380996D01*
X302125243Y-112349382D01*
X302209005Y-112321946D01*
X302280477Y-112298350D01*
X302340668Y-112278254D01*
X302390586Y-112261320D01*
X302431238Y-112247207D01*
X302463633Y-112235577D01*
X302488779Y-112226091D01*
X302507685Y-112218409D01*
X302521357Y-112212193D01*
X302530806Y-112207102D01*
X302537037Y-112202799D01*
X302541061Y-112198943D01*
X302541223Y-112198755D01*
X302549763Y-112186577D01*
X302554753Y-112171520D01*
X302556620Y-112149092D01*
X302555788Y-112114800D01*
X302553234Y-112072271D01*
X302550216Y-112000622D01*
X302552779Y-111943851D01*
X302562185Y-111896979D01*
X302579693Y-111855029D01*
X302606564Y-111813024D01*
X302624926Y-111789169D01*
X302699408Y-111684267D01*
X302755324Y-111577221D01*
X302793525Y-111465328D01*
X302814859Y-111345881D01*
X302820176Y-111216177D01*
X302818658Y-111172540D01*
X302812405Y-111096470D01*
X302800848Y-111014605D01*
X302783412Y-110924171D01*
X302759522Y-110822399D01*
X302728602Y-110706516D01*
X302704395Y-110622080D01*
X302677940Y-110530003D01*
X302657588Y-110453734D01*
X302642932Y-110389830D01*
X302633566Y-110334850D01*
X302629082Y-110285353D01*
X302629072Y-110237896D01*
X302633130Y-110189038D01*
X302640848Y-110135338D01*
X302644360Y-110114641D01*
X302660393Y-110042099D01*
X302681610Y-109986719D01*
X302710644Y-109945502D01*
X302750130Y-109915449D01*
X302802705Y-109893561D01*
X302849379Y-109881343D01*
X302913807Y-109871324D01*
X302988259Y-109866435D01*
X303064992Y-109866694D01*
X303136265Y-109872118D01*
X303185820Y-109880578D01*
X303248830Y-109900207D01*
X303316783Y-109929127D01*
X303379693Y-109962843D01*
X303404442Y-109978906D01*
X303430299Y-109998950D01*
X303461181Y-110025740D01*
X303493407Y-110055690D01*
X303523295Y-110085213D01*
X303547163Y-110110723D01*
X303561330Y-110128631D01*
X303563654Y-110134010D01*
X303555889Y-110145144D01*
X303535410Y-110163723D01*
X303506439Y-110185965D01*
X303502602Y-110188694D01*
X303427745Y-110253661D01*
X303365510Y-110333106D01*
X303317585Y-110424380D01*
X303285656Y-110524836D01*
X303284194Y-110531529D01*
X303264977Y-110665669D01*
X303261782Y-110807226D01*
X303274026Y-110951906D01*
X303301124Y-111095415D01*
X303342495Y-111233457D01*
X303396675Y-111359994D01*
X303420089Y-111405008D01*
X303444131Y-111447653D01*
X303470722Y-111490762D01*
X303501784Y-111537164D01*
X303539239Y-111589692D01*
X303585007Y-111651176D01*
X303641010Y-111724448D01*
X303665609Y-111756275D01*
X303753556Y-111870743D01*
X303829233Y-111971568D01*
X303893634Y-112060503D01*
X303947754Y-112139298D01*
X303992587Y-112209705D01*
X304029127Y-112273475D01*
X304058370Y-112332358D01*
X304081310Y-112388107D01*
X304098940Y-112442473D01*
X304112255Y-112497206D01*
X304122251Y-112554058D01*
X304123491Y-112562640D01*
X304129007Y-112625032D01*
X304130642Y-112700895D01*
X304128688Y-112783811D01*
X304123434Y-112867362D01*
X304115173Y-112945131D01*
X304104195Y-113010701D01*
X304102912Y-113016548D01*
X304091996Y-113060957D01*
X304079238Y-113103791D01*
X304063460Y-113147622D01*
X304043482Y-113195023D01*
X304018125Y-113248567D01*
X303986209Y-113310827D01*
X303946555Y-113384376D01*
X303897983Y-113471786D01*
X303877679Y-113507866D01*
X303835732Y-113582280D01*
X303788428Y-113666302D01*
X303737097Y-113757565D01*
X303683068Y-113853698D01*
X303627670Y-113952332D01*
X303572233Y-114051099D01*
X303518085Y-114147629D01*
X303466555Y-114239553D01*
X303418973Y-114324502D01*
X303376668Y-114400106D01*
X303340970Y-114463998D01*
X303313206Y-114513807D01*
X303302166Y-114533680D01*
X303287432Y-114560203D01*
X303263939Y-114602429D01*
X303232826Y-114658314D01*
X303195230Y-114725814D01*
X303152291Y-114802886D01*
X303105147Y-114887485D01*
X303054937Y-114977569D01*
X303002799Y-115071093D01*
X302982378Y-115107720D01*
X302910901Y-115235952D01*
X302848746Y-115347573D01*
X302795304Y-115443698D01*
X302749971Y-115525445D01*
X302712138Y-115593931D01*
X302681200Y-115650274D01*
X302656548Y-115695590D01*
X302637578Y-115730996D01*
X302623682Y-115757610D01*
X302614252Y-115776550D01*
X302608683Y-115788931D01*
X302606368Y-115795872D01*
X302606700Y-115798489D01*
X302607167Y-115798600D01*
X302612475Y-115796084D01*
X302622313Y-115788066D01*
X302637322Y-115773834D01*
X302658143Y-115752681D01*
X302685416Y-115723897D01*
X302719781Y-115686771D01*
X302761880Y-115640596D01*
X302812353Y-115584661D01*
X302871841Y-115518257D01*
X302940984Y-115440675D01*
X303020422Y-115351206D01*
X303110798Y-115249140D01*
X303212750Y-115133768D01*
X303326920Y-115004380D01*
X303428385Y-114889280D01*
X303526475Y-114777988D01*
X303623270Y-114668203D01*
X303717607Y-114561244D01*
X303808319Y-114458430D01*
X303894241Y-114361081D01*
X303974209Y-114270516D01*
X304047057Y-114188054D01*
X304111620Y-114115016D01*
X304166734Y-114052720D01*
X304211231Y-114002485D01*
X304243949Y-113965632D01*
X304253810Y-113954560D01*
X304298357Y-113903623D01*
X304339319Y-113854936D01*
X304374304Y-113811486D01*
X304400921Y-113776262D01*
X304416780Y-113752254D01*
X304418800Y-113748318D01*
X304428055Y-113725565D01*
X304432685Y-113704384D01*
X304431993Y-113681156D01*
X304425282Y-113652259D01*
X304411855Y-113614074D01*
X304391015Y-113562979D01*
X304376600Y-113529134D01*
X304339214Y-113438793D01*
X304311193Y-113362816D01*
X304291841Y-113297911D01*
X304280461Y-113240786D01*
X304276358Y-113188150D01*
X304278836Y-113136713D01*
X304284879Y-113095365D01*
X304295114Y-113023483D01*
X304302702Y-112938808D01*
X304307301Y-112848738D01*
X304308567Y-112760668D01*
X304306160Y-112681995D01*
X304304854Y-112663536D01*
X304288200Y-112522525D01*
X304261624Y-112394438D01*
X304223686Y-112273733D01*
X304172948Y-112154872D01*
X304172742Y-112154444D01*
X304152828Y-112114710D01*
X304131687Y-112076435D01*
X304107571Y-112037088D01*
X304078729Y-111994135D01*
X304043415Y-111945046D01*
X303999878Y-111887289D01*
X303946371Y-111818331D01*
X303899315Y-111758587D01*
X303817973Y-111654245D01*
X303748940Y-111561894D01*
X303690635Y-111478700D01*
X303641476Y-111401823D01*
X303599880Y-111328427D01*
X303564267Y-111255674D01*
X303533054Y-111180727D01*
X303504659Y-111100748D01*
X303477501Y-111012901D01*
X303470992Y-110990335D01*
X303446498Y-110882630D01*
X303438020Y-110783659D01*
X303445969Y-110689135D01*
X303470757Y-110594774D01*
X303512798Y-110496290D01*
X303519885Y-110482315D01*
X303550419Y-110427757D01*
X303578593Y-110389677D01*
X303607969Y-110365117D01*
X303642108Y-110351118D01*
X303684575Y-110344720D01*
X303685660Y-110344640D01*
X303771564Y-110348120D01*
X303858511Y-110369673D01*
X303942272Y-110407750D01*
X304018617Y-110460800D01*
X304030343Y-110471006D01*
X304069118Y-110512031D01*
X304091010Y-110552859D01*
X304097834Y-110599104D01*
X304091406Y-110656382D01*
X304090980Y-110658568D01*
X304082506Y-110750562D01*
X304091146Y-110847340D01*
X304116034Y-110944226D01*
X304156300Y-111036544D01*
X304163518Y-111049542D01*
X304187568Y-111093756D01*
X304201538Y-111128391D01*
X304205977Y-111159927D01*
X304201433Y-111194844D01*
X304188453Y-111239619D01*
X304181383Y-111260684D01*
X304158529Y-111345302D01*
X304145676Y-111432748D01*
X304143209Y-111517211D01*
X304151508Y-111592882D01*
X304157811Y-111618983D01*
X304193942Y-111711611D01*
X304245816Y-111798166D01*
X304310619Y-111875561D01*
X304385533Y-111940711D01*
X304467744Y-111990533D01*
X304514928Y-112010240D01*
X304610490Y-112034691D01*
X304714885Y-112045048D01*
X304820866Y-112040768D01*
X304882263Y-112031345D01*
X304934481Y-112016487D01*
X304983193Y-111993582D01*
X305034068Y-111960017D01*
X305086754Y-111918231D01*
X305120712Y-111891306D01*
X305150460Y-111870333D01*
X305171622Y-111858279D01*
X305177795Y-111856520D01*
X305193579Y-111860598D01*
X305222802Y-111871728D01*
X305261940Y-111888253D01*
X305307467Y-111908516D01*
X305355857Y-111930859D01*
X305403586Y-111953624D01*
X305447128Y-111975155D01*
X305482957Y-111993794D01*
X305507549Y-112007885D01*
X305517377Y-112015769D01*
X305517409Y-112016172D01*
X305514623Y-112029802D01*
X305508700Y-112058710D01*
X305500588Y-112098267D01*
X305493689Y-112131894D01*
X305478914Y-112220638D01*
X305474564Y-112292727D01*
X305480683Y-112348976D01*
X305497315Y-112390196D01*
X305508069Y-112403881D01*
X305547594Y-112434499D01*
X305604938Y-112463446D01*
X305677609Y-112489624D01*
X305743333Y-112507416D01*
X305812806Y-112526188D01*
X305864814Y-112546704D01*
X305902190Y-112571662D01*
X305927767Y-112603757D01*
X305944378Y-112645687D01*
X305954856Y-112700147D01*
X305956122Y-112709960D01*
X305972691Y-112804593D01*
X305999435Y-112909032D01*
X306034336Y-113017745D01*
X306075375Y-113125198D01*
X306120535Y-113225857D01*
X306167796Y-113314189D01*
X306188812Y-113347839D01*
X306219316Y-113390418D01*
X306255038Y-113435064D01*
X306286440Y-113470178D01*
X306314883Y-113502143D01*
X306338938Y-113533956D01*
X306353402Y-113558735D01*
X306353409Y-113558752D01*
X306355262Y-113565519D01*
X306356955Y-113577131D01*
X306358495Y-113594449D01*
X306359889Y-113618334D01*
X306361144Y-113649647D01*
X306362268Y-113689249D01*
X306363267Y-113738000D01*
X306364149Y-113796763D01*
X306364920Y-113866399D01*
X306365588Y-113947767D01*
X306366160Y-114041730D01*
X306366642Y-114149148D01*
X306367043Y-114270883D01*
X306367369Y-114407795D01*
X306367627Y-114560745D01*
X306367825Y-114730596D01*
X306367968Y-114918207D01*
X306368066Y-115124440D01*
X306368122Y-115343613D01*
X306368218Y-115573443D01*
X306368418Y-115788769D01*
X306368722Y-115989138D01*
X306369125Y-116174102D01*
X306369626Y-116343210D01*
X306370222Y-116496012D01*
X306370911Y-116632058D01*
X306371689Y-116750896D01*
X306372555Y-116852078D01*
X306373506Y-116935153D01*
X306374539Y-116999670D01*
X306375651Y-117045179D01*
X306376841Y-117071230D01*
X306377993Y-117077638D01*
X306382280Y-117064089D01*
X306390097Y-117033066D01*
X306400894Y-116986999D01*
X306414121Y-116928321D01*
X306429227Y-116859462D01*
X306445662Y-116782855D01*
X306458474Y-116722038D01*
X306472408Y-116655368D01*
X306489968Y-116571312D01*
X306510632Y-116472376D01*
X306533877Y-116361065D01*
X306559179Y-116239886D01*
X306586014Y-116111343D01*
X306613861Y-115977943D01*
X306642196Y-115842192D01*
X306670496Y-115706595D01*
X306692640Y-115600480D01*
X306720714Y-115465950D01*
X306749372Y-115328640D01*
X306778073Y-115191136D01*
X306806278Y-115056029D01*
X306833445Y-114925906D01*
X306859035Y-114803356D01*
X306882506Y-114690968D01*
X306903318Y-114591330D01*
X306920930Y-114507032D01*
X306931826Y-114454900D01*
X306951623Y-114359938D01*
X306967520Y-114282731D01*
X306979842Y-114221154D01*
X306988912Y-114173087D01*
X306995057Y-114136407D01*
X306998600Y-114108992D01*
X306999867Y-114088719D01*
X306999182Y-114073467D01*
X306996871Y-114061113D01*
X306993675Y-114050741D01*
X306983922Y-114030708D01*
X306966099Y-114005990D01*
X306938361Y-113974493D01*
X306898860Y-113934125D01*
X306845748Y-113882791D01*
X306843879Y-113881016D01*
X306753510Y-113794907D01*
X306677299Y-113721534D01*
X306614361Y-113659973D01*
X306563809Y-113609298D01*
X306524761Y-113568585D01*
X306496331Y-113536908D01*
X306477635Y-113513342D01*
X306467786Y-113496963D01*
X306465902Y-113486844D01*
X306466140Y-113486081D01*
X306474913Y-113469489D01*
X306492280Y-113441097D01*
X306515211Y-113405771D01*
X306527648Y-113387276D01*
X306613726Y-113243245D01*
X306684423Y-113086639D01*
X306739900Y-112917041D01*
X306779964Y-112736062D01*
X306792089Y-112673206D01*
X306805536Y-112625785D01*
X306823423Y-112590512D01*
X306848872Y-112564102D01*
X306885002Y-112543269D01*
X306934933Y-112524726D01*
X306998256Y-112506167D01*
X307083007Y-112481289D01*
X307149444Y-112457597D01*
X307199276Y-112432836D01*
X307234216Y-112404750D01*
X307255975Y-112371082D01*
X307266263Y-112329576D01*
X307266792Y-112277976D01*
X307259273Y-112214025D01*
X307252096Y-112171480D01*
X307243229Y-112122620D01*
X307235152Y-112079000D01*
X307228827Y-112045759D01*
X307225489Y-112029240D01*
X307224393Y-112019664D01*
X307227403Y-112010980D01*
X307236980Y-112001626D01*
X307255582Y-111990042D01*
X307285670Y-111974668D01*
X307329703Y-111953944D01*
X307381637Y-111930180D01*
X307435785Y-111906056D01*
X307484731Y-111885248D01*
X307525002Y-111869153D01*
X307553127Y-111859168D01*
X307564558Y-111856520D01*
X307581686Y-111862958D01*
X307608574Y-111880076D01*
X307640231Y-111904579D01*
X307649866Y-111912837D01*
X307692232Y-111946200D01*
X307741699Y-111979584D01*
X307787575Y-112005773D01*
X307787676Y-112005823D01*
X307825436Y-112023600D01*
X307857022Y-112034976D01*
X307889895Y-112041739D01*
X307931522Y-112045676D01*
X307960825Y-112047282D01*
X308076487Y-112043542D01*
X308185514Y-112021219D01*
X308286623Y-111980785D01*
X308378531Y-111922714D01*
X308436390Y-111872134D01*
X308506235Y-111789922D01*
X308557025Y-111700833D01*
X308588675Y-111605273D01*
X308601100Y-111503649D01*
X308594215Y-111396370D01*
X308567934Y-111283842D01*
X308562880Y-111268226D01*
X308547701Y-111220494D01*
X308539277Y-111183488D01*
X308538211Y-111151666D01*
X308545106Y-111119486D01*
X308560563Y-111081405D01*
X308585184Y-111031881D01*
X308589454Y-111023609D01*
X308627261Y-110940315D01*
X308650076Y-110863035D01*
X308659092Y-110785502D01*
X308655504Y-110701446D01*
X308653765Y-110686360D01*
X308647927Y-110626184D01*
X308648530Y-110580671D01*
X308656980Y-110544796D01*
X308674682Y-110513536D01*
X308703043Y-110481867D01*
X308713900Y-110471479D01*
X308788743Y-110414847D01*
X308874220Y-110373370D01*
X308965756Y-110348858D01*
X309039477Y-110342680D01*
X309084868Y-110345263D01*
X309120883Y-110354794D01*
X309150907Y-110373944D01*
X309178328Y-110405382D01*
X309206531Y-110451779D01*
X309226277Y-110490000D01*
X309257393Y-110556798D01*
X309278632Y-110614259D01*
X309291991Y-110669538D01*
X309299467Y-110729791D01*
X309301381Y-110759240D01*
X309302929Y-110810110D01*
X309301015Y-110853479D01*
X309294774Y-110897690D01*
X309283344Y-110951090D01*
X309280107Y-110964648D01*
X309251930Y-111066104D01*
X309217150Y-111167022D01*
X309178363Y-111260447D01*
X309144497Y-111328200D01*
X309124939Y-111362167D01*
X309102547Y-111397994D01*
X309075739Y-111437891D01*
X309042937Y-111484064D01*
X309002561Y-111538722D01*
X308953032Y-111604072D01*
X308892769Y-111682323D01*
X308871930Y-111709200D01*
X308827632Y-111766778D01*
X308783479Y-111825095D01*
X308742503Y-111880080D01*
X308707732Y-111927663D01*
X308682199Y-111963774D01*
X308680225Y-111966665D01*
X308596757Y-112104751D01*
X308529584Y-112248622D01*
X308479420Y-112395901D01*
X308446979Y-112544211D01*
X308432973Y-112691176D01*
X308434168Y-112786160D01*
X308443243Y-112885278D01*
X308458281Y-112979477D01*
X308478320Y-113064096D01*
X308502397Y-113134476D01*
X308509265Y-113150006D01*
X308519991Y-113170043D01*
X308540463Y-113205545D01*
X308569620Y-113254766D01*
X308606405Y-113315959D01*
X308649758Y-113387381D01*
X308698621Y-113467284D01*
X308751934Y-113553924D01*
X308808639Y-113645555D01*
X308858651Y-113725960D01*
X309006651Y-113963282D01*
X309146772Y-114187845D01*
X309278830Y-114399354D01*
X309402642Y-114597516D01*
X309518023Y-114782039D01*
X309624789Y-114952629D01*
X309722756Y-115108993D01*
X309811740Y-115250839D01*
X309891557Y-115377873D01*
X309962023Y-115489802D01*
X310022955Y-115586333D01*
X310074167Y-115667174D01*
X310115476Y-115732031D01*
X310146698Y-115780611D01*
X310167650Y-115812620D01*
X310178146Y-115827767D01*
X310179359Y-115829041D01*
X310180694Y-115820456D01*
X310176430Y-115798700D01*
X310172829Y-115785900D01*
X310164069Y-115758064D01*
X310149689Y-115713520D01*
X310130154Y-115653663D01*
X310105929Y-115579885D01*
X310077480Y-115493583D01*
X310045273Y-115396149D01*
X310009773Y-115288979D01*
X309971446Y-115173466D01*
X309930757Y-115051006D01*
X309888173Y-114922992D01*
X309844158Y-114790818D01*
X309799179Y-114655880D01*
X309753700Y-114519572D01*
X309708188Y-114383287D01*
X309663108Y-114248421D01*
X309618926Y-114116367D01*
X309576107Y-113988520D01*
X309535117Y-113866274D01*
X309496422Y-113751024D01*
X309460486Y-113644164D01*
X309427777Y-113547088D01*
X309398758Y-113461191D01*
X309373897Y-113387867D01*
X309353658Y-113328511D01*
X309338507Y-113284516D01*
X309328910Y-113257277D01*
X309325520Y-113248440D01*
X309293789Y-113207243D01*
X309247074Y-113174831D01*
X309198379Y-113156504D01*
X309137306Y-113140504D01*
X309070191Y-113122179D01*
X309000104Y-113102444D01*
X308930115Y-113082213D01*
X308863295Y-113062401D01*
X308802714Y-113043922D01*
X308751443Y-113027692D01*
X308712552Y-113014624D01*
X308689112Y-113005634D01*
X308685084Y-113003595D01*
X308660049Y-112983693D01*
X308641393Y-112956459D01*
X308627472Y-112918109D01*
X308616643Y-112864860D01*
X308612537Y-112836503D01*
X308605667Y-112734941D01*
X308609916Y-112626415D01*
X308624699Y-112520574D01*
X308634289Y-112477737D01*
X308649384Y-112425244D01*
X308668378Y-112372989D01*
X308692430Y-112319036D01*
X308722701Y-112261445D01*
X308760349Y-112198279D01*
X308806533Y-112127601D01*
X308862414Y-112047471D01*
X308929151Y-111955952D01*
X309007903Y-111851107D01*
X309013900Y-111843213D01*
X309079763Y-111756301D01*
X309134591Y-111683235D01*
X309179873Y-111621859D01*
X309217095Y-111570016D01*
X309247746Y-111525550D01*
X309273313Y-111486305D01*
X309295283Y-111450122D01*
X309315145Y-111414847D01*
X309333817Y-111379430D01*
X309390848Y-111254912D01*
X309432448Y-111131660D01*
X309459772Y-111004731D01*
X309473977Y-110869180D01*
X309476733Y-110767982D01*
X309472165Y-110643963D01*
X309457718Y-110535915D01*
X309432392Y-110441531D01*
X309395190Y-110358505D01*
X309345111Y-110284532D01*
X309281157Y-110217305D01*
X309214971Y-110163619D01*
X309171608Y-110131878D01*
X309256680Y-110051350D01*
X309345771Y-109977048D01*
X309436106Y-109922258D01*
X309529528Y-109886180D01*
X309627877Y-109868015D01*
X309685054Y-109865370D01*
X309736894Y-109867308D01*
G36*
X305788909Y-109661487D02*
G01*
X305875393Y-109682992D01*
X305956078Y-109718283D01*
X305987047Y-109737024D01*
X306021330Y-109762547D01*
X306060201Y-109795598D01*
X306091811Y-109825632D01*
X306162125Y-109907323D01*
X306213250Y-109990246D01*
X306246292Y-110076655D01*
X306262356Y-110168805D01*
X306262790Y-110174375D01*
X306266918Y-110216021D01*
X306272551Y-110254241D01*
X306278017Y-110279021D01*
X306298626Y-110316617D01*
X306330905Y-110341907D01*
X306369734Y-110352629D01*
X306409995Y-110346525D01*
X306420237Y-110341811D01*
X306441619Y-110320527D01*
X306460536Y-110283044D01*
X306475378Y-110233463D01*
X306484274Y-110178537D01*
X306504146Y-110071684D01*
X306541358Y-109975038D01*
X306596577Y-109887188D01*
X306651931Y-109824508D01*
X306735985Y-109754189D01*
X306827779Y-109701969D01*
X306925634Y-109668346D01*
X307027866Y-109653819D01*
X307132796Y-109658888D01*
X307180367Y-109667676D01*
X307255719Y-109693086D01*
X307321873Y-109733742D01*
X307381067Y-109791346D01*
X307428555Y-109856428D01*
X307445653Y-109883256D01*
X307356313Y-109895551D01*
X307244028Y-109917154D01*
X307147331Y-109949428D01*
X307063889Y-109993469D01*
X306991368Y-110050374D01*
X306961026Y-110081177D01*
X306913863Y-110142225D01*
X306867773Y-110219522D01*
X306824587Y-110309009D01*
X306786137Y-110406629D01*
X306754252Y-110508325D01*
X306737554Y-110576360D01*
X306727181Y-110642087D01*
X306720685Y-110721440D01*
X306718076Y-110808093D01*
X306719367Y-110895723D01*
X306724568Y-110978004D01*
X306733693Y-111048613D01*
X306736659Y-111064040D01*
X306752087Y-111121385D01*
X306774542Y-111183575D01*
X306801738Y-111245855D01*
X306831388Y-111303469D01*
X306861205Y-111351663D01*
X306888905Y-111385683D01*
X306893281Y-111389752D01*
X306915618Y-111407767D01*
X306934980Y-111416764D01*
X306959485Y-111419058D01*
X306990486Y-111417462D01*
X307051136Y-111413075D01*
X307045185Y-111476806D01*
X307033518Y-111536791D01*
X307011549Y-111594192D01*
X306982309Y-111642014D01*
X306965593Y-111660443D01*
X306917731Y-111693052D01*
X306856393Y-111716730D01*
X306786882Y-111730305D01*
X306714500Y-111732604D01*
X306664994Y-111726883D01*
X306634167Y-111721748D01*
X306618301Y-111721814D01*
X306612449Y-111728198D01*
X306611654Y-111738932D01*
X306617498Y-111786840D01*
X306633364Y-111844449D01*
X306656748Y-111906015D01*
X306685148Y-111965797D01*
X306716062Y-112018053D01*
X306746987Y-112057040D01*
X306752661Y-112062477D01*
X306790195Y-112089956D01*
X306829872Y-112104199D01*
X306876251Y-112105859D01*
X306933890Y-112095590D01*
X306951503Y-112090987D01*
X306988208Y-112081052D01*
X307016563Y-112073631D01*
X307031548Y-112070030D01*
X307032592Y-112069880D01*
X307037255Y-112078998D01*
X307043980Y-112102702D01*
X307051614Y-112135512D01*
X307059004Y-112171950D01*
X307064998Y-112206535D01*
X307068442Y-112233790D01*
X307068854Y-112242214D01*
X307059294Y-112272339D01*
X307031530Y-112296108D01*
X306986931Y-112312618D01*
X306953106Y-112318609D01*
X306870756Y-112331051D01*
X306805887Y-112346496D01*
X306755737Y-112366152D01*
X306717545Y-112391227D01*
X306688550Y-112422929D01*
X306678209Y-112438924D01*
X306667305Y-112461575D01*
X306651455Y-112499919D01*
X306632042Y-112550339D01*
X306610448Y-112609219D01*
X306588054Y-112672942D01*
X306582185Y-112690114D01*
X306539456Y-112815000D01*
X306501325Y-112924622D01*
X306468027Y-113018339D01*
X306439799Y-113095512D01*
X306416876Y-113155499D01*
X306399495Y-113197662D01*
X306387891Y-113221358D01*
X306384760Y-113225687D01*
X306372929Y-113233012D01*
X306361819Y-113224926D01*
X306355538Y-113215978D01*
X306345214Y-113195614D01*
X306329346Y-113158231D01*
X306308774Y-113106100D01*
X306284339Y-113041492D01*
X306256883Y-112966680D01*
X306227246Y-112883933D01*
X306196268Y-112795524D01*
X306164792Y-112703724D01*
X306153446Y-112670121D01*
X306131285Y-112606099D01*
X306109418Y-112546346D01*
X306089232Y-112494395D01*
X306072112Y-112453777D01*
X306059442Y-112428026D01*
X306056976Y-112424098D01*
X306025872Y-112390456D01*
X305982939Y-112364020D01*
X305925412Y-112343488D01*
X305852902Y-112327954D01*
X305806723Y-112320103D01*
X305763037Y-112312572D01*
X305729490Y-112306682D01*
X305722654Y-112305452D01*
X305682014Y-112298068D01*
X305683218Y-112222074D01*
X305686060Y-112177147D01*
X305692340Y-112136042D01*
X305699996Y-112109138D01*
X305715569Y-112072196D01*
X305795311Y-112091279D01*
X305843418Y-112102314D01*
X305877424Y-112108087D01*
X305902872Y-112108523D01*
X305925307Y-112103547D01*
X305950274Y-112093086D01*
X305958637Y-112089084D01*
X305994399Y-112065706D01*
X306023310Y-112031214D01*
X306032980Y-112015424D01*
X306046302Y-111989685D01*
X306063255Y-111953198D01*
X306082267Y-111909820D01*
X306101767Y-111863408D01*
X306120183Y-111817821D01*
X306135946Y-111776916D01*
X306147482Y-111744550D01*
X306153222Y-111724581D01*
X306153244Y-111720166D01*
X306141999Y-111719723D01*
X306116343Y-111722013D01*
X306083334Y-111726331D01*
X305990323Y-111732514D01*
X305908450Y-111722448D01*
X305838400Y-111696593D01*
X305780863Y-111655412D01*
X305736528Y-111599367D01*
X305706082Y-111528919D01*
X305692374Y-111463925D01*
X305685491Y-111411691D01*
X305750111Y-111416878D01*
X305786747Y-111418959D01*
X305810634Y-111416751D01*
X305829183Y-111408524D01*
X305848042Y-111394037D01*
X305870269Y-111368857D01*
X305896548Y-111329017D01*
X305924449Y-111279114D01*
X305951542Y-111223746D01*
X305975396Y-111167510D01*
X305990897Y-111123778D01*
X306018739Y-111004740D01*
X306031036Y-110876004D01*
X306028014Y-110740687D01*
X306009897Y-110601907D01*
X305976909Y-110462782D01*
X305934394Y-110339101D01*
X305888438Y-110236350D01*
X305838791Y-110151207D01*
X305783533Y-110081034D01*
X305720748Y-110023196D01*
X305686647Y-109998555D01*
X305623266Y-109961302D01*
X305556810Y-109933392D01*
X305481251Y-109912679D01*
X305408699Y-109899624D01*
X305365632Y-109892885D01*
X305330758Y-109886862D01*
X305308516Y-109882356D01*
X305302866Y-109880558D01*
X305305570Y-109870236D01*
X305318347Y-109849182D01*
X305337860Y-109821932D01*
X305360772Y-109793020D01*
X305383747Y-109766984D01*
X305394024Y-109756644D01*
X305456134Y-109710981D01*
X305530236Y-109678516D01*
X305612772Y-109659367D01*
X305700182Y-109653651D01*
X305788909Y-109661487D01*
G37*
X305788909Y-109661487D02*
X305875393Y-109682992D01*
X305956078Y-109718283D01*
X305987047Y-109737024D01*
X306021330Y-109762547D01*
X306060201Y-109795598D01*
X306091811Y-109825632D01*
X306162125Y-109907323D01*
X306213250Y-109990246D01*
X306246292Y-110076655D01*
X306262356Y-110168805D01*
X306262790Y-110174375D01*
X306266918Y-110216021D01*
X306272551Y-110254241D01*
X306278017Y-110279021D01*
X306298626Y-110316617D01*
X306330905Y-110341907D01*
X306369734Y-110352629D01*
X306409995Y-110346525D01*
X306420237Y-110341811D01*
X306441619Y-110320527D01*
X306460536Y-110283044D01*
X306475378Y-110233463D01*
X306484274Y-110178537D01*
X306504146Y-110071684D01*
X306541358Y-109975038D01*
X306596577Y-109887188D01*
X306651931Y-109824508D01*
X306735985Y-109754189D01*
X306827779Y-109701969D01*
X306925634Y-109668346D01*
X307027866Y-109653819D01*
X307132796Y-109658888D01*
X307180367Y-109667676D01*
X307255719Y-109693086D01*
X307321873Y-109733742D01*
X307381067Y-109791346D01*
X307428555Y-109856428D01*
X307445653Y-109883256D01*
X307356313Y-109895551D01*
X307244028Y-109917154D01*
X307147331Y-109949428D01*
X307063889Y-109993469D01*
X306991368Y-110050374D01*
X306961026Y-110081177D01*
X306913863Y-110142225D01*
X306867773Y-110219522D01*
X306824587Y-110309009D01*
X306786137Y-110406629D01*
X306754252Y-110508325D01*
X306737554Y-110576360D01*
X306727181Y-110642087D01*
X306720685Y-110721440D01*
X306718076Y-110808093D01*
X306719367Y-110895723D01*
X306724568Y-110978004D01*
X306733693Y-111048613D01*
X306736659Y-111064040D01*
X306752087Y-111121385D01*
X306774542Y-111183575D01*
X306801738Y-111245855D01*
X306831388Y-111303469D01*
X306861205Y-111351663D01*
X306888905Y-111385683D01*
X306893281Y-111389752D01*
X306915618Y-111407767D01*
X306934980Y-111416764D01*
X306959485Y-111419058D01*
X306990486Y-111417462D01*
X307051136Y-111413075D01*
X307045185Y-111476806D01*
X307033518Y-111536791D01*
X307011549Y-111594192D01*
X306982309Y-111642014D01*
X306965593Y-111660443D01*
X306917731Y-111693052D01*
X306856393Y-111716730D01*
X306786882Y-111730305D01*
X306714500Y-111732604D01*
X306664994Y-111726883D01*
X306634167Y-111721748D01*
X306618301Y-111721814D01*
X306612449Y-111728198D01*
X306611654Y-111738932D01*
X306617498Y-111786840D01*
X306633364Y-111844449D01*
X306656748Y-111906015D01*
X306685148Y-111965797D01*
X306716062Y-112018053D01*
X306746987Y-112057040D01*
X306752661Y-112062477D01*
X306790195Y-112089956D01*
X306829872Y-112104199D01*
X306876251Y-112105859D01*
X306933890Y-112095590D01*
X306951503Y-112090987D01*
X306988208Y-112081052D01*
X307016563Y-112073631D01*
X307031548Y-112070030D01*
X307032592Y-112069880D01*
X307037255Y-112078998D01*
X307043980Y-112102702D01*
X307051614Y-112135512D01*
X307059004Y-112171950D01*
X307064998Y-112206535D01*
X307068442Y-112233790D01*
X307068854Y-112242214D01*
X307059294Y-112272339D01*
X307031530Y-112296108D01*
X306986931Y-112312618D01*
X306953106Y-112318609D01*
X306870756Y-112331051D01*
X306805887Y-112346496D01*
X306755737Y-112366152D01*
X306717545Y-112391227D01*
X306688550Y-112422929D01*
X306678209Y-112438924D01*
X306667305Y-112461575D01*
X306651455Y-112499919D01*
X306632042Y-112550339D01*
X306610448Y-112609219D01*
X306588054Y-112672942D01*
X306582185Y-112690114D01*
X306539456Y-112815000D01*
X306501325Y-112924622D01*
X306468027Y-113018339D01*
X306439799Y-113095512D01*
X306416876Y-113155499D01*
X306399495Y-113197662D01*
X306387891Y-113221358D01*
X306384760Y-113225687D01*
X306372929Y-113233012D01*
X306361819Y-113224926D01*
X306355538Y-113215978D01*
X306345214Y-113195614D01*
X306329346Y-113158231D01*
X306308774Y-113106100D01*
X306284339Y-113041492D01*
X306256883Y-112966680D01*
X306227246Y-112883933D01*
X306196268Y-112795524D01*
X306164792Y-112703724D01*
X306153446Y-112670121D01*
X306131285Y-112606099D01*
X306109418Y-112546346D01*
X306089232Y-112494395D01*
X306072112Y-112453777D01*
X306059442Y-112428026D01*
X306056976Y-112424098D01*
X306025872Y-112390456D01*
X305982939Y-112364020D01*
X305925412Y-112343488D01*
X305852902Y-112327954D01*
X305806723Y-112320103D01*
X305763037Y-112312572D01*
X305729490Y-112306682D01*
X305722654Y-112305452D01*
X305682014Y-112298068D01*
X305683218Y-112222074D01*
X305686060Y-112177147D01*
X305692340Y-112136042D01*
X305699996Y-112109138D01*
X305715569Y-112072196D01*
X305795311Y-112091279D01*
X305843418Y-112102314D01*
X305877424Y-112108087D01*
X305902872Y-112108523D01*
X305925307Y-112103547D01*
X305950274Y-112093086D01*
X305958637Y-112089084D01*
X305994399Y-112065706D01*
X306023310Y-112031214D01*
X306032980Y-112015424D01*
X306046302Y-111989685D01*
X306063255Y-111953198D01*
X306082267Y-111909820D01*
X306101767Y-111863408D01*
X306120183Y-111817821D01*
X306135946Y-111776916D01*
X306147482Y-111744550D01*
X306153222Y-111724581D01*
X306153244Y-111720166D01*
X306141999Y-111719723D01*
X306116343Y-111722013D01*
X306083334Y-111726331D01*
X305990323Y-111732514D01*
X305908450Y-111722448D01*
X305838400Y-111696593D01*
X305780863Y-111655412D01*
X305736528Y-111599367D01*
X305706082Y-111528919D01*
X305692374Y-111463925D01*
X305685491Y-111411691D01*
X305750111Y-111416878D01*
X305786747Y-111418959D01*
X305810634Y-111416751D01*
X305829183Y-111408524D01*
X305848042Y-111394037D01*
X305870269Y-111368857D01*
X305896548Y-111329017D01*
X305924449Y-111279114D01*
X305951542Y-111223746D01*
X305975396Y-111167510D01*
X305990897Y-111123778D01*
X306018739Y-111004740D01*
X306031036Y-110876004D01*
X306028014Y-110740687D01*
X306009897Y-110601907D01*
X305976909Y-110462782D01*
X305934394Y-110339101D01*
X305888438Y-110236350D01*
X305838791Y-110151207D01*
X305783533Y-110081034D01*
X305720748Y-110023196D01*
X305686647Y-109998555D01*
X305623266Y-109961302D01*
X305556810Y-109933392D01*
X305481251Y-109912679D01*
X305408699Y-109899624D01*
X305365632Y-109892885D01*
X305330758Y-109886862D01*
X305308516Y-109882356D01*
X305302866Y-109880558D01*
X305305570Y-109870236D01*
X305318347Y-109849182D01*
X305337860Y-109821932D01*
X305360772Y-109793020D01*
X305383747Y-109766984D01*
X305394024Y-109756644D01*
X305456134Y-109710981D01*
X305530236Y-109678516D01*
X305612772Y-109659367D01*
X305700182Y-109653651D01*
X305788909Y-109661487D01*
G36*
X305107990Y-108040714D02*
G01*
X305195776Y-108067234D01*
X305279472Y-108112300D01*
X305357214Y-108175539D01*
X305362798Y-108181050D01*
X305425498Y-108257219D01*
X305469652Y-108341581D01*
X305495097Y-108433676D01*
X305501673Y-108533042D01*
X305499342Y-108571024D01*
X305495340Y-108609773D01*
X305491267Y-108632158D01*
X305485459Y-108642075D01*
X305476255Y-108643417D01*
X305469098Y-108641899D01*
X305366731Y-108623397D01*
X305262591Y-108617773D01*
X305163961Y-108625268D01*
X305133374Y-108630764D01*
X305030862Y-108662349D01*
X304937388Y-108711937D01*
X304853475Y-108779081D01*
X304779646Y-108863333D01*
X304716425Y-108964246D01*
X304696554Y-109004159D01*
X304674945Y-109050804D01*
X304662897Y-109082889D01*
X304661951Y-109104528D01*
X304673651Y-109119832D01*
X304699537Y-109132913D01*
X304741151Y-109147883D01*
X304751838Y-109151584D01*
X304794664Y-109167382D01*
X304831457Y-109182645D01*
X304857080Y-109195158D01*
X304864869Y-109200345D01*
X304874135Y-109215561D01*
X304882213Y-109244647D01*
X304889661Y-109290034D01*
X304894451Y-109329645D01*
X304917583Y-109472610D01*
X304954965Y-109604090D01*
X305008174Y-109728487D01*
X305078789Y-109850198D01*
X305083799Y-109857790D01*
X305167371Y-109968357D01*
X305267042Y-110074490D01*
X305378606Y-110172494D01*
X305497856Y-110258675D01*
X305620584Y-110329338D01*
X305621054Y-110329573D01*
X305686254Y-110363668D01*
X305735099Y-110394119D01*
X305770166Y-110424655D01*
X305794034Y-110459008D01*
X305809280Y-110500907D01*
X305818484Y-110554084D01*
X305824224Y-110622267D01*
X305824310Y-110623631D01*
X305831425Y-110736943D01*
X305736399Y-110703499D01*
X305642388Y-110664867D01*
X305539129Y-110612467D01*
X305430089Y-110548379D01*
X305318736Y-110474683D01*
X305208538Y-110393460D01*
X305173468Y-110365723D01*
X305042798Y-110249419D01*
X304928199Y-110123321D01*
X304828412Y-109985656D01*
X304742180Y-109834653D01*
X304668244Y-109668539D01*
X304656018Y-109636560D01*
X304629547Y-109567792D01*
X304607317Y-109516290D01*
X304587607Y-109479895D01*
X304568694Y-109456447D01*
X304548856Y-109443787D01*
X304526369Y-109439756D01*
X304500800Y-109441982D01*
X304466643Y-109451772D01*
X304442703Y-109469228D01*
X304429119Y-109495573D01*
X304426032Y-109532028D01*
X304433583Y-109579816D01*
X304451910Y-109640160D01*
X304481155Y-109714282D01*
X304521458Y-109803403D01*
X304548793Y-109860080D01*
X304627336Y-110009251D01*
X304709246Y-110142236D01*
X304797493Y-110263164D01*
X304895043Y-110376162D01*
X304984438Y-110466162D01*
X305068368Y-110542078D01*
X305153004Y-110610167D01*
X305241377Y-110672223D01*
X305336517Y-110730038D01*
X305441453Y-110785405D01*
X305559215Y-110840116D01*
X305692831Y-110895964D01*
X305746624Y-110917170D01*
X305782544Y-110932442D01*
X305810430Y-110946742D01*
X305825286Y-110957444D01*
X305826319Y-110959077D01*
X305825574Y-110975475D01*
X305818409Y-111005925D01*
X305806452Y-111045819D01*
X305791327Y-111090549D01*
X305774662Y-111135510D01*
X305758082Y-111176092D01*
X305743213Y-111207689D01*
X305732558Y-111224729D01*
X305709029Y-111252000D01*
X305657237Y-111233736D01*
X305634707Y-111224737D01*
X305596678Y-111208348D01*
X305546024Y-111185861D01*
X305485620Y-111158564D01*
X305418338Y-111127749D01*
X305347053Y-111094706D01*
X305333849Y-111088542D01*
X305062254Y-110961610D01*
X305023785Y-111005205D01*
X304964164Y-111085583D01*
X304922985Y-111171144D01*
X304900171Y-111262658D01*
X304895646Y-111360895D01*
X304909334Y-111466623D01*
X304941159Y-111580612D01*
X304961483Y-111635072D01*
X304998973Y-111728777D01*
X304946937Y-111776625D01*
X304880775Y-111824185D01*
X304806173Y-111854697D01*
X304726641Y-111867548D01*
X304645689Y-111862125D01*
X304575519Y-111841524D01*
X304497015Y-111799584D01*
X304434130Y-111744695D01*
X304386809Y-111676782D01*
X304355000Y-111595768D01*
X304339064Y-111506232D01*
X304339474Y-111433872D01*
X304354459Y-111359038D01*
X304384623Y-111280638D01*
X304430570Y-111197579D01*
X304492906Y-111108769D01*
X304572233Y-111013116D01*
X304669158Y-110909528D01*
X304669472Y-110909208D01*
X304716862Y-110860703D01*
X304751501Y-110824411D01*
X304775034Y-110798201D01*
X304789108Y-110779945D01*
X304795366Y-110767513D01*
X304795453Y-110758776D01*
X304791122Y-110751728D01*
X304779960Y-110738802D01*
X304757771Y-110713143D01*
X304726828Y-110677377D01*
X304689405Y-110634132D01*
X304647777Y-110586038D01*
X304639399Y-110576360D01*
X304560854Y-110484590D01*
X304494541Y-110404509D01*
X304438483Y-110333283D01*
X304390701Y-110268077D01*
X304349215Y-110206056D01*
X304312048Y-110144385D01*
X304277221Y-110080231D01*
X304242755Y-110010757D01*
X304238735Y-110002320D01*
X304206160Y-109929861D01*
X304174063Y-109851417D01*
X304143415Y-109770037D01*
X304115182Y-109688773D01*
X304090335Y-109610675D01*
X304069840Y-109538794D01*
X304054667Y-109476180D01*
X304045785Y-109425884D01*
X304044161Y-109390957D01*
X304044277Y-109389767D01*
X304047924Y-109366671D01*
X304055055Y-109346839D01*
X304068183Y-109327392D01*
X304089819Y-109305453D01*
X304122476Y-109278143D01*
X304168664Y-109242586D01*
X304180577Y-109233607D01*
X304218183Y-109204924D01*
X304249605Y-109180213D01*
X304271357Y-109162265D01*
X304279807Y-109154164D01*
X304279595Y-109138571D01*
X304270899Y-109109323D01*
X304255467Y-109070319D01*
X304235052Y-109025457D01*
X304211403Y-108978638D01*
X304186270Y-108933758D01*
X304167079Y-108903081D01*
X304094749Y-108809550D01*
X304014189Y-108734501D01*
X303925124Y-108677816D01*
X303827278Y-108639375D01*
X303720376Y-108619059D01*
X303604142Y-108616749D01*
X303524653Y-108624675D01*
X303493029Y-108628471D01*
X303475552Y-108627268D01*
X303466346Y-108619528D01*
X303461153Y-108608032D01*
X303454198Y-108574168D01*
X303452404Y-108527873D01*
X303455569Y-108476313D01*
X303463489Y-108426657D01*
X303466654Y-108413610D01*
X303501675Y-108318775D01*
X303552055Y-108235924D01*
X303615938Y-108166327D01*
X303691469Y-108111255D01*
X303776792Y-108071978D01*
X303870051Y-108049766D01*
X303969392Y-108045890D01*
X304000028Y-108048484D01*
X304079060Y-108067182D01*
X304155088Y-108103598D01*
X304224605Y-108155138D01*
X304284106Y-108219206D01*
X304329786Y-108292593D01*
X304354155Y-108355140D01*
X304372976Y-108428465D01*
X304384195Y-108503329D01*
X304386437Y-108547404D01*
X304391053Y-108597801D01*
X304403583Y-108638002D01*
X304422537Y-108664059D01*
X304432789Y-108670128D01*
X304453544Y-108674309D01*
X304483197Y-108676388D01*
X304488307Y-108676440D01*
X304517805Y-108673201D01*
X304539491Y-108661713D01*
X304554798Y-108639320D01*
X304565159Y-108603364D01*
X304572008Y-108551187D01*
X304574689Y-108516280D01*
X304589030Y-108405745D01*
X304616878Y-108310056D01*
X304658649Y-108228519D01*
X304714762Y-108160435D01*
X304785634Y-108105110D01*
X304838734Y-108076169D01*
X304927604Y-108044809D01*
X305017978Y-108033115D01*
X305107990Y-108040714D01*
G37*
X305107990Y-108040714D02*
X305195776Y-108067234D01*
X305279472Y-108112300D01*
X305357214Y-108175539D01*
X305362798Y-108181050D01*
X305425498Y-108257219D01*
X305469652Y-108341581D01*
X305495097Y-108433676D01*
X305501673Y-108533042D01*
X305499342Y-108571024D01*
X305495340Y-108609773D01*
X305491267Y-108632158D01*
X305485459Y-108642075D01*
X305476255Y-108643417D01*
X305469098Y-108641899D01*
X305366731Y-108623397D01*
X305262591Y-108617773D01*
X305163961Y-108625268D01*
X305133374Y-108630764D01*
X305030862Y-108662349D01*
X304937388Y-108711937D01*
X304853475Y-108779081D01*
X304779646Y-108863333D01*
X304716425Y-108964246D01*
X304696554Y-109004159D01*
X304674945Y-109050804D01*
X304662897Y-109082889D01*
X304661951Y-109104528D01*
X304673651Y-109119832D01*
X304699537Y-109132913D01*
X304741151Y-109147883D01*
X304751838Y-109151584D01*
X304794664Y-109167382D01*
X304831457Y-109182645D01*
X304857080Y-109195158D01*
X304864869Y-109200345D01*
X304874135Y-109215561D01*
X304882213Y-109244647D01*
X304889661Y-109290034D01*
X304894451Y-109329645D01*
X304917583Y-109472610D01*
X304954965Y-109604090D01*
X305008174Y-109728487D01*
X305078789Y-109850198D01*
X305083799Y-109857790D01*
X305167371Y-109968357D01*
X305267042Y-110074490D01*
X305378606Y-110172494D01*
X305497856Y-110258675D01*
X305620584Y-110329338D01*
X305621054Y-110329573D01*
X305686254Y-110363668D01*
X305735099Y-110394119D01*
X305770166Y-110424655D01*
X305794034Y-110459008D01*
X305809280Y-110500907D01*
X305818484Y-110554084D01*
X305824224Y-110622267D01*
X305824310Y-110623631D01*
X305831425Y-110736943D01*
X305736399Y-110703499D01*
X305642388Y-110664867D01*
X305539129Y-110612467D01*
X305430089Y-110548379D01*
X305318736Y-110474683D01*
X305208538Y-110393460D01*
X305173468Y-110365723D01*
X305042798Y-110249419D01*
X304928199Y-110123321D01*
X304828412Y-109985656D01*
X304742180Y-109834653D01*
X304668244Y-109668539D01*
X304656018Y-109636560D01*
X304629547Y-109567792D01*
X304607317Y-109516290D01*
X304587607Y-109479895D01*
X304568694Y-109456447D01*
X304548856Y-109443787D01*
X304526369Y-109439756D01*
X304500800Y-109441982D01*
X304466643Y-109451772D01*
X304442703Y-109469228D01*
X304429119Y-109495573D01*
X304426032Y-109532028D01*
X304433583Y-109579816D01*
X304451910Y-109640160D01*
X304481155Y-109714282D01*
X304521458Y-109803403D01*
X304548793Y-109860080D01*
X304627336Y-110009251D01*
X304709246Y-110142236D01*
X304797493Y-110263164D01*
X304895043Y-110376162D01*
X304984438Y-110466162D01*
X305068368Y-110542078D01*
X305153004Y-110610167D01*
X305241377Y-110672223D01*
X305336517Y-110730038D01*
X305441453Y-110785405D01*
X305559215Y-110840116D01*
X305692831Y-110895964D01*
X305746624Y-110917170D01*
X305782544Y-110932442D01*
X305810430Y-110946742D01*
X305825286Y-110957444D01*
X305826319Y-110959077D01*
X305825574Y-110975475D01*
X305818409Y-111005925D01*
X305806452Y-111045819D01*
X305791327Y-111090549D01*
X305774662Y-111135510D01*
X305758082Y-111176092D01*
X305743213Y-111207689D01*
X305732558Y-111224729D01*
X305709029Y-111252000D01*
X305657237Y-111233736D01*
X305634707Y-111224737D01*
X305596678Y-111208348D01*
X305546024Y-111185861D01*
X305485620Y-111158564D01*
X305418338Y-111127749D01*
X305347053Y-111094706D01*
X305333849Y-111088542D01*
X305062254Y-110961610D01*
X305023785Y-111005205D01*
X304964164Y-111085583D01*
X304922985Y-111171144D01*
X304900171Y-111262658D01*
X304895646Y-111360895D01*
X304909334Y-111466623D01*
X304941159Y-111580612D01*
X304961483Y-111635072D01*
X304998973Y-111728777D01*
X304946937Y-111776625D01*
X304880775Y-111824185D01*
X304806173Y-111854697D01*
X304726641Y-111867548D01*
X304645689Y-111862125D01*
X304575519Y-111841524D01*
X304497015Y-111799584D01*
X304434130Y-111744695D01*
X304386809Y-111676782D01*
X304355000Y-111595768D01*
X304339064Y-111506232D01*
X304339474Y-111433872D01*
X304354459Y-111359038D01*
X304384623Y-111280638D01*
X304430570Y-111197579D01*
X304492906Y-111108769D01*
X304572233Y-111013116D01*
X304669158Y-110909528D01*
X304669472Y-110909208D01*
X304716862Y-110860703D01*
X304751501Y-110824411D01*
X304775034Y-110798201D01*
X304789108Y-110779945D01*
X304795366Y-110767513D01*
X304795453Y-110758776D01*
X304791122Y-110751728D01*
X304779960Y-110738802D01*
X304757771Y-110713143D01*
X304726828Y-110677377D01*
X304689405Y-110634132D01*
X304647777Y-110586038D01*
X304639399Y-110576360D01*
X304560854Y-110484590D01*
X304494541Y-110404509D01*
X304438483Y-110333283D01*
X304390701Y-110268077D01*
X304349215Y-110206056D01*
X304312048Y-110144385D01*
X304277221Y-110080231D01*
X304242755Y-110010757D01*
X304238735Y-110002320D01*
X304206160Y-109929861D01*
X304174063Y-109851417D01*
X304143415Y-109770037D01*
X304115182Y-109688773D01*
X304090335Y-109610675D01*
X304069840Y-109538794D01*
X304054667Y-109476180D01*
X304045785Y-109425884D01*
X304044161Y-109390957D01*
X304044277Y-109389767D01*
X304047924Y-109366671D01*
X304055055Y-109346839D01*
X304068183Y-109327392D01*
X304089819Y-109305453D01*
X304122476Y-109278143D01*
X304168664Y-109242586D01*
X304180577Y-109233607D01*
X304218183Y-109204924D01*
X304249605Y-109180213D01*
X304271357Y-109162265D01*
X304279807Y-109154164D01*
X304279595Y-109138571D01*
X304270899Y-109109323D01*
X304255467Y-109070319D01*
X304235052Y-109025457D01*
X304211403Y-108978638D01*
X304186270Y-108933758D01*
X304167079Y-108903081D01*
X304094749Y-108809550D01*
X304014189Y-108734501D01*
X303925124Y-108677816D01*
X303827278Y-108639375D01*
X303720376Y-108619059D01*
X303604142Y-108616749D01*
X303524653Y-108624675D01*
X303493029Y-108628471D01*
X303475552Y-108627268D01*
X303466346Y-108619528D01*
X303461153Y-108608032D01*
X303454198Y-108574168D01*
X303452404Y-108527873D01*
X303455569Y-108476313D01*
X303463489Y-108426657D01*
X303466654Y-108413610D01*
X303501675Y-108318775D01*
X303552055Y-108235924D01*
X303615938Y-108166327D01*
X303691469Y-108111255D01*
X303776792Y-108071978D01*
X303870051Y-108049766D01*
X303969392Y-108045890D01*
X304000028Y-108048484D01*
X304079060Y-108067182D01*
X304155088Y-108103598D01*
X304224605Y-108155138D01*
X304284106Y-108219206D01*
X304329786Y-108292593D01*
X304354155Y-108355140D01*
X304372976Y-108428465D01*
X304384195Y-108503329D01*
X304386437Y-108547404D01*
X304391053Y-108597801D01*
X304403583Y-108638002D01*
X304422537Y-108664059D01*
X304432789Y-108670128D01*
X304453544Y-108674309D01*
X304483197Y-108676388D01*
X304488307Y-108676440D01*
X304517805Y-108673201D01*
X304539491Y-108661713D01*
X304554798Y-108639320D01*
X304565159Y-108603364D01*
X304572008Y-108551187D01*
X304574689Y-108516280D01*
X304589030Y-108405745D01*
X304616878Y-108310056D01*
X304658649Y-108228519D01*
X304714762Y-108160435D01*
X304785634Y-108105110D01*
X304838734Y-108076169D01*
X304927604Y-108044809D01*
X305017978Y-108033115D01*
X305107990Y-108040714D01*
G36*
X307774679Y-108041962D02*
G01*
X307865506Y-108063730D01*
X307946580Y-108103200D01*
X308017279Y-108159997D01*
X308076981Y-108233748D01*
X308116245Y-108304361D01*
X308130707Y-108337549D01*
X308140812Y-108368133D01*
X308147804Y-108401987D01*
X308152928Y-108444979D01*
X308156987Y-108496562D01*
X308162728Y-108561153D01*
X308170450Y-108608175D01*
X308181383Y-108640363D01*
X308196758Y-108660454D01*
X308217808Y-108671186D01*
X308237124Y-108674648D01*
X308283045Y-108672986D01*
X308316205Y-108656976D01*
X308337490Y-108625613D01*
X308347786Y-108577887D01*
X308349090Y-108547226D01*
X308357857Y-108442893D01*
X308383012Y-108347100D01*
X308423346Y-108261406D01*
X308477651Y-108187369D01*
X308544720Y-108126546D01*
X308623346Y-108080498D01*
X308712319Y-108050781D01*
X308737755Y-108045794D01*
X308823710Y-108041138D01*
X308908203Y-108054757D01*
X308989120Y-108084615D01*
X309064350Y-108128677D01*
X309131781Y-108184908D01*
X309189300Y-108251273D01*
X309234795Y-108325737D01*
X309266154Y-108406265D01*
X309281264Y-108490821D01*
X309279359Y-108567633D01*
X309272142Y-108625391D01*
X309153478Y-108619049D01*
X309041914Y-108618373D01*
X308944394Y-108629730D01*
X308857956Y-108654030D01*
X308779642Y-108692180D01*
X308706490Y-108745090D01*
X308687032Y-108762214D01*
X308633351Y-108818563D01*
X308579986Y-108887520D01*
X308531574Y-108962226D01*
X308492751Y-109035819D01*
X308477669Y-109071971D01*
X308466226Y-109101938D01*
X308459015Y-109123975D01*
X308457779Y-109141323D01*
X308464262Y-109157222D01*
X308480205Y-109174912D01*
X308507353Y-109197633D01*
X308547449Y-109228625D01*
X308572224Y-109247714D01*
X308622633Y-109288198D01*
X308657841Y-109321504D01*
X308679676Y-109351540D01*
X308689963Y-109382215D01*
X308690530Y-109417437D01*
X308683205Y-109461117D01*
X308679540Y-109477317D01*
X308648000Y-109596345D01*
X308608560Y-109720116D01*
X308563206Y-109843535D01*
X308513922Y-109961508D01*
X308462693Y-110068942D01*
X308416377Y-110152720D01*
X308383223Y-110206202D01*
X308348900Y-110257883D01*
X308311290Y-110310543D01*
X308268274Y-110366961D01*
X308217733Y-110429916D01*
X308157549Y-110502188D01*
X308086182Y-110585883D01*
X308044100Y-110635092D01*
X308006900Y-110679087D01*
X307976498Y-110715559D01*
X307954809Y-110742205D01*
X307943748Y-110756716D01*
X307942729Y-110758603D01*
X307949271Y-110767529D01*
X307967461Y-110789124D01*
X307995254Y-110821047D01*
X308030605Y-110860953D01*
X308071468Y-110906499D01*
X308080702Y-110916720D01*
X308170319Y-111019470D01*
X308243900Y-111112336D01*
X308302203Y-111196875D01*
X308345985Y-111274647D01*
X308376002Y-111347210D01*
X308393011Y-111416122D01*
X308397769Y-111482941D01*
X308391033Y-111549226D01*
X308390143Y-111553928D01*
X308364060Y-111641147D01*
X308323035Y-111715707D01*
X308268417Y-111776417D01*
X308201557Y-111822085D01*
X308123805Y-111851522D01*
X308039134Y-111863446D01*
X307986464Y-111863126D01*
X307941040Y-111858543D01*
X307917214Y-111853026D01*
X307865629Y-111832653D01*
X307818529Y-111808091D01*
X307779473Y-111781798D01*
X307752023Y-111756232D01*
X307739739Y-111733853D01*
X307739414Y-111730269D01*
X307743012Y-111714077D01*
X307752580Y-111684655D01*
X307766275Y-111647536D01*
X307770881Y-111635804D01*
X307809886Y-111522408D01*
X307833347Y-111417608D01*
X307841116Y-111322556D01*
X307833044Y-111238399D01*
X307826075Y-111210464D01*
X307808217Y-111165243D01*
X307780371Y-111111922D01*
X307746446Y-111057221D01*
X307710351Y-111007864D01*
X307703295Y-110999320D01*
X307672256Y-110962617D01*
X307391881Y-111093489D01*
X307303161Y-111134826D01*
X307230919Y-111168218D01*
X307173255Y-111194396D01*
X307128273Y-111214090D01*
X307094073Y-111228027D01*
X307068757Y-111236940D01*
X307050428Y-111241557D01*
X307037186Y-111242608D01*
X307027134Y-111240822D01*
X307018537Y-111237018D01*
X306998115Y-111217488D01*
X306976078Y-111181792D01*
X306954294Y-111133784D01*
X306934634Y-111077319D01*
X306925949Y-111046200D01*
X306914688Y-111000929D01*
X306908707Y-110971457D01*
X306907941Y-110953982D01*
X306912322Y-110944700D01*
X306921783Y-110939807D01*
X306924074Y-110939083D01*
X306965386Y-110925448D01*
X307018639Y-110906331D01*
X307078792Y-110883702D01*
X307140803Y-110859532D01*
X307199631Y-110835791D01*
X307250236Y-110814450D01*
X307287576Y-110797480D01*
X307292374Y-110795105D01*
X307416534Y-110724107D01*
X307542572Y-110636306D01*
X307667351Y-110534589D01*
X307787739Y-110421847D01*
X307900599Y-110300967D01*
X308002798Y-110174839D01*
X308071647Y-110076889D01*
X308119357Y-109998980D01*
X308165029Y-109914815D01*
X308207019Y-109828206D01*
X308243685Y-109742963D01*
X308273384Y-109662899D01*
X308294475Y-109591825D01*
X308305167Y-109534960D01*
X308304409Y-109493033D01*
X308290073Y-109464883D01*
X308260101Y-109447962D01*
X308229718Y-109441567D01*
X308201486Y-109440833D01*
X308177790Y-109448489D01*
X308156749Y-109466798D01*
X308136477Y-109498023D01*
X308115093Y-109544428D01*
X308090711Y-109608275D01*
X308090513Y-109608823D01*
X308027155Y-109764408D01*
X307954059Y-109905313D01*
X307868522Y-110035925D01*
X307767836Y-110160627D01*
X307714361Y-110218601D01*
X307574515Y-110351989D01*
X307424119Y-110470741D01*
X307259934Y-110577315D01*
X307188035Y-110617978D01*
X307145563Y-110639630D01*
X307096746Y-110662260D01*
X307045961Y-110684096D01*
X306997584Y-110703368D01*
X306955993Y-110718303D01*
X306925564Y-110727130D01*
X306914286Y-110728760D01*
X306909432Y-110719456D01*
X306907307Y-110694518D01*
X306907613Y-110658404D01*
X306910057Y-110615576D01*
X306914342Y-110570491D01*
X306920173Y-110527609D01*
X306927256Y-110491390D01*
X306930888Y-110478080D01*
X306947257Y-110425520D01*
X307116559Y-110321135D01*
X307175895Y-110284005D01*
X307235541Y-110245713D01*
X307290891Y-110209287D01*
X307337337Y-110177752D01*
X307366267Y-110157133D01*
X307487232Y-110055684D01*
X307591137Y-109943581D01*
X307677646Y-109821394D01*
X307746424Y-109689695D01*
X307797136Y-109549054D01*
X307829447Y-109400042D01*
X307834848Y-109359520D01*
X307842269Y-109297999D01*
X307849801Y-109253045D01*
X307860158Y-109221075D01*
X307876056Y-109198503D01*
X307900207Y-109181744D01*
X307935326Y-109167213D01*
X307984128Y-109151326D01*
X307995079Y-109147887D01*
X308033290Y-109135719D01*
X308063174Y-109125900D01*
X308080155Y-109119947D01*
X308082340Y-109118963D01*
X308080676Y-109108970D01*
X308073762Y-109085333D01*
X308065019Y-109058849D01*
X308018409Y-108951545D01*
X307957542Y-108858204D01*
X307883139Y-108779515D01*
X307795922Y-108716170D01*
X307696611Y-108668856D01*
X307637814Y-108650110D01*
X307595568Y-108642120D01*
X307539573Y-108636162D01*
X307476113Y-108632437D01*
X307411476Y-108631145D01*
X307351947Y-108632486D01*
X307303814Y-108636659D01*
X307289762Y-108639041D01*
X307264316Y-108642848D01*
X307250922Y-108638150D01*
X307242025Y-108621778D01*
X307240753Y-108618493D01*
X307225439Y-108551220D01*
X307227034Y-108476499D01*
X307235510Y-108432269D01*
X307270492Y-108330540D01*
X307320668Y-108242014D01*
X307385696Y-108167128D01*
X307465237Y-108106315D01*
X307510342Y-108081323D01*
X307554668Y-108060822D01*
X307591252Y-108048444D01*
X307629667Y-108041683D01*
X307674723Y-108038273D01*
X307774679Y-108041962D01*
G37*
X307774679Y-108041962D02*
X307865506Y-108063730D01*
X307946580Y-108103200D01*
X308017279Y-108159997D01*
X308076981Y-108233748D01*
X308116245Y-108304361D01*
X308130707Y-108337549D01*
X308140812Y-108368133D01*
X308147804Y-108401987D01*
X308152928Y-108444979D01*
X308156987Y-108496562D01*
X308162728Y-108561153D01*
X308170450Y-108608175D01*
X308181383Y-108640363D01*
X308196758Y-108660454D01*
X308217808Y-108671186D01*
X308237124Y-108674648D01*
X308283045Y-108672986D01*
X308316205Y-108656976D01*
X308337490Y-108625613D01*
X308347786Y-108577887D01*
X308349090Y-108547226D01*
X308357857Y-108442893D01*
X308383012Y-108347100D01*
X308423346Y-108261406D01*
X308477651Y-108187369D01*
X308544720Y-108126546D01*
X308623346Y-108080498D01*
X308712319Y-108050781D01*
X308737755Y-108045794D01*
X308823710Y-108041138D01*
X308908203Y-108054757D01*
X308989120Y-108084615D01*
X309064350Y-108128677D01*
X309131781Y-108184908D01*
X309189300Y-108251273D01*
X309234795Y-108325737D01*
X309266154Y-108406265D01*
X309281264Y-108490821D01*
X309279359Y-108567633D01*
X309272142Y-108625391D01*
X309153478Y-108619049D01*
X309041914Y-108618373D01*
X308944394Y-108629730D01*
X308857956Y-108654030D01*
X308779642Y-108692180D01*
X308706490Y-108745090D01*
X308687032Y-108762214D01*
X308633351Y-108818563D01*
X308579986Y-108887520D01*
X308531574Y-108962226D01*
X308492751Y-109035819D01*
X308477669Y-109071971D01*
X308466226Y-109101938D01*
X308459015Y-109123975D01*
X308457779Y-109141323D01*
X308464262Y-109157222D01*
X308480205Y-109174912D01*
X308507353Y-109197633D01*
X308547449Y-109228625D01*
X308572224Y-109247714D01*
X308622633Y-109288198D01*
X308657841Y-109321504D01*
X308679676Y-109351540D01*
X308689963Y-109382215D01*
X308690530Y-109417437D01*
X308683205Y-109461117D01*
X308679540Y-109477317D01*
X308648000Y-109596345D01*
X308608560Y-109720116D01*
X308563206Y-109843535D01*
X308513922Y-109961508D01*
X308462693Y-110068942D01*
X308416377Y-110152720D01*
X308383223Y-110206202D01*
X308348900Y-110257883D01*
X308311290Y-110310543D01*
X308268274Y-110366961D01*
X308217733Y-110429916D01*
X308157549Y-110502188D01*
X308086182Y-110585883D01*
X308044100Y-110635092D01*
X308006900Y-110679087D01*
X307976498Y-110715559D01*
X307954809Y-110742205D01*
X307943748Y-110756716D01*
X307942729Y-110758603D01*
X307949271Y-110767529D01*
X307967461Y-110789124D01*
X307995254Y-110821047D01*
X308030605Y-110860953D01*
X308071468Y-110906499D01*
X308080702Y-110916720D01*
X308170319Y-111019470D01*
X308243900Y-111112336D01*
X308302203Y-111196875D01*
X308345985Y-111274647D01*
X308376002Y-111347210D01*
X308393011Y-111416122D01*
X308397769Y-111482941D01*
X308391033Y-111549226D01*
X308390143Y-111553928D01*
X308364060Y-111641147D01*
X308323035Y-111715707D01*
X308268417Y-111776417D01*
X308201557Y-111822085D01*
X308123805Y-111851522D01*
X308039134Y-111863446D01*
X307986464Y-111863126D01*
X307941040Y-111858543D01*
X307917214Y-111853026D01*
X307865629Y-111832653D01*
X307818529Y-111808091D01*
X307779473Y-111781798D01*
X307752023Y-111756232D01*
X307739739Y-111733853D01*
X307739414Y-111730269D01*
X307743012Y-111714077D01*
X307752580Y-111684655D01*
X307766275Y-111647536D01*
X307770881Y-111635804D01*
X307809886Y-111522408D01*
X307833347Y-111417608D01*
X307841116Y-111322556D01*
X307833044Y-111238399D01*
X307826075Y-111210464D01*
X307808217Y-111165243D01*
X307780371Y-111111922D01*
X307746446Y-111057221D01*
X307710351Y-111007864D01*
X307703295Y-110999320D01*
X307672256Y-110962617D01*
X307391881Y-111093489D01*
X307303161Y-111134826D01*
X307230919Y-111168218D01*
X307173255Y-111194396D01*
X307128273Y-111214090D01*
X307094073Y-111228027D01*
X307068757Y-111236940D01*
X307050428Y-111241557D01*
X307037186Y-111242608D01*
X307027134Y-111240822D01*
X307018537Y-111237018D01*
X306998115Y-111217488D01*
X306976078Y-111181792D01*
X306954294Y-111133784D01*
X306934634Y-111077319D01*
X306925949Y-111046200D01*
X306914688Y-111000929D01*
X306908707Y-110971457D01*
X306907941Y-110953982D01*
X306912322Y-110944700D01*
X306921783Y-110939807D01*
X306924074Y-110939083D01*
X306965386Y-110925448D01*
X307018639Y-110906331D01*
X307078792Y-110883702D01*
X307140803Y-110859532D01*
X307199631Y-110835791D01*
X307250236Y-110814450D01*
X307287576Y-110797480D01*
X307292374Y-110795105D01*
X307416534Y-110724107D01*
X307542572Y-110636306D01*
X307667351Y-110534589D01*
X307787739Y-110421847D01*
X307900599Y-110300967D01*
X308002798Y-110174839D01*
X308071647Y-110076889D01*
X308119357Y-109998980D01*
X308165029Y-109914815D01*
X308207019Y-109828206D01*
X308243685Y-109742963D01*
X308273384Y-109662899D01*
X308294475Y-109591825D01*
X308305167Y-109534960D01*
X308304409Y-109493033D01*
X308290073Y-109464883D01*
X308260101Y-109447962D01*
X308229718Y-109441567D01*
X308201486Y-109440833D01*
X308177790Y-109448489D01*
X308156749Y-109466798D01*
X308136477Y-109498023D01*
X308115093Y-109544428D01*
X308090711Y-109608275D01*
X308090513Y-109608823D01*
X308027155Y-109764408D01*
X307954059Y-109905313D01*
X307868522Y-110035925D01*
X307767836Y-110160627D01*
X307714361Y-110218601D01*
X307574515Y-110351989D01*
X307424119Y-110470741D01*
X307259934Y-110577315D01*
X307188035Y-110617978D01*
X307145563Y-110639630D01*
X307096746Y-110662260D01*
X307045961Y-110684096D01*
X306997584Y-110703368D01*
X306955993Y-110718303D01*
X306925564Y-110727130D01*
X306914286Y-110728760D01*
X306909432Y-110719456D01*
X306907307Y-110694518D01*
X306907613Y-110658404D01*
X306910057Y-110615576D01*
X306914342Y-110570491D01*
X306920173Y-110527609D01*
X306927256Y-110491390D01*
X306930888Y-110478080D01*
X306947257Y-110425520D01*
X307116559Y-110321135D01*
X307175895Y-110284005D01*
X307235541Y-110245713D01*
X307290891Y-110209287D01*
X307337337Y-110177752D01*
X307366267Y-110157133D01*
X307487232Y-110055684D01*
X307591137Y-109943581D01*
X307677646Y-109821394D01*
X307746424Y-109689695D01*
X307797136Y-109549054D01*
X307829447Y-109400042D01*
X307834848Y-109359520D01*
X307842269Y-109297999D01*
X307849801Y-109253045D01*
X307860158Y-109221075D01*
X307876056Y-109198503D01*
X307900207Y-109181744D01*
X307935326Y-109167213D01*
X307984128Y-109151326D01*
X307995079Y-109147887D01*
X308033290Y-109135719D01*
X308063174Y-109125900D01*
X308080155Y-109119947D01*
X308082340Y-109118963D01*
X308080676Y-109108970D01*
X308073762Y-109085333D01*
X308065019Y-109058849D01*
X308018409Y-108951545D01*
X307957542Y-108858204D01*
X307883139Y-108779515D01*
X307795922Y-108716170D01*
X307696611Y-108668856D01*
X307637814Y-108650110D01*
X307595568Y-108642120D01*
X307539573Y-108636162D01*
X307476113Y-108632437D01*
X307411476Y-108631145D01*
X307351947Y-108632486D01*
X307303814Y-108636659D01*
X307289762Y-108639041D01*
X307264316Y-108642848D01*
X307250922Y-108638150D01*
X307242025Y-108621778D01*
X307240753Y-108618493D01*
X307225439Y-108551220D01*
X307227034Y-108476499D01*
X307235510Y-108432269D01*
X307270492Y-108330540D01*
X307320668Y-108242014D01*
X307385696Y-108167128D01*
X307465237Y-108106315D01*
X307510342Y-108081323D01*
X307554668Y-108060822D01*
X307591252Y-108048444D01*
X307629667Y-108041683D01*
X307674723Y-108038273D01*
X307774679Y-108041962D01*
G36*
X306372341Y-103786823D02*
G01*
X306382847Y-103806144D01*
X306396562Y-103841870D01*
X306413040Y-103892253D01*
X306431833Y-103955546D01*
X306452494Y-104029999D01*
X306474576Y-104113866D01*
X306497632Y-104205397D01*
X306521215Y-104302845D01*
X306544876Y-104404463D01*
X306568170Y-104508501D01*
X306590648Y-104613212D01*
X306611863Y-104716848D01*
X306631369Y-104817661D01*
X306636185Y-104843629D01*
X306693451Y-105174795D01*
X306741273Y-105494566D01*
X306780421Y-105809112D01*
X306811666Y-106124602D01*
X306835075Y-106436160D01*
X306840057Y-106525384D01*
X306844750Y-106631708D01*
X306849091Y-106751910D01*
X306853013Y-106882771D01*
X306856452Y-107021070D01*
X306859342Y-107163587D01*
X306861619Y-107307103D01*
X306863218Y-107448397D01*
X306864073Y-107584249D01*
X306864119Y-107711439D01*
X306863291Y-107826747D01*
X306863245Y-107830620D01*
X306858485Y-108219240D01*
X306917756Y-108219240D01*
X306951505Y-108218410D01*
X306970214Y-108214682D01*
X306979134Y-108206198D01*
X306982379Y-108196380D01*
X306984862Y-108181044D01*
X306989432Y-108148094D01*
X306995762Y-108100088D01*
X307003520Y-108039588D01*
X307012377Y-107969154D01*
X307022004Y-107891346D01*
X307028492Y-107838240D01*
X307047852Y-107682204D01*
X307065894Y-107543854D01*
X307083001Y-107420626D01*
X307099558Y-107309955D01*
X307115951Y-107209279D01*
X307132564Y-107116034D01*
X307149783Y-107027657D01*
X307151272Y-107020360D01*
X307162795Y-106966563D01*
X307176291Y-106907543D01*
X307190956Y-106846385D01*
X307205988Y-106786174D01*
X307220581Y-106729997D01*
X307233933Y-106680939D01*
X307245241Y-106642086D01*
X307253700Y-106616523D01*
X307258508Y-106607337D01*
X307258782Y-106607461D01*
X307265275Y-106621633D01*
X307275081Y-106653121D01*
X307287602Y-106699301D01*
X307302242Y-106757551D01*
X307318404Y-106825245D01*
X307335492Y-106899761D01*
X307352909Y-106978474D01*
X307370058Y-107058760D01*
X307386343Y-107137996D01*
X307401166Y-107213557D01*
X307413932Y-107282820D01*
X307418934Y-107311752D01*
X307427615Y-107365539D01*
X307437250Y-107429066D01*
X307447396Y-107499006D01*
X307457611Y-107572030D01*
X307467453Y-107644812D01*
X307476478Y-107714024D01*
X307484245Y-107776337D01*
X307490311Y-107828425D01*
X307494234Y-107866959D01*
X307495574Y-107888188D01*
X307492409Y-107901064D01*
X307480989Y-107914844D01*
X307458421Y-107931940D01*
X307421815Y-107954765D01*
X307401594Y-107966621D01*
X307315223Y-108022940D01*
X307245099Y-108083366D01*
X307190040Y-108150175D01*
X307148867Y-108225643D01*
X307120399Y-108312045D01*
X307103455Y-108411658D01*
X307096856Y-108526759D01*
X307096675Y-108554520D01*
X307098649Y-108639623D01*
X307105117Y-108713820D01*
X307117280Y-108786257D01*
X307136344Y-108866079D01*
X307138930Y-108875764D01*
X307150197Y-108917608D01*
X307289763Y-108867874D01*
X307358868Y-108843738D01*
X307411979Y-108826614D01*
X307451972Y-108815976D01*
X307481724Y-108811298D01*
X307504110Y-108812055D01*
X307522008Y-108817720D01*
X307532242Y-108823551D01*
X307545927Y-108833692D01*
X307553535Y-108845216D01*
X307556338Y-108863481D01*
X307555607Y-108893847D01*
X307554244Y-108916309D01*
X307541127Y-108994041D01*
X307511257Y-109070062D01*
X307463596Y-109146423D01*
X307399016Y-109223154D01*
X307348325Y-109273825D01*
X307306786Y-109307990D01*
X307273061Y-109326548D01*
X307245813Y-109330395D01*
X307240739Y-109329405D01*
X307219124Y-109318242D01*
X307187891Y-109295178D01*
X307150763Y-109263636D01*
X307111463Y-109227041D01*
X307073714Y-109188819D01*
X307041240Y-109152394D01*
X307023447Y-109129530D01*
X306996387Y-109088100D01*
X306970809Y-109043062D01*
X306952493Y-109004718D01*
X306938505Y-108972328D01*
X306927186Y-108954623D01*
X306914217Y-108947206D01*
X306895283Y-108945680D01*
X306860574Y-108945680D01*
X306854147Y-109047280D01*
X306851612Y-109097145D01*
X306849349Y-109159656D01*
X306847592Y-109227138D01*
X306846574Y-109291917D01*
X306846527Y-109297369D01*
X306845645Y-109361999D01*
X306842782Y-109410176D01*
X306835830Y-109445769D01*
X306822675Y-109472645D01*
X306801208Y-109494671D01*
X306769318Y-109515716D01*
X306724894Y-109539646D01*
X306710129Y-109547284D01*
X306627640Y-109597053D01*
X306556642Y-109656353D01*
X306493478Y-109728776D01*
X306434492Y-109817913D01*
X306434338Y-109818174D01*
X306411195Y-109857191D01*
X306392134Y-109888743D01*
X306379295Y-109909329D01*
X306374841Y-109915593D01*
X306369073Y-109907359D01*
X306354954Y-109885339D01*
X306334733Y-109853083D01*
X306315257Y-109821613D01*
X306287097Y-109777502D01*
X306258235Y-109734999D01*
X306232899Y-109700216D01*
X306221109Y-109685548D01*
X306176078Y-109642163D01*
X306118470Y-109599688D01*
X306055630Y-109563039D01*
X306004447Y-109540454D01*
X305966618Y-109526413D01*
X305937061Y-109513413D01*
X305914847Y-109498881D01*
X305899048Y-109480244D01*
X305888734Y-109454928D01*
X305882978Y-109420361D01*
X305880850Y-109373970D01*
X305881423Y-109313181D01*
X305883768Y-109235421D01*
X305884674Y-109208535D01*
X305886542Y-109143144D01*
X305887612Y-109083703D01*
X305887875Y-109033546D01*
X305887321Y-108996008D01*
X305885941Y-108974421D01*
X305885354Y-108971523D01*
X305871127Y-108949570D01*
X305859125Y-108940231D01*
X305832813Y-108935424D01*
X305809533Y-108950478D01*
X305789634Y-108985111D01*
X305783859Y-109000821D01*
X305756714Y-109061058D01*
X305715681Y-109125350D01*
X305665039Y-109188648D01*
X305609068Y-109245901D01*
X305552045Y-109292061D01*
X305520547Y-109311561D01*
X305495695Y-109323379D01*
X305477587Y-109324975D01*
X305455693Y-109316832D01*
X305451296Y-109314735D01*
X305401282Y-109283676D01*
X305352629Y-109240796D01*
X305306909Y-109189031D01*
X305265695Y-109131321D01*
X305230560Y-109070602D01*
X305203078Y-109009814D01*
X305184820Y-108951893D01*
X305177361Y-108899778D01*
X305182272Y-108856406D01*
X305193544Y-108833321D01*
X305217343Y-108817380D01*
X305256568Y-108813668D01*
X305311422Y-108822208D01*
X305382106Y-108843026D01*
X305434972Y-108862501D01*
X305481871Y-108880553D01*
X305523023Y-108895860D01*
X305554125Y-108906859D01*
X305570875Y-108911985D01*
X305571275Y-108912062D01*
X305581830Y-108909659D01*
X305591233Y-108895983D01*
X305601325Y-108867622D01*
X305607956Y-108844080D01*
X305614736Y-108815220D01*
X305619847Y-108783653D01*
X305623538Y-108745908D01*
X305626057Y-108698512D01*
X305627651Y-108637996D01*
X305628567Y-108560888D01*
X305628614Y-108554520D01*
X305628973Y-108480571D01*
X305628698Y-108423565D01*
X305627554Y-108380126D01*
X305625304Y-108346882D01*
X305621713Y-108320456D01*
X305616544Y-108297476D01*
X305609563Y-108274567D01*
X305608906Y-108272598D01*
X305572240Y-108188361D01*
X305521242Y-108113830D01*
X305454247Y-108047163D01*
X305369590Y-107986519D01*
X305328086Y-107962248D01*
X305290759Y-107940425D01*
X305261303Y-107920980D01*
X305243571Y-107906583D01*
X305240151Y-107901288D01*
X305242013Y-107867192D01*
X305246907Y-107816230D01*
X305254390Y-107751557D01*
X305264015Y-107676327D01*
X305275338Y-107593695D01*
X305287914Y-107506816D01*
X305301297Y-107418844D01*
X305315043Y-107332933D01*
X305328706Y-107252237D01*
X305341841Y-107179912D01*
X305342235Y-107177840D01*
X305352956Y-107123739D01*
X305366094Y-107061013D01*
X305380929Y-106992740D01*
X305396745Y-106922004D01*
X305412823Y-106851885D01*
X305428446Y-106785464D01*
X305442897Y-106725824D01*
X305455457Y-106676044D01*
X305465408Y-106639207D01*
X305472034Y-106618394D01*
X305473088Y-106616054D01*
X305478348Y-106619660D01*
X305487340Y-106640570D01*
X305499331Y-106676266D01*
X305513587Y-106724229D01*
X305529374Y-106781941D01*
X305545958Y-106846882D01*
X305562605Y-106916535D01*
X305569518Y-106946943D01*
X305587966Y-107032547D01*
X305605217Y-107119639D01*
X305621665Y-107210771D01*
X305637703Y-107308495D01*
X305653725Y-107415361D01*
X305670124Y-107533919D01*
X305687293Y-107666722D01*
X305705627Y-107816319D01*
X305712472Y-107873800D01*
X305721646Y-107950617D01*
X305730300Y-108021701D01*
X305738088Y-108084312D01*
X305744662Y-108135714D01*
X305749677Y-108173169D01*
X305752787Y-108193938D01*
X305753266Y-108196380D01*
X305757867Y-108208519D01*
X305767755Y-108215393D01*
X305787748Y-108218474D01*
X305822660Y-108219234D01*
X305828039Y-108219240D01*
X305897477Y-108219240D01*
X305904477Y-107525820D01*
X305906868Y-107305296D01*
X305909430Y-107103607D01*
X305912224Y-106919270D01*
X305915312Y-106750799D01*
X305917335Y-106660200D01*
X306368502Y-106660200D01*
X306368547Y-106976021D01*
X306368702Y-107272203D01*
X306368970Y-107549086D01*
X306369354Y-107807010D01*
X306369855Y-108046316D01*
X306370477Y-108267344D01*
X306371221Y-108470434D01*
X306372090Y-108655927D01*
X306373087Y-108824162D01*
X306374214Y-108975480D01*
X306375473Y-109110222D01*
X306376868Y-109228727D01*
X306378399Y-109331336D01*
X306380071Y-109418389D01*
X306381885Y-109490227D01*
X306383843Y-109547189D01*
X306385948Y-109589616D01*
X306388203Y-109617848D01*
X306390611Y-109632226D01*
X306392332Y-109634265D01*
X306403788Y-109626123D01*
X306428370Y-109607803D01*
X306463116Y-109581539D01*
X306505064Y-109549568D01*
X306535454Y-109526273D01*
X306600781Y-109475592D01*
X306651516Y-109434886D01*
X306689588Y-109402302D01*
X306716927Y-109375987D01*
X306735465Y-109354088D01*
X306747130Y-109334752D01*
X306753682Y-109316781D01*
X306754630Y-109302931D01*
X306755388Y-109270257D01*
X306755964Y-109220258D01*
X306756368Y-109154427D01*
X306756608Y-109074263D01*
X306756693Y-108981260D01*
X306756632Y-108876915D01*
X306756433Y-108762724D01*
X306756105Y-108640184D01*
X306755657Y-108510790D01*
X306755098Y-108376039D01*
X306754436Y-108237427D01*
X306753681Y-108096449D01*
X306752840Y-107954603D01*
X306751922Y-107813384D01*
X306750937Y-107674289D01*
X306749894Y-107538813D01*
X306748799Y-107408453D01*
X306747664Y-107284706D01*
X306746496Y-107169066D01*
X306745303Y-107063031D01*
X306744096Y-106968096D01*
X306742881Y-106885758D01*
X306741670Y-106817513D01*
X306740469Y-106764857D01*
X306739287Y-106729286D01*
X306738494Y-106715560D01*
X306736290Y-106686556D01*
X306733235Y-106642017D01*
X306729639Y-106586696D01*
X306725813Y-106525344D01*
X306723197Y-106481880D01*
X306703848Y-106211350D01*
X306676901Y-105923682D01*
X306642539Y-105620511D01*
X306600941Y-105303471D01*
X306565394Y-105059480D01*
X306537181Y-104879949D01*
X306509931Y-104719996D01*
X306483495Y-104578906D01*
X306457727Y-104455966D01*
X306432480Y-104350463D01*
X306407605Y-104261684D01*
X306389247Y-104206040D01*
X306386977Y-104199819D01*
X306384886Y-104194909D01*
X306382966Y-104192093D01*
X306381209Y-104192151D01*
X306379609Y-104195865D01*
X306378156Y-104204016D01*
X306376845Y-104217385D01*
X306375666Y-104236754D01*
X306374613Y-104262903D01*
X306373678Y-104296615D01*
X306372853Y-104338671D01*
X306372130Y-104389852D01*
X306371502Y-104450939D01*
X306370962Y-104522715D01*
X306370501Y-104605959D01*
X306370112Y-104701453D01*
X306369787Y-104809979D01*
X306369520Y-104932319D01*
X306369301Y-105069253D01*
X306369124Y-105221562D01*
X306368981Y-105390029D01*
X306368864Y-105575435D01*
X306368765Y-105778560D01*
X306368678Y-106000186D01*
X306368594Y-106241095D01*
X306368566Y-106324400D01*
X306368502Y-106660200D01*
X305917335Y-106660200D01*
X305918754Y-106596710D01*
X305922612Y-106455518D01*
X305926946Y-106325739D01*
X305931819Y-106205890D01*
X305937291Y-106094484D01*
X305943424Y-105990038D01*
X305950278Y-105891068D01*
X305957915Y-105796089D01*
X305966396Y-105703616D01*
X305975782Y-105612166D01*
X305986135Y-105520253D01*
X305987670Y-105507219D01*
X306020035Y-105263679D01*
X306059647Y-105016539D01*
X306105650Y-104769843D01*
X306157190Y-104527636D01*
X306213413Y-104293962D01*
X306273464Y-104072867D01*
X306329069Y-103891080D01*
X306342843Y-103849278D01*
X306354640Y-103814668D01*
X306362863Y-103791873D01*
X306365493Y-103785655D01*
X306372341Y-103786823D01*
G37*
X306372341Y-103786823D02*
X306382847Y-103806144D01*
X306396562Y-103841870D01*
X306413040Y-103892253D01*
X306431833Y-103955546D01*
X306452494Y-104029999D01*
X306474576Y-104113866D01*
X306497632Y-104205397D01*
X306521215Y-104302845D01*
X306544876Y-104404463D01*
X306568170Y-104508501D01*
X306590648Y-104613212D01*
X306611863Y-104716848D01*
X306631369Y-104817661D01*
X306636185Y-104843629D01*
X306693451Y-105174795D01*
X306741273Y-105494566D01*
X306780421Y-105809112D01*
X306811666Y-106124602D01*
X306835075Y-106436160D01*
X306840057Y-106525384D01*
X306844750Y-106631708D01*
X306849091Y-106751910D01*
X306853013Y-106882771D01*
X306856452Y-107021070D01*
X306859342Y-107163587D01*
X306861619Y-107307103D01*
X306863218Y-107448397D01*
X306864073Y-107584249D01*
X306864119Y-107711439D01*
X306863291Y-107826747D01*
X306863245Y-107830620D01*
X306858485Y-108219240D01*
X306917756Y-108219240D01*
X306951505Y-108218410D01*
X306970214Y-108214682D01*
X306979134Y-108206198D01*
X306982379Y-108196380D01*
X306984862Y-108181044D01*
X306989432Y-108148094D01*
X306995762Y-108100088D01*
X307003520Y-108039588D01*
X307012377Y-107969154D01*
X307022004Y-107891346D01*
X307028492Y-107838240D01*
X307047852Y-107682204D01*
X307065894Y-107543854D01*
X307083001Y-107420626D01*
X307099558Y-107309955D01*
X307115951Y-107209279D01*
X307132564Y-107116034D01*
X307149783Y-107027657D01*
X307151272Y-107020360D01*
X307162795Y-106966563D01*
X307176291Y-106907543D01*
X307190956Y-106846385D01*
X307205988Y-106786174D01*
X307220581Y-106729997D01*
X307233933Y-106680939D01*
X307245241Y-106642086D01*
X307253700Y-106616523D01*
X307258508Y-106607337D01*
X307258782Y-106607461D01*
X307265275Y-106621633D01*
X307275081Y-106653121D01*
X307287602Y-106699301D01*
X307302242Y-106757551D01*
X307318404Y-106825245D01*
X307335492Y-106899761D01*
X307352909Y-106978474D01*
X307370058Y-107058760D01*
X307386343Y-107137996D01*
X307401166Y-107213557D01*
X307413932Y-107282820D01*
X307418934Y-107311752D01*
X307427615Y-107365539D01*
X307437250Y-107429066D01*
X307447396Y-107499006D01*
X307457611Y-107572030D01*
X307467453Y-107644812D01*
X307476478Y-107714024D01*
X307484245Y-107776337D01*
X307490311Y-107828425D01*
X307494234Y-107866959D01*
X307495574Y-107888188D01*
X307492409Y-107901064D01*
X307480989Y-107914844D01*
X307458421Y-107931940D01*
X307421815Y-107954765D01*
X307401594Y-107966621D01*
X307315223Y-108022940D01*
X307245099Y-108083366D01*
X307190040Y-108150175D01*
X307148867Y-108225643D01*
X307120399Y-108312045D01*
X307103455Y-108411658D01*
X307096856Y-108526759D01*
X307096675Y-108554520D01*
X307098649Y-108639623D01*
X307105117Y-108713820D01*
X307117280Y-108786257D01*
X307136344Y-108866079D01*
X307138930Y-108875764D01*
X307150197Y-108917608D01*
X307289763Y-108867874D01*
X307358868Y-108843738D01*
X307411979Y-108826614D01*
X307451972Y-108815976D01*
X307481724Y-108811298D01*
X307504110Y-108812055D01*
X307522008Y-108817720D01*
X307532242Y-108823551D01*
X307545927Y-108833692D01*
X307553535Y-108845216D01*
X307556338Y-108863481D01*
X307555607Y-108893847D01*
X307554244Y-108916309D01*
X307541127Y-108994041D01*
X307511257Y-109070062D01*
X307463596Y-109146423D01*
X307399016Y-109223154D01*
X307348325Y-109273825D01*
X307306786Y-109307990D01*
X307273061Y-109326548D01*
X307245813Y-109330395D01*
X307240739Y-109329405D01*
X307219124Y-109318242D01*
X307187891Y-109295178D01*
X307150763Y-109263636D01*
X307111463Y-109227041D01*
X307073714Y-109188819D01*
X307041240Y-109152394D01*
X307023447Y-109129530D01*
X306996387Y-109088100D01*
X306970809Y-109043062D01*
X306952493Y-109004718D01*
X306938505Y-108972328D01*
X306927186Y-108954623D01*
X306914217Y-108947206D01*
X306895283Y-108945680D01*
X306860574Y-108945680D01*
X306854147Y-109047280D01*
X306851612Y-109097145D01*
X306849349Y-109159656D01*
X306847592Y-109227138D01*
X306846574Y-109291917D01*
X306846527Y-109297369D01*
X306845645Y-109361999D01*
X306842782Y-109410176D01*
X306835830Y-109445769D01*
X306822675Y-109472645D01*
X306801208Y-109494671D01*
X306769318Y-109515716D01*
X306724894Y-109539646D01*
X306710129Y-109547284D01*
X306627640Y-109597053D01*
X306556642Y-109656353D01*
X306493478Y-109728776D01*
X306434492Y-109817913D01*
X306434338Y-109818174D01*
X306411195Y-109857191D01*
X306392134Y-109888743D01*
X306379295Y-109909329D01*
X306374841Y-109915593D01*
X306369073Y-109907359D01*
X306354954Y-109885339D01*
X306334733Y-109853083D01*
X306315257Y-109821613D01*
X306287097Y-109777502D01*
X306258235Y-109734999D01*
X306232899Y-109700216D01*
X306221109Y-109685548D01*
X306176078Y-109642163D01*
X306118470Y-109599688D01*
X306055630Y-109563039D01*
X306004447Y-109540454D01*
X305966618Y-109526413D01*
X305937061Y-109513413D01*
X305914847Y-109498881D01*
X305899048Y-109480244D01*
X305888734Y-109454928D01*
X305882978Y-109420361D01*
X305880850Y-109373970D01*
X305881423Y-109313181D01*
X305883768Y-109235421D01*
X305884674Y-109208535D01*
X305886542Y-109143144D01*
X305887612Y-109083703D01*
X305887875Y-109033546D01*
X305887321Y-108996008D01*
X305885941Y-108974421D01*
X305885354Y-108971523D01*
X305871127Y-108949570D01*
X305859125Y-108940231D01*
X305832813Y-108935424D01*
X305809533Y-108950478D01*
X305789634Y-108985111D01*
X305783859Y-109000821D01*
X305756714Y-109061058D01*
X305715681Y-109125350D01*
X305665039Y-109188648D01*
X305609068Y-109245901D01*
X305552045Y-109292061D01*
X305520547Y-109311561D01*
X305495695Y-109323379D01*
X305477587Y-109324975D01*
X305455693Y-109316832D01*
X305451296Y-109314735D01*
X305401282Y-109283676D01*
X305352629Y-109240796D01*
X305306909Y-109189031D01*
X305265695Y-109131321D01*
X305230560Y-109070602D01*
X305203078Y-109009814D01*
X305184820Y-108951893D01*
X305177361Y-108899778D01*
X305182272Y-108856406D01*
X305193544Y-108833321D01*
X305217343Y-108817380D01*
X305256568Y-108813668D01*
X305311422Y-108822208D01*
X305382106Y-108843026D01*
X305434972Y-108862501D01*
X305481871Y-108880553D01*
X305523023Y-108895860D01*
X305554125Y-108906859D01*
X305570875Y-108911985D01*
X305571275Y-108912062D01*
X305581830Y-108909659D01*
X305591233Y-108895983D01*
X305601325Y-108867622D01*
X305607956Y-108844080D01*
X305614736Y-108815220D01*
X305619847Y-108783653D01*
X305623538Y-108745908D01*
X305626057Y-108698512D01*
X305627651Y-108637996D01*
X305628567Y-108560888D01*
X305628614Y-108554520D01*
X305628973Y-108480571D01*
X305628698Y-108423565D01*
X305627554Y-108380126D01*
X305625304Y-108346882D01*
X305621713Y-108320456D01*
X305616544Y-108297476D01*
X305609563Y-108274567D01*
X305608906Y-108272598D01*
X305572240Y-108188361D01*
X305521242Y-108113830D01*
X305454247Y-108047163D01*
X305369590Y-107986519D01*
X305328086Y-107962248D01*
X305290759Y-107940425D01*
X305261303Y-107920980D01*
X305243571Y-107906583D01*
X305240151Y-107901288D01*
X305242013Y-107867192D01*
X305246907Y-107816230D01*
X305254390Y-107751557D01*
X305264015Y-107676327D01*
X305275338Y-107593695D01*
X305287914Y-107506816D01*
X305301297Y-107418844D01*
X305315043Y-107332933D01*
X305328706Y-107252237D01*
X305341841Y-107179912D01*
X305342235Y-107177840D01*
X305352956Y-107123739D01*
X305366094Y-107061013D01*
X305380929Y-106992740D01*
X305396745Y-106922004D01*
X305412823Y-106851885D01*
X305428446Y-106785464D01*
X305442897Y-106725824D01*
X305455457Y-106676044D01*
X305465408Y-106639207D01*
X305472034Y-106618394D01*
X305473088Y-106616054D01*
X305478348Y-106619660D01*
X305487340Y-106640570D01*
X305499331Y-106676266D01*
X305513587Y-106724229D01*
X305529374Y-106781941D01*
X305545958Y-106846882D01*
X305562605Y-106916535D01*
X305569518Y-106946943D01*
X305587966Y-107032547D01*
X305605217Y-107119639D01*
X305621665Y-107210771D01*
X305637703Y-107308495D01*
X305653725Y-107415361D01*
X305670124Y-107533919D01*
X305687293Y-107666722D01*
X305705627Y-107816319D01*
X305712472Y-107873800D01*
X305721646Y-107950617D01*
X305730300Y-108021701D01*
X305738088Y-108084312D01*
X305744662Y-108135714D01*
X305749677Y-108173169D01*
X305752787Y-108193938D01*
X305753266Y-108196380D01*
X305757867Y-108208519D01*
X305767755Y-108215393D01*
X305787748Y-108218474D01*
X305822660Y-108219234D01*
X305828039Y-108219240D01*
X305897477Y-108219240D01*
X305904477Y-107525820D01*
X305906868Y-107305296D01*
X305909430Y-107103607D01*
X305912224Y-106919270D01*
X305915312Y-106750799D01*
X305917335Y-106660200D01*
X306368502Y-106660200D01*
X306368547Y-106976021D01*
X306368702Y-107272203D01*
X306368970Y-107549086D01*
X306369354Y-107807010D01*
X306369855Y-108046316D01*
X306370477Y-108267344D01*
X306371221Y-108470434D01*
X306372090Y-108655927D01*
X306373087Y-108824162D01*
X306374214Y-108975480D01*
X306375473Y-109110222D01*
X306376868Y-109228727D01*
X306378399Y-109331336D01*
X306380071Y-109418389D01*
X306381885Y-109490227D01*
X306383843Y-109547189D01*
X306385948Y-109589616D01*
X306388203Y-109617848D01*
X306390611Y-109632226D01*
X306392332Y-109634265D01*
X306403788Y-109626123D01*
X306428370Y-109607803D01*
X306463116Y-109581539D01*
X306505064Y-109549568D01*
X306535454Y-109526273D01*
X306600781Y-109475592D01*
X306651516Y-109434886D01*
X306689588Y-109402302D01*
X306716927Y-109375987D01*
X306735465Y-109354088D01*
X306747130Y-109334752D01*
X306753682Y-109316781D01*
X306754630Y-109302931D01*
X306755388Y-109270257D01*
X306755964Y-109220258D01*
X306756368Y-109154427D01*
X306756608Y-109074263D01*
X306756693Y-108981260D01*
X306756632Y-108876915D01*
X306756433Y-108762724D01*
X306756105Y-108640184D01*
X306755657Y-108510790D01*
X306755098Y-108376039D01*
X306754436Y-108237427D01*
X306753681Y-108096449D01*
X306752840Y-107954603D01*
X306751922Y-107813384D01*
X306750937Y-107674289D01*
X306749894Y-107538813D01*
X306748799Y-107408453D01*
X306747664Y-107284706D01*
X306746496Y-107169066D01*
X306745303Y-107063031D01*
X306744096Y-106968096D01*
X306742881Y-106885758D01*
X306741670Y-106817513D01*
X306740469Y-106764857D01*
X306739287Y-106729286D01*
X306738494Y-106715560D01*
X306736290Y-106686556D01*
X306733235Y-106642017D01*
X306729639Y-106586696D01*
X306725813Y-106525344D01*
X306723197Y-106481880D01*
X306703848Y-106211350D01*
X306676901Y-105923682D01*
X306642539Y-105620511D01*
X306600941Y-105303471D01*
X306565394Y-105059480D01*
X306537181Y-104879949D01*
X306509931Y-104719996D01*
X306483495Y-104578906D01*
X306457727Y-104455966D01*
X306432480Y-104350463D01*
X306407605Y-104261684D01*
X306389247Y-104206040D01*
X306386977Y-104199819D01*
X306384886Y-104194909D01*
X306382966Y-104192093D01*
X306381209Y-104192151D01*
X306379609Y-104195865D01*
X306378156Y-104204016D01*
X306376845Y-104217385D01*
X306375666Y-104236754D01*
X306374613Y-104262903D01*
X306373678Y-104296615D01*
X306372853Y-104338671D01*
X306372130Y-104389852D01*
X306371502Y-104450939D01*
X306370962Y-104522715D01*
X306370501Y-104605959D01*
X306370112Y-104701453D01*
X306369787Y-104809979D01*
X306369520Y-104932319D01*
X306369301Y-105069253D01*
X306369124Y-105221562D01*
X306368981Y-105390029D01*
X306368864Y-105575435D01*
X306368765Y-105778560D01*
X306368678Y-106000186D01*
X306368594Y-106241095D01*
X306368566Y-106324400D01*
X306368502Y-106660200D01*
X305917335Y-106660200D01*
X305918754Y-106596710D01*
X305922612Y-106455518D01*
X305926946Y-106325739D01*
X305931819Y-106205890D01*
X305937291Y-106094484D01*
X305943424Y-105990038D01*
X305950278Y-105891068D01*
X305957915Y-105796089D01*
X305966396Y-105703616D01*
X305975782Y-105612166D01*
X305986135Y-105520253D01*
X305987670Y-105507219D01*
X306020035Y-105263679D01*
X306059647Y-105016539D01*
X306105650Y-104769843D01*
X306157190Y-104527636D01*
X306213413Y-104293962D01*
X306273464Y-104072867D01*
X306329069Y-103891080D01*
X306342843Y-103849278D01*
X306354640Y-103814668D01*
X306362863Y-103791873D01*
X306365493Y-103785655D01*
X306372341Y-103786823D01*
G36*
X308243877Y-102144781D02*
G01*
X308254872Y-102167096D01*
X308269332Y-102205007D01*
X308286671Y-102256422D01*
X308306299Y-102319248D01*
X308327630Y-102391391D01*
X308350076Y-102470759D01*
X308373048Y-102555258D01*
X308395960Y-102642795D01*
X308418223Y-102731279D01*
X308439250Y-102818614D01*
X308458453Y-102902709D01*
X308475244Y-102981469D01*
X308480397Y-103007160D01*
X308547887Y-103371280D01*
X308607193Y-103737329D01*
X308658571Y-104107762D01*
X308702277Y-104485038D01*
X308738566Y-104871613D01*
X308767693Y-105269943D01*
X308789914Y-105682486D01*
X308805484Y-106111698D01*
X308806307Y-106141520D01*
X308808817Y-106227757D01*
X308812110Y-106330663D01*
X308816052Y-106446610D01*
X308820511Y-106571966D01*
X308825356Y-106703102D01*
X308830453Y-106836388D01*
X308835670Y-106968194D01*
X308840874Y-107094891D01*
X308842445Y-107132120D01*
X308846993Y-107241999D01*
X308851083Y-107346543D01*
X308854659Y-107443860D01*
X308857660Y-107532058D01*
X308860029Y-107609248D01*
X308861708Y-107673537D01*
X308862638Y-107723034D01*
X308862761Y-107755849D01*
X308862120Y-107769634D01*
X308853629Y-107793178D01*
X308835793Y-107811187D01*
X308805313Y-107825633D01*
X308758891Y-107838491D01*
X308740174Y-107842584D01*
X308668629Y-107863960D01*
X308592303Y-107897694D01*
X308518818Y-107940052D01*
X308471187Y-107974399D01*
X308445569Y-107997068D01*
X308414057Y-108028062D01*
X308379631Y-108064052D01*
X308345270Y-108101712D01*
X308313955Y-108137715D01*
X308288665Y-108168734D01*
X308272381Y-108191440D01*
X308267837Y-108201460D01*
X308264382Y-108208902D01*
X308253586Y-108203897D01*
X308234259Y-108185349D01*
X308205214Y-108152162D01*
X308176659Y-108117403D01*
X308109082Y-108038976D01*
X308044880Y-107976572D01*
X307979920Y-107927333D01*
X307910068Y-107888401D01*
X307831192Y-107856915D01*
X307774994Y-107839614D01*
X307724550Y-107824532D01*
X307689600Y-107809888D01*
X307667310Y-107791713D01*
X307654844Y-107766037D01*
X307649366Y-107728890D01*
X307648041Y-107676302D01*
X307648026Y-107661854D01*
X307648421Y-107624762D01*
X307649539Y-107569095D01*
X307651323Y-107496581D01*
X307653711Y-107408952D01*
X307656646Y-107307935D01*
X307660068Y-107195261D01*
X307663918Y-107072659D01*
X307668136Y-106941859D01*
X307672663Y-106804590D01*
X307677440Y-106662582D01*
X307682408Y-106517563D01*
X307687507Y-106371264D01*
X307692679Y-106225415D01*
X307697863Y-106081743D01*
X307703002Y-105941980D01*
X307708035Y-105807855D01*
X307712903Y-105681097D01*
X307717547Y-105563435D01*
X307721907Y-105456599D01*
X307725926Y-105362319D01*
X307729511Y-105283000D01*
X307738216Y-105123337D01*
X308250692Y-105123337D01*
X308250763Y-105313822D01*
X308250951Y-105502129D01*
X308251260Y-105687072D01*
X308251692Y-105867467D01*
X308252250Y-106042130D01*
X308252936Y-106209877D01*
X308253755Y-106369525D01*
X308254708Y-106519887D01*
X308255798Y-106659782D01*
X308256749Y-106761280D01*
X308258347Y-106913504D01*
X308259983Y-107060370D01*
X308261638Y-107200561D01*
X308263292Y-107332763D01*
X308264926Y-107455660D01*
X308266519Y-107567936D01*
X308268053Y-107668276D01*
X308269507Y-107755364D01*
X308270862Y-107827885D01*
X308272099Y-107884523D01*
X308273197Y-107923963D01*
X308274138Y-107944889D01*
X308274443Y-107947685D01*
X308282147Y-107967039D01*
X308291821Y-107967329D01*
X308302663Y-107958858D01*
X308327091Y-107939535D01*
X308362810Y-107911186D01*
X308407523Y-107875633D01*
X308458935Y-107834701D01*
X308501414Y-107800848D01*
X308556841Y-107756416D01*
X308607617Y-107715258D01*
X308651359Y-107679342D01*
X308685685Y-107650635D01*
X308708212Y-107631106D01*
X308715881Y-107623724D01*
X308725973Y-107609976D01*
X308733063Y-107593986D01*
X308737417Y-107572542D01*
X308739302Y-107542435D01*
X308738984Y-107500456D01*
X308736729Y-107443395D01*
X308734498Y-107399460D01*
X308732656Y-107363967D01*
X308730793Y-107326359D01*
X308728854Y-107285280D01*
X308726785Y-107239372D01*
X308724532Y-107187280D01*
X308722042Y-107127647D01*
X308719258Y-107059116D01*
X308716129Y-106980330D01*
X308712598Y-106889933D01*
X308708613Y-106786569D01*
X308704118Y-106668881D01*
X308699061Y-106535512D01*
X308693385Y-106385106D01*
X308687038Y-106216306D01*
X308684231Y-106141520D01*
X308675673Y-105919288D01*
X308667306Y-105715376D01*
X308658973Y-105527787D01*
X308650515Y-105354525D01*
X308641774Y-105193592D01*
X308632590Y-105042992D01*
X308622807Y-104900728D01*
X308612264Y-104764802D01*
X308600805Y-104633219D01*
X308588269Y-104503980D01*
X308574500Y-104375090D01*
X308559339Y-104244551D01*
X308542626Y-104110367D01*
X308524204Y-103970540D01*
X308503915Y-103823074D01*
X308495631Y-103764260D01*
X308483317Y-103681095D01*
X308468559Y-103587717D01*
X308451842Y-103486722D01*
X308433649Y-103380707D01*
X308414463Y-103272270D01*
X308394767Y-103164009D01*
X308375044Y-103058519D01*
X308355779Y-102958399D01*
X308337454Y-102866247D01*
X308320553Y-102784658D01*
X308305559Y-102716231D01*
X308292955Y-102663562D01*
X308286189Y-102638724D01*
X308273453Y-102595680D01*
X308266370Y-102671880D01*
X308264799Y-102699100D01*
X308263295Y-102745457D01*
X308261862Y-102809765D01*
X308260501Y-102890840D01*
X308259217Y-102987499D01*
X308258011Y-103098557D01*
X308256887Y-103222829D01*
X308255846Y-103359133D01*
X308254893Y-103506282D01*
X308254030Y-103663095D01*
X308253260Y-103828385D01*
X308252584Y-104000969D01*
X308252007Y-104179664D01*
X308251531Y-104363284D01*
X308251159Y-104550645D01*
X308250893Y-104740564D01*
X308250737Y-104931856D01*
X308250692Y-105123337D01*
X307738216Y-105123337D01*
X307746999Y-104962271D01*
X307768722Y-104658361D01*
X307795073Y-104368136D01*
X307826444Y-104088463D01*
X307863230Y-103816205D01*
X307905823Y-103548230D01*
X307954616Y-103281403D01*
X308010003Y-103012590D01*
X308020091Y-102966520D01*
X308039906Y-102878655D01*
X308061356Y-102786865D01*
X308083860Y-102693360D01*
X308106838Y-102600351D01*
X308129710Y-102510050D01*
X308151895Y-102424669D01*
X308172814Y-102346418D01*
X308191885Y-102277508D01*
X308208529Y-102220152D01*
X308222165Y-102176560D01*
X308232214Y-102148943D01*
X308236936Y-102140157D01*
X308243877Y-102144781D01*
G37*
X308243877Y-102144781D02*
X308254872Y-102167096D01*
X308269332Y-102205007D01*
X308286671Y-102256422D01*
X308306299Y-102319248D01*
X308327630Y-102391391D01*
X308350076Y-102470759D01*
X308373048Y-102555258D01*
X308395960Y-102642795D01*
X308418223Y-102731279D01*
X308439250Y-102818614D01*
X308458453Y-102902709D01*
X308475244Y-102981469D01*
X308480397Y-103007160D01*
X308547887Y-103371280D01*
X308607193Y-103737329D01*
X308658571Y-104107762D01*
X308702277Y-104485038D01*
X308738566Y-104871613D01*
X308767693Y-105269943D01*
X308789914Y-105682486D01*
X308805484Y-106111698D01*
X308806307Y-106141520D01*
X308808817Y-106227757D01*
X308812110Y-106330663D01*
X308816052Y-106446610D01*
X308820511Y-106571966D01*
X308825356Y-106703102D01*
X308830453Y-106836388D01*
X308835670Y-106968194D01*
X308840874Y-107094891D01*
X308842445Y-107132120D01*
X308846993Y-107241999D01*
X308851083Y-107346543D01*
X308854659Y-107443860D01*
X308857660Y-107532058D01*
X308860029Y-107609248D01*
X308861708Y-107673537D01*
X308862638Y-107723034D01*
X308862761Y-107755849D01*
X308862120Y-107769634D01*
X308853629Y-107793178D01*
X308835793Y-107811187D01*
X308805313Y-107825633D01*
X308758891Y-107838491D01*
X308740174Y-107842584D01*
X308668629Y-107863960D01*
X308592303Y-107897694D01*
X308518818Y-107940052D01*
X308471187Y-107974399D01*
X308445569Y-107997068D01*
X308414057Y-108028062D01*
X308379631Y-108064052D01*
X308345270Y-108101712D01*
X308313955Y-108137715D01*
X308288665Y-108168734D01*
X308272381Y-108191440D01*
X308267837Y-108201460D01*
X308264382Y-108208902D01*
X308253586Y-108203897D01*
X308234259Y-108185349D01*
X308205214Y-108152162D01*
X308176659Y-108117403D01*
X308109082Y-108038976D01*
X308044880Y-107976572D01*
X307979920Y-107927333D01*
X307910068Y-107888401D01*
X307831192Y-107856915D01*
X307774994Y-107839614D01*
X307724550Y-107824532D01*
X307689600Y-107809888D01*
X307667310Y-107791713D01*
X307654844Y-107766037D01*
X307649366Y-107728890D01*
X307648041Y-107676302D01*
X307648026Y-107661854D01*
X307648421Y-107624762D01*
X307649539Y-107569095D01*
X307651323Y-107496581D01*
X307653711Y-107408952D01*
X307656646Y-107307935D01*
X307660068Y-107195261D01*
X307663918Y-107072659D01*
X307668136Y-106941859D01*
X307672663Y-106804590D01*
X307677440Y-106662582D01*
X307682408Y-106517563D01*
X307687507Y-106371264D01*
X307692679Y-106225415D01*
X307697863Y-106081743D01*
X307703002Y-105941980D01*
X307708035Y-105807855D01*
X307712903Y-105681097D01*
X307717547Y-105563435D01*
X307721907Y-105456599D01*
X307725926Y-105362319D01*
X307729511Y-105283000D01*
X307738216Y-105123337D01*
X308250692Y-105123337D01*
X308250763Y-105313822D01*
X308250951Y-105502129D01*
X308251260Y-105687072D01*
X308251692Y-105867467D01*
X308252250Y-106042130D01*
X308252936Y-106209877D01*
X308253755Y-106369525D01*
X308254708Y-106519887D01*
X308255798Y-106659782D01*
X308256749Y-106761280D01*
X308258347Y-106913504D01*
X308259983Y-107060370D01*
X308261638Y-107200561D01*
X308263292Y-107332763D01*
X308264926Y-107455660D01*
X308266519Y-107567936D01*
X308268053Y-107668276D01*
X308269507Y-107755364D01*
X308270862Y-107827885D01*
X308272099Y-107884523D01*
X308273197Y-107923963D01*
X308274138Y-107944889D01*
X308274443Y-107947685D01*
X308282147Y-107967039D01*
X308291821Y-107967329D01*
X308302663Y-107958858D01*
X308327091Y-107939535D01*
X308362810Y-107911186D01*
X308407523Y-107875633D01*
X308458935Y-107834701D01*
X308501414Y-107800848D01*
X308556841Y-107756416D01*
X308607617Y-107715258D01*
X308651359Y-107679342D01*
X308685685Y-107650635D01*
X308708212Y-107631106D01*
X308715881Y-107623724D01*
X308725973Y-107609976D01*
X308733063Y-107593986D01*
X308737417Y-107572542D01*
X308739302Y-107542435D01*
X308738984Y-107500456D01*
X308736729Y-107443395D01*
X308734498Y-107399460D01*
X308732656Y-107363967D01*
X308730793Y-107326359D01*
X308728854Y-107285280D01*
X308726785Y-107239372D01*
X308724532Y-107187280D01*
X308722042Y-107127647D01*
X308719258Y-107059116D01*
X308716129Y-106980330D01*
X308712598Y-106889933D01*
X308708613Y-106786569D01*
X308704118Y-106668881D01*
X308699061Y-106535512D01*
X308693385Y-106385106D01*
X308687038Y-106216306D01*
X308684231Y-106141520D01*
X308675673Y-105919288D01*
X308667306Y-105715376D01*
X308658973Y-105527787D01*
X308650515Y-105354525D01*
X308641774Y-105193592D01*
X308632590Y-105042992D01*
X308622807Y-104900728D01*
X308612264Y-104764802D01*
X308600805Y-104633219D01*
X308588269Y-104503980D01*
X308574500Y-104375090D01*
X308559339Y-104244551D01*
X308542626Y-104110367D01*
X308524204Y-103970540D01*
X308503915Y-103823074D01*
X308495631Y-103764260D01*
X308483317Y-103681095D01*
X308468559Y-103587717D01*
X308451842Y-103486722D01*
X308433649Y-103380707D01*
X308414463Y-103272270D01*
X308394767Y-103164009D01*
X308375044Y-103058519D01*
X308355779Y-102958399D01*
X308337454Y-102866247D01*
X308320553Y-102784658D01*
X308305559Y-102716231D01*
X308292955Y-102663562D01*
X308286189Y-102638724D01*
X308273453Y-102595680D01*
X308266370Y-102671880D01*
X308264799Y-102699100D01*
X308263295Y-102745457D01*
X308261862Y-102809765D01*
X308260501Y-102890840D01*
X308259217Y-102987499D01*
X308258011Y-103098557D01*
X308256887Y-103222829D01*
X308255846Y-103359133D01*
X308254893Y-103506282D01*
X308254030Y-103663095D01*
X308253260Y-103828385D01*
X308252584Y-104000969D01*
X308252007Y-104179664D01*
X308251531Y-104363284D01*
X308251159Y-104550645D01*
X308250893Y-104740564D01*
X308250737Y-104931856D01*
X308250692Y-105123337D01*
X307738216Y-105123337D01*
X307746999Y-104962271D01*
X307768722Y-104658361D01*
X307795073Y-104368136D01*
X307826444Y-104088463D01*
X307863230Y-103816205D01*
X307905823Y-103548230D01*
X307954616Y-103281403D01*
X308010003Y-103012590D01*
X308020091Y-102966520D01*
X308039906Y-102878655D01*
X308061356Y-102786865D01*
X308083860Y-102693360D01*
X308106838Y-102600351D01*
X308129710Y-102510050D01*
X308151895Y-102424669D01*
X308172814Y-102346418D01*
X308191885Y-102277508D01*
X308208529Y-102220152D01*
X308222165Y-102176560D01*
X308232214Y-102148943D01*
X308236936Y-102140157D01*
X308243877Y-102144781D01*
G36*
X304473467Y-102122494D02*
G01*
X304484043Y-102149090D01*
X304498293Y-102190400D01*
X304515465Y-102243956D01*
X304534812Y-102307288D01*
X304555583Y-102377928D01*
X304577029Y-102453407D01*
X304598402Y-102531257D01*
X304618952Y-102609008D01*
X304625119Y-102633023D01*
X304658767Y-102769311D01*
X304690243Y-102906067D01*
X304719821Y-103045069D01*
X304747778Y-103188094D01*
X304774388Y-103336920D01*
X304799928Y-103493326D01*
X304824673Y-103659089D01*
X304848899Y-103835987D01*
X304872880Y-104025799D01*
X304896894Y-104230301D01*
X304921215Y-104451272D01*
X304946119Y-104690490D01*
X304950046Y-104729280D01*
X304962429Y-104858639D01*
X304973921Y-104992843D01*
X304984626Y-105133721D01*
X304994648Y-105283102D01*
X305004094Y-105442813D01*
X305013067Y-105614685D01*
X305021674Y-105800544D01*
X305030018Y-106002221D01*
X305038206Y-106221543D01*
X305041970Y-106329480D01*
X305045908Y-106443111D01*
X305050302Y-106567123D01*
X305054964Y-106696392D01*
X305059707Y-106825793D01*
X305064342Y-106950203D01*
X305068683Y-107064498D01*
X305072502Y-107162600D01*
X305077394Y-107286117D01*
X305081504Y-107390942D01*
X305084822Y-107478688D01*
X305087341Y-107550968D01*
X305089053Y-107609395D01*
X305089948Y-107655581D01*
X305090019Y-107691141D01*
X305089257Y-107717686D01*
X305087655Y-107736831D01*
X305085203Y-107750187D01*
X305081893Y-107759369D01*
X305077717Y-107765989D01*
X305072667Y-107771660D01*
X305069337Y-107775146D01*
X305042805Y-107793546D01*
X304997886Y-107811337D01*
X304957681Y-107822966D01*
X304857239Y-107855266D01*
X304769136Y-107897422D01*
X304690106Y-107951821D01*
X304616881Y-108020847D01*
X304546194Y-108106887D01*
X304521443Y-108141470D01*
X304502310Y-108167120D01*
X304487111Y-108184049D01*
X304480803Y-108188172D01*
X304471881Y-108180305D01*
X304453657Y-108159416D01*
X304428912Y-108128820D01*
X304404432Y-108097134D01*
X304325488Y-108004772D01*
X304241575Y-107930658D01*
X304149868Y-107872832D01*
X304047548Y-107829336D01*
X303995810Y-107813510D01*
X303948204Y-107799580D01*
X303916404Y-107787291D01*
X303896305Y-107774240D01*
X303883799Y-107758025D01*
X303877700Y-107744397D01*
X303876090Y-107728975D01*
X303875335Y-107693861D01*
X303875416Y-107639664D01*
X303876316Y-107566992D01*
X303878018Y-107476456D01*
X303880503Y-107368663D01*
X303883754Y-107244223D01*
X303887754Y-107103744D01*
X303892484Y-106947837D01*
X303897927Y-106777109D01*
X303904066Y-106592170D01*
X303910882Y-106393628D01*
X303916024Y-106248119D01*
X304488790Y-106248119D01*
X304488791Y-106450870D01*
X304488825Y-106636883D01*
X304488897Y-106806876D01*
X304489011Y-106961565D01*
X304489174Y-107101667D01*
X304489390Y-107227899D01*
X304489664Y-107340976D01*
X304490001Y-107441617D01*
X304490407Y-107530537D01*
X304490886Y-107608452D01*
X304491443Y-107676080D01*
X304492083Y-107734138D01*
X304492812Y-107783341D01*
X304493634Y-107824407D01*
X304494555Y-107858051D01*
X304495579Y-107884991D01*
X304496712Y-107905944D01*
X304497958Y-107921625D01*
X304499323Y-107932752D01*
X304500812Y-107940041D01*
X304502430Y-107944208D01*
X304504181Y-107945971D01*
X304506071Y-107946045D01*
X304507941Y-107945237D01*
X304521396Y-107936047D01*
X304548169Y-107916145D01*
X304585700Y-107887496D01*
X304631424Y-107852064D01*
X304682780Y-107811814D01*
X304708601Y-107791421D01*
X304776612Y-107737442D01*
X304830396Y-107694352D01*
X304871750Y-107660546D01*
X304902472Y-107634419D01*
X304924361Y-107614367D01*
X304939214Y-107598785D01*
X304948830Y-107586069D01*
X304955007Y-107574614D01*
X304957031Y-107569734D01*
X304959486Y-107551488D01*
X304960463Y-107513757D01*
X304959974Y-107457320D01*
X304958032Y-107382956D01*
X304954651Y-107291446D01*
X304951040Y-107209054D01*
X304944580Y-107065493D01*
X304937679Y-106904502D01*
X304930449Y-106728963D01*
X304923004Y-106541761D01*
X304915458Y-106345776D01*
X304907922Y-106143892D01*
X304900510Y-105938991D01*
X304894602Y-105770680D01*
X304884241Y-105503259D01*
X304872119Y-105252612D01*
X304857923Y-105015242D01*
X304841340Y-104787654D01*
X304822059Y-104566352D01*
X304799766Y-104347841D01*
X304774150Y-104128626D01*
X304744898Y-103905211D01*
X304711697Y-103674100D01*
X304700733Y-103601520D01*
X304687919Y-103520409D01*
X304673038Y-103430995D01*
X304656572Y-103335790D01*
X304639000Y-103237304D01*
X304620802Y-103138048D01*
X304602458Y-103040533D01*
X304584450Y-102947268D01*
X304567257Y-102860766D01*
X304551359Y-102783537D01*
X304537237Y-102718091D01*
X304525370Y-102666940D01*
X304516240Y-102632595D01*
X304514180Y-102626160D01*
X304489818Y-102555040D01*
X304489016Y-105255417D01*
X304488935Y-105532281D01*
X304488867Y-105789542D01*
X304488817Y-106027916D01*
X304488790Y-106248119D01*
X303916024Y-106248119D01*
X303918358Y-106182094D01*
X303926477Y-105958175D01*
X303935221Y-105722481D01*
X303939914Y-105597960D01*
X303950757Y-105335947D01*
X303962869Y-105091823D01*
X303976506Y-104863180D01*
X303991929Y-104647612D01*
X304009396Y-104442713D01*
X304029166Y-104246076D01*
X304051496Y-104055294D01*
X304076646Y-103867961D01*
X304104875Y-103681670D01*
X304136441Y-103494014D01*
X304171602Y-103302588D01*
X304204702Y-103134160D01*
X304226141Y-103030604D01*
X304249101Y-102924455D01*
X304273107Y-102817558D01*
X304297683Y-102711758D01*
X304322356Y-102608901D01*
X304346651Y-102510831D01*
X304370093Y-102419394D01*
X304392209Y-102336435D01*
X304412522Y-102263798D01*
X304430560Y-102203329D01*
X304445846Y-102156872D01*
X304457908Y-102126274D01*
X304466270Y-102113379D01*
X304467311Y-102113080D01*
X304473467Y-102122494D01*
G37*
X304473467Y-102122494D02*
X304484043Y-102149090D01*
X304498293Y-102190400D01*
X304515465Y-102243956D01*
X304534812Y-102307288D01*
X304555583Y-102377928D01*
X304577029Y-102453407D01*
X304598402Y-102531257D01*
X304618952Y-102609008D01*
X304625119Y-102633023D01*
X304658767Y-102769311D01*
X304690243Y-102906067D01*
X304719821Y-103045069D01*
X304747778Y-103188094D01*
X304774388Y-103336920D01*
X304799928Y-103493326D01*
X304824673Y-103659089D01*
X304848899Y-103835987D01*
X304872880Y-104025799D01*
X304896894Y-104230301D01*
X304921215Y-104451272D01*
X304946119Y-104690490D01*
X304950046Y-104729280D01*
X304962429Y-104858639D01*
X304973921Y-104992843D01*
X304984626Y-105133721D01*
X304994648Y-105283102D01*
X305004094Y-105442813D01*
X305013067Y-105614685D01*
X305021674Y-105800544D01*
X305030018Y-106002221D01*
X305038206Y-106221543D01*
X305041970Y-106329480D01*
X305045908Y-106443111D01*
X305050302Y-106567123D01*
X305054964Y-106696392D01*
X305059707Y-106825793D01*
X305064342Y-106950203D01*
X305068683Y-107064498D01*
X305072502Y-107162600D01*
X305077394Y-107286117D01*
X305081504Y-107390942D01*
X305084822Y-107478688D01*
X305087341Y-107550968D01*
X305089053Y-107609395D01*
X305089948Y-107655581D01*
X305090019Y-107691141D01*
X305089257Y-107717686D01*
X305087655Y-107736831D01*
X305085203Y-107750187D01*
X305081893Y-107759369D01*
X305077717Y-107765989D01*
X305072667Y-107771660D01*
X305069337Y-107775146D01*
X305042805Y-107793546D01*
X304997886Y-107811337D01*
X304957681Y-107822966D01*
X304857239Y-107855266D01*
X304769136Y-107897422D01*
X304690106Y-107951821D01*
X304616881Y-108020847D01*
X304546194Y-108106887D01*
X304521443Y-108141470D01*
X304502310Y-108167120D01*
X304487111Y-108184049D01*
X304480803Y-108188172D01*
X304471881Y-108180305D01*
X304453657Y-108159416D01*
X304428912Y-108128820D01*
X304404432Y-108097134D01*
X304325488Y-108004772D01*
X304241575Y-107930658D01*
X304149868Y-107872832D01*
X304047548Y-107829336D01*
X303995810Y-107813510D01*
X303948204Y-107799580D01*
X303916404Y-107787291D01*
X303896305Y-107774240D01*
X303883799Y-107758025D01*
X303877700Y-107744397D01*
X303876090Y-107728975D01*
X303875335Y-107693861D01*
X303875416Y-107639664D01*
X303876316Y-107566992D01*
X303878018Y-107476456D01*
X303880503Y-107368663D01*
X303883754Y-107244223D01*
X303887754Y-107103744D01*
X303892484Y-106947837D01*
X303897927Y-106777109D01*
X303904066Y-106592170D01*
X303910882Y-106393628D01*
X303916024Y-106248119D01*
X304488790Y-106248119D01*
X304488791Y-106450870D01*
X304488825Y-106636883D01*
X304488897Y-106806876D01*
X304489011Y-106961565D01*
X304489174Y-107101667D01*
X304489390Y-107227899D01*
X304489664Y-107340976D01*
X304490001Y-107441617D01*
X304490407Y-107530537D01*
X304490886Y-107608452D01*
X304491443Y-107676080D01*
X304492083Y-107734138D01*
X304492812Y-107783341D01*
X304493634Y-107824407D01*
X304494555Y-107858051D01*
X304495579Y-107884991D01*
X304496712Y-107905944D01*
X304497958Y-107921625D01*
X304499323Y-107932752D01*
X304500812Y-107940041D01*
X304502430Y-107944208D01*
X304504181Y-107945971D01*
X304506071Y-107946045D01*
X304507941Y-107945237D01*
X304521396Y-107936047D01*
X304548169Y-107916145D01*
X304585700Y-107887496D01*
X304631424Y-107852064D01*
X304682780Y-107811814D01*
X304708601Y-107791421D01*
X304776612Y-107737442D01*
X304830396Y-107694352D01*
X304871750Y-107660546D01*
X304902472Y-107634419D01*
X304924361Y-107614367D01*
X304939214Y-107598785D01*
X304948830Y-107586069D01*
X304955007Y-107574614D01*
X304957031Y-107569734D01*
X304959486Y-107551488D01*
X304960463Y-107513757D01*
X304959974Y-107457320D01*
X304958032Y-107382956D01*
X304954651Y-107291446D01*
X304951040Y-107209054D01*
X304944580Y-107065493D01*
X304937679Y-106904502D01*
X304930449Y-106728963D01*
X304923004Y-106541761D01*
X304915458Y-106345776D01*
X304907922Y-106143892D01*
X304900510Y-105938991D01*
X304894602Y-105770680D01*
X304884241Y-105503259D01*
X304872119Y-105252612D01*
X304857923Y-105015242D01*
X304841340Y-104787654D01*
X304822059Y-104566352D01*
X304799766Y-104347841D01*
X304774150Y-104128626D01*
X304744898Y-103905211D01*
X304711697Y-103674100D01*
X304700733Y-103601520D01*
X304687919Y-103520409D01*
X304673038Y-103430995D01*
X304656572Y-103335790D01*
X304639000Y-103237304D01*
X304620802Y-103138048D01*
X304602458Y-103040533D01*
X304584450Y-102947268D01*
X304567257Y-102860766D01*
X304551359Y-102783537D01*
X304537237Y-102718091D01*
X304525370Y-102666940D01*
X304516240Y-102632595D01*
X304514180Y-102626160D01*
X304489818Y-102555040D01*
X304489016Y-105255417D01*
X304488935Y-105532281D01*
X304488867Y-105789542D01*
X304488817Y-106027916D01*
X304488790Y-106248119D01*
X303916024Y-106248119D01*
X303918358Y-106182094D01*
X303926477Y-105958175D01*
X303935221Y-105722481D01*
X303939914Y-105597960D01*
X303950757Y-105335947D01*
X303962869Y-105091823D01*
X303976506Y-104863180D01*
X303991929Y-104647612D01*
X304009396Y-104442713D01*
X304029166Y-104246076D01*
X304051496Y-104055294D01*
X304076646Y-103867961D01*
X304104875Y-103681670D01*
X304136441Y-103494014D01*
X304171602Y-103302588D01*
X304204702Y-103134160D01*
X304226141Y-103030604D01*
X304249101Y-102924455D01*
X304273107Y-102817558D01*
X304297683Y-102711758D01*
X304322356Y-102608901D01*
X304346651Y-102510831D01*
X304370093Y-102419394D01*
X304392209Y-102336435D01*
X304412522Y-102263798D01*
X304430560Y-102203329D01*
X304445846Y-102156872D01*
X304457908Y-102126274D01*
X304466270Y-102113379D01*
X304467311Y-102113080D01*
X304473467Y-102122494D01*
D11*
%TO.C,MX93*%
X295263706Y-85175298D02*
X292803706Y-85175298D01*
X292803706Y-86645298D02*
X295263706Y-86645298D01*
X292803706Y-85175298D02*
X292803706Y-86645298D01*
%TO.C,MX45*%
X128587222Y-123272850D02*
X126127222Y-123272850D01*
X126127222Y-124742850D02*
X128587222Y-124742850D01*
X126127222Y-123272850D02*
X126127222Y-124742850D01*
%TO.C,MX33*%
X64217782Y-123272850D02*
X64217782Y-124742850D01*
X64217782Y-124742850D02*
X66677782Y-124742850D01*
X66677782Y-123272850D02*
X64217782Y-123272850D01*
%TO.C,D4*%
X174672479Y-127000539D02*
X174672479Y-129460539D01*
X176142479Y-127000539D02*
X174672479Y-127000539D01*
X176142479Y-129460539D02*
X176142479Y-127000539D01*
%TO.C,D3*%
X208007837Y-127000539D02*
X208007837Y-129460539D01*
X209477837Y-127000539D02*
X208007837Y-127000539D01*
X209477837Y-129460539D02*
X209477837Y-127000539D01*
%TO.C,D2*%
X108795462Y-127000539D02*
X108795462Y-129460539D01*
X110265462Y-127000539D02*
X108795462Y-127000539D01*
X110265462Y-129460539D02*
X110265462Y-127000539D01*
%TO.C,D1*%
X145305616Y-127000539D02*
X145305616Y-129460539D01*
X146775616Y-127000539D02*
X145305616Y-127000539D01*
X146775616Y-129460539D02*
X146775616Y-127000539D01*
%TO.C,R2*%
X306997786Y-25193470D02*
X306488338Y-25193470D01*
X306997786Y-26238470D02*
X306488338Y-26238470D01*
%TO.C,R1*%
X304329338Y-31191470D02*
X304838786Y-31191470D01*
X304329338Y-30146470D02*
X304838786Y-30146470D01*
%TO.C,MX99*%
X288119650Y-47077746D02*
X285659650Y-47077746D01*
X285659650Y-48547746D02*
X288119650Y-48547746D01*
X285659650Y-47077746D02*
X285659650Y-48547746D01*
%TO.C,MX98*%
X288119650Y-28028970D02*
X285659650Y-28028970D01*
X285659650Y-29498970D02*
X288119650Y-29498970D01*
X285659650Y-28028970D02*
X285659650Y-29498970D01*
%TO.C,MX97*%
X307168426Y-123272850D02*
X304708426Y-123272850D01*
X304708426Y-124742850D02*
X307168426Y-124742850D01*
X304708426Y-123272850D02*
X304708426Y-124742850D01*
%TO.C,MX96*%
X299946538Y-66126522D02*
X299946538Y-67596522D01*
X299946538Y-67596522D02*
X302406538Y-67596522D01*
X302406538Y-66126522D02*
X299946538Y-66126522D01*
%TO.C,MX95*%
X288119650Y-123272850D02*
X285659650Y-123272850D01*
X285659650Y-124742850D02*
X288119650Y-124742850D01*
X285659650Y-123272850D02*
X285659650Y-124742850D01*
%TO.C,MX94*%
X288119650Y-104224074D02*
X285659650Y-104224074D01*
X285659650Y-105694074D02*
X288119650Y-105694074D01*
X285659650Y-104224074D02*
X285659650Y-105694074D01*
%TO.C,MX92*%
X278595262Y-66126522D02*
X276135262Y-66126522D01*
X276135262Y-67596522D02*
X278595262Y-67596522D01*
X276135262Y-66126522D02*
X276135262Y-67596522D01*
%TO.C,MX91*%
X269070874Y-47077746D02*
X266610874Y-47077746D01*
X266610874Y-48547746D02*
X269070874Y-48547746D01*
X266610874Y-47077746D02*
X266610874Y-48547746D01*
%TO.C,MX90*%
X269070874Y-28028970D02*
X266610874Y-28028970D01*
X266610874Y-29498970D02*
X269070874Y-29498970D01*
X266610874Y-28028970D02*
X266610874Y-29498970D01*
%TO.C,MX89*%
X264308680Y-85175298D02*
X261848680Y-85175298D01*
X261848680Y-86645298D02*
X264308680Y-86645298D01*
X261848680Y-85175298D02*
X261848680Y-86645298D01*
%TO.C,MX88*%
X259546486Y-66126522D02*
X257086486Y-66126522D01*
X257086486Y-67596522D02*
X259546486Y-67596522D01*
X257086486Y-66126522D02*
X257086486Y-67596522D01*
%TO.C,MX87*%
X250022098Y-47077746D02*
X247562098Y-47077746D01*
X247562098Y-48547746D02*
X250022098Y-48547746D01*
X247562098Y-47077746D02*
X247562098Y-48547746D01*
%TO.C,MX86*%
X250022098Y-28028970D02*
X247562098Y-28028970D01*
X247562098Y-29498970D02*
X250022098Y-29498970D01*
X247562098Y-28028970D02*
X247562098Y-29498970D01*
%TO.C,MX85*%
X269070874Y-123272850D02*
X266610874Y-123272850D01*
X266610874Y-124742850D02*
X269070874Y-124742850D01*
X266610874Y-123272850D02*
X266610874Y-124742850D01*
%TO.C,MX84*%
X254784292Y-104224074D02*
X252324292Y-104224074D01*
X252324292Y-105694074D02*
X254784292Y-105694074D01*
X252324292Y-104224074D02*
X252324292Y-105694074D01*
%TO.C,MX83*%
X245259904Y-85175298D02*
X242799904Y-85175298D01*
X242799904Y-86645298D02*
X245259904Y-86645298D01*
X242799904Y-85175298D02*
X242799904Y-86645298D01*
%TO.C,MX82*%
X240497710Y-66126522D02*
X238037710Y-66126522D01*
X238037710Y-67596522D02*
X240497710Y-67596522D01*
X238037710Y-66126522D02*
X238037710Y-67596522D01*
%TO.C,MX81*%
X230973322Y-47077746D02*
X228513322Y-47077746D01*
X228513322Y-48547746D02*
X230973322Y-48547746D01*
X228513322Y-47077746D02*
X228513322Y-48547746D01*
%TO.C,MX80*%
X230973322Y-28028970D02*
X228513322Y-28028970D01*
X228513322Y-29498970D02*
X230973322Y-29498970D01*
X228513322Y-28028970D02*
X228513322Y-29498970D01*
%TO.C,MX79*%
X245259904Y-123272850D02*
X242799904Y-123272850D01*
X242799904Y-124742850D02*
X245259904Y-124742850D01*
X242799904Y-123272850D02*
X242799904Y-124742850D01*
%TO.C,MX78*%
X235735516Y-104224074D02*
X233275516Y-104224074D01*
X233275516Y-105694074D02*
X235735516Y-105694074D01*
X233275516Y-104224074D02*
X233275516Y-105694074D01*
%TO.C,MX77*%
X226211128Y-85175298D02*
X223751128Y-85175298D01*
X223751128Y-86645298D02*
X226211128Y-86645298D01*
X223751128Y-85175298D02*
X223751128Y-86645298D01*
%TO.C,MX76*%
X221448934Y-66126522D02*
X218988934Y-66126522D01*
X218988934Y-67596522D02*
X221448934Y-67596522D01*
X218988934Y-66126522D02*
X218988934Y-67596522D01*
%TO.C,MX75*%
X211924546Y-47077746D02*
X209464546Y-47077746D01*
X209464546Y-48547746D02*
X211924546Y-48547746D01*
X209464546Y-47077746D02*
X209464546Y-48547746D01*
%TO.C,MX74*%
X211924546Y-28028970D02*
X209464546Y-28028970D01*
X209464546Y-29498970D02*
X211924546Y-29498970D01*
X209464546Y-28028970D02*
X209464546Y-29498970D01*
%TO.C,MX73*%
X226211128Y-123272850D02*
X223751128Y-123272850D01*
X223751128Y-124742850D02*
X226211128Y-124742850D01*
X223751128Y-123272850D02*
X223751128Y-124742850D01*
%TO.C,MX72*%
X216686740Y-104224074D02*
X214226740Y-104224074D01*
X214226740Y-105694074D02*
X216686740Y-105694074D01*
X214226740Y-104224074D02*
X214226740Y-105694074D01*
%TO.C,MX71*%
X207162352Y-85175298D02*
X204702352Y-85175298D01*
X204702352Y-86645298D02*
X207162352Y-86645298D01*
X204702352Y-85175298D02*
X204702352Y-86645298D01*
%TO.C,MX70*%
X202400158Y-66126522D02*
X199940158Y-66126522D01*
X199940158Y-67596522D02*
X202400158Y-67596522D01*
X199940158Y-66126522D02*
X199940158Y-67596522D01*
%TO.C,MX69*%
X192875770Y-47077746D02*
X190415770Y-47077746D01*
X190415770Y-48547746D02*
X192875770Y-48547746D01*
X190415770Y-47077746D02*
X190415770Y-48547746D01*
%TO.C,MX68*%
X192875770Y-28028970D02*
X190415770Y-28028970D01*
X190415770Y-29498970D02*
X192875770Y-29498970D01*
X190415770Y-28028970D02*
X190415770Y-29498970D01*
%TO.C,MX67*%
X197637964Y-104224074D02*
X195177964Y-104224074D01*
X195177964Y-105694074D02*
X197637964Y-105694074D01*
X195177964Y-104224074D02*
X195177964Y-105694074D01*
%TO.C,MX66*%
X188113576Y-85175298D02*
X185653576Y-85175298D01*
X185653576Y-86645298D02*
X188113576Y-86645298D01*
X185653576Y-85175298D02*
X185653576Y-86645298D01*
%TO.C,MX65*%
X183351382Y-66126522D02*
X180891382Y-66126522D01*
X180891382Y-67596522D02*
X183351382Y-67596522D01*
X180891382Y-66126522D02*
X180891382Y-67596522D01*
%TO.C,MX64*%
X173826994Y-47077746D02*
X171366994Y-47077746D01*
X171366994Y-48547746D02*
X173826994Y-48547746D01*
X171366994Y-47077746D02*
X171366994Y-48547746D01*
%TO.C,MX63*%
X173826994Y-28028970D02*
X171366994Y-28028970D01*
X171366994Y-29498970D02*
X173826994Y-29498970D01*
X171366994Y-28028970D02*
X171366994Y-29498970D01*
%TO.C,MX62*%
X192876382Y-123272850D02*
X190416382Y-123272850D01*
X190416382Y-124742850D02*
X192876382Y-124742850D01*
X190416382Y-123272850D02*
X190416382Y-124742850D01*
%TO.C,MX61*%
X178589188Y-104224074D02*
X176129188Y-104224074D01*
X176129188Y-105694074D02*
X178589188Y-105694074D01*
X176129188Y-104224074D02*
X176129188Y-105694074D01*
%TO.C,MX60*%
X169064800Y-85175298D02*
X166604800Y-85175298D01*
X166604800Y-86645298D02*
X169064800Y-86645298D01*
X166604800Y-85175298D02*
X166604800Y-86645298D01*
%TO.C,MX59*%
X164302606Y-66126522D02*
X161842606Y-66126522D01*
X161842606Y-67596522D02*
X164302606Y-67596522D01*
X161842606Y-66126522D02*
X161842606Y-67596522D01*
%TO.C,MX58*%
X154778218Y-47077746D02*
X152318218Y-47077746D01*
X152318218Y-48547746D02*
X154778218Y-48547746D01*
X152318218Y-47077746D02*
X152318218Y-48547746D01*
%TO.C,MX57*%
X154778218Y-28028970D02*
X152318218Y-28028970D01*
X152318218Y-29498970D02*
X154778218Y-29498970D01*
X152318218Y-28028970D02*
X152318218Y-29498970D01*
%TO.C,MX56*%
X164302606Y-123272850D02*
X161842606Y-123272850D01*
X161842606Y-124742850D02*
X164302606Y-124742850D01*
X161842606Y-123272850D02*
X161842606Y-124742850D01*
%TO.C,MX55*%
X159540412Y-104224074D02*
X157080412Y-104224074D01*
X157080412Y-105694074D02*
X159540412Y-105694074D01*
X157080412Y-104224074D02*
X157080412Y-105694074D01*
%TO.C,MX54*%
X150016024Y-85175298D02*
X147556024Y-85175298D01*
X147556024Y-86645298D02*
X150016024Y-86645298D01*
X147556024Y-85175298D02*
X147556024Y-86645298D01*
%TO.C,MX53*%
X145253830Y-66126522D02*
X142793830Y-66126522D01*
X142793830Y-67596522D02*
X145253830Y-67596522D01*
X142793830Y-66126522D02*
X142793830Y-67596522D01*
%TO.C,MX52*%
X135729442Y-47077746D02*
X133269442Y-47077746D01*
X133269442Y-48547746D02*
X135729442Y-48547746D01*
X133269442Y-47077746D02*
X133269442Y-48547746D01*
%TO.C,MX51*%
X135729442Y-28028970D02*
X133269442Y-28028970D01*
X133269442Y-29498970D02*
X135729442Y-29498970D01*
X133269442Y-28028970D02*
X133269442Y-29498970D01*
%TO.C,MX50*%
X140491636Y-104224074D02*
X138031636Y-104224074D01*
X138031636Y-105694074D02*
X140491636Y-105694074D01*
X138031636Y-104224074D02*
X138031636Y-105694074D01*
%TO.C,MX49*%
X130967248Y-85175298D02*
X128507248Y-85175298D01*
X128507248Y-86645298D02*
X130967248Y-86645298D01*
X128507248Y-85175298D02*
X128507248Y-86645298D01*
%TO.C,MX48*%
X126205054Y-66126522D02*
X123745054Y-66126522D01*
X123745054Y-67596522D02*
X126205054Y-67596522D01*
X123745054Y-66126522D02*
X123745054Y-67596522D01*
%TO.C,MX47*%
X116680666Y-47077746D02*
X114220666Y-47077746D01*
X114220666Y-48547746D02*
X116680666Y-48547746D01*
X114220666Y-47077746D02*
X114220666Y-48547746D01*
%TO.C,MX46*%
X116680666Y-28028970D02*
X114220666Y-28028970D01*
X114220666Y-29498970D02*
X116680666Y-29498970D01*
X114220666Y-28028970D02*
X114220666Y-29498970D01*
%TO.C,MX44*%
X121442860Y-104224074D02*
X118982860Y-104224074D01*
X118982860Y-105694074D02*
X121442860Y-105694074D01*
X118982860Y-104224074D02*
X118982860Y-105694074D01*
%TO.C,MX43*%
X111918472Y-85175298D02*
X109458472Y-85175298D01*
X109458472Y-86645298D02*
X111918472Y-86645298D01*
X109458472Y-85175298D02*
X109458472Y-86645298D01*
%TO.C,MX42*%
X107156278Y-66126522D02*
X104696278Y-66126522D01*
X104696278Y-67596522D02*
X107156278Y-67596522D01*
X104696278Y-66126522D02*
X104696278Y-67596522D01*
%TO.C,MX41*%
X97631890Y-47077746D02*
X95171890Y-47077746D01*
X95171890Y-48547746D02*
X97631890Y-48547746D01*
X95171890Y-47077746D02*
X95171890Y-48547746D01*
%TO.C,MX40*%
X97631890Y-28028970D02*
X95171890Y-28028970D01*
X95171890Y-29498970D02*
X97631890Y-29498970D01*
X95171890Y-28028970D02*
X95171890Y-29498970D01*
%TO.C,MX39*%
X88028752Y-123272850D02*
X88028752Y-124742850D01*
X88028752Y-124742850D02*
X90488752Y-124742850D01*
X90488752Y-123272850D02*
X88028752Y-123272850D01*
%TO.C,MX38*%
X102394084Y-104224074D02*
X99934084Y-104224074D01*
X99934084Y-105694074D02*
X102394084Y-105694074D01*
X99934084Y-104224074D02*
X99934084Y-105694074D01*
%TO.C,MX37*%
X92869696Y-85175298D02*
X90409696Y-85175298D01*
X90409696Y-86645298D02*
X92869696Y-86645298D01*
X90409696Y-85175298D02*
X90409696Y-86645298D01*
%TO.C,MX36*%
X88107502Y-66126522D02*
X85647502Y-66126522D01*
X85647502Y-67596522D02*
X88107502Y-67596522D01*
X85647502Y-66126522D02*
X85647502Y-67596522D01*
%TO.C,MX35*%
X78583114Y-47077746D02*
X76123114Y-47077746D01*
X76123114Y-48547746D02*
X78583114Y-48547746D01*
X76123114Y-47077746D02*
X76123114Y-48547746D01*
%TO.C,MX34*%
X78583114Y-28028970D02*
X76123114Y-28028970D01*
X76123114Y-29498970D02*
X78583114Y-29498970D01*
X76123114Y-28028970D02*
X76123114Y-29498970D01*
%TO.C,MX32*%
X83345308Y-104224074D02*
X80885308Y-104224074D01*
X80885308Y-105694074D02*
X83345308Y-105694074D01*
X80885308Y-104224074D02*
X80885308Y-105694074D01*
%TO.C,MX31*%
X73820920Y-85175298D02*
X71360920Y-85175298D01*
X71360920Y-86645298D02*
X73820920Y-86645298D01*
X71360920Y-85175298D02*
X71360920Y-86645298D01*
%TO.C,MX30*%
X69058726Y-66126522D02*
X66598726Y-66126522D01*
X66598726Y-67596522D02*
X69058726Y-67596522D01*
X66598726Y-66126522D02*
X66598726Y-67596522D01*
%TO.C,MX29*%
X59534338Y-47077746D02*
X57074338Y-47077746D01*
X57074338Y-48547746D02*
X59534338Y-48547746D01*
X57074338Y-47077746D02*
X57074338Y-48547746D01*
%TO.C,MX28*%
X59534338Y-28028970D02*
X57074338Y-28028970D01*
X57074338Y-29498970D02*
X59534338Y-29498970D01*
X57074338Y-28028970D02*
X57074338Y-29498970D01*
%TO.C,MX27*%
X40406812Y-123272850D02*
X40406812Y-124742850D01*
X40406812Y-124742850D02*
X42866812Y-124742850D01*
X42866812Y-123272850D02*
X40406812Y-123272850D01*
%TO.C,MX26*%
X52391812Y-104224074D02*
X49931812Y-104224074D01*
X49931812Y-105694074D02*
X52391812Y-105694074D01*
X49931812Y-104224074D02*
X49931812Y-105694074D01*
%TO.C,MX25*%
X45169312Y-85175298D02*
X45169312Y-86645298D01*
X45169312Y-86645298D02*
X47629312Y-86645298D01*
X47629312Y-85175298D02*
X45169312Y-85175298D01*
%TO.C,MX24*%
X42788062Y-66126522D02*
X42788062Y-67596522D01*
X42788062Y-67596522D02*
X45248062Y-67596522D01*
X45248062Y-66126522D02*
X42788062Y-66126522D01*
%TO.C,MX23*%
X40485562Y-47077746D02*
X38025562Y-47077746D01*
X38025562Y-48547746D02*
X40485562Y-48547746D01*
X38025562Y-47077746D02*
X38025562Y-48547746D01*
%TO.C,MX22*%
X40485562Y-28028970D02*
X38025562Y-28028970D01*
X38025562Y-29498970D02*
X40485562Y-29498970D01*
X38025562Y-28028970D02*
X38025562Y-29498970D01*
%TO.C,D4*%
D12*
X177289859Y-129398634D02*
X176289859Y-129398634D01*
X176289859Y-129160539D01*
X176337479Y-129017681D01*
X176432717Y-128922443D01*
X176527955Y-128874824D01*
X176718431Y-128827205D01*
X176861288Y-128827205D01*
X177051764Y-128874824D01*
X177147002Y-128922443D01*
X177242240Y-129017681D01*
X177289859Y-129160539D01*
X177289859Y-129398634D01*
X176623193Y-127970062D02*
X177289859Y-127970062D01*
X176242240Y-128208158D02*
X176956526Y-128446253D01*
X176956526Y-127827205D01*
%TO.C,D3*%
X210625217Y-129398634D02*
X209625217Y-129398634D01*
X209625217Y-129160539D01*
X209672837Y-129017681D01*
X209768075Y-128922443D01*
X209863313Y-128874824D01*
X210053789Y-128827205D01*
X210196646Y-128827205D01*
X210387122Y-128874824D01*
X210482360Y-128922443D01*
X210577598Y-129017681D01*
X210625217Y-129160539D01*
X210625217Y-129398634D01*
X209625217Y-128493872D02*
X209625217Y-127874824D01*
X210006170Y-128208158D01*
X210006170Y-128065300D01*
X210053789Y-127970062D01*
X210101408Y-127922443D01*
X210196646Y-127874824D01*
X210434741Y-127874824D01*
X210529979Y-127922443D01*
X210577598Y-127970062D01*
X210625217Y-128065300D01*
X210625217Y-128351015D01*
X210577598Y-128446253D01*
X210529979Y-128493872D01*
%TO.C,D2*%
X111412842Y-129398634D02*
X110412842Y-129398634D01*
X110412842Y-129160539D01*
X110460462Y-129017681D01*
X110555700Y-128922443D01*
X110650938Y-128874824D01*
X110841414Y-128827205D01*
X110984271Y-128827205D01*
X111174747Y-128874824D01*
X111269985Y-128922443D01*
X111365223Y-129017681D01*
X111412842Y-129160539D01*
X111412842Y-129398634D01*
X110508081Y-128446253D02*
X110460462Y-128398634D01*
X110412842Y-128303396D01*
X110412842Y-128065300D01*
X110460462Y-127970062D01*
X110508081Y-127922443D01*
X110603319Y-127874824D01*
X110698557Y-127874824D01*
X110841414Y-127922443D01*
X111412842Y-128493872D01*
X111412842Y-127874824D01*
%TO.C,D1*%
X147922996Y-129398634D02*
X146922996Y-129398634D01*
X146922996Y-129160539D01*
X146970616Y-129017681D01*
X147065854Y-128922443D01*
X147161092Y-128874824D01*
X147351568Y-128827205D01*
X147494425Y-128827205D01*
X147684901Y-128874824D01*
X147780139Y-128922443D01*
X147875377Y-129017681D01*
X147922996Y-129160539D01*
X147922996Y-129398634D01*
X147922996Y-127874824D02*
X147922996Y-128446253D01*
X147922996Y-128160539D02*
X146922996Y-128160539D01*
X147065854Y-128255777D01*
X147161092Y-128351015D01*
X147208711Y-128446253D01*
%TO.C,R2*%
X306576395Y-27598350D02*
X306243062Y-27122160D01*
X306004966Y-27598350D02*
X306004966Y-26598350D01*
X306385919Y-26598350D01*
X306481157Y-26645970D01*
X306528776Y-26693589D01*
X306576395Y-26788827D01*
X306576395Y-26931684D01*
X306528776Y-27026922D01*
X306481157Y-27074541D01*
X306385919Y-27122160D01*
X306004966Y-27122160D01*
X306957347Y-26693589D02*
X307004966Y-26645970D01*
X307100204Y-26598350D01*
X307338300Y-26598350D01*
X307433538Y-26645970D01*
X307481157Y-26693589D01*
X307528776Y-26788827D01*
X307528776Y-26884065D01*
X307481157Y-27026922D01*
X306909728Y-27598350D01*
X307528776Y-27598350D01*
%TO.C,R1*%
X304417395Y-29691350D02*
X304084062Y-29215160D01*
X303845966Y-29691350D02*
X303845966Y-28691350D01*
X304226919Y-28691350D01*
X304322157Y-28738970D01*
X304369776Y-28786589D01*
X304417395Y-28881827D01*
X304417395Y-29024684D01*
X304369776Y-29119922D01*
X304322157Y-29167541D01*
X304226919Y-29215160D01*
X303845966Y-29215160D01*
X305369776Y-29691350D02*
X304798347Y-29691350D01*
X305084062Y-29691350D02*
X305084062Y-28691350D01*
X304988823Y-28834208D01*
X304893585Y-28929446D01*
X304798347Y-28977065D01*
%TD*%
M02*
