%TF.GenerationSoftware,KiCad,Pcbnew,(5.1.9)-1*%
%TF.CreationDate,2021-08-25T16:21:07-05:00*%
%TF.ProjectId,Full_75,46756c6c-5f37-4352-9e6b-696361645f70,rev?*%
%TF.SameCoordinates,Original*%
%TF.FileFunction,Soldermask,Top*%
%TF.FilePolarity,Negative*%
%FSLAX46Y46*%
G04 Gerber Fmt 4.6, Leading zero omitted, Abs format (unit mm)*
G04 Created by KiCad (PCBNEW (5.1.9)-1) date 2021-08-25 16:21:07*
%MOMM*%
%LPD*%
G01*
G04 APERTURE LIST*
%ADD10C,2.200000*%
%ADD11C,1.524000*%
%ADD12O,1.200000X1.750000*%
%ADD13C,3.987800*%
%ADD14C,3.048000*%
%ADD15C,1.750000*%
%ADD16O,0.900000X1.700000*%
%ADD17O,0.900000X2.400000*%
%ADD18C,0.650000*%
%ADD19O,1.700000X1.700000*%
%ADD20R,1.700000X1.700000*%
G04 APERTURE END LIST*
D10*
%TO.C,REF\u002A\u002A*%
X101593472Y-96037579D03*
%TD*%
%TO.C,REF\u002A\u002A*%
X163501994Y-38891251D03*
%TD*%
%TO.C,REF\u002A\u002A*%
X68258114Y-38891251D03*
%TD*%
%TO.C,REF\u002A\u002A*%
X258745874Y-38891251D03*
%TD*%
%TO.C,REF\u002A\u002A*%
X192075158Y-76988803D03*
%TD*%
%TO.C,REF\u002A\u002A*%
X58733726Y-76988803D03*
%TD*%
%TO.C,REF\u002A\u002A*%
X273032456Y-96037579D03*
%TD*%
%TO.C,REF\u002A\u002A*%
X77782502Y-134135131D03*
%TD*%
%TO.C,REF\u002A\u002A*%
X149215412Y-115086355D03*
%TD*%
%TO.C,REF\u002A\u002A*%
X225410516Y-115086355D03*
%TD*%
%TO.C,REF\u002A\u002A*%
X277794650Y-133341432D03*
%TD*%
D11*
%TO.C,J2*%
X35240562Y-61910970D03*
X31481362Y-61910970D03*
X31481362Y-66990970D03*
X35240562Y-64450970D03*
X35240562Y-66990970D03*
%TD*%
D12*
%TO.C,J1*%
X294828562Y-41590970D03*
G36*
G01*
X297428562Y-40965969D02*
X297428562Y-42215971D01*
G75*
G02*
X297178563Y-42465970I-249999J0D01*
G01*
X296478561Y-42465970D01*
G75*
G02*
X296228562Y-42215971I0J249999D01*
G01*
X296228562Y-40965969D01*
G75*
G02*
X296478561Y-40715970I249999J0D01*
G01*
X297178563Y-40715970D01*
G75*
G02*
X297428562Y-40965969I0J-249999D01*
G01*
G37*
%TD*%
%TO.C,MX93*%
G36*
G01*
X294813706Y-86147798D02*
X294813706Y-85672798D01*
G75*
G02*
X295051206Y-85435298I237500J0D01*
G01*
X295626206Y-85435298D01*
G75*
G02*
X295863706Y-85672798I0J-237500D01*
G01*
X295863706Y-86147798D01*
G75*
G02*
X295626206Y-86385298I-237500J0D01*
G01*
X295051206Y-86385298D01*
G75*
G02*
X294813706Y-86147798I0J237500D01*
G01*
G37*
G36*
G01*
X293063706Y-86147798D02*
X293063706Y-85672798D01*
G75*
G02*
X293301206Y-85435298I237500J0D01*
G01*
X293876206Y-85435298D01*
G75*
G02*
X294113706Y-85672798I0J-237500D01*
G01*
X294113706Y-86147798D01*
G75*
G02*
X293876206Y-86385298I-237500J0D01*
G01*
X293301206Y-86385298D01*
G75*
G02*
X293063706Y-86147798I0J237500D01*
G01*
G37*
D13*
X306401706Y-98737298D03*
X282525706Y-98737298D03*
D14*
X306401706Y-83497298D03*
X282525706Y-83497298D03*
D15*
X289383706Y-90482298D03*
X299543706Y-90482298D03*
D13*
X294463706Y-90482298D03*
%TD*%
%TO.C,MX45*%
G36*
G01*
X128137222Y-124245350D02*
X128137222Y-123770350D01*
G75*
G02*
X128374722Y-123532850I237500J0D01*
G01*
X128949722Y-123532850D01*
G75*
G02*
X129187222Y-123770350I0J-237500D01*
G01*
X129187222Y-124245350D01*
G75*
G02*
X128949722Y-124482850I-237500J0D01*
G01*
X128374722Y-124482850D01*
G75*
G02*
X128137222Y-124245350I0J237500D01*
G01*
G37*
G36*
G01*
X126387222Y-124245350D02*
X126387222Y-123770350D01*
G75*
G02*
X126624722Y-123532850I237500J0D01*
G01*
X127199722Y-123532850D01*
G75*
G02*
X127437222Y-123770350I0J-237500D01*
G01*
X127437222Y-124245350D01*
G75*
G02*
X127199722Y-124482850I-237500J0D01*
G01*
X126624722Y-124482850D01*
G75*
G02*
X126387222Y-124245350I0J237500D01*
G01*
G37*
X139725222Y-136834850D03*
X115849222Y-136834850D03*
D14*
X139725222Y-121594850D03*
X115849222Y-121594850D03*
D15*
X122707222Y-128579850D03*
X132867222Y-128579850D03*
D13*
X127787222Y-128579850D03*
%TD*%
%TO.C,MX33*%
G36*
G01*
X66227782Y-124245350D02*
X66227782Y-123770350D01*
G75*
G02*
X66465282Y-123532850I237500J0D01*
G01*
X67040282Y-123532850D01*
G75*
G02*
X67277782Y-123770350I0J-237500D01*
G01*
X67277782Y-124245350D01*
G75*
G02*
X67040282Y-124482850I-237500J0D01*
G01*
X66465282Y-124482850D01*
G75*
G02*
X66227782Y-124245350I0J237500D01*
G01*
G37*
G36*
G01*
X64477782Y-124245350D02*
X64477782Y-123770350D01*
G75*
G02*
X64715282Y-123532850I237500J0D01*
G01*
X65290282Y-123532850D01*
G75*
G02*
X65527782Y-123770350I0J-237500D01*
G01*
X65527782Y-124245350D01*
G75*
G02*
X65290282Y-124482850I-237500J0D01*
G01*
X64715282Y-124482850D01*
G75*
G02*
X64477782Y-124245350I0J237500D01*
G01*
G37*
D15*
X60797782Y-128579850D03*
X70957782Y-128579850D03*
D13*
X65877782Y-128579850D03*
%TD*%
%TO.C,D4*%
G36*
G01*
X175169979Y-129010539D02*
X175644979Y-129010539D01*
G75*
G02*
X175882479Y-129248039I0J-237500D01*
G01*
X175882479Y-129823039D01*
G75*
G02*
X175644979Y-130060539I-237500J0D01*
G01*
X175169979Y-130060539D01*
G75*
G02*
X174932479Y-129823039I0J237500D01*
G01*
X174932479Y-129248039D01*
G75*
G02*
X175169979Y-129010539I237500J0D01*
G01*
G37*
G36*
G01*
X175169979Y-127260539D02*
X175644979Y-127260539D01*
G75*
G02*
X175882479Y-127498039I0J-237500D01*
G01*
X175882479Y-128073039D01*
G75*
G02*
X175644979Y-128310539I-237500J0D01*
G01*
X175169979Y-128310539D01*
G75*
G02*
X174932479Y-128073039I0J237500D01*
G01*
X174932479Y-127498039D01*
G75*
G02*
X175169979Y-127260539I237500J0D01*
G01*
G37*
%TD*%
%TO.C,D3*%
G36*
G01*
X208505337Y-129010539D02*
X208980337Y-129010539D01*
G75*
G02*
X209217837Y-129248039I0J-237500D01*
G01*
X209217837Y-129823039D01*
G75*
G02*
X208980337Y-130060539I-237500J0D01*
G01*
X208505337Y-130060539D01*
G75*
G02*
X208267837Y-129823039I0J237500D01*
G01*
X208267837Y-129248039D01*
G75*
G02*
X208505337Y-129010539I237500J0D01*
G01*
G37*
G36*
G01*
X208505337Y-127260539D02*
X208980337Y-127260539D01*
G75*
G02*
X209217837Y-127498039I0J-237500D01*
G01*
X209217837Y-128073039D01*
G75*
G02*
X208980337Y-128310539I-237500J0D01*
G01*
X208505337Y-128310539D01*
G75*
G02*
X208267837Y-128073039I0J237500D01*
G01*
X208267837Y-127498039D01*
G75*
G02*
X208505337Y-127260539I237500J0D01*
G01*
G37*
%TD*%
%TO.C,D2*%
G36*
G01*
X109292962Y-129010539D02*
X109767962Y-129010539D01*
G75*
G02*
X110005462Y-129248039I0J-237500D01*
G01*
X110005462Y-129823039D01*
G75*
G02*
X109767962Y-130060539I-237500J0D01*
G01*
X109292962Y-130060539D01*
G75*
G02*
X109055462Y-129823039I0J237500D01*
G01*
X109055462Y-129248039D01*
G75*
G02*
X109292962Y-129010539I237500J0D01*
G01*
G37*
G36*
G01*
X109292962Y-127260539D02*
X109767962Y-127260539D01*
G75*
G02*
X110005462Y-127498039I0J-237500D01*
G01*
X110005462Y-128073039D01*
G75*
G02*
X109767962Y-128310539I-237500J0D01*
G01*
X109292962Y-128310539D01*
G75*
G02*
X109055462Y-128073039I0J237500D01*
G01*
X109055462Y-127498039D01*
G75*
G02*
X109292962Y-127260539I237500J0D01*
G01*
G37*
%TD*%
%TO.C,D1*%
G36*
G01*
X145803116Y-129010539D02*
X146278116Y-129010539D01*
G75*
G02*
X146515616Y-129248039I0J-237500D01*
G01*
X146515616Y-129823039D01*
G75*
G02*
X146278116Y-130060539I-237500J0D01*
G01*
X145803116Y-130060539D01*
G75*
G02*
X145565616Y-129823039I0J237500D01*
G01*
X145565616Y-129248039D01*
G75*
G02*
X145803116Y-129010539I237500J0D01*
G01*
G37*
G36*
G01*
X145803116Y-127260539D02*
X146278116Y-127260539D01*
G75*
G02*
X146515616Y-127498039I0J-237500D01*
G01*
X146515616Y-128073039D01*
G75*
G02*
X146278116Y-128310539I-237500J0D01*
G01*
X145803116Y-128310539D01*
G75*
G02*
X145565616Y-128073039I0J237500D01*
G01*
X145565616Y-127498039D01*
G75*
G02*
X145803116Y-127260539I237500J0D01*
G01*
G37*
%TD*%
D16*
%TO.C,USB1*%
X311145562Y-24530970D03*
X302495562Y-24530970D03*
D17*
X311145562Y-27910970D03*
X302495562Y-27910970D03*
D18*
X309800562Y-27565970D03*
X308950562Y-27565970D03*
X308100562Y-27565970D03*
X307250562Y-27565970D03*
X306400562Y-27565970D03*
X305550562Y-27565970D03*
X304700562Y-27565970D03*
X303845562Y-27565970D03*
X309795562Y-28890970D03*
X308945562Y-28890970D03*
X308095562Y-28890970D03*
X307245562Y-28890970D03*
X306395562Y-28890970D03*
X304695562Y-28890970D03*
X303845562Y-28890970D03*
X305545562Y-28890970D03*
%TD*%
D19*
%TO.C,SW1*%
X299224523Y-29366863D03*
D20*
X299224523Y-26826863D03*
%TD*%
%TO.C,R2*%
G36*
G01*
X306318062Y-25478470D02*
X306318062Y-25953470D01*
G75*
G02*
X306080562Y-26190970I-237500J0D01*
G01*
X305580562Y-26190970D01*
G75*
G02*
X305343062Y-25953470I0J237500D01*
G01*
X305343062Y-25478470D01*
G75*
G02*
X305580562Y-25240970I237500J0D01*
G01*
X306080562Y-25240970D01*
G75*
G02*
X306318062Y-25478470I0J-237500D01*
G01*
G37*
G36*
G01*
X308143062Y-25478470D02*
X308143062Y-25953470D01*
G75*
G02*
X307905562Y-26190970I-237500J0D01*
G01*
X307405562Y-26190970D01*
G75*
G02*
X307168062Y-25953470I0J237500D01*
G01*
X307168062Y-25478470D01*
G75*
G02*
X307405562Y-25240970I237500J0D01*
G01*
X307905562Y-25240970D01*
G75*
G02*
X308143062Y-25478470I0J-237500D01*
G01*
G37*
%TD*%
%TO.C,R1*%
G36*
G01*
X305009062Y-30906470D02*
X305009062Y-30431470D01*
G75*
G02*
X305246562Y-30193970I237500J0D01*
G01*
X305746562Y-30193970D01*
G75*
G02*
X305984062Y-30431470I0J-237500D01*
G01*
X305984062Y-30906470D01*
G75*
G02*
X305746562Y-31143970I-237500J0D01*
G01*
X305246562Y-31143970D01*
G75*
G02*
X305009062Y-30906470I0J237500D01*
G01*
G37*
G36*
G01*
X303184062Y-30906470D02*
X303184062Y-30431470D01*
G75*
G02*
X303421562Y-30193970I237500J0D01*
G01*
X303921562Y-30193970D01*
G75*
G02*
X304159062Y-30431470I0J-237500D01*
G01*
X304159062Y-30906470D01*
G75*
G02*
X303921562Y-31143970I-237500J0D01*
G01*
X303421562Y-31143970D01*
G75*
G02*
X303184062Y-30906470I0J237500D01*
G01*
G37*
%TD*%
%TO.C,MX99*%
G36*
G01*
X287669650Y-48050246D02*
X287669650Y-47575246D01*
G75*
G02*
X287907150Y-47337746I237500J0D01*
G01*
X288482150Y-47337746D01*
G75*
G02*
X288719650Y-47575246I0J-237500D01*
G01*
X288719650Y-48050246D01*
G75*
G02*
X288482150Y-48287746I-237500J0D01*
G01*
X287907150Y-48287746D01*
G75*
G02*
X287669650Y-48050246I0J237500D01*
G01*
G37*
G36*
G01*
X285919650Y-48050246D02*
X285919650Y-47575246D01*
G75*
G02*
X286157150Y-47337746I237500J0D01*
G01*
X286732150Y-47337746D01*
G75*
G02*
X286969650Y-47575246I0J-237500D01*
G01*
X286969650Y-48050246D01*
G75*
G02*
X286732150Y-48287746I-237500J0D01*
G01*
X286157150Y-48287746D01*
G75*
G02*
X285919650Y-48050246I0J237500D01*
G01*
G37*
D15*
X282239650Y-52384746D03*
X292399650Y-52384746D03*
D13*
X287319650Y-52384746D03*
%TD*%
%TO.C,MX98*%
G36*
G01*
X287669650Y-29001470D02*
X287669650Y-28526470D01*
G75*
G02*
X287907150Y-28288970I237500J0D01*
G01*
X288482150Y-28288970D01*
G75*
G02*
X288719650Y-28526470I0J-237500D01*
G01*
X288719650Y-29001470D01*
G75*
G02*
X288482150Y-29238970I-237500J0D01*
G01*
X287907150Y-29238970D01*
G75*
G02*
X287669650Y-29001470I0J237500D01*
G01*
G37*
G36*
G01*
X285919650Y-29001470D02*
X285919650Y-28526470D01*
G75*
G02*
X286157150Y-28288970I237500J0D01*
G01*
X286732150Y-28288970D01*
G75*
G02*
X286969650Y-28526470I0J-237500D01*
G01*
X286969650Y-29001470D01*
G75*
G02*
X286732150Y-29238970I-237500J0D01*
G01*
X286157150Y-29238970D01*
G75*
G02*
X285919650Y-29001470I0J237500D01*
G01*
G37*
D15*
X282239650Y-33335970D03*
X292399650Y-33335970D03*
D13*
X287319650Y-33335970D03*
%TD*%
%TO.C,MX97*%
G36*
G01*
X306718426Y-124245350D02*
X306718426Y-123770350D01*
G75*
G02*
X306955926Y-123532850I237500J0D01*
G01*
X307530926Y-123532850D01*
G75*
G02*
X307768426Y-123770350I0J-237500D01*
G01*
X307768426Y-124245350D01*
G75*
G02*
X307530926Y-124482850I-237500J0D01*
G01*
X306955926Y-124482850D01*
G75*
G02*
X306718426Y-124245350I0J237500D01*
G01*
G37*
G36*
G01*
X304968426Y-124245350D02*
X304968426Y-123770350D01*
G75*
G02*
X305205926Y-123532850I237500J0D01*
G01*
X305780926Y-123532850D01*
G75*
G02*
X306018426Y-123770350I0J-237500D01*
G01*
X306018426Y-124245350D01*
G75*
G02*
X305780926Y-124482850I-237500J0D01*
G01*
X305205926Y-124482850D01*
G75*
G02*
X304968426Y-124245350I0J237500D01*
G01*
G37*
D15*
X301288426Y-128579850D03*
X311448426Y-128579850D03*
D13*
X306368426Y-128579850D03*
%TD*%
%TO.C,MX96*%
G36*
G01*
X300206538Y-67099022D02*
X300206538Y-66624022D01*
G75*
G02*
X300444038Y-66386522I237500J0D01*
G01*
X301019038Y-66386522D01*
G75*
G02*
X301256538Y-66624022I0J-237500D01*
G01*
X301256538Y-67099022D01*
G75*
G02*
X301019038Y-67336522I-237500J0D01*
G01*
X300444038Y-67336522D01*
G75*
G02*
X300206538Y-67099022I0J237500D01*
G01*
G37*
G36*
G01*
X301956538Y-67099022D02*
X301956538Y-66624022D01*
G75*
G02*
X302194038Y-66386522I237500J0D01*
G01*
X302769038Y-66386522D01*
G75*
G02*
X303006538Y-66624022I0J-237500D01*
G01*
X303006538Y-67099022D01*
G75*
G02*
X302769038Y-67336522I-237500J0D01*
G01*
X302194038Y-67336522D01*
G75*
G02*
X301956538Y-67099022I0J237500D01*
G01*
G37*
D15*
X296526538Y-71433522D03*
X306686538Y-71433522D03*
D13*
X301606538Y-71433522D03*
%TD*%
%TO.C,MX95*%
G36*
G01*
X287669650Y-124245350D02*
X287669650Y-123770350D01*
G75*
G02*
X287907150Y-123532850I237500J0D01*
G01*
X288482150Y-123532850D01*
G75*
G02*
X288719650Y-123770350I0J-237500D01*
G01*
X288719650Y-124245350D01*
G75*
G02*
X288482150Y-124482850I-237500J0D01*
G01*
X287907150Y-124482850D01*
G75*
G02*
X287669650Y-124245350I0J237500D01*
G01*
G37*
G36*
G01*
X285919650Y-124245350D02*
X285919650Y-123770350D01*
G75*
G02*
X286157150Y-123532850I237500J0D01*
G01*
X286732150Y-123532850D01*
G75*
G02*
X286969650Y-123770350I0J-237500D01*
G01*
X286969650Y-124245350D01*
G75*
G02*
X286732150Y-124482850I-237500J0D01*
G01*
X286157150Y-124482850D01*
G75*
G02*
X285919650Y-124245350I0J237500D01*
G01*
G37*
D15*
X282239650Y-128579850D03*
X292399650Y-128579850D03*
D13*
X287319650Y-128579850D03*
%TD*%
%TO.C,MX94*%
G36*
G01*
X287669650Y-105196574D02*
X287669650Y-104721574D01*
G75*
G02*
X287907150Y-104484074I237500J0D01*
G01*
X288482150Y-104484074D01*
G75*
G02*
X288719650Y-104721574I0J-237500D01*
G01*
X288719650Y-105196574D01*
G75*
G02*
X288482150Y-105434074I-237500J0D01*
G01*
X287907150Y-105434074D01*
G75*
G02*
X287669650Y-105196574I0J237500D01*
G01*
G37*
G36*
G01*
X285919650Y-105196574D02*
X285919650Y-104721574D01*
G75*
G02*
X286157150Y-104484074I237500J0D01*
G01*
X286732150Y-104484074D01*
G75*
G02*
X286969650Y-104721574I0J-237500D01*
G01*
X286969650Y-105196574D01*
G75*
G02*
X286732150Y-105434074I-237500J0D01*
G01*
X286157150Y-105434074D01*
G75*
G02*
X285919650Y-105196574I0J237500D01*
G01*
G37*
D15*
X282239650Y-109531074D03*
X292399650Y-109531074D03*
D13*
X287319650Y-109531074D03*
%TD*%
%TO.C,MX92*%
G36*
G01*
X278145262Y-67099022D02*
X278145262Y-66624022D01*
G75*
G02*
X278382762Y-66386522I237500J0D01*
G01*
X278957762Y-66386522D01*
G75*
G02*
X279195262Y-66624022I0J-237500D01*
G01*
X279195262Y-67099022D01*
G75*
G02*
X278957762Y-67336522I-237500J0D01*
G01*
X278382762Y-67336522D01*
G75*
G02*
X278145262Y-67099022I0J237500D01*
G01*
G37*
G36*
G01*
X276395262Y-67099022D02*
X276395262Y-66624022D01*
G75*
G02*
X276632762Y-66386522I237500J0D01*
G01*
X277207762Y-66386522D01*
G75*
G02*
X277445262Y-66624022I0J-237500D01*
G01*
X277445262Y-67099022D01*
G75*
G02*
X277207762Y-67336522I-237500J0D01*
G01*
X276632762Y-67336522D01*
G75*
G02*
X276395262Y-67099022I0J237500D01*
G01*
G37*
D15*
X272715262Y-71433522D03*
X282875262Y-71433522D03*
D13*
X277795262Y-71433522D03*
%TD*%
%TO.C,MX91*%
G36*
G01*
X268620874Y-48050246D02*
X268620874Y-47575246D01*
G75*
G02*
X268858374Y-47337746I237500J0D01*
G01*
X269433374Y-47337746D01*
G75*
G02*
X269670874Y-47575246I0J-237500D01*
G01*
X269670874Y-48050246D01*
G75*
G02*
X269433374Y-48287746I-237500J0D01*
G01*
X268858374Y-48287746D01*
G75*
G02*
X268620874Y-48050246I0J237500D01*
G01*
G37*
G36*
G01*
X266870874Y-48050246D02*
X266870874Y-47575246D01*
G75*
G02*
X267108374Y-47337746I237500J0D01*
G01*
X267683374Y-47337746D01*
G75*
G02*
X267920874Y-47575246I0J-237500D01*
G01*
X267920874Y-48050246D01*
G75*
G02*
X267683374Y-48287746I-237500J0D01*
G01*
X267108374Y-48287746D01*
G75*
G02*
X266870874Y-48050246I0J237500D01*
G01*
G37*
D15*
X263190874Y-52384746D03*
X273350874Y-52384746D03*
D13*
X268270874Y-52384746D03*
%TD*%
%TO.C,MX90*%
G36*
G01*
X268620874Y-29001470D02*
X268620874Y-28526470D01*
G75*
G02*
X268858374Y-28288970I237500J0D01*
G01*
X269433374Y-28288970D01*
G75*
G02*
X269670874Y-28526470I0J-237500D01*
G01*
X269670874Y-29001470D01*
G75*
G02*
X269433374Y-29238970I-237500J0D01*
G01*
X268858374Y-29238970D01*
G75*
G02*
X268620874Y-29001470I0J237500D01*
G01*
G37*
G36*
G01*
X266870874Y-29001470D02*
X266870874Y-28526470D01*
G75*
G02*
X267108374Y-28288970I237500J0D01*
G01*
X267683374Y-28288970D01*
G75*
G02*
X267920874Y-28526470I0J-237500D01*
G01*
X267920874Y-29001470D01*
G75*
G02*
X267683374Y-29238970I-237500J0D01*
G01*
X267108374Y-29238970D01*
G75*
G02*
X266870874Y-29001470I0J237500D01*
G01*
G37*
D15*
X263190874Y-33335970D03*
X273350874Y-33335970D03*
D13*
X268270874Y-33335970D03*
%TD*%
%TO.C,MX89*%
G36*
G01*
X263858680Y-86147798D02*
X263858680Y-85672798D01*
G75*
G02*
X264096180Y-85435298I237500J0D01*
G01*
X264671180Y-85435298D01*
G75*
G02*
X264908680Y-85672798I0J-237500D01*
G01*
X264908680Y-86147798D01*
G75*
G02*
X264671180Y-86385298I-237500J0D01*
G01*
X264096180Y-86385298D01*
G75*
G02*
X263858680Y-86147798I0J237500D01*
G01*
G37*
G36*
G01*
X262108680Y-86147798D02*
X262108680Y-85672798D01*
G75*
G02*
X262346180Y-85435298I237500J0D01*
G01*
X262921180Y-85435298D01*
G75*
G02*
X263158680Y-85672798I0J-237500D01*
G01*
X263158680Y-86147798D01*
G75*
G02*
X262921180Y-86385298I-237500J0D01*
G01*
X262346180Y-86385298D01*
G75*
G02*
X262108680Y-86147798I0J237500D01*
G01*
G37*
D15*
X258428680Y-90482298D03*
X268588680Y-90482298D03*
D13*
X263508680Y-90482298D03*
%TD*%
%TO.C,MX88*%
G36*
G01*
X259096486Y-67099022D02*
X259096486Y-66624022D01*
G75*
G02*
X259333986Y-66386522I237500J0D01*
G01*
X259908986Y-66386522D01*
G75*
G02*
X260146486Y-66624022I0J-237500D01*
G01*
X260146486Y-67099022D01*
G75*
G02*
X259908986Y-67336522I-237500J0D01*
G01*
X259333986Y-67336522D01*
G75*
G02*
X259096486Y-67099022I0J237500D01*
G01*
G37*
G36*
G01*
X257346486Y-67099022D02*
X257346486Y-66624022D01*
G75*
G02*
X257583986Y-66386522I237500J0D01*
G01*
X258158986Y-66386522D01*
G75*
G02*
X258396486Y-66624022I0J-237500D01*
G01*
X258396486Y-67099022D01*
G75*
G02*
X258158986Y-67336522I-237500J0D01*
G01*
X257583986Y-67336522D01*
G75*
G02*
X257346486Y-67099022I0J237500D01*
G01*
G37*
D15*
X253666486Y-71433522D03*
X263826486Y-71433522D03*
D13*
X258746486Y-71433522D03*
%TD*%
%TO.C,MX87*%
G36*
G01*
X249572098Y-48050246D02*
X249572098Y-47575246D01*
G75*
G02*
X249809598Y-47337746I237500J0D01*
G01*
X250384598Y-47337746D01*
G75*
G02*
X250622098Y-47575246I0J-237500D01*
G01*
X250622098Y-48050246D01*
G75*
G02*
X250384598Y-48287746I-237500J0D01*
G01*
X249809598Y-48287746D01*
G75*
G02*
X249572098Y-48050246I0J237500D01*
G01*
G37*
G36*
G01*
X247822098Y-48050246D02*
X247822098Y-47575246D01*
G75*
G02*
X248059598Y-47337746I237500J0D01*
G01*
X248634598Y-47337746D01*
G75*
G02*
X248872098Y-47575246I0J-237500D01*
G01*
X248872098Y-48050246D01*
G75*
G02*
X248634598Y-48287746I-237500J0D01*
G01*
X248059598Y-48287746D01*
G75*
G02*
X247822098Y-48050246I0J237500D01*
G01*
G37*
D15*
X244142098Y-52384746D03*
X254302098Y-52384746D03*
D13*
X249222098Y-52384746D03*
%TD*%
%TO.C,MX86*%
G36*
G01*
X249572098Y-29001470D02*
X249572098Y-28526470D01*
G75*
G02*
X249809598Y-28288970I237500J0D01*
G01*
X250384598Y-28288970D01*
G75*
G02*
X250622098Y-28526470I0J-237500D01*
G01*
X250622098Y-29001470D01*
G75*
G02*
X250384598Y-29238970I-237500J0D01*
G01*
X249809598Y-29238970D01*
G75*
G02*
X249572098Y-29001470I0J237500D01*
G01*
G37*
G36*
G01*
X247822098Y-29001470D02*
X247822098Y-28526470D01*
G75*
G02*
X248059598Y-28288970I237500J0D01*
G01*
X248634598Y-28288970D01*
G75*
G02*
X248872098Y-28526470I0J-237500D01*
G01*
X248872098Y-29001470D01*
G75*
G02*
X248634598Y-29238970I-237500J0D01*
G01*
X248059598Y-29238970D01*
G75*
G02*
X247822098Y-29001470I0J237500D01*
G01*
G37*
D15*
X244142098Y-33335970D03*
X254302098Y-33335970D03*
D13*
X249222098Y-33335970D03*
%TD*%
%TO.C,MX85*%
G36*
G01*
X268620874Y-124245350D02*
X268620874Y-123770350D01*
G75*
G02*
X268858374Y-123532850I237500J0D01*
G01*
X269433374Y-123532850D01*
G75*
G02*
X269670874Y-123770350I0J-237500D01*
G01*
X269670874Y-124245350D01*
G75*
G02*
X269433374Y-124482850I-237500J0D01*
G01*
X268858374Y-124482850D01*
G75*
G02*
X268620874Y-124245350I0J237500D01*
G01*
G37*
G36*
G01*
X266870874Y-124245350D02*
X266870874Y-123770350D01*
G75*
G02*
X267108374Y-123532850I237500J0D01*
G01*
X267683374Y-123532850D01*
G75*
G02*
X267920874Y-123770350I0J-237500D01*
G01*
X267920874Y-124245350D01*
G75*
G02*
X267683374Y-124482850I-237500J0D01*
G01*
X267108374Y-124482850D01*
G75*
G02*
X266870874Y-124245350I0J237500D01*
G01*
G37*
D15*
X263190874Y-128579850D03*
X273350874Y-128579850D03*
D13*
X268270874Y-128579850D03*
%TD*%
%TO.C,MX84*%
G36*
G01*
X254334292Y-105196574D02*
X254334292Y-104721574D01*
G75*
G02*
X254571792Y-104484074I237500J0D01*
G01*
X255146792Y-104484074D01*
G75*
G02*
X255384292Y-104721574I0J-237500D01*
G01*
X255384292Y-105196574D01*
G75*
G02*
X255146792Y-105434074I-237500J0D01*
G01*
X254571792Y-105434074D01*
G75*
G02*
X254334292Y-105196574I0J237500D01*
G01*
G37*
G36*
G01*
X252584292Y-105196574D02*
X252584292Y-104721574D01*
G75*
G02*
X252821792Y-104484074I237500J0D01*
G01*
X253396792Y-104484074D01*
G75*
G02*
X253634292Y-104721574I0J-237500D01*
G01*
X253634292Y-105196574D01*
G75*
G02*
X253396792Y-105434074I-237500J0D01*
G01*
X252821792Y-105434074D01*
G75*
G02*
X252584292Y-105196574I0J237500D01*
G01*
G37*
D15*
X248904292Y-109531074D03*
X259064292Y-109531074D03*
D13*
X253984292Y-109531074D03*
%TD*%
%TO.C,MX83*%
G36*
G01*
X244809904Y-86147798D02*
X244809904Y-85672798D01*
G75*
G02*
X245047404Y-85435298I237500J0D01*
G01*
X245622404Y-85435298D01*
G75*
G02*
X245859904Y-85672798I0J-237500D01*
G01*
X245859904Y-86147798D01*
G75*
G02*
X245622404Y-86385298I-237500J0D01*
G01*
X245047404Y-86385298D01*
G75*
G02*
X244809904Y-86147798I0J237500D01*
G01*
G37*
G36*
G01*
X243059904Y-86147798D02*
X243059904Y-85672798D01*
G75*
G02*
X243297404Y-85435298I237500J0D01*
G01*
X243872404Y-85435298D01*
G75*
G02*
X244109904Y-85672798I0J-237500D01*
G01*
X244109904Y-86147798D01*
G75*
G02*
X243872404Y-86385298I-237500J0D01*
G01*
X243297404Y-86385298D01*
G75*
G02*
X243059904Y-86147798I0J237500D01*
G01*
G37*
D15*
X239379904Y-90482298D03*
X249539904Y-90482298D03*
D13*
X244459904Y-90482298D03*
%TD*%
%TO.C,MX82*%
G36*
G01*
X240047710Y-67099022D02*
X240047710Y-66624022D01*
G75*
G02*
X240285210Y-66386522I237500J0D01*
G01*
X240860210Y-66386522D01*
G75*
G02*
X241097710Y-66624022I0J-237500D01*
G01*
X241097710Y-67099022D01*
G75*
G02*
X240860210Y-67336522I-237500J0D01*
G01*
X240285210Y-67336522D01*
G75*
G02*
X240047710Y-67099022I0J237500D01*
G01*
G37*
G36*
G01*
X238297710Y-67099022D02*
X238297710Y-66624022D01*
G75*
G02*
X238535210Y-66386522I237500J0D01*
G01*
X239110210Y-66386522D01*
G75*
G02*
X239347710Y-66624022I0J-237500D01*
G01*
X239347710Y-67099022D01*
G75*
G02*
X239110210Y-67336522I-237500J0D01*
G01*
X238535210Y-67336522D01*
G75*
G02*
X238297710Y-67099022I0J237500D01*
G01*
G37*
D15*
X234617710Y-71433522D03*
X244777710Y-71433522D03*
D13*
X239697710Y-71433522D03*
%TD*%
%TO.C,MX81*%
G36*
G01*
X230523322Y-48050246D02*
X230523322Y-47575246D01*
G75*
G02*
X230760822Y-47337746I237500J0D01*
G01*
X231335822Y-47337746D01*
G75*
G02*
X231573322Y-47575246I0J-237500D01*
G01*
X231573322Y-48050246D01*
G75*
G02*
X231335822Y-48287746I-237500J0D01*
G01*
X230760822Y-48287746D01*
G75*
G02*
X230523322Y-48050246I0J237500D01*
G01*
G37*
G36*
G01*
X228773322Y-48050246D02*
X228773322Y-47575246D01*
G75*
G02*
X229010822Y-47337746I237500J0D01*
G01*
X229585822Y-47337746D01*
G75*
G02*
X229823322Y-47575246I0J-237500D01*
G01*
X229823322Y-48050246D01*
G75*
G02*
X229585822Y-48287746I-237500J0D01*
G01*
X229010822Y-48287746D01*
G75*
G02*
X228773322Y-48050246I0J237500D01*
G01*
G37*
D15*
X225093322Y-52384746D03*
X235253322Y-52384746D03*
D13*
X230173322Y-52384746D03*
%TD*%
%TO.C,MX80*%
G36*
G01*
X230523322Y-29001470D02*
X230523322Y-28526470D01*
G75*
G02*
X230760822Y-28288970I237500J0D01*
G01*
X231335822Y-28288970D01*
G75*
G02*
X231573322Y-28526470I0J-237500D01*
G01*
X231573322Y-29001470D01*
G75*
G02*
X231335822Y-29238970I-237500J0D01*
G01*
X230760822Y-29238970D01*
G75*
G02*
X230523322Y-29001470I0J237500D01*
G01*
G37*
G36*
G01*
X228773322Y-29001470D02*
X228773322Y-28526470D01*
G75*
G02*
X229010822Y-28288970I237500J0D01*
G01*
X229585822Y-28288970D01*
G75*
G02*
X229823322Y-28526470I0J-237500D01*
G01*
X229823322Y-29001470D01*
G75*
G02*
X229585822Y-29238970I-237500J0D01*
G01*
X229010822Y-29238970D01*
G75*
G02*
X228773322Y-29001470I0J237500D01*
G01*
G37*
D15*
X225093322Y-33335970D03*
X235253322Y-33335970D03*
D13*
X230173322Y-33335970D03*
%TD*%
%TO.C,MX79*%
G36*
G01*
X244809904Y-124245350D02*
X244809904Y-123770350D01*
G75*
G02*
X245047404Y-123532850I237500J0D01*
G01*
X245622404Y-123532850D01*
G75*
G02*
X245859904Y-123770350I0J-237500D01*
G01*
X245859904Y-124245350D01*
G75*
G02*
X245622404Y-124482850I-237500J0D01*
G01*
X245047404Y-124482850D01*
G75*
G02*
X244809904Y-124245350I0J237500D01*
G01*
G37*
G36*
G01*
X243059904Y-124245350D02*
X243059904Y-123770350D01*
G75*
G02*
X243297404Y-123532850I237500J0D01*
G01*
X243872404Y-123532850D01*
G75*
G02*
X244109904Y-123770350I0J-237500D01*
G01*
X244109904Y-124245350D01*
G75*
G02*
X243872404Y-124482850I-237500J0D01*
G01*
X243297404Y-124482850D01*
G75*
G02*
X243059904Y-124245350I0J237500D01*
G01*
G37*
D15*
X239379904Y-128579850D03*
X249539904Y-128579850D03*
D13*
X244459904Y-128579850D03*
%TD*%
%TO.C,MX78*%
G36*
G01*
X235285516Y-105196574D02*
X235285516Y-104721574D01*
G75*
G02*
X235523016Y-104484074I237500J0D01*
G01*
X236098016Y-104484074D01*
G75*
G02*
X236335516Y-104721574I0J-237500D01*
G01*
X236335516Y-105196574D01*
G75*
G02*
X236098016Y-105434074I-237500J0D01*
G01*
X235523016Y-105434074D01*
G75*
G02*
X235285516Y-105196574I0J237500D01*
G01*
G37*
G36*
G01*
X233535516Y-105196574D02*
X233535516Y-104721574D01*
G75*
G02*
X233773016Y-104484074I237500J0D01*
G01*
X234348016Y-104484074D01*
G75*
G02*
X234585516Y-104721574I0J-237500D01*
G01*
X234585516Y-105196574D01*
G75*
G02*
X234348016Y-105434074I-237500J0D01*
G01*
X233773016Y-105434074D01*
G75*
G02*
X233535516Y-105196574I0J237500D01*
G01*
G37*
D15*
X229855516Y-109531074D03*
X240015516Y-109531074D03*
D13*
X234935516Y-109531074D03*
%TD*%
%TO.C,MX77*%
G36*
G01*
X225761128Y-86147798D02*
X225761128Y-85672798D01*
G75*
G02*
X225998628Y-85435298I237500J0D01*
G01*
X226573628Y-85435298D01*
G75*
G02*
X226811128Y-85672798I0J-237500D01*
G01*
X226811128Y-86147798D01*
G75*
G02*
X226573628Y-86385298I-237500J0D01*
G01*
X225998628Y-86385298D01*
G75*
G02*
X225761128Y-86147798I0J237500D01*
G01*
G37*
G36*
G01*
X224011128Y-86147798D02*
X224011128Y-85672798D01*
G75*
G02*
X224248628Y-85435298I237500J0D01*
G01*
X224823628Y-85435298D01*
G75*
G02*
X225061128Y-85672798I0J-237500D01*
G01*
X225061128Y-86147798D01*
G75*
G02*
X224823628Y-86385298I-237500J0D01*
G01*
X224248628Y-86385298D01*
G75*
G02*
X224011128Y-86147798I0J237500D01*
G01*
G37*
D15*
X220331128Y-90482298D03*
X230491128Y-90482298D03*
D13*
X225411128Y-90482298D03*
%TD*%
%TO.C,MX76*%
G36*
G01*
X220998934Y-67099022D02*
X220998934Y-66624022D01*
G75*
G02*
X221236434Y-66386522I237500J0D01*
G01*
X221811434Y-66386522D01*
G75*
G02*
X222048934Y-66624022I0J-237500D01*
G01*
X222048934Y-67099022D01*
G75*
G02*
X221811434Y-67336522I-237500J0D01*
G01*
X221236434Y-67336522D01*
G75*
G02*
X220998934Y-67099022I0J237500D01*
G01*
G37*
G36*
G01*
X219248934Y-67099022D02*
X219248934Y-66624022D01*
G75*
G02*
X219486434Y-66386522I237500J0D01*
G01*
X220061434Y-66386522D01*
G75*
G02*
X220298934Y-66624022I0J-237500D01*
G01*
X220298934Y-67099022D01*
G75*
G02*
X220061434Y-67336522I-237500J0D01*
G01*
X219486434Y-67336522D01*
G75*
G02*
X219248934Y-67099022I0J237500D01*
G01*
G37*
D15*
X215568934Y-71433522D03*
X225728934Y-71433522D03*
D13*
X220648934Y-71433522D03*
%TD*%
%TO.C,MX75*%
G36*
G01*
X211474546Y-48050246D02*
X211474546Y-47575246D01*
G75*
G02*
X211712046Y-47337746I237500J0D01*
G01*
X212287046Y-47337746D01*
G75*
G02*
X212524546Y-47575246I0J-237500D01*
G01*
X212524546Y-48050246D01*
G75*
G02*
X212287046Y-48287746I-237500J0D01*
G01*
X211712046Y-48287746D01*
G75*
G02*
X211474546Y-48050246I0J237500D01*
G01*
G37*
G36*
G01*
X209724546Y-48050246D02*
X209724546Y-47575246D01*
G75*
G02*
X209962046Y-47337746I237500J0D01*
G01*
X210537046Y-47337746D01*
G75*
G02*
X210774546Y-47575246I0J-237500D01*
G01*
X210774546Y-48050246D01*
G75*
G02*
X210537046Y-48287746I-237500J0D01*
G01*
X209962046Y-48287746D01*
G75*
G02*
X209724546Y-48050246I0J237500D01*
G01*
G37*
D15*
X206044546Y-52384746D03*
X216204546Y-52384746D03*
D13*
X211124546Y-52384746D03*
%TD*%
%TO.C,MX74*%
G36*
G01*
X211474546Y-29001470D02*
X211474546Y-28526470D01*
G75*
G02*
X211712046Y-28288970I237500J0D01*
G01*
X212287046Y-28288970D01*
G75*
G02*
X212524546Y-28526470I0J-237500D01*
G01*
X212524546Y-29001470D01*
G75*
G02*
X212287046Y-29238970I-237500J0D01*
G01*
X211712046Y-29238970D01*
G75*
G02*
X211474546Y-29001470I0J237500D01*
G01*
G37*
G36*
G01*
X209724546Y-29001470D02*
X209724546Y-28526470D01*
G75*
G02*
X209962046Y-28288970I237500J0D01*
G01*
X210537046Y-28288970D01*
G75*
G02*
X210774546Y-28526470I0J-237500D01*
G01*
X210774546Y-29001470D01*
G75*
G02*
X210537046Y-29238970I-237500J0D01*
G01*
X209962046Y-29238970D01*
G75*
G02*
X209724546Y-29001470I0J237500D01*
G01*
G37*
D15*
X206044546Y-33335970D03*
X216204546Y-33335970D03*
D13*
X211124546Y-33335970D03*
%TD*%
%TO.C,MX73*%
G36*
G01*
X225761128Y-124245350D02*
X225761128Y-123770350D01*
G75*
G02*
X225998628Y-123532850I237500J0D01*
G01*
X226573628Y-123532850D01*
G75*
G02*
X226811128Y-123770350I0J-237500D01*
G01*
X226811128Y-124245350D01*
G75*
G02*
X226573628Y-124482850I-237500J0D01*
G01*
X225998628Y-124482850D01*
G75*
G02*
X225761128Y-124245350I0J237500D01*
G01*
G37*
G36*
G01*
X224011128Y-124245350D02*
X224011128Y-123770350D01*
G75*
G02*
X224248628Y-123532850I237500J0D01*
G01*
X224823628Y-123532850D01*
G75*
G02*
X225061128Y-123770350I0J-237500D01*
G01*
X225061128Y-124245350D01*
G75*
G02*
X224823628Y-124482850I-237500J0D01*
G01*
X224248628Y-124482850D01*
G75*
G02*
X224011128Y-124245350I0J237500D01*
G01*
G37*
D15*
X220331128Y-128579850D03*
X230491128Y-128579850D03*
D13*
X225411128Y-128579850D03*
%TD*%
%TO.C,MX72*%
G36*
G01*
X216236740Y-105196574D02*
X216236740Y-104721574D01*
G75*
G02*
X216474240Y-104484074I237500J0D01*
G01*
X217049240Y-104484074D01*
G75*
G02*
X217286740Y-104721574I0J-237500D01*
G01*
X217286740Y-105196574D01*
G75*
G02*
X217049240Y-105434074I-237500J0D01*
G01*
X216474240Y-105434074D01*
G75*
G02*
X216236740Y-105196574I0J237500D01*
G01*
G37*
G36*
G01*
X214486740Y-105196574D02*
X214486740Y-104721574D01*
G75*
G02*
X214724240Y-104484074I237500J0D01*
G01*
X215299240Y-104484074D01*
G75*
G02*
X215536740Y-104721574I0J-237500D01*
G01*
X215536740Y-105196574D01*
G75*
G02*
X215299240Y-105434074I-237500J0D01*
G01*
X214724240Y-105434074D01*
G75*
G02*
X214486740Y-105196574I0J237500D01*
G01*
G37*
D15*
X210806740Y-109531074D03*
X220966740Y-109531074D03*
D13*
X215886740Y-109531074D03*
%TD*%
%TO.C,MX71*%
G36*
G01*
X206712352Y-86147798D02*
X206712352Y-85672798D01*
G75*
G02*
X206949852Y-85435298I237500J0D01*
G01*
X207524852Y-85435298D01*
G75*
G02*
X207762352Y-85672798I0J-237500D01*
G01*
X207762352Y-86147798D01*
G75*
G02*
X207524852Y-86385298I-237500J0D01*
G01*
X206949852Y-86385298D01*
G75*
G02*
X206712352Y-86147798I0J237500D01*
G01*
G37*
G36*
G01*
X204962352Y-86147798D02*
X204962352Y-85672798D01*
G75*
G02*
X205199852Y-85435298I237500J0D01*
G01*
X205774852Y-85435298D01*
G75*
G02*
X206012352Y-85672798I0J-237500D01*
G01*
X206012352Y-86147798D01*
G75*
G02*
X205774852Y-86385298I-237500J0D01*
G01*
X205199852Y-86385298D01*
G75*
G02*
X204962352Y-86147798I0J237500D01*
G01*
G37*
D15*
X201282352Y-90482298D03*
X211442352Y-90482298D03*
D13*
X206362352Y-90482298D03*
%TD*%
%TO.C,MX70*%
G36*
G01*
X201950158Y-67099022D02*
X201950158Y-66624022D01*
G75*
G02*
X202187658Y-66386522I237500J0D01*
G01*
X202762658Y-66386522D01*
G75*
G02*
X203000158Y-66624022I0J-237500D01*
G01*
X203000158Y-67099022D01*
G75*
G02*
X202762658Y-67336522I-237500J0D01*
G01*
X202187658Y-67336522D01*
G75*
G02*
X201950158Y-67099022I0J237500D01*
G01*
G37*
G36*
G01*
X200200158Y-67099022D02*
X200200158Y-66624022D01*
G75*
G02*
X200437658Y-66386522I237500J0D01*
G01*
X201012658Y-66386522D01*
G75*
G02*
X201250158Y-66624022I0J-237500D01*
G01*
X201250158Y-67099022D01*
G75*
G02*
X201012658Y-67336522I-237500J0D01*
G01*
X200437658Y-67336522D01*
G75*
G02*
X200200158Y-67099022I0J237500D01*
G01*
G37*
D15*
X196520158Y-71433522D03*
X206680158Y-71433522D03*
D13*
X201600158Y-71433522D03*
%TD*%
%TO.C,MX69*%
G36*
G01*
X192425770Y-48050246D02*
X192425770Y-47575246D01*
G75*
G02*
X192663270Y-47337746I237500J0D01*
G01*
X193238270Y-47337746D01*
G75*
G02*
X193475770Y-47575246I0J-237500D01*
G01*
X193475770Y-48050246D01*
G75*
G02*
X193238270Y-48287746I-237500J0D01*
G01*
X192663270Y-48287746D01*
G75*
G02*
X192425770Y-48050246I0J237500D01*
G01*
G37*
G36*
G01*
X190675770Y-48050246D02*
X190675770Y-47575246D01*
G75*
G02*
X190913270Y-47337746I237500J0D01*
G01*
X191488270Y-47337746D01*
G75*
G02*
X191725770Y-47575246I0J-237500D01*
G01*
X191725770Y-48050246D01*
G75*
G02*
X191488270Y-48287746I-237500J0D01*
G01*
X190913270Y-48287746D01*
G75*
G02*
X190675770Y-48050246I0J237500D01*
G01*
G37*
D15*
X186995770Y-52384746D03*
X197155770Y-52384746D03*
D13*
X192075770Y-52384746D03*
%TD*%
%TO.C,MX68*%
G36*
G01*
X192425770Y-29001470D02*
X192425770Y-28526470D01*
G75*
G02*
X192663270Y-28288970I237500J0D01*
G01*
X193238270Y-28288970D01*
G75*
G02*
X193475770Y-28526470I0J-237500D01*
G01*
X193475770Y-29001470D01*
G75*
G02*
X193238270Y-29238970I-237500J0D01*
G01*
X192663270Y-29238970D01*
G75*
G02*
X192425770Y-29001470I0J237500D01*
G01*
G37*
G36*
G01*
X190675770Y-29001470D02*
X190675770Y-28526470D01*
G75*
G02*
X190913270Y-28288970I237500J0D01*
G01*
X191488270Y-28288970D01*
G75*
G02*
X191725770Y-28526470I0J-237500D01*
G01*
X191725770Y-29001470D01*
G75*
G02*
X191488270Y-29238970I-237500J0D01*
G01*
X190913270Y-29238970D01*
G75*
G02*
X190675770Y-29001470I0J237500D01*
G01*
G37*
D15*
X186995770Y-33335970D03*
X197155770Y-33335970D03*
D13*
X192075770Y-33335970D03*
%TD*%
%TO.C,MX67*%
G36*
G01*
X197187964Y-105196574D02*
X197187964Y-104721574D01*
G75*
G02*
X197425464Y-104484074I237500J0D01*
G01*
X198000464Y-104484074D01*
G75*
G02*
X198237964Y-104721574I0J-237500D01*
G01*
X198237964Y-105196574D01*
G75*
G02*
X198000464Y-105434074I-237500J0D01*
G01*
X197425464Y-105434074D01*
G75*
G02*
X197187964Y-105196574I0J237500D01*
G01*
G37*
G36*
G01*
X195437964Y-105196574D02*
X195437964Y-104721574D01*
G75*
G02*
X195675464Y-104484074I237500J0D01*
G01*
X196250464Y-104484074D01*
G75*
G02*
X196487964Y-104721574I0J-237500D01*
G01*
X196487964Y-105196574D01*
G75*
G02*
X196250464Y-105434074I-237500J0D01*
G01*
X195675464Y-105434074D01*
G75*
G02*
X195437964Y-105196574I0J237500D01*
G01*
G37*
D15*
X191757964Y-109531074D03*
X201917964Y-109531074D03*
D13*
X196837964Y-109531074D03*
%TD*%
%TO.C,MX66*%
G36*
G01*
X187663576Y-86147798D02*
X187663576Y-85672798D01*
G75*
G02*
X187901076Y-85435298I237500J0D01*
G01*
X188476076Y-85435298D01*
G75*
G02*
X188713576Y-85672798I0J-237500D01*
G01*
X188713576Y-86147798D01*
G75*
G02*
X188476076Y-86385298I-237500J0D01*
G01*
X187901076Y-86385298D01*
G75*
G02*
X187663576Y-86147798I0J237500D01*
G01*
G37*
G36*
G01*
X185913576Y-86147798D02*
X185913576Y-85672798D01*
G75*
G02*
X186151076Y-85435298I237500J0D01*
G01*
X186726076Y-85435298D01*
G75*
G02*
X186963576Y-85672798I0J-237500D01*
G01*
X186963576Y-86147798D01*
G75*
G02*
X186726076Y-86385298I-237500J0D01*
G01*
X186151076Y-86385298D01*
G75*
G02*
X185913576Y-86147798I0J237500D01*
G01*
G37*
D15*
X182233576Y-90482298D03*
X192393576Y-90482298D03*
D13*
X187313576Y-90482298D03*
%TD*%
%TO.C,MX65*%
G36*
G01*
X182901382Y-67099022D02*
X182901382Y-66624022D01*
G75*
G02*
X183138882Y-66386522I237500J0D01*
G01*
X183713882Y-66386522D01*
G75*
G02*
X183951382Y-66624022I0J-237500D01*
G01*
X183951382Y-67099022D01*
G75*
G02*
X183713882Y-67336522I-237500J0D01*
G01*
X183138882Y-67336522D01*
G75*
G02*
X182901382Y-67099022I0J237500D01*
G01*
G37*
G36*
G01*
X181151382Y-67099022D02*
X181151382Y-66624022D01*
G75*
G02*
X181388882Y-66386522I237500J0D01*
G01*
X181963882Y-66386522D01*
G75*
G02*
X182201382Y-66624022I0J-237500D01*
G01*
X182201382Y-67099022D01*
G75*
G02*
X181963882Y-67336522I-237500J0D01*
G01*
X181388882Y-67336522D01*
G75*
G02*
X181151382Y-67099022I0J237500D01*
G01*
G37*
D15*
X177471382Y-71433522D03*
X187631382Y-71433522D03*
D13*
X182551382Y-71433522D03*
%TD*%
%TO.C,MX64*%
G36*
G01*
X173376994Y-48050246D02*
X173376994Y-47575246D01*
G75*
G02*
X173614494Y-47337746I237500J0D01*
G01*
X174189494Y-47337746D01*
G75*
G02*
X174426994Y-47575246I0J-237500D01*
G01*
X174426994Y-48050246D01*
G75*
G02*
X174189494Y-48287746I-237500J0D01*
G01*
X173614494Y-48287746D01*
G75*
G02*
X173376994Y-48050246I0J237500D01*
G01*
G37*
G36*
G01*
X171626994Y-48050246D02*
X171626994Y-47575246D01*
G75*
G02*
X171864494Y-47337746I237500J0D01*
G01*
X172439494Y-47337746D01*
G75*
G02*
X172676994Y-47575246I0J-237500D01*
G01*
X172676994Y-48050246D01*
G75*
G02*
X172439494Y-48287746I-237500J0D01*
G01*
X171864494Y-48287746D01*
G75*
G02*
X171626994Y-48050246I0J237500D01*
G01*
G37*
D15*
X167946994Y-52384746D03*
X178106994Y-52384746D03*
D13*
X173026994Y-52384746D03*
%TD*%
%TO.C,MX63*%
G36*
G01*
X173376994Y-29001470D02*
X173376994Y-28526470D01*
G75*
G02*
X173614494Y-28288970I237500J0D01*
G01*
X174189494Y-28288970D01*
G75*
G02*
X174426994Y-28526470I0J-237500D01*
G01*
X174426994Y-29001470D01*
G75*
G02*
X174189494Y-29238970I-237500J0D01*
G01*
X173614494Y-29238970D01*
G75*
G02*
X173376994Y-29001470I0J237500D01*
G01*
G37*
G36*
G01*
X171626994Y-29001470D02*
X171626994Y-28526470D01*
G75*
G02*
X171864494Y-28288970I237500J0D01*
G01*
X172439494Y-28288970D01*
G75*
G02*
X172676994Y-28526470I0J-237500D01*
G01*
X172676994Y-29001470D01*
G75*
G02*
X172439494Y-29238970I-237500J0D01*
G01*
X171864494Y-29238970D01*
G75*
G02*
X171626994Y-29001470I0J237500D01*
G01*
G37*
D15*
X167946994Y-33335970D03*
X178106994Y-33335970D03*
D13*
X173026994Y-33335970D03*
%TD*%
%TO.C,MX62*%
X192076382Y-128579850D03*
D15*
X197156382Y-128579850D03*
X186996382Y-128579850D03*
D14*
X180138382Y-121594850D03*
X204014382Y-121594850D03*
D13*
X180138382Y-136834850D03*
X204014382Y-136834850D03*
G36*
G01*
X190676382Y-124245350D02*
X190676382Y-123770350D01*
G75*
G02*
X190913882Y-123532850I237500J0D01*
G01*
X191488882Y-123532850D01*
G75*
G02*
X191726382Y-123770350I0J-237500D01*
G01*
X191726382Y-124245350D01*
G75*
G02*
X191488882Y-124482850I-237500J0D01*
G01*
X190913882Y-124482850D01*
G75*
G02*
X190676382Y-124245350I0J237500D01*
G01*
G37*
G36*
G01*
X192426382Y-124245350D02*
X192426382Y-123770350D01*
G75*
G02*
X192663882Y-123532850I237500J0D01*
G01*
X193238882Y-123532850D01*
G75*
G02*
X193476382Y-123770350I0J-237500D01*
G01*
X193476382Y-124245350D01*
G75*
G02*
X193238882Y-124482850I-237500J0D01*
G01*
X192663882Y-124482850D01*
G75*
G02*
X192426382Y-124245350I0J237500D01*
G01*
G37*
%TD*%
%TO.C,MX61*%
G36*
G01*
X178139188Y-105196574D02*
X178139188Y-104721574D01*
G75*
G02*
X178376688Y-104484074I237500J0D01*
G01*
X178951688Y-104484074D01*
G75*
G02*
X179189188Y-104721574I0J-237500D01*
G01*
X179189188Y-105196574D01*
G75*
G02*
X178951688Y-105434074I-237500J0D01*
G01*
X178376688Y-105434074D01*
G75*
G02*
X178139188Y-105196574I0J237500D01*
G01*
G37*
G36*
G01*
X176389188Y-105196574D02*
X176389188Y-104721574D01*
G75*
G02*
X176626688Y-104484074I237500J0D01*
G01*
X177201688Y-104484074D01*
G75*
G02*
X177439188Y-104721574I0J-237500D01*
G01*
X177439188Y-105196574D01*
G75*
G02*
X177201688Y-105434074I-237500J0D01*
G01*
X176626688Y-105434074D01*
G75*
G02*
X176389188Y-105196574I0J237500D01*
G01*
G37*
D15*
X172709188Y-109531074D03*
X182869188Y-109531074D03*
D13*
X177789188Y-109531074D03*
%TD*%
%TO.C,MX60*%
G36*
G01*
X168614800Y-86147798D02*
X168614800Y-85672798D01*
G75*
G02*
X168852300Y-85435298I237500J0D01*
G01*
X169427300Y-85435298D01*
G75*
G02*
X169664800Y-85672798I0J-237500D01*
G01*
X169664800Y-86147798D01*
G75*
G02*
X169427300Y-86385298I-237500J0D01*
G01*
X168852300Y-86385298D01*
G75*
G02*
X168614800Y-86147798I0J237500D01*
G01*
G37*
G36*
G01*
X166864800Y-86147798D02*
X166864800Y-85672798D01*
G75*
G02*
X167102300Y-85435298I237500J0D01*
G01*
X167677300Y-85435298D01*
G75*
G02*
X167914800Y-85672798I0J-237500D01*
G01*
X167914800Y-86147798D01*
G75*
G02*
X167677300Y-86385298I-237500J0D01*
G01*
X167102300Y-86385298D01*
G75*
G02*
X166864800Y-86147798I0J237500D01*
G01*
G37*
D15*
X163184800Y-90482298D03*
X173344800Y-90482298D03*
D13*
X168264800Y-90482298D03*
%TD*%
%TO.C,MX59*%
G36*
G01*
X163852606Y-67099022D02*
X163852606Y-66624022D01*
G75*
G02*
X164090106Y-66386522I237500J0D01*
G01*
X164665106Y-66386522D01*
G75*
G02*
X164902606Y-66624022I0J-237500D01*
G01*
X164902606Y-67099022D01*
G75*
G02*
X164665106Y-67336522I-237500J0D01*
G01*
X164090106Y-67336522D01*
G75*
G02*
X163852606Y-67099022I0J237500D01*
G01*
G37*
G36*
G01*
X162102606Y-67099022D02*
X162102606Y-66624022D01*
G75*
G02*
X162340106Y-66386522I237500J0D01*
G01*
X162915106Y-66386522D01*
G75*
G02*
X163152606Y-66624022I0J-237500D01*
G01*
X163152606Y-67099022D01*
G75*
G02*
X162915106Y-67336522I-237500J0D01*
G01*
X162340106Y-67336522D01*
G75*
G02*
X162102606Y-67099022I0J237500D01*
G01*
G37*
D15*
X158422606Y-71433522D03*
X168582606Y-71433522D03*
D13*
X163502606Y-71433522D03*
%TD*%
%TO.C,MX58*%
G36*
G01*
X154328218Y-48050246D02*
X154328218Y-47575246D01*
G75*
G02*
X154565718Y-47337746I237500J0D01*
G01*
X155140718Y-47337746D01*
G75*
G02*
X155378218Y-47575246I0J-237500D01*
G01*
X155378218Y-48050246D01*
G75*
G02*
X155140718Y-48287746I-237500J0D01*
G01*
X154565718Y-48287746D01*
G75*
G02*
X154328218Y-48050246I0J237500D01*
G01*
G37*
G36*
G01*
X152578218Y-48050246D02*
X152578218Y-47575246D01*
G75*
G02*
X152815718Y-47337746I237500J0D01*
G01*
X153390718Y-47337746D01*
G75*
G02*
X153628218Y-47575246I0J-237500D01*
G01*
X153628218Y-48050246D01*
G75*
G02*
X153390718Y-48287746I-237500J0D01*
G01*
X152815718Y-48287746D01*
G75*
G02*
X152578218Y-48050246I0J237500D01*
G01*
G37*
D15*
X148898218Y-52384746D03*
X159058218Y-52384746D03*
D13*
X153978218Y-52384746D03*
%TD*%
%TO.C,MX57*%
G36*
G01*
X154328218Y-29001470D02*
X154328218Y-28526470D01*
G75*
G02*
X154565718Y-28288970I237500J0D01*
G01*
X155140718Y-28288970D01*
G75*
G02*
X155378218Y-28526470I0J-237500D01*
G01*
X155378218Y-29001470D01*
G75*
G02*
X155140718Y-29238970I-237500J0D01*
G01*
X154565718Y-29238970D01*
G75*
G02*
X154328218Y-29001470I0J237500D01*
G01*
G37*
G36*
G01*
X152578218Y-29001470D02*
X152578218Y-28526470D01*
G75*
G02*
X152815718Y-28288970I237500J0D01*
G01*
X153390718Y-28288970D01*
G75*
G02*
X153628218Y-28526470I0J-237500D01*
G01*
X153628218Y-29001470D01*
G75*
G02*
X153390718Y-29238970I-237500J0D01*
G01*
X152815718Y-29238970D01*
G75*
G02*
X152578218Y-29001470I0J237500D01*
G01*
G37*
D15*
X148898218Y-33335970D03*
X159058218Y-33335970D03*
D13*
X153978218Y-33335970D03*
%TD*%
%TO.C,MX56*%
G36*
G01*
X163852606Y-124245350D02*
X163852606Y-123770350D01*
G75*
G02*
X164090106Y-123532850I237500J0D01*
G01*
X164665106Y-123532850D01*
G75*
G02*
X164902606Y-123770350I0J-237500D01*
G01*
X164902606Y-124245350D01*
G75*
G02*
X164665106Y-124482850I-237500J0D01*
G01*
X164090106Y-124482850D01*
G75*
G02*
X163852606Y-124245350I0J237500D01*
G01*
G37*
G36*
G01*
X162102606Y-124245350D02*
X162102606Y-123770350D01*
G75*
G02*
X162340106Y-123532850I237500J0D01*
G01*
X162915106Y-123532850D01*
G75*
G02*
X163152606Y-123770350I0J-237500D01*
G01*
X163152606Y-124245350D01*
G75*
G02*
X162915106Y-124482850I-237500J0D01*
G01*
X162340106Y-124482850D01*
G75*
G02*
X162102606Y-124245350I0J237500D01*
G01*
G37*
D15*
X158422606Y-128579850D03*
X168582606Y-128579850D03*
D13*
X163502606Y-128579850D03*
%TD*%
%TO.C,MX55*%
G36*
G01*
X159090412Y-105196574D02*
X159090412Y-104721574D01*
G75*
G02*
X159327912Y-104484074I237500J0D01*
G01*
X159902912Y-104484074D01*
G75*
G02*
X160140412Y-104721574I0J-237500D01*
G01*
X160140412Y-105196574D01*
G75*
G02*
X159902912Y-105434074I-237500J0D01*
G01*
X159327912Y-105434074D01*
G75*
G02*
X159090412Y-105196574I0J237500D01*
G01*
G37*
G36*
G01*
X157340412Y-105196574D02*
X157340412Y-104721574D01*
G75*
G02*
X157577912Y-104484074I237500J0D01*
G01*
X158152912Y-104484074D01*
G75*
G02*
X158390412Y-104721574I0J-237500D01*
G01*
X158390412Y-105196574D01*
G75*
G02*
X158152912Y-105434074I-237500J0D01*
G01*
X157577912Y-105434074D01*
G75*
G02*
X157340412Y-105196574I0J237500D01*
G01*
G37*
D15*
X153660412Y-109531074D03*
X163820412Y-109531074D03*
D13*
X158740412Y-109531074D03*
%TD*%
%TO.C,MX54*%
G36*
G01*
X149566024Y-86147798D02*
X149566024Y-85672798D01*
G75*
G02*
X149803524Y-85435298I237500J0D01*
G01*
X150378524Y-85435298D01*
G75*
G02*
X150616024Y-85672798I0J-237500D01*
G01*
X150616024Y-86147798D01*
G75*
G02*
X150378524Y-86385298I-237500J0D01*
G01*
X149803524Y-86385298D01*
G75*
G02*
X149566024Y-86147798I0J237500D01*
G01*
G37*
G36*
G01*
X147816024Y-86147798D02*
X147816024Y-85672798D01*
G75*
G02*
X148053524Y-85435298I237500J0D01*
G01*
X148628524Y-85435298D01*
G75*
G02*
X148866024Y-85672798I0J-237500D01*
G01*
X148866024Y-86147798D01*
G75*
G02*
X148628524Y-86385298I-237500J0D01*
G01*
X148053524Y-86385298D01*
G75*
G02*
X147816024Y-86147798I0J237500D01*
G01*
G37*
D15*
X144136024Y-90482298D03*
X154296024Y-90482298D03*
D13*
X149216024Y-90482298D03*
%TD*%
%TO.C,MX53*%
G36*
G01*
X144803830Y-67099022D02*
X144803830Y-66624022D01*
G75*
G02*
X145041330Y-66386522I237500J0D01*
G01*
X145616330Y-66386522D01*
G75*
G02*
X145853830Y-66624022I0J-237500D01*
G01*
X145853830Y-67099022D01*
G75*
G02*
X145616330Y-67336522I-237500J0D01*
G01*
X145041330Y-67336522D01*
G75*
G02*
X144803830Y-67099022I0J237500D01*
G01*
G37*
G36*
G01*
X143053830Y-67099022D02*
X143053830Y-66624022D01*
G75*
G02*
X143291330Y-66386522I237500J0D01*
G01*
X143866330Y-66386522D01*
G75*
G02*
X144103830Y-66624022I0J-237500D01*
G01*
X144103830Y-67099022D01*
G75*
G02*
X143866330Y-67336522I-237500J0D01*
G01*
X143291330Y-67336522D01*
G75*
G02*
X143053830Y-67099022I0J237500D01*
G01*
G37*
D15*
X139373830Y-71433522D03*
X149533830Y-71433522D03*
D13*
X144453830Y-71433522D03*
%TD*%
%TO.C,MX52*%
G36*
G01*
X135279442Y-48050246D02*
X135279442Y-47575246D01*
G75*
G02*
X135516942Y-47337746I237500J0D01*
G01*
X136091942Y-47337746D01*
G75*
G02*
X136329442Y-47575246I0J-237500D01*
G01*
X136329442Y-48050246D01*
G75*
G02*
X136091942Y-48287746I-237500J0D01*
G01*
X135516942Y-48287746D01*
G75*
G02*
X135279442Y-48050246I0J237500D01*
G01*
G37*
G36*
G01*
X133529442Y-48050246D02*
X133529442Y-47575246D01*
G75*
G02*
X133766942Y-47337746I237500J0D01*
G01*
X134341942Y-47337746D01*
G75*
G02*
X134579442Y-47575246I0J-237500D01*
G01*
X134579442Y-48050246D01*
G75*
G02*
X134341942Y-48287746I-237500J0D01*
G01*
X133766942Y-48287746D01*
G75*
G02*
X133529442Y-48050246I0J237500D01*
G01*
G37*
D15*
X129849442Y-52384746D03*
X140009442Y-52384746D03*
D13*
X134929442Y-52384746D03*
%TD*%
%TO.C,MX51*%
G36*
G01*
X135279442Y-29001470D02*
X135279442Y-28526470D01*
G75*
G02*
X135516942Y-28288970I237500J0D01*
G01*
X136091942Y-28288970D01*
G75*
G02*
X136329442Y-28526470I0J-237500D01*
G01*
X136329442Y-29001470D01*
G75*
G02*
X136091942Y-29238970I-237500J0D01*
G01*
X135516942Y-29238970D01*
G75*
G02*
X135279442Y-29001470I0J237500D01*
G01*
G37*
G36*
G01*
X133529442Y-29001470D02*
X133529442Y-28526470D01*
G75*
G02*
X133766942Y-28288970I237500J0D01*
G01*
X134341942Y-28288970D01*
G75*
G02*
X134579442Y-28526470I0J-237500D01*
G01*
X134579442Y-29001470D01*
G75*
G02*
X134341942Y-29238970I-237500J0D01*
G01*
X133766942Y-29238970D01*
G75*
G02*
X133529442Y-29001470I0J237500D01*
G01*
G37*
D15*
X129849442Y-33335970D03*
X140009442Y-33335970D03*
D13*
X134929442Y-33335970D03*
%TD*%
%TO.C,MX50*%
G36*
G01*
X140041636Y-105196574D02*
X140041636Y-104721574D01*
G75*
G02*
X140279136Y-104484074I237500J0D01*
G01*
X140854136Y-104484074D01*
G75*
G02*
X141091636Y-104721574I0J-237500D01*
G01*
X141091636Y-105196574D01*
G75*
G02*
X140854136Y-105434074I-237500J0D01*
G01*
X140279136Y-105434074D01*
G75*
G02*
X140041636Y-105196574I0J237500D01*
G01*
G37*
G36*
G01*
X138291636Y-105196574D02*
X138291636Y-104721574D01*
G75*
G02*
X138529136Y-104484074I237500J0D01*
G01*
X139104136Y-104484074D01*
G75*
G02*
X139341636Y-104721574I0J-237500D01*
G01*
X139341636Y-105196574D01*
G75*
G02*
X139104136Y-105434074I-237500J0D01*
G01*
X138529136Y-105434074D01*
G75*
G02*
X138291636Y-105196574I0J237500D01*
G01*
G37*
D15*
X134611636Y-109531074D03*
X144771636Y-109531074D03*
D13*
X139691636Y-109531074D03*
%TD*%
%TO.C,MX49*%
G36*
G01*
X130517248Y-86147798D02*
X130517248Y-85672798D01*
G75*
G02*
X130754748Y-85435298I237500J0D01*
G01*
X131329748Y-85435298D01*
G75*
G02*
X131567248Y-85672798I0J-237500D01*
G01*
X131567248Y-86147798D01*
G75*
G02*
X131329748Y-86385298I-237500J0D01*
G01*
X130754748Y-86385298D01*
G75*
G02*
X130517248Y-86147798I0J237500D01*
G01*
G37*
G36*
G01*
X128767248Y-86147798D02*
X128767248Y-85672798D01*
G75*
G02*
X129004748Y-85435298I237500J0D01*
G01*
X129579748Y-85435298D01*
G75*
G02*
X129817248Y-85672798I0J-237500D01*
G01*
X129817248Y-86147798D01*
G75*
G02*
X129579748Y-86385298I-237500J0D01*
G01*
X129004748Y-86385298D01*
G75*
G02*
X128767248Y-86147798I0J237500D01*
G01*
G37*
D15*
X125087248Y-90482298D03*
X135247248Y-90482298D03*
D13*
X130167248Y-90482298D03*
%TD*%
%TO.C,MX48*%
G36*
G01*
X125755054Y-67099022D02*
X125755054Y-66624022D01*
G75*
G02*
X125992554Y-66386522I237500J0D01*
G01*
X126567554Y-66386522D01*
G75*
G02*
X126805054Y-66624022I0J-237500D01*
G01*
X126805054Y-67099022D01*
G75*
G02*
X126567554Y-67336522I-237500J0D01*
G01*
X125992554Y-67336522D01*
G75*
G02*
X125755054Y-67099022I0J237500D01*
G01*
G37*
G36*
G01*
X124005054Y-67099022D02*
X124005054Y-66624022D01*
G75*
G02*
X124242554Y-66386522I237500J0D01*
G01*
X124817554Y-66386522D01*
G75*
G02*
X125055054Y-66624022I0J-237500D01*
G01*
X125055054Y-67099022D01*
G75*
G02*
X124817554Y-67336522I-237500J0D01*
G01*
X124242554Y-67336522D01*
G75*
G02*
X124005054Y-67099022I0J237500D01*
G01*
G37*
D15*
X120325054Y-71433522D03*
X130485054Y-71433522D03*
D13*
X125405054Y-71433522D03*
%TD*%
%TO.C,MX47*%
G36*
G01*
X116230666Y-48050246D02*
X116230666Y-47575246D01*
G75*
G02*
X116468166Y-47337746I237500J0D01*
G01*
X117043166Y-47337746D01*
G75*
G02*
X117280666Y-47575246I0J-237500D01*
G01*
X117280666Y-48050246D01*
G75*
G02*
X117043166Y-48287746I-237500J0D01*
G01*
X116468166Y-48287746D01*
G75*
G02*
X116230666Y-48050246I0J237500D01*
G01*
G37*
G36*
G01*
X114480666Y-48050246D02*
X114480666Y-47575246D01*
G75*
G02*
X114718166Y-47337746I237500J0D01*
G01*
X115293166Y-47337746D01*
G75*
G02*
X115530666Y-47575246I0J-237500D01*
G01*
X115530666Y-48050246D01*
G75*
G02*
X115293166Y-48287746I-237500J0D01*
G01*
X114718166Y-48287746D01*
G75*
G02*
X114480666Y-48050246I0J237500D01*
G01*
G37*
D15*
X110800666Y-52384746D03*
X120960666Y-52384746D03*
D13*
X115880666Y-52384746D03*
%TD*%
%TO.C,MX46*%
G36*
G01*
X116230666Y-29001470D02*
X116230666Y-28526470D01*
G75*
G02*
X116468166Y-28288970I237500J0D01*
G01*
X117043166Y-28288970D01*
G75*
G02*
X117280666Y-28526470I0J-237500D01*
G01*
X117280666Y-29001470D01*
G75*
G02*
X117043166Y-29238970I-237500J0D01*
G01*
X116468166Y-29238970D01*
G75*
G02*
X116230666Y-29001470I0J237500D01*
G01*
G37*
G36*
G01*
X114480666Y-29001470D02*
X114480666Y-28526470D01*
G75*
G02*
X114718166Y-28288970I237500J0D01*
G01*
X115293166Y-28288970D01*
G75*
G02*
X115530666Y-28526470I0J-237500D01*
G01*
X115530666Y-29001470D01*
G75*
G02*
X115293166Y-29238970I-237500J0D01*
G01*
X114718166Y-29238970D01*
G75*
G02*
X114480666Y-29001470I0J237500D01*
G01*
G37*
D15*
X110800666Y-33335970D03*
X120960666Y-33335970D03*
D13*
X115880666Y-33335970D03*
%TD*%
%TO.C,MX44*%
G36*
G01*
X120992860Y-105196574D02*
X120992860Y-104721574D01*
G75*
G02*
X121230360Y-104484074I237500J0D01*
G01*
X121805360Y-104484074D01*
G75*
G02*
X122042860Y-104721574I0J-237500D01*
G01*
X122042860Y-105196574D01*
G75*
G02*
X121805360Y-105434074I-237500J0D01*
G01*
X121230360Y-105434074D01*
G75*
G02*
X120992860Y-105196574I0J237500D01*
G01*
G37*
G36*
G01*
X119242860Y-105196574D02*
X119242860Y-104721574D01*
G75*
G02*
X119480360Y-104484074I237500J0D01*
G01*
X120055360Y-104484074D01*
G75*
G02*
X120292860Y-104721574I0J-237500D01*
G01*
X120292860Y-105196574D01*
G75*
G02*
X120055360Y-105434074I-237500J0D01*
G01*
X119480360Y-105434074D01*
G75*
G02*
X119242860Y-105196574I0J237500D01*
G01*
G37*
D15*
X115562860Y-109531074D03*
X125722860Y-109531074D03*
D13*
X120642860Y-109531074D03*
%TD*%
%TO.C,MX43*%
G36*
G01*
X111468472Y-86147798D02*
X111468472Y-85672798D01*
G75*
G02*
X111705972Y-85435298I237500J0D01*
G01*
X112280972Y-85435298D01*
G75*
G02*
X112518472Y-85672798I0J-237500D01*
G01*
X112518472Y-86147798D01*
G75*
G02*
X112280972Y-86385298I-237500J0D01*
G01*
X111705972Y-86385298D01*
G75*
G02*
X111468472Y-86147798I0J237500D01*
G01*
G37*
G36*
G01*
X109718472Y-86147798D02*
X109718472Y-85672798D01*
G75*
G02*
X109955972Y-85435298I237500J0D01*
G01*
X110530972Y-85435298D01*
G75*
G02*
X110768472Y-85672798I0J-237500D01*
G01*
X110768472Y-86147798D01*
G75*
G02*
X110530972Y-86385298I-237500J0D01*
G01*
X109955972Y-86385298D01*
G75*
G02*
X109718472Y-86147798I0J237500D01*
G01*
G37*
D15*
X106038472Y-90482298D03*
X116198472Y-90482298D03*
D13*
X111118472Y-90482298D03*
%TD*%
%TO.C,MX42*%
G36*
G01*
X106706278Y-67099022D02*
X106706278Y-66624022D01*
G75*
G02*
X106943778Y-66386522I237500J0D01*
G01*
X107518778Y-66386522D01*
G75*
G02*
X107756278Y-66624022I0J-237500D01*
G01*
X107756278Y-67099022D01*
G75*
G02*
X107518778Y-67336522I-237500J0D01*
G01*
X106943778Y-67336522D01*
G75*
G02*
X106706278Y-67099022I0J237500D01*
G01*
G37*
G36*
G01*
X104956278Y-67099022D02*
X104956278Y-66624022D01*
G75*
G02*
X105193778Y-66386522I237500J0D01*
G01*
X105768778Y-66386522D01*
G75*
G02*
X106006278Y-66624022I0J-237500D01*
G01*
X106006278Y-67099022D01*
G75*
G02*
X105768778Y-67336522I-237500J0D01*
G01*
X105193778Y-67336522D01*
G75*
G02*
X104956278Y-67099022I0J237500D01*
G01*
G37*
D15*
X101276278Y-71433522D03*
X111436278Y-71433522D03*
D13*
X106356278Y-71433522D03*
%TD*%
%TO.C,MX41*%
G36*
G01*
X97181890Y-48050246D02*
X97181890Y-47575246D01*
G75*
G02*
X97419390Y-47337746I237500J0D01*
G01*
X97994390Y-47337746D01*
G75*
G02*
X98231890Y-47575246I0J-237500D01*
G01*
X98231890Y-48050246D01*
G75*
G02*
X97994390Y-48287746I-237500J0D01*
G01*
X97419390Y-48287746D01*
G75*
G02*
X97181890Y-48050246I0J237500D01*
G01*
G37*
G36*
G01*
X95431890Y-48050246D02*
X95431890Y-47575246D01*
G75*
G02*
X95669390Y-47337746I237500J0D01*
G01*
X96244390Y-47337746D01*
G75*
G02*
X96481890Y-47575246I0J-237500D01*
G01*
X96481890Y-48050246D01*
G75*
G02*
X96244390Y-48287746I-237500J0D01*
G01*
X95669390Y-48287746D01*
G75*
G02*
X95431890Y-48050246I0J237500D01*
G01*
G37*
D15*
X91751890Y-52384746D03*
X101911890Y-52384746D03*
D13*
X96831890Y-52384746D03*
%TD*%
%TO.C,MX40*%
G36*
G01*
X97181890Y-29001470D02*
X97181890Y-28526470D01*
G75*
G02*
X97419390Y-28288970I237500J0D01*
G01*
X97994390Y-28288970D01*
G75*
G02*
X98231890Y-28526470I0J-237500D01*
G01*
X98231890Y-29001470D01*
G75*
G02*
X97994390Y-29238970I-237500J0D01*
G01*
X97419390Y-29238970D01*
G75*
G02*
X97181890Y-29001470I0J237500D01*
G01*
G37*
G36*
G01*
X95431890Y-29001470D02*
X95431890Y-28526470D01*
G75*
G02*
X95669390Y-28288970I237500J0D01*
G01*
X96244390Y-28288970D01*
G75*
G02*
X96481890Y-28526470I0J-237500D01*
G01*
X96481890Y-29001470D01*
G75*
G02*
X96244390Y-29238970I-237500J0D01*
G01*
X95669390Y-29238970D01*
G75*
G02*
X95431890Y-29001470I0J237500D01*
G01*
G37*
D15*
X91751890Y-33335970D03*
X101911890Y-33335970D03*
D13*
X96831890Y-33335970D03*
%TD*%
%TO.C,MX39*%
G36*
G01*
X90038752Y-124245350D02*
X90038752Y-123770350D01*
G75*
G02*
X90276252Y-123532850I237500J0D01*
G01*
X90851252Y-123532850D01*
G75*
G02*
X91088752Y-123770350I0J-237500D01*
G01*
X91088752Y-124245350D01*
G75*
G02*
X90851252Y-124482850I-237500J0D01*
G01*
X90276252Y-124482850D01*
G75*
G02*
X90038752Y-124245350I0J237500D01*
G01*
G37*
G36*
G01*
X88288752Y-124245350D02*
X88288752Y-123770350D01*
G75*
G02*
X88526252Y-123532850I237500J0D01*
G01*
X89101252Y-123532850D01*
G75*
G02*
X89338752Y-123770350I0J-237500D01*
G01*
X89338752Y-124245350D01*
G75*
G02*
X89101252Y-124482850I-237500J0D01*
G01*
X88526252Y-124482850D01*
G75*
G02*
X88288752Y-124245350I0J237500D01*
G01*
G37*
D15*
X84608752Y-128579850D03*
X94768752Y-128579850D03*
D13*
X89688752Y-128579850D03*
%TD*%
%TO.C,MX38*%
G36*
G01*
X101944084Y-105196574D02*
X101944084Y-104721574D01*
G75*
G02*
X102181584Y-104484074I237500J0D01*
G01*
X102756584Y-104484074D01*
G75*
G02*
X102994084Y-104721574I0J-237500D01*
G01*
X102994084Y-105196574D01*
G75*
G02*
X102756584Y-105434074I-237500J0D01*
G01*
X102181584Y-105434074D01*
G75*
G02*
X101944084Y-105196574I0J237500D01*
G01*
G37*
G36*
G01*
X100194084Y-105196574D02*
X100194084Y-104721574D01*
G75*
G02*
X100431584Y-104484074I237500J0D01*
G01*
X101006584Y-104484074D01*
G75*
G02*
X101244084Y-104721574I0J-237500D01*
G01*
X101244084Y-105196574D01*
G75*
G02*
X101006584Y-105434074I-237500J0D01*
G01*
X100431584Y-105434074D01*
G75*
G02*
X100194084Y-105196574I0J237500D01*
G01*
G37*
D15*
X96514084Y-109531074D03*
X106674084Y-109531074D03*
D13*
X101594084Y-109531074D03*
%TD*%
%TO.C,MX37*%
G36*
G01*
X92419696Y-86147798D02*
X92419696Y-85672798D01*
G75*
G02*
X92657196Y-85435298I237500J0D01*
G01*
X93232196Y-85435298D01*
G75*
G02*
X93469696Y-85672798I0J-237500D01*
G01*
X93469696Y-86147798D01*
G75*
G02*
X93232196Y-86385298I-237500J0D01*
G01*
X92657196Y-86385298D01*
G75*
G02*
X92419696Y-86147798I0J237500D01*
G01*
G37*
G36*
G01*
X90669696Y-86147798D02*
X90669696Y-85672798D01*
G75*
G02*
X90907196Y-85435298I237500J0D01*
G01*
X91482196Y-85435298D01*
G75*
G02*
X91719696Y-85672798I0J-237500D01*
G01*
X91719696Y-86147798D01*
G75*
G02*
X91482196Y-86385298I-237500J0D01*
G01*
X90907196Y-86385298D01*
G75*
G02*
X90669696Y-86147798I0J237500D01*
G01*
G37*
D15*
X86989696Y-90482298D03*
X97149696Y-90482298D03*
D13*
X92069696Y-90482298D03*
%TD*%
%TO.C,MX36*%
G36*
G01*
X87657502Y-67099022D02*
X87657502Y-66624022D01*
G75*
G02*
X87895002Y-66386522I237500J0D01*
G01*
X88470002Y-66386522D01*
G75*
G02*
X88707502Y-66624022I0J-237500D01*
G01*
X88707502Y-67099022D01*
G75*
G02*
X88470002Y-67336522I-237500J0D01*
G01*
X87895002Y-67336522D01*
G75*
G02*
X87657502Y-67099022I0J237500D01*
G01*
G37*
G36*
G01*
X85907502Y-67099022D02*
X85907502Y-66624022D01*
G75*
G02*
X86145002Y-66386522I237500J0D01*
G01*
X86720002Y-66386522D01*
G75*
G02*
X86957502Y-66624022I0J-237500D01*
G01*
X86957502Y-67099022D01*
G75*
G02*
X86720002Y-67336522I-237500J0D01*
G01*
X86145002Y-67336522D01*
G75*
G02*
X85907502Y-67099022I0J237500D01*
G01*
G37*
D15*
X82227502Y-71433522D03*
X92387502Y-71433522D03*
D13*
X87307502Y-71433522D03*
%TD*%
%TO.C,MX35*%
G36*
G01*
X78133114Y-48050246D02*
X78133114Y-47575246D01*
G75*
G02*
X78370614Y-47337746I237500J0D01*
G01*
X78945614Y-47337746D01*
G75*
G02*
X79183114Y-47575246I0J-237500D01*
G01*
X79183114Y-48050246D01*
G75*
G02*
X78945614Y-48287746I-237500J0D01*
G01*
X78370614Y-48287746D01*
G75*
G02*
X78133114Y-48050246I0J237500D01*
G01*
G37*
G36*
G01*
X76383114Y-48050246D02*
X76383114Y-47575246D01*
G75*
G02*
X76620614Y-47337746I237500J0D01*
G01*
X77195614Y-47337746D01*
G75*
G02*
X77433114Y-47575246I0J-237500D01*
G01*
X77433114Y-48050246D01*
G75*
G02*
X77195614Y-48287746I-237500J0D01*
G01*
X76620614Y-48287746D01*
G75*
G02*
X76383114Y-48050246I0J237500D01*
G01*
G37*
D15*
X72703114Y-52384746D03*
X82863114Y-52384746D03*
D13*
X77783114Y-52384746D03*
%TD*%
%TO.C,MX34*%
G36*
G01*
X78133114Y-29001470D02*
X78133114Y-28526470D01*
G75*
G02*
X78370614Y-28288970I237500J0D01*
G01*
X78945614Y-28288970D01*
G75*
G02*
X79183114Y-28526470I0J-237500D01*
G01*
X79183114Y-29001470D01*
G75*
G02*
X78945614Y-29238970I-237500J0D01*
G01*
X78370614Y-29238970D01*
G75*
G02*
X78133114Y-29001470I0J237500D01*
G01*
G37*
G36*
G01*
X76383114Y-29001470D02*
X76383114Y-28526470D01*
G75*
G02*
X76620614Y-28288970I237500J0D01*
G01*
X77195614Y-28288970D01*
G75*
G02*
X77433114Y-28526470I0J-237500D01*
G01*
X77433114Y-29001470D01*
G75*
G02*
X77195614Y-29238970I-237500J0D01*
G01*
X76620614Y-29238970D01*
G75*
G02*
X76383114Y-29001470I0J237500D01*
G01*
G37*
D15*
X72703114Y-33335970D03*
X82863114Y-33335970D03*
D13*
X77783114Y-33335970D03*
%TD*%
%TO.C,MX32*%
G36*
G01*
X82895308Y-105196574D02*
X82895308Y-104721574D01*
G75*
G02*
X83132808Y-104484074I237500J0D01*
G01*
X83707808Y-104484074D01*
G75*
G02*
X83945308Y-104721574I0J-237500D01*
G01*
X83945308Y-105196574D01*
G75*
G02*
X83707808Y-105434074I-237500J0D01*
G01*
X83132808Y-105434074D01*
G75*
G02*
X82895308Y-105196574I0J237500D01*
G01*
G37*
G36*
G01*
X81145308Y-105196574D02*
X81145308Y-104721574D01*
G75*
G02*
X81382808Y-104484074I237500J0D01*
G01*
X81957808Y-104484074D01*
G75*
G02*
X82195308Y-104721574I0J-237500D01*
G01*
X82195308Y-105196574D01*
G75*
G02*
X81957808Y-105434074I-237500J0D01*
G01*
X81382808Y-105434074D01*
G75*
G02*
X81145308Y-105196574I0J237500D01*
G01*
G37*
D15*
X77465308Y-109531074D03*
X87625308Y-109531074D03*
D13*
X82545308Y-109531074D03*
%TD*%
%TO.C,MX31*%
G36*
G01*
X73370920Y-86147798D02*
X73370920Y-85672798D01*
G75*
G02*
X73608420Y-85435298I237500J0D01*
G01*
X74183420Y-85435298D01*
G75*
G02*
X74420920Y-85672798I0J-237500D01*
G01*
X74420920Y-86147798D01*
G75*
G02*
X74183420Y-86385298I-237500J0D01*
G01*
X73608420Y-86385298D01*
G75*
G02*
X73370920Y-86147798I0J237500D01*
G01*
G37*
G36*
G01*
X71620920Y-86147798D02*
X71620920Y-85672798D01*
G75*
G02*
X71858420Y-85435298I237500J0D01*
G01*
X72433420Y-85435298D01*
G75*
G02*
X72670920Y-85672798I0J-237500D01*
G01*
X72670920Y-86147798D01*
G75*
G02*
X72433420Y-86385298I-237500J0D01*
G01*
X71858420Y-86385298D01*
G75*
G02*
X71620920Y-86147798I0J237500D01*
G01*
G37*
D15*
X67940920Y-90482298D03*
X78100920Y-90482298D03*
D13*
X73020920Y-90482298D03*
%TD*%
%TO.C,MX30*%
G36*
G01*
X68608726Y-67099022D02*
X68608726Y-66624022D01*
G75*
G02*
X68846226Y-66386522I237500J0D01*
G01*
X69421226Y-66386522D01*
G75*
G02*
X69658726Y-66624022I0J-237500D01*
G01*
X69658726Y-67099022D01*
G75*
G02*
X69421226Y-67336522I-237500J0D01*
G01*
X68846226Y-67336522D01*
G75*
G02*
X68608726Y-67099022I0J237500D01*
G01*
G37*
G36*
G01*
X66858726Y-67099022D02*
X66858726Y-66624022D01*
G75*
G02*
X67096226Y-66386522I237500J0D01*
G01*
X67671226Y-66386522D01*
G75*
G02*
X67908726Y-66624022I0J-237500D01*
G01*
X67908726Y-67099022D01*
G75*
G02*
X67671226Y-67336522I-237500J0D01*
G01*
X67096226Y-67336522D01*
G75*
G02*
X66858726Y-67099022I0J237500D01*
G01*
G37*
D15*
X63178726Y-71433522D03*
X73338726Y-71433522D03*
D13*
X68258726Y-71433522D03*
%TD*%
%TO.C,MX29*%
G36*
G01*
X59084338Y-48050246D02*
X59084338Y-47575246D01*
G75*
G02*
X59321838Y-47337746I237500J0D01*
G01*
X59896838Y-47337746D01*
G75*
G02*
X60134338Y-47575246I0J-237500D01*
G01*
X60134338Y-48050246D01*
G75*
G02*
X59896838Y-48287746I-237500J0D01*
G01*
X59321838Y-48287746D01*
G75*
G02*
X59084338Y-48050246I0J237500D01*
G01*
G37*
G36*
G01*
X57334338Y-48050246D02*
X57334338Y-47575246D01*
G75*
G02*
X57571838Y-47337746I237500J0D01*
G01*
X58146838Y-47337746D01*
G75*
G02*
X58384338Y-47575246I0J-237500D01*
G01*
X58384338Y-48050246D01*
G75*
G02*
X58146838Y-48287746I-237500J0D01*
G01*
X57571838Y-48287746D01*
G75*
G02*
X57334338Y-48050246I0J237500D01*
G01*
G37*
D15*
X53654338Y-52384746D03*
X63814338Y-52384746D03*
D13*
X58734338Y-52384746D03*
%TD*%
%TO.C,MX28*%
G36*
G01*
X59084338Y-29001470D02*
X59084338Y-28526470D01*
G75*
G02*
X59321838Y-28288970I237500J0D01*
G01*
X59896838Y-28288970D01*
G75*
G02*
X60134338Y-28526470I0J-237500D01*
G01*
X60134338Y-29001470D01*
G75*
G02*
X59896838Y-29238970I-237500J0D01*
G01*
X59321838Y-29238970D01*
G75*
G02*
X59084338Y-29001470I0J237500D01*
G01*
G37*
G36*
G01*
X57334338Y-29001470D02*
X57334338Y-28526470D01*
G75*
G02*
X57571838Y-28288970I237500J0D01*
G01*
X58146838Y-28288970D01*
G75*
G02*
X58384338Y-28526470I0J-237500D01*
G01*
X58384338Y-29001470D01*
G75*
G02*
X58146838Y-29238970I-237500J0D01*
G01*
X57571838Y-29238970D01*
G75*
G02*
X57334338Y-29001470I0J237500D01*
G01*
G37*
D15*
X53654338Y-33335970D03*
X63814338Y-33335970D03*
D13*
X58734338Y-33335970D03*
%TD*%
%TO.C,MX27*%
G36*
G01*
X42416812Y-124245350D02*
X42416812Y-123770350D01*
G75*
G02*
X42654312Y-123532850I237500J0D01*
G01*
X43229312Y-123532850D01*
G75*
G02*
X43466812Y-123770350I0J-237500D01*
G01*
X43466812Y-124245350D01*
G75*
G02*
X43229312Y-124482850I-237500J0D01*
G01*
X42654312Y-124482850D01*
G75*
G02*
X42416812Y-124245350I0J237500D01*
G01*
G37*
G36*
G01*
X40666812Y-124245350D02*
X40666812Y-123770350D01*
G75*
G02*
X40904312Y-123532850I237500J0D01*
G01*
X41479312Y-123532850D01*
G75*
G02*
X41716812Y-123770350I0J-237500D01*
G01*
X41716812Y-124245350D01*
G75*
G02*
X41479312Y-124482850I-237500J0D01*
G01*
X40904312Y-124482850D01*
G75*
G02*
X40666812Y-124245350I0J237500D01*
G01*
G37*
D15*
X36986812Y-128579850D03*
X47146812Y-128579850D03*
D13*
X42066812Y-128579850D03*
%TD*%
%TO.C,MX26*%
G36*
G01*
X51941812Y-105196574D02*
X51941812Y-104721574D01*
G75*
G02*
X52179312Y-104484074I237500J0D01*
G01*
X52754312Y-104484074D01*
G75*
G02*
X52991812Y-104721574I0J-237500D01*
G01*
X52991812Y-105196574D01*
G75*
G02*
X52754312Y-105434074I-237500J0D01*
G01*
X52179312Y-105434074D01*
G75*
G02*
X51941812Y-105196574I0J237500D01*
G01*
G37*
G36*
G01*
X50191812Y-105196574D02*
X50191812Y-104721574D01*
G75*
G02*
X50429312Y-104484074I237500J0D01*
G01*
X51004312Y-104484074D01*
G75*
G02*
X51241812Y-104721574I0J-237500D01*
G01*
X51241812Y-105196574D01*
G75*
G02*
X51004312Y-105434074I-237500J0D01*
G01*
X50429312Y-105434074D01*
G75*
G02*
X50191812Y-105196574I0J237500D01*
G01*
G37*
X63529812Y-117786074D03*
X39653812Y-117786074D03*
D14*
X63529812Y-102546074D03*
X39653812Y-102546074D03*
D15*
X46511812Y-109531074D03*
X56671812Y-109531074D03*
D13*
X51591812Y-109531074D03*
%TD*%
%TO.C,MX25*%
G36*
G01*
X47179312Y-86147798D02*
X47179312Y-85672798D01*
G75*
G02*
X47416812Y-85435298I237500J0D01*
G01*
X47991812Y-85435298D01*
G75*
G02*
X48229312Y-85672798I0J-237500D01*
G01*
X48229312Y-86147798D01*
G75*
G02*
X47991812Y-86385298I-237500J0D01*
G01*
X47416812Y-86385298D01*
G75*
G02*
X47179312Y-86147798I0J237500D01*
G01*
G37*
G36*
G01*
X45429312Y-86147798D02*
X45429312Y-85672798D01*
G75*
G02*
X45666812Y-85435298I237500J0D01*
G01*
X46241812Y-85435298D01*
G75*
G02*
X46479312Y-85672798I0J-237500D01*
G01*
X46479312Y-86147798D01*
G75*
G02*
X46241812Y-86385298I-237500J0D01*
G01*
X45666812Y-86385298D01*
G75*
G02*
X45429312Y-86147798I0J237500D01*
G01*
G37*
D15*
X41749312Y-90482298D03*
X51909312Y-90482298D03*
D13*
X46829312Y-90482298D03*
%TD*%
%TO.C,MX24*%
G36*
G01*
X43048062Y-67099022D02*
X43048062Y-66624022D01*
G75*
G02*
X43285562Y-66386522I237500J0D01*
G01*
X43860562Y-66386522D01*
G75*
G02*
X44098062Y-66624022I0J-237500D01*
G01*
X44098062Y-67099022D01*
G75*
G02*
X43860562Y-67336522I-237500J0D01*
G01*
X43285562Y-67336522D01*
G75*
G02*
X43048062Y-67099022I0J237500D01*
G01*
G37*
G36*
G01*
X44798062Y-67099022D02*
X44798062Y-66624022D01*
G75*
G02*
X45035562Y-66386522I237500J0D01*
G01*
X45610562Y-66386522D01*
G75*
G02*
X45848062Y-66624022I0J-237500D01*
G01*
X45848062Y-67099022D01*
G75*
G02*
X45610562Y-67336522I-237500J0D01*
G01*
X45035562Y-67336522D01*
G75*
G02*
X44798062Y-67099022I0J237500D01*
G01*
G37*
D15*
X39368062Y-71433522D03*
X49528062Y-71433522D03*
D13*
X44448062Y-71433522D03*
%TD*%
%TO.C,MX23*%
G36*
G01*
X40035562Y-48050246D02*
X40035562Y-47575246D01*
G75*
G02*
X40273062Y-47337746I237500J0D01*
G01*
X40848062Y-47337746D01*
G75*
G02*
X41085562Y-47575246I0J-237500D01*
G01*
X41085562Y-48050246D01*
G75*
G02*
X40848062Y-48287746I-237500J0D01*
G01*
X40273062Y-48287746D01*
G75*
G02*
X40035562Y-48050246I0J237500D01*
G01*
G37*
G36*
G01*
X38285562Y-48050246D02*
X38285562Y-47575246D01*
G75*
G02*
X38523062Y-47337746I237500J0D01*
G01*
X39098062Y-47337746D01*
G75*
G02*
X39335562Y-47575246I0J-237500D01*
G01*
X39335562Y-48050246D01*
G75*
G02*
X39098062Y-48287746I-237500J0D01*
G01*
X38523062Y-48287746D01*
G75*
G02*
X38285562Y-48050246I0J237500D01*
G01*
G37*
D15*
X34605562Y-52384746D03*
X44765562Y-52384746D03*
D13*
X39685562Y-52384746D03*
%TD*%
%TO.C,MX22*%
G36*
G01*
X40035562Y-29001470D02*
X40035562Y-28526470D01*
G75*
G02*
X40273062Y-28288970I237500J0D01*
G01*
X40848062Y-28288970D01*
G75*
G02*
X41085562Y-28526470I0J-237500D01*
G01*
X41085562Y-29001470D01*
G75*
G02*
X40848062Y-29238970I-237500J0D01*
G01*
X40273062Y-29238970D01*
G75*
G02*
X40035562Y-29001470I0J237500D01*
G01*
G37*
G36*
G01*
X38285562Y-29001470D02*
X38285562Y-28526470D01*
G75*
G02*
X38523062Y-28288970I237500J0D01*
G01*
X39098062Y-28288970D01*
G75*
G02*
X39335562Y-28526470I0J-237500D01*
G01*
X39335562Y-29001470D01*
G75*
G02*
X39098062Y-29238970I-237500J0D01*
G01*
X38523062Y-29238970D01*
G75*
G02*
X38285562Y-29001470I0J237500D01*
G01*
G37*
D15*
X34605562Y-33335970D03*
X44765562Y-33335970D03*
D13*
X39685562Y-33335970D03*
%TD*%
M02*
